%TF.GenerationSoftware,KiCad,Pcbnew,9.0.7*%
%TF.CreationDate,2026-01-14T18:58:22+00:00*%
%TF.ProjectId,reg,7265672e-6b69-4636-9164-5f7063625858,rev?*%
%TF.SameCoordinates,Original*%
%TF.FileFunction,Copper,L1,Top*%
%TF.FilePolarity,Positive*%
%FSLAX46Y46*%
G04 Gerber Fmt 4.6, Leading zero omitted, Abs format (unit mm)*
G04 Created by KiCad (PCBNEW 9.0.7) date 2026-01-14 18:58:22*
%MOMM*%
%LPD*%
G01*
G04 APERTURE LIST*
%TA.AperFunction,ComponentPad*%
%ADD10C,1.700000*%
%TD*%
%TA.AperFunction,ComponentPad*%
%ADD11R,1.700000X1.700000*%
%TD*%
%TA.AperFunction,ComponentPad*%
%ADD12C,1.600000*%
%TD*%
%TA.AperFunction,ComponentPad*%
%ADD13O,1.050000X1.500000*%
%TD*%
%TA.AperFunction,ComponentPad*%
%ADD14R,1.050000X1.500000*%
%TD*%
%TA.AperFunction,ViaPad*%
%ADD15C,0.600000*%
%TD*%
%TA.AperFunction,Conductor*%
%ADD16C,0.200000*%
%TD*%
G04 APERTURE END LIST*
D10*
%TO.P,DATA_OUT,4,Pin_4*%
%TO.N,/DFlipFlop3/Q*%
X43380000Y-93000000D03*
%TO.P,DATA_OUT,3,Pin_3*%
%TO.N,/DFlipFlop2/Q*%
X45920000Y-93000000D03*
%TO.P,DATA_OUT,2,Pin_2*%
%TO.N,/DFlipFlop1/Q*%
X48460000Y-93000000D03*
D11*
%TO.P,DATA_OUT,1,Pin_1*%
%TO.N,/DFlipFlop/Q*%
X51000000Y-93000000D03*
%TD*%
D12*
%TO.P,R510,2*%
%TO.N,/DFlipFlop3/Q*%
X88040000Y-64000000D03*
%TO.P,R510,1*%
%TO.N,+5V*%
X77880000Y-64000000D03*
%TD*%
D13*
%TO.P,Q507,3,C*%
%TO.N,Net-(Q507-C)*%
X90770000Y-59000000D03*
%TO.P,Q507,2,B*%
%TO.N,Net-(Q507-B)*%
X92040000Y-59000000D03*
D14*
%TO.P,Q507,1,E*%
%TO.N,Net-(Q507-E)*%
X93310000Y-59000000D03*
%TD*%
D13*
%TO.P,Q506,3,C*%
%TO.N,Net-(Q505-E)*%
X96500000Y-65500000D03*
%TO.P,Q506,2,B*%
%TO.N,Net-(Q506-B)*%
X97770000Y-65500000D03*
D14*
%TO.P,Q506,1,E*%
%TO.N,GND*%
X99040000Y-65500000D03*
%TD*%
D12*
%TO.P,R504,2*%
%TO.N,Net-(Q502-B)*%
X75040000Y-68950000D03*
%TO.P,R504,1*%
%TO.N,/DFlipFlop3/D*%
X64880000Y-68950000D03*
%TD*%
%TO.P,R503,2*%
%TO.N,Net-(Q504-B)*%
X75120000Y-59000000D03*
%TO.P,R503,1*%
%TO.N,Net-(Q501-C)*%
X64960000Y-59000000D03*
%TD*%
%TO.P,R509,2*%
%TO.N,Net-(Q506-B)*%
X106540000Y-78000000D03*
%TO.P,R509,1*%
%TO.N,Net-(Q507-C)*%
X96380000Y-78000000D03*
%TD*%
%TO.P,R508,2*%
%TO.N,Net-(Q505-B)*%
X107540000Y-66580000D03*
%TO.P,R508,1*%
%TO.N,Net-(Q502-C)*%
X107540000Y-56420000D03*
%TD*%
%TO.P,R513,2*%
%TO.N,Net-(Q507-C)*%
X88040000Y-59000000D03*
%TO.P,R513,1*%
%TO.N,+5V*%
X77880000Y-59000000D03*
%TD*%
%TO.P,R501,2*%
%TO.N,Net-(Q501-C)*%
X88120000Y-79000000D03*
%TO.P,R501,1*%
%TO.N,+5V*%
X77960000Y-79000000D03*
%TD*%
%TO.P,R512,2*%
%TO.N,Net-(Q508-B)*%
X106540000Y-82500000D03*
%TO.P,R512,1*%
%TO.N,/DFlipFlop3/Q*%
X96380000Y-82500000D03*
%TD*%
%TO.P,R506,2*%
%TO.N,Net-(Q502-C)*%
X88040000Y-74000000D03*
%TO.P,R506,1*%
%TO.N,+5V*%
X77880000Y-74000000D03*
%TD*%
%TO.P,R502,2*%
%TO.N,Net-(Q501-B)*%
X75120000Y-73950000D03*
%TO.P,R502,1*%
%TO.N,/DFlipFlop3/D*%
X64960000Y-73950000D03*
%TD*%
%TO.P,R511,2*%
%TO.N,Net-(Q507-B)*%
X102540000Y-56340000D03*
%TO.P,R511,1*%
%TO.N,Net-(Q504-C)*%
X102540000Y-66500000D03*
%TD*%
D13*
%TO.P,Q505,3,C*%
%TO.N,/DFlipFlop3/Q*%
X90770000Y-65500000D03*
%TO.P,Q505,2,B*%
%TO.N,Net-(Q505-B)*%
X92040000Y-65500000D03*
D14*
%TO.P,Q505,1,E*%
%TO.N,Net-(Q505-E)*%
X93310000Y-65500000D03*
%TD*%
D13*
%TO.P,Q508,3,C*%
%TO.N,Net-(Q507-E)*%
X96500000Y-59000000D03*
%TO.P,Q508,2,B*%
%TO.N,Net-(Q508-B)*%
X97770000Y-59000000D03*
D14*
%TO.P,Q508,1,E*%
%TO.N,GND*%
X99040000Y-59000000D03*
%TD*%
D13*
%TO.P,Q503,3,C*%
%TO.N,Net-(Q502-E)*%
X96270000Y-71640000D03*
%TO.P,Q503,2,B*%
%TO.N,Net-(Q503-B)*%
X97540000Y-71640000D03*
D14*
%TO.P,Q503,1,E*%
%TO.N,GND*%
X98810000Y-71640000D03*
%TD*%
D13*
%TO.P,Q502,3,C*%
%TO.N,Net-(Q502-C)*%
X101770000Y-71640000D03*
%TO.P,Q502,2,B*%
%TO.N,Net-(Q502-B)*%
X103040000Y-71640000D03*
D14*
%TO.P,Q502,1,E*%
%TO.N,Net-(Q502-E)*%
X104310000Y-71640000D03*
%TD*%
D12*
%TO.P,R505,2*%
%TO.N,Net-(Q503-B)*%
X75120000Y-63950000D03*
%TO.P,R505,1*%
%TO.N,WRITE_EN*%
X64960000Y-63950000D03*
%TD*%
D13*
%TO.P,Q504,3,C*%
%TO.N,Net-(Q504-C)*%
X90770000Y-71640000D03*
%TO.P,Q504,2,B*%
%TO.N,Net-(Q504-B)*%
X92040000Y-71640000D03*
D14*
%TO.P,Q504,1,E*%
%TO.N,Net-(Q502-E)*%
X93310000Y-71640000D03*
%TD*%
D13*
%TO.P,Q501,3,C*%
%TO.N,Net-(Q501-C)*%
X90770000Y-79500000D03*
%TO.P,Q501,2,B*%
%TO.N,Net-(Q501-B)*%
X92040000Y-79500000D03*
D14*
%TO.P,Q501,1,E*%
%TO.N,GND*%
X93310000Y-79500000D03*
%TD*%
D12*
%TO.P,R507,2*%
%TO.N,Net-(Q504-C)*%
X88040000Y-69000000D03*
%TO.P,R507,1*%
%TO.N,+5V*%
X77880000Y-69000000D03*
%TD*%
%TO.P,R304,1*%
%TO.N,/DFlipFlop1/D*%
X65420000Y-36450000D03*
%TO.P,R304,2*%
%TO.N,Net-(Q302-B)*%
X75580000Y-36450000D03*
%TD*%
%TO.P,R101,1*%
%TO.N,Net-(C101-Pad2)*%
X76000000Y-92920000D03*
%TO.P,R101,2*%
%TO.N,GND*%
X86160000Y-92920000D03*
%TD*%
%TO.P,R209,1*%
%TO.N,Net-(Q207-C)*%
X47920000Y-45500000D03*
%TO.P,R209,2*%
%TO.N,Net-(Q206-B)*%
X58080000Y-45500000D03*
%TD*%
%TO.P,R212,1*%
%TO.N,/DFlipFlop/Q*%
X47920000Y-50000000D03*
%TO.P,R212,2*%
%TO.N,Net-(Q208-B)*%
X58080000Y-50000000D03*
%TD*%
D14*
%TO.P,Q404,1,E*%
%TO.N,Net-(Q402-E)*%
X44992000Y-71485000D03*
D13*
%TO.P,Q404,2,B*%
%TO.N,Net-(Q404-B)*%
X43722000Y-71485000D03*
%TO.P,Q404,3,C*%
%TO.N,Net-(Q404-C)*%
X42452000Y-71485000D03*
%TD*%
D11*
%TO.P,CLK,1,Pin_1*%
%TO.N,Net-(J101-Pin_1)*%
X39000000Y-92920000D03*
%TD*%
D14*
%TO.P,Q206,1,E*%
%TO.N,GND*%
X50580000Y-33000000D03*
D13*
%TO.P,Q206,2,B*%
%TO.N,Net-(Q206-B)*%
X49310000Y-33000000D03*
%TO.P,Q206,3,C*%
%TO.N,Net-(Q205-E)*%
X48040000Y-33000000D03*
%TD*%
D12*
%TO.P,R208,1*%
%TO.N,Net-(Q202-C)*%
X59080000Y-23920000D03*
%TO.P,R208,2*%
%TO.N,Net-(Q205-B)*%
X59080000Y-34080000D03*
%TD*%
D14*
%TO.P,Q305,1,E*%
%TO.N,Net-(Q305-E)*%
X93850000Y-33000000D03*
D13*
%TO.P,Q305,2,B*%
%TO.N,Net-(Q305-B)*%
X92580000Y-33000000D03*
%TO.P,Q305,3,C*%
%TO.N,/DFlipFlop1/Q*%
X91310000Y-33000000D03*
%TD*%
D12*
%TO.P,R201,1*%
%TO.N,+5V*%
X29500000Y-46500000D03*
%TO.P,R201,2*%
%TO.N,Net-(Q201-C)*%
X39660000Y-46500000D03*
%TD*%
%TO.P,R102,1*%
%TO.N,Net-(C101-Pad2)*%
X112500000Y-59660000D03*
%TO.P,R102,2*%
%TO.N,Net-(Q101-B)*%
X112500000Y-49500000D03*
%TD*%
D11*
%TO.P,WR_EN,1,Pin_1*%
%TO.N,Net-(J102-Pin_1)*%
X34000000Y-92920000D03*
%TD*%
D12*
%TO.P,R307,1*%
%TO.N,+5V*%
X78420000Y-36500000D03*
%TO.P,R307,2*%
%TO.N,Net-(Q304-C)*%
X88580000Y-36500000D03*
%TD*%
%TO.P,R413,1*%
%TO.N,+5V*%
X29562000Y-58845000D03*
%TO.P,R413,2*%
%TO.N,Net-(Q407-C)*%
X39722000Y-58845000D03*
%TD*%
%TO.P,R412,1*%
%TO.N,/DFlipFlop2/Q*%
X48062000Y-82345000D03*
%TO.P,R412,2*%
%TO.N,Net-(Q408-B)*%
X58222000Y-82345000D03*
%TD*%
%TO.P,R411,1*%
%TO.N,Net-(Q404-C)*%
X54222000Y-66345000D03*
%TO.P,R411,2*%
%TO.N,Net-(Q407-B)*%
X54222000Y-56185000D03*
%TD*%
D14*
%TO.P,Q204,1,E*%
%TO.N,Net-(Q202-E)*%
X44850000Y-39140000D03*
D13*
%TO.P,Q204,2,B*%
%TO.N,Net-(Q204-B)*%
X43580000Y-39140000D03*
%TO.P,Q204,3,C*%
%TO.N,Net-(Q204-C)*%
X42310000Y-39140000D03*
%TD*%
D12*
%TO.P,R204,1*%
%TO.N,/DFlipFlop/D*%
X16420000Y-36450000D03*
%TO.P,R204,2*%
%TO.N,Net-(Q202-B)*%
X26580000Y-36450000D03*
%TD*%
%TO.P,R305,1*%
%TO.N,WRITE_EN*%
X65500000Y-31450000D03*
%TO.P,R305,2*%
%TO.N,Net-(Q303-B)*%
X75660000Y-31450000D03*
%TD*%
%TO.P,R313,1*%
%TO.N,+5V*%
X78420000Y-26500000D03*
%TO.P,R313,2*%
%TO.N,Net-(Q307-C)*%
X88580000Y-26500000D03*
%TD*%
D14*
%TO.P,Q101,1,E*%
%TO.N,Net-(Q101-E)*%
X102730000Y-92280000D03*
D13*
%TO.P,Q101,2,B*%
%TO.N,Net-(Q101-B)*%
X104000000Y-92280000D03*
%TO.P,Q101,3,C*%
%TO.N,Net-(Q101-C)*%
X105270000Y-92280000D03*
%TD*%
D12*
%TO.P,R213,1*%
%TO.N,+5V*%
X29420000Y-26500000D03*
%TO.P,R213,2*%
%TO.N,Net-(Q207-C)*%
X39580000Y-26500000D03*
%TD*%
%TO.P,R301,1*%
%TO.N,+5V*%
X78500000Y-46500000D03*
%TO.P,R301,2*%
%TO.N,Net-(Q301-C)*%
X88660000Y-46500000D03*
%TD*%
%TO.P,R207,1*%
%TO.N,+5V*%
X29420000Y-36500000D03*
%TO.P,R207,2*%
%TO.N,Net-(Q204-C)*%
X39580000Y-36500000D03*
%TD*%
D14*
%TO.P,Q408,1,E*%
%TO.N,GND*%
X50722000Y-58845000D03*
D13*
%TO.P,Q408,2,B*%
%TO.N,Net-(Q408-B)*%
X49452000Y-58845000D03*
%TO.P,Q408,3,C*%
%TO.N,Net-(Q407-E)*%
X48182000Y-58845000D03*
%TD*%
D14*
%TO.P,Q207,1,E*%
%TO.N,Net-(Q207-E)*%
X44850000Y-26500000D03*
D13*
%TO.P,Q207,2,B*%
%TO.N,Net-(Q207-B)*%
X43580000Y-26500000D03*
%TO.P,Q207,3,C*%
%TO.N,Net-(Q207-C)*%
X42310000Y-26500000D03*
%TD*%
D12*
%TO.P,C101,1*%
%TO.N,Net-(J101-Pin_1)*%
X67500000Y-92920000D03*
%TO.P,C101,2*%
%TO.N,Net-(C101-Pad2)*%
X72500000Y-92920000D03*
%TD*%
%TO.P,R406,1*%
%TO.N,+5V*%
X29562000Y-73845000D03*
%TO.P,R406,2*%
%TO.N,Net-(Q402-C)*%
X39722000Y-73845000D03*
%TD*%
D14*
%TO.P,Q205,1,E*%
%TO.N,Net-(Q205-E)*%
X44850000Y-33000000D03*
D13*
%TO.P,Q205,2,B*%
%TO.N,Net-(Q205-B)*%
X43580000Y-33000000D03*
%TO.P,Q205,3,C*%
%TO.N,/DFlipFlop/Q*%
X42310000Y-33000000D03*
%TD*%
D12*
%TO.P,R410,1*%
%TO.N,+5V*%
X29562000Y-63845000D03*
%TO.P,R410,2*%
%TO.N,/DFlipFlop2/Q*%
X39722000Y-63845000D03*
%TD*%
D14*
%TO.P,Q302,1,E*%
%TO.N,Net-(Q302-E)*%
X104850000Y-39140000D03*
D13*
%TO.P,Q302,2,B*%
%TO.N,Net-(Q302-B)*%
X103580000Y-39140000D03*
%TO.P,Q302,3,C*%
%TO.N,Net-(Q302-C)*%
X102310000Y-39140000D03*
%TD*%
D12*
%TO.P,R205,1*%
%TO.N,WRITE_EN*%
X16500000Y-31450000D03*
%TO.P,R205,2*%
%TO.N,Net-(Q203-B)*%
X26660000Y-31450000D03*
%TD*%
%TO.P,R409,1*%
%TO.N,Net-(Q407-C)*%
X48062000Y-77845000D03*
%TO.P,R409,2*%
%TO.N,Net-(Q406-B)*%
X58222000Y-77845000D03*
%TD*%
D14*
%TO.P,Q303,1,E*%
%TO.N,GND*%
X99350000Y-39140000D03*
D13*
%TO.P,Q303,2,B*%
%TO.N,Net-(Q303-B)*%
X98080000Y-39140000D03*
%TO.P,Q303,3,C*%
%TO.N,Net-(Q302-E)*%
X96810000Y-39140000D03*
%TD*%
D14*
%TO.P,Q103,1,E*%
%TO.N,GND*%
X89730000Y-92280000D03*
D13*
%TO.P,Q103,2,B*%
%TO.N,Net-(Q103-B)*%
X91000000Y-92280000D03*
%TO.P,Q103,3,C*%
%TO.N,WRITE_EN*%
X92270000Y-92280000D03*
%TD*%
D14*
%TO.P,Q401,1,E*%
%TO.N,GND*%
X44992000Y-79345000D03*
D13*
%TO.P,Q401,2,B*%
%TO.N,Net-(Q401-B)*%
X43722000Y-79345000D03*
%TO.P,Q401,3,C*%
%TO.N,Net-(Q401-C)*%
X42452000Y-79345000D03*
%TD*%
D12*
%TO.P,R308,1*%
%TO.N,Net-(Q302-C)*%
X108080000Y-23920000D03*
%TO.P,R308,2*%
%TO.N,Net-(Q305-B)*%
X108080000Y-34080000D03*
%TD*%
D14*
%TO.P,Q403,1,E*%
%TO.N,GND*%
X50492000Y-71485000D03*
D13*
%TO.P,Q403,2,B*%
%TO.N,Net-(Q403-B)*%
X49222000Y-71485000D03*
%TO.P,Q403,3,C*%
%TO.N,Net-(Q402-E)*%
X47952000Y-71485000D03*
%TD*%
D12*
%TO.P,R106,1*%
%TO.N,+5V*%
X65840000Y-87500000D03*
%TO.P,R106,2*%
%TO.N,WRITE_EN*%
X76000000Y-87500000D03*
%TD*%
%TO.P,R105,1*%
%TO.N,Net-(Q101-C)*%
X112500000Y-85160000D03*
%TO.P,R105,2*%
%TO.N,Net-(Q103-B)*%
X112500000Y-75000000D03*
%TD*%
D14*
%TO.P,Q203,1,E*%
%TO.N,GND*%
X50350000Y-39140000D03*
D13*
%TO.P,Q203,2,B*%
%TO.N,Net-(Q203-B)*%
X49080000Y-39140000D03*
%TO.P,Q203,3,C*%
%TO.N,Net-(Q202-E)*%
X47810000Y-39140000D03*
%TD*%
D12*
%TO.P,R309,1*%
%TO.N,Net-(Q307-C)*%
X96920000Y-45500000D03*
%TO.P,R309,2*%
%TO.N,Net-(Q306-B)*%
X107080000Y-45500000D03*
%TD*%
%TO.P,R302,1*%
%TO.N,/DFlipFlop1/D*%
X65500000Y-41450000D03*
%TO.P,R302,2*%
%TO.N,Net-(Q301-B)*%
X75660000Y-41450000D03*
%TD*%
%TO.P,R312,1*%
%TO.N,/DFlipFlop1/Q*%
X96920000Y-50000000D03*
%TO.P,R312,2*%
%TO.N,Net-(Q308-B)*%
X107080000Y-50000000D03*
%TD*%
D14*
%TO.P,Q307,1,E*%
%TO.N,Net-(Q307-E)*%
X93850000Y-26500000D03*
D13*
%TO.P,Q307,2,B*%
%TO.N,Net-(Q307-B)*%
X92580000Y-26500000D03*
%TO.P,Q307,3,C*%
%TO.N,Net-(Q307-C)*%
X91310000Y-26500000D03*
%TD*%
D12*
%TO.P,R404,1*%
%TO.N,/DFlipFlop2/D*%
X16562000Y-68795000D03*
%TO.P,R404,2*%
%TO.N,Net-(Q402-B)*%
X26722000Y-68795000D03*
%TD*%
D14*
%TO.P,Q201,1,E*%
%TO.N,GND*%
X44850000Y-47000000D03*
D13*
%TO.P,Q201,2,B*%
%TO.N,Net-(Q201-B)*%
X43580000Y-47000000D03*
%TO.P,Q201,3,C*%
%TO.N,Net-(Q201-C)*%
X42310000Y-47000000D03*
%TD*%
D14*
%TO.P,Q306,1,E*%
%TO.N,GND*%
X99580000Y-33000000D03*
D13*
%TO.P,Q306,2,B*%
%TO.N,Net-(Q306-B)*%
X98310000Y-33000000D03*
%TO.P,Q306,3,C*%
%TO.N,Net-(Q305-E)*%
X97040000Y-33000000D03*
%TD*%
D11*
%TO.P,GND,1,Pin_1*%
%TO.N,GND*%
X28500000Y-92920000D03*
%TD*%
%TO.P,DATA_IN,1,Pin_1*%
%TO.N,/DFlipFlop/D*%
X63000000Y-93000000D03*
D10*
%TO.P,DATA_IN,2,Pin_2*%
%TO.N,/DFlipFlop1/D*%
X60460000Y-93000000D03*
%TO.P,DATA_IN,3,Pin_3*%
%TO.N,/DFlipFlop2/D*%
X57920000Y-93000000D03*
%TO.P,DATA_IN,4,Pin_4*%
%TO.N,/DFlipFlop3/D*%
X55380000Y-93000000D03*
%TD*%
D14*
%TO.P,Q308,1,E*%
%TO.N,GND*%
X99580000Y-26500000D03*
D13*
%TO.P,Q308,2,B*%
%TO.N,Net-(Q308-B)*%
X98310000Y-26500000D03*
%TO.P,Q308,3,C*%
%TO.N,Net-(Q307-E)*%
X97040000Y-26500000D03*
%TD*%
D14*
%TO.P,Q102,1,E*%
%TO.N,GND*%
X96230000Y-92280000D03*
D13*
%TO.P,Q102,2,B*%
%TO.N,Net-(Q102-B)*%
X97500000Y-92280000D03*
%TO.P,Q102,3,C*%
%TO.N,Net-(Q101-E)*%
X98770000Y-92280000D03*
%TD*%
D12*
%TO.P,R206,1*%
%TO.N,+5V*%
X29420000Y-41500000D03*
%TO.P,R206,2*%
%TO.N,Net-(Q202-C)*%
X39580000Y-41500000D03*
%TD*%
D14*
%TO.P,Q406,1,E*%
%TO.N,GND*%
X50722000Y-65345000D03*
D13*
%TO.P,Q406,2,B*%
%TO.N,Net-(Q406-B)*%
X49452000Y-65345000D03*
%TO.P,Q406,3,C*%
%TO.N,Net-(Q405-E)*%
X48182000Y-65345000D03*
%TD*%
D12*
%TO.P,R403,1*%
%TO.N,Net-(Q401-C)*%
X16642000Y-58845000D03*
%TO.P,R403,2*%
%TO.N,Net-(Q404-B)*%
X26802000Y-58845000D03*
%TD*%
%TO.P,R407,1*%
%TO.N,+5V*%
X29562000Y-68845000D03*
%TO.P,R407,2*%
%TO.N,Net-(Q404-C)*%
X39722000Y-68845000D03*
%TD*%
D14*
%TO.P,Q402,1,E*%
%TO.N,Net-(Q402-E)*%
X55992000Y-71485000D03*
D13*
%TO.P,Q402,2,B*%
%TO.N,Net-(Q402-B)*%
X54722000Y-71485000D03*
%TO.P,Q402,3,C*%
%TO.N,Net-(Q402-C)*%
X53452000Y-71485000D03*
%TD*%
D14*
%TO.P,Q407,1,E*%
%TO.N,Net-(Q407-E)*%
X44992000Y-58845000D03*
D13*
%TO.P,Q407,2,B*%
%TO.N,Net-(Q407-B)*%
X43722000Y-58845000D03*
%TO.P,Q407,3,C*%
%TO.N,Net-(Q407-C)*%
X42452000Y-58845000D03*
%TD*%
D14*
%TO.P,Q301,1,E*%
%TO.N,GND*%
X93850000Y-47000000D03*
D13*
%TO.P,Q301,2,B*%
%TO.N,Net-(Q301-B)*%
X92580000Y-47000000D03*
%TO.P,Q301,3,C*%
%TO.N,Net-(Q301-C)*%
X91310000Y-47000000D03*
%TD*%
D14*
%TO.P,Q202,1,E*%
%TO.N,Net-(Q202-E)*%
X55850000Y-39140000D03*
D13*
%TO.P,Q202,2,B*%
%TO.N,Net-(Q202-B)*%
X54580000Y-39140000D03*
%TO.P,Q202,3,C*%
%TO.N,Net-(Q202-C)*%
X53310000Y-39140000D03*
%TD*%
D12*
%TO.P,R303,1*%
%TO.N,Net-(Q301-C)*%
X65500000Y-26500000D03*
%TO.P,R303,2*%
%TO.N,Net-(Q304-B)*%
X75660000Y-26500000D03*
%TD*%
%TO.P,R103,1*%
%TO.N,Net-(J102-Pin_1)*%
X112500000Y-72580000D03*
%TO.P,R103,2*%
%TO.N,Net-(Q102-B)*%
X112500000Y-62420000D03*
%TD*%
%TO.P,R306,1*%
%TO.N,+5V*%
X78420000Y-41500000D03*
%TO.P,R306,2*%
%TO.N,Net-(Q302-C)*%
X88580000Y-41500000D03*
%TD*%
%TO.P,R202,1*%
%TO.N,/DFlipFlop/D*%
X16500000Y-41450000D03*
%TO.P,R202,2*%
%TO.N,Net-(Q201-B)*%
X26660000Y-41450000D03*
%TD*%
%TO.P,R203,1*%
%TO.N,Net-(Q201-C)*%
X16500000Y-26500000D03*
%TO.P,R203,2*%
%TO.N,Net-(Q204-B)*%
X26660000Y-26500000D03*
%TD*%
D14*
%TO.P,Q208,1,E*%
%TO.N,GND*%
X50580000Y-26500000D03*
D13*
%TO.P,Q208,2,B*%
%TO.N,Net-(Q208-B)*%
X49310000Y-26500000D03*
%TO.P,Q208,3,C*%
%TO.N,Net-(Q207-E)*%
X48040000Y-26500000D03*
%TD*%
D12*
%TO.P,R311,1*%
%TO.N,Net-(Q304-C)*%
X103080000Y-34000000D03*
%TO.P,R311,2*%
%TO.N,Net-(Q307-B)*%
X103080000Y-23840000D03*
%TD*%
D11*
%TO.P,+5V,1,Pin_1*%
%TO.N,+5V*%
X24500000Y-92920000D03*
%TD*%
D12*
%TO.P,R401,1*%
%TO.N,+5V*%
X29642000Y-78845000D03*
%TO.P,R401,2*%
%TO.N,Net-(Q401-C)*%
X39802000Y-78845000D03*
%TD*%
%TO.P,R104,1*%
%TO.N,+5V*%
X65920000Y-82500000D03*
%TO.P,R104,2*%
%TO.N,Net-(Q101-C)*%
X76080000Y-82500000D03*
%TD*%
%TO.P,R211,1*%
%TO.N,Net-(Q204-C)*%
X54080000Y-34000000D03*
%TO.P,R211,2*%
%TO.N,Net-(Q207-B)*%
X54080000Y-23840000D03*
%TD*%
%TO.P,R408,1*%
%TO.N,Net-(Q402-C)*%
X59222000Y-56265000D03*
%TO.P,R408,2*%
%TO.N,Net-(Q405-B)*%
X59222000Y-66425000D03*
%TD*%
%TO.P,R310,1*%
%TO.N,+5V*%
X78420000Y-31500000D03*
%TO.P,R310,2*%
%TO.N,/DFlipFlop1/Q*%
X88580000Y-31500000D03*
%TD*%
D14*
%TO.P,Q405,1,E*%
%TO.N,Net-(Q405-E)*%
X44992000Y-65345000D03*
D13*
%TO.P,Q405,2,B*%
%TO.N,Net-(Q405-B)*%
X43722000Y-65345000D03*
%TO.P,Q405,3,C*%
%TO.N,/DFlipFlop2/Q*%
X42452000Y-65345000D03*
%TD*%
D14*
%TO.P,Q304,1,E*%
%TO.N,Net-(Q302-E)*%
X93850000Y-39140000D03*
D13*
%TO.P,Q304,2,B*%
%TO.N,Net-(Q304-B)*%
X92580000Y-39140000D03*
%TO.P,Q304,3,C*%
%TO.N,Net-(Q304-C)*%
X91310000Y-39140000D03*
%TD*%
D12*
%TO.P,R210,1*%
%TO.N,+5V*%
X29420000Y-31500000D03*
%TO.P,R210,2*%
%TO.N,/DFlipFlop/Q*%
X39580000Y-31500000D03*
%TD*%
%TO.P,R402,1*%
%TO.N,/DFlipFlop2/D*%
X16642000Y-73795000D03*
%TO.P,R402,2*%
%TO.N,Net-(Q401-B)*%
X26802000Y-73795000D03*
%TD*%
%TO.P,R405,1*%
%TO.N,WRITE_EN*%
X16642000Y-63795000D03*
%TO.P,R405,2*%
%TO.N,Net-(Q403-B)*%
X26802000Y-63795000D03*
%TD*%
D15*
%TO.N,/DFlipFlop3/Q*%
X95000000Y-85000000D03*
X91500000Y-85500000D03*
%TO.N,/DFlipFlop1/Q*%
X98000000Y-51500000D03*
X97000000Y-52500000D03*
X77000000Y-53000000D03*
X63000000Y-64000000D03*
%TO.N,/DFlipFlop/D*%
X30000000Y-22500000D03*
X66601000Y-56601000D03*
%TD*%
D16*
%TO.N,/DFlipFlop3/Q*%
X95000000Y-83880000D02*
X96380000Y-82500000D01*
X95000000Y-85000000D02*
X95000000Y-83880000D01*
X88399000Y-88601000D02*
X91500000Y-85500000D01*
X71101000Y-88601000D02*
X88399000Y-88601000D01*
X69000000Y-86500000D02*
X71101000Y-88601000D01*
X68899000Y-86399000D02*
X69000000Y-86500000D01*
X64739000Y-87043950D02*
X65383950Y-86399000D01*
X65383950Y-86399000D02*
X68899000Y-86399000D01*
X64739000Y-89301000D02*
X64739000Y-87043950D01*
X54901000Y-91401000D02*
X62639000Y-91401000D01*
X44531000Y-94151000D02*
X52151000Y-94151000D01*
X62639000Y-91401000D02*
X64739000Y-89301000D01*
X52151000Y-94151000D02*
X54901000Y-91401000D01*
X43380000Y-93000000D02*
X44531000Y-94151000D01*
%TO.N,/DFlipFlop2/Q*%
X45920000Y-93000000D02*
X48062000Y-90858000D01*
X48062000Y-90858000D02*
X48062000Y-82345000D01*
%TO.N,/DFlipFlop1/Q*%
X98000000Y-51080000D02*
X96920000Y-50000000D01*
X98000000Y-51500000D02*
X98000000Y-51080000D01*
X96500000Y-53000000D02*
X97000000Y-52500000D01*
X77000000Y-53000000D02*
X96500000Y-53000000D01*
X61500000Y-91000000D02*
X63000000Y-89500000D01*
X63000000Y-89500000D02*
X63000000Y-64000000D01*
X50460000Y-91000000D02*
X61500000Y-91000000D01*
X48460000Y-93000000D02*
X50460000Y-91000000D01*
%TO.N,/DFlipFlop/D*%
X66601000Y-29883950D02*
X59217050Y-22500000D01*
X66601000Y-56601000D02*
X66601000Y-29883950D01*
X59217050Y-22500000D02*
X30000000Y-22500000D01*
%TO.N,+5V*%
X65840000Y-93660000D02*
X65840000Y-87500000D01*
X64500000Y-95000000D02*
X65840000Y-93660000D01*
X26580000Y-95000000D02*
X64500000Y-95000000D01*
X24500000Y-92920000D02*
X26580000Y-95000000D01*
%TO.N,WRITE_EN*%
X16642000Y-60836050D02*
X28399000Y-49079050D01*
X16642000Y-63795000D02*
X16642000Y-60836050D01*
%TO.N,+5V*%
X24500000Y-83987000D02*
X29642000Y-78845000D01*
X24500000Y-92920000D02*
X24500000Y-83987000D01*
%TO.N,WRITE_EN*%
X63500000Y-62490000D02*
X64960000Y-63950000D01*
X63500000Y-33450000D02*
X63500000Y-62490000D01*
X65500000Y-31450000D02*
X63500000Y-33450000D01*
X74979000Y-79841950D02*
X74979000Y-86479000D01*
X65981000Y-70843950D02*
X74979000Y-79841950D01*
X65981000Y-64971000D02*
X65981000Y-70843950D01*
X64960000Y-63950000D02*
X65981000Y-64971000D01*
X74979000Y-86479000D02*
X76000000Y-87500000D01*
X42469951Y-63150001D02*
X64160001Y-63150001D01*
X28399000Y-49079050D02*
X42469951Y-63150001D01*
X28399000Y-45313150D02*
X28399000Y-49079050D01*
X16500000Y-33414150D02*
X28399000Y-45313150D01*
X64160001Y-63150001D02*
X64960000Y-63950000D01*
X16500000Y-31450000D02*
X16500000Y-33414150D01*
%TO.N,Net-(C101-Pad2)*%
X72500000Y-92920000D02*
X76000000Y-92920000D01*
%TO.N,Net-(J101-Pin_1)*%
X68000000Y-92920000D02*
X68000000Y-93420000D01*
%TO.N,GND*%
X101437050Y-59000000D02*
X99040000Y-59000000D01*
X103641000Y-56796050D02*
X101437050Y-59000000D01*
X102996050Y-55239000D02*
X103641000Y-55883950D01*
X100601950Y-55239000D02*
X102996050Y-55239000D01*
X93850000Y-47000000D02*
X93850000Y-48487050D01*
X93850000Y-48487050D02*
X100601950Y-55239000D01*
X103641000Y-55883950D02*
X103641000Y-56796050D01*
X53119050Y-58845000D02*
X50722000Y-58845000D01*
X55323000Y-56641050D02*
X53119050Y-58845000D01*
X55323000Y-55728950D02*
X55323000Y-56641050D01*
X46594050Y-47000000D02*
X55323000Y-55728950D01*
X44850000Y-47000000D02*
X46594050Y-47000000D01*
X28000000Y-83500000D02*
X28000000Y-92920000D01*
X30000000Y-81500000D02*
X28000000Y-83500000D01*
X43062000Y-81500000D02*
X30000000Y-81500000D01*
X44992000Y-79570000D02*
X43062000Y-81500000D01*
X44992000Y-79345000D02*
X44992000Y-79570000D01*
X93310000Y-89360000D02*
X96230000Y-92280000D01*
X93310000Y-79500000D02*
X93310000Y-89360000D01*
%TO.N,/DFlipFlop3/D*%
X64960000Y-73950000D02*
X64960000Y-69030000D01*
%TO.N,/DFlipFlop3/Q*%
X88040000Y-64000000D02*
X89270000Y-64000000D01*
X89270000Y-64000000D02*
X90770000Y-65500000D01*
%TO.N,Net-(Q502-E)*%
X96270000Y-71140000D02*
X96910000Y-70500000D01*
%TO.N,Net-(Q502-C)*%
X100900000Y-71640000D02*
X101770000Y-71640000D01*
%TO.N,Net-(Q502-E)*%
X104310000Y-71270000D02*
X104310000Y-71640000D01*
%TO.N,Net-(Q503-B)*%
X90064900Y-73092000D02*
X96588000Y-73092000D01*
X97540000Y-72140000D02*
X97540000Y-71640000D01*
%TO.N,Net-(Q501-C)*%
X64960000Y-59000000D02*
X67235050Y-61275050D01*
X77511950Y-77899000D02*
X87019000Y-77899000D01*
%TO.N,Net-(Q501-B)*%
X76672000Y-75502000D02*
X88542000Y-75502000D01*
%TO.N,Net-(Q502-C)*%
X98540000Y-74000000D02*
X100900000Y-71640000D01*
%TO.N,Net-(Q502-E)*%
X96270000Y-71640000D02*
X96270000Y-71140000D01*
%TO.N,Net-(Q503-B)*%
X75120000Y-63950000D02*
X83670000Y-72500000D01*
%TO.N,Net-(Q501-C)*%
X67235050Y-61275050D02*
X67235050Y-67622100D01*
%TO.N,Net-(Q504-B)*%
X92040000Y-72140000D02*
X92040000Y-71640000D01*
%TO.N,Net-(Q501-B)*%
X75120000Y-73950000D02*
X76672000Y-75502000D01*
%TO.N,Net-(Q501-C)*%
X87019000Y-77899000D02*
X88120000Y-79000000D01*
%TO.N,Net-(Q502-B)*%
X103040000Y-72140000D02*
X103040000Y-71640000D01*
%TO.N,Net-(Q503-B)*%
X96588000Y-73092000D02*
X97540000Y-72140000D01*
%TO.N,Net-(Q502-C)*%
X88040000Y-74000000D02*
X98540000Y-74000000D01*
%TO.N,Net-(Q502-E)*%
X96910000Y-70500000D02*
X103540000Y-70500000D01*
%TO.N,Net-(Q503-B)*%
X83670000Y-72500000D02*
X89472900Y-72500000D01*
%TO.N,Net-(Q501-C)*%
X67235050Y-67622100D02*
X77511950Y-77899000D01*
%TO.N,Net-(Q502-B)*%
X100079000Y-75101000D02*
X103040000Y-72140000D01*
%TO.N,Net-(Q503-B)*%
X89472900Y-72500000D02*
X90064900Y-73092000D01*
%TO.N,Net-(Q504-B)*%
X91489000Y-72691000D02*
X92040000Y-72140000D01*
%TO.N,Net-(Q501-B)*%
X88542000Y-75502000D02*
X92040000Y-79000000D01*
%TO.N,Net-(Q501-C)*%
X90270000Y-79000000D02*
X90770000Y-79500000D01*
X88120000Y-79000000D02*
X90270000Y-79000000D01*
%TO.N,Net-(Q502-E)*%
X103540000Y-70500000D02*
X104310000Y-71270000D01*
X93310000Y-71640000D02*
X96270000Y-71640000D01*
%TO.N,Net-(Q501-B)*%
X92040000Y-79000000D02*
X92040000Y-79500000D01*
%TO.N,Net-(Q502-B)*%
X81191000Y-75101000D02*
X100079000Y-75101000D01*
X75040000Y-68950000D02*
X81191000Y-75101000D01*
%TO.N,Net-(Q507-C)*%
X88040000Y-59000000D02*
X90770000Y-59000000D01*
%TO.N,Net-(Q504-C)*%
X88040000Y-69000000D02*
X90680000Y-71640000D01*
%TO.N,Net-(Q507-B)*%
X94093000Y-56340000D02*
X92040000Y-58393000D01*
%TO.N,Net-(Q504-C)*%
X102540000Y-66500000D02*
X102040000Y-67000000D01*
X90040000Y-67000000D02*
X88040000Y-69000000D01*
%TO.N,Net-(Q504-B)*%
X87580000Y-71000000D02*
X88540000Y-71000000D01*
%TO.N,Net-(Q505-B)*%
X92040000Y-64893000D02*
X92040000Y-65500000D01*
X105409000Y-64449000D02*
X92484000Y-64449000D01*
%TO.N,Net-(Q504-B)*%
X75120000Y-59000000D02*
X75580000Y-59000000D01*
X90231000Y-72691000D02*
X91489000Y-72691000D01*
%TO.N,Net-(Q504-C)*%
X102040000Y-67000000D02*
X90040000Y-67000000D01*
%TO.N,Net-(Q505-B)*%
X107540000Y-66580000D02*
X105409000Y-64449000D01*
%TO.N,Net-(Q507-E)*%
X93310000Y-59000000D02*
X96500000Y-59000000D01*
%TO.N,Net-(Q505-B)*%
X92484000Y-64449000D02*
X92040000Y-64893000D01*
%TO.N,Net-(Q505-E)*%
X93310000Y-65500000D02*
X96500000Y-65500000D01*
%TO.N,Net-(Q504-B)*%
X88540000Y-71000000D02*
X90231000Y-72691000D01*
%TO.N,Net-(Q507-B)*%
X92040000Y-58393000D02*
X92040000Y-59000000D01*
%TO.N,Net-(Q504-B)*%
X75580000Y-59000000D02*
X87580000Y-71000000D01*
%TO.N,Net-(Q507-B)*%
X102540000Y-56340000D02*
X94093000Y-56340000D01*
%TO.N,Net-(Q504-C)*%
X90680000Y-71640000D02*
X90770000Y-71640000D01*
%TO.N,Net-(Q407-E)*%
X44992000Y-58845000D02*
X48182000Y-58845000D01*
%TO.N,Net-(Q407-C)*%
X39722000Y-58845000D02*
X42452000Y-58845000D01*
%TO.N,Net-(Q407-B)*%
X45775000Y-56185000D02*
X43722000Y-58238000D01*
X43722000Y-58238000D02*
X43722000Y-58845000D01*
X54222000Y-56185000D02*
X45775000Y-56185000D01*
%TO.N,Net-(Q405-E)*%
X44992000Y-65345000D02*
X48182000Y-65345000D01*
%TO.N,Net-(Q405-B)*%
X57091000Y-64294000D02*
X44166000Y-64294000D01*
X44166000Y-64294000D02*
X43722000Y-64738000D01*
X59222000Y-66425000D02*
X57091000Y-64294000D01*
X43722000Y-64738000D02*
X43722000Y-65345000D01*
%TO.N,Net-(Q404-C)*%
X39722000Y-68845000D02*
X42362000Y-71485000D01*
X41722000Y-66845000D02*
X39722000Y-68845000D01*
X54222000Y-66345000D02*
X53722000Y-66845000D01*
X42362000Y-71485000D02*
X42452000Y-71485000D01*
X53722000Y-66845000D02*
X41722000Y-66845000D01*
%TO.N,Net-(Q404-B)*%
X40222000Y-70845000D02*
X41913000Y-72536000D01*
X39262000Y-70845000D02*
X40222000Y-70845000D01*
X27262000Y-58845000D02*
X39262000Y-70845000D01*
X26802000Y-58845000D02*
X27262000Y-58845000D01*
X41913000Y-72536000D02*
X43171000Y-72536000D01*
X43171000Y-72536000D02*
X43722000Y-71985000D01*
X43722000Y-71985000D02*
X43722000Y-71485000D01*
%TO.N,Net-(Q403-B)*%
X41154900Y-72345000D02*
X41746900Y-72937000D01*
X26802000Y-63795000D02*
X35352000Y-72345000D01*
X35352000Y-72345000D02*
X41154900Y-72345000D01*
X49222000Y-71985000D02*
X49222000Y-71485000D01*
X48270000Y-72937000D02*
X49222000Y-71985000D01*
X41746900Y-72937000D02*
X48270000Y-72937000D01*
%TO.N,Net-(Q402-B)*%
X26722000Y-68795000D02*
X32873000Y-74946000D01*
X54722000Y-71985000D02*
X54722000Y-71485000D01*
X32873000Y-74946000D02*
X51761000Y-74946000D01*
X51761000Y-74946000D02*
X54722000Y-71985000D01*
%TO.N,Net-(Q402-C)*%
X52582000Y-71485000D02*
X53452000Y-71485000D01*
X39722000Y-73845000D02*
X50222000Y-73845000D01*
X50222000Y-73845000D02*
X52582000Y-71485000D01*
%TO.N,Net-(Q402-E)*%
X47952000Y-71485000D02*
X47952000Y-70985000D01*
X44992000Y-71485000D02*
X47952000Y-71485000D01*
X48592000Y-70345000D02*
X55222000Y-70345000D01*
X55992000Y-71115000D02*
X55992000Y-71485000D01*
X55222000Y-70345000D02*
X55992000Y-71115000D01*
X47952000Y-70985000D02*
X48592000Y-70345000D01*
%TO.N,Net-(Q401-C)*%
X39802000Y-78845000D02*
X41952000Y-78845000D01*
X41952000Y-78845000D02*
X42452000Y-79345000D01*
%TO.N,Net-(Q401-B)*%
X43722000Y-78845000D02*
X43722000Y-79345000D01*
X40224000Y-75347000D02*
X43722000Y-78845000D01*
X26802000Y-73795000D02*
X28354000Y-75347000D01*
X28354000Y-75347000D02*
X40224000Y-75347000D01*
%TO.N,/DFlipFlop2/Q*%
X39722000Y-63845000D02*
X40952000Y-63845000D01*
X40952000Y-63845000D02*
X42452000Y-65345000D01*
%TO.N,/DFlipFlop2/D*%
X16642000Y-73795000D02*
X16642000Y-68875000D01*
X16642000Y-68875000D02*
X16562000Y-68795000D01*
%TO.N,Net-(Q307-E)*%
X93850000Y-26500000D02*
X97040000Y-26500000D01*
%TO.N,Net-(Q307-C)*%
X88580000Y-26500000D02*
X91310000Y-26500000D01*
%TO.N,Net-(Q307-B)*%
X94633000Y-23840000D02*
X92580000Y-25893000D01*
X92580000Y-25893000D02*
X92580000Y-26500000D01*
X103080000Y-23840000D02*
X94633000Y-23840000D01*
%TO.N,Net-(Q305-E)*%
X93850000Y-33000000D02*
X97040000Y-33000000D01*
%TO.N,Net-(Q305-B)*%
X105949000Y-31949000D02*
X93024000Y-31949000D01*
X93024000Y-31949000D02*
X92580000Y-32393000D01*
X108080000Y-34080000D02*
X105949000Y-31949000D01*
X92580000Y-32393000D02*
X92580000Y-33000000D01*
%TO.N,Net-(Q304-C)*%
X88580000Y-36500000D02*
X91220000Y-39140000D01*
X90580000Y-34500000D02*
X88580000Y-36500000D01*
X103080000Y-34000000D02*
X102580000Y-34500000D01*
X91220000Y-39140000D02*
X91310000Y-39140000D01*
X102580000Y-34500000D02*
X90580000Y-34500000D01*
%TO.N,Net-(Q304-B)*%
X89080000Y-38500000D02*
X90771000Y-40191000D01*
X88120000Y-38500000D02*
X89080000Y-38500000D01*
X76120000Y-26500000D02*
X88120000Y-38500000D01*
X75660000Y-26500000D02*
X76120000Y-26500000D01*
X90771000Y-40191000D02*
X92029000Y-40191000D01*
X92029000Y-40191000D02*
X92580000Y-39640000D01*
X92580000Y-39640000D02*
X92580000Y-39140000D01*
%TO.N,Net-(Q303-B)*%
X90012900Y-40000000D02*
X90604900Y-40592000D01*
X75660000Y-31450000D02*
X84210000Y-40000000D01*
X84210000Y-40000000D02*
X90012900Y-40000000D01*
X98080000Y-39640000D02*
X98080000Y-39140000D01*
X97128000Y-40592000D02*
X98080000Y-39640000D01*
X90604900Y-40592000D02*
X97128000Y-40592000D01*
%TO.N,Net-(Q302-B)*%
X75580000Y-36450000D02*
X81731000Y-42601000D01*
X103580000Y-39640000D02*
X103580000Y-39140000D01*
X81731000Y-42601000D02*
X100619000Y-42601000D01*
X100619000Y-42601000D02*
X103580000Y-39640000D01*
%TO.N,Net-(Q302-C)*%
X101440000Y-39140000D02*
X102310000Y-39140000D01*
X88580000Y-41500000D02*
X99080000Y-41500000D01*
X99080000Y-41500000D02*
X101440000Y-39140000D01*
%TO.N,Net-(Q302-E)*%
X96810000Y-39140000D02*
X96810000Y-38640000D01*
X93850000Y-39140000D02*
X96810000Y-39140000D01*
X97450000Y-38000000D02*
X104080000Y-38000000D01*
X104850000Y-38770000D02*
X104850000Y-39140000D01*
X104080000Y-38000000D02*
X104850000Y-38770000D01*
X96810000Y-38640000D02*
X97450000Y-38000000D01*
%TO.N,Net-(Q301-C)*%
X78051950Y-45399000D02*
X87559000Y-45399000D01*
X88660000Y-46500000D02*
X90810000Y-46500000D01*
X65500000Y-26500000D02*
X67775050Y-28775050D01*
X90810000Y-46500000D02*
X91310000Y-47000000D01*
X67775050Y-28775050D02*
X67775050Y-35122100D01*
X67775050Y-35122100D02*
X78051950Y-45399000D01*
X87559000Y-45399000D02*
X88660000Y-46500000D01*
%TO.N,Net-(Q301-B)*%
X92580000Y-46500000D02*
X92580000Y-47000000D01*
X89082000Y-43002000D02*
X92580000Y-46500000D01*
X75660000Y-41450000D02*
X77212000Y-43002000D01*
X77212000Y-43002000D02*
X89082000Y-43002000D01*
%TO.N,/DFlipFlop1/Q*%
X88580000Y-31500000D02*
X89810000Y-31500000D01*
X89810000Y-31500000D02*
X91310000Y-33000000D01*
%TO.N,/DFlipFlop1/D*%
X65500000Y-41450000D02*
X65500000Y-36530000D01*
X65500000Y-36530000D02*
X65420000Y-36450000D01*
%TO.N,/DFlipFlop/D*%
X16500000Y-36530000D02*
X16420000Y-36450000D01*
X16500000Y-41450000D02*
X16500000Y-36530000D01*
%TO.N,/DFlipFlop/Q*%
X40810000Y-31500000D02*
X42310000Y-33000000D01*
X39580000Y-31500000D02*
X40810000Y-31500000D01*
%TO.N,Net-(Q101-E)*%
X98770000Y-92280000D02*
X102730000Y-92280000D01*
%TO.N,Net-(Q101-B)*%
X113080000Y-49500000D02*
X112500000Y-49500000D01*
X114399000Y-81656000D02*
X114399000Y-50819000D01*
X104000000Y-92055000D02*
X114399000Y-81656000D01*
X104000000Y-92280000D02*
X104000000Y-92055000D01*
X114399000Y-50819000D02*
X113080000Y-49500000D01*
%TO.N,Net-(Q101-C)*%
X105380000Y-92280000D02*
X112500000Y-85160000D01*
X105270000Y-92280000D02*
X105380000Y-92280000D01*
%TO.N,GND*%
X90556000Y-93331000D02*
X95179000Y-93331000D01*
X89730000Y-92505000D02*
X90556000Y-93331000D01*
X86160000Y-92920000D02*
X89090000Y-92920000D01*
X89730000Y-92280000D02*
X89730000Y-92505000D01*
X89090000Y-92920000D02*
X89730000Y-92280000D01*
X95179000Y-93331000D02*
X96230000Y-92280000D01*
%TO.N,Net-(Q102-B)*%
X97500000Y-92156860D02*
X98736860Y-90920000D01*
X97500000Y-92280000D02*
X97500000Y-92156860D01*
X111000000Y-83920000D02*
X111000000Y-63920000D01*
X98736860Y-90920000D02*
X104000000Y-90920000D01*
X111000000Y-63920000D02*
X112500000Y-62420000D01*
X104000000Y-90920000D02*
X111000000Y-83920000D01*
%TO.N,Net-(Q201-B)*%
X28212000Y-43002000D02*
X40082000Y-43002000D01*
X26660000Y-41450000D02*
X28212000Y-43002000D01*
X40082000Y-43002000D02*
X43580000Y-46500000D01*
X43580000Y-46500000D02*
X43580000Y-47000000D01*
%TO.N,Net-(Q201-C)*%
X38559000Y-45399000D02*
X39660000Y-46500000D01*
X18775050Y-35122100D02*
X29051950Y-45399000D01*
X18775050Y-28775050D02*
X18775050Y-35122100D01*
X41810000Y-46500000D02*
X42310000Y-47000000D01*
X16500000Y-26500000D02*
X18775050Y-28775050D01*
X39660000Y-46500000D02*
X41810000Y-46500000D01*
X29051950Y-45399000D02*
X38559000Y-45399000D01*
%TO.N,Net-(Q202-E)*%
X47810000Y-38640000D02*
X48450000Y-38000000D01*
X55080000Y-38000000D02*
X55850000Y-38770000D01*
X55850000Y-38770000D02*
X55850000Y-39140000D01*
X48450000Y-38000000D02*
X55080000Y-38000000D01*
X44850000Y-39140000D02*
X47810000Y-39140000D01*
X47810000Y-39140000D02*
X47810000Y-38640000D01*
%TO.N,Net-(Q202-C)*%
X50080000Y-41500000D02*
X52440000Y-39140000D01*
X39580000Y-41500000D02*
X50080000Y-41500000D01*
X52440000Y-39140000D02*
X53310000Y-39140000D01*
%TO.N,Net-(Q202-B)*%
X51619000Y-42601000D02*
X54580000Y-39640000D01*
X32731000Y-42601000D02*
X51619000Y-42601000D01*
X54580000Y-39640000D02*
X54580000Y-39140000D01*
X26580000Y-36450000D02*
X32731000Y-42601000D01*
%TO.N,Net-(Q203-B)*%
X41604900Y-40592000D02*
X48128000Y-40592000D01*
X48128000Y-40592000D02*
X49080000Y-39640000D01*
X49080000Y-39640000D02*
X49080000Y-39140000D01*
X35210000Y-40000000D02*
X41012900Y-40000000D01*
X26660000Y-31450000D02*
X35210000Y-40000000D01*
X41012900Y-40000000D02*
X41604900Y-40592000D01*
%TO.N,Net-(Q204-B)*%
X43580000Y-39640000D02*
X43580000Y-39140000D01*
X43029000Y-40191000D02*
X43580000Y-39640000D01*
X41771000Y-40191000D02*
X43029000Y-40191000D01*
X26660000Y-26500000D02*
X27120000Y-26500000D01*
X27120000Y-26500000D02*
X39120000Y-38500000D01*
X39120000Y-38500000D02*
X40080000Y-38500000D01*
X40080000Y-38500000D02*
X41771000Y-40191000D01*
%TO.N,Net-(Q204-C)*%
X53580000Y-34500000D02*
X41580000Y-34500000D01*
X42220000Y-39140000D02*
X42310000Y-39140000D01*
X54080000Y-34000000D02*
X53580000Y-34500000D01*
X41580000Y-34500000D02*
X39580000Y-36500000D01*
X39580000Y-36500000D02*
X42220000Y-39140000D01*
%TO.N,Net-(Q205-B)*%
X43580000Y-32393000D02*
X43580000Y-33000000D01*
X59080000Y-34080000D02*
X56949000Y-31949000D01*
X44024000Y-31949000D02*
X43580000Y-32393000D01*
X56949000Y-31949000D02*
X44024000Y-31949000D01*
%TO.N,Net-(Q205-E)*%
X44850000Y-33000000D02*
X48040000Y-33000000D01*
%TO.N,Net-(Q207-B)*%
X54080000Y-23840000D02*
X45633000Y-23840000D01*
X43580000Y-25893000D02*
X43580000Y-26500000D01*
X45633000Y-23840000D02*
X43580000Y-25893000D01*
%TO.N,Net-(Q207-C)*%
X39580000Y-26500000D02*
X42310000Y-26500000D01*
%TO.N,Net-(Q207-E)*%
X44850000Y-26500000D02*
X48040000Y-26500000D01*
%TD*%
M02*
