%TF.GenerationSoftware,KiCad,Pcbnew,9.0.7*%
%TF.CreationDate,2026-01-14T18:58:22+00:00*%
%TF.ProjectId,reg,7265672e-6b69-4636-9164-5f7063625858,rev?*%
%TF.SameCoordinates,Original*%
%TF.FileFunction,Copper,L2,Bot*%
%TF.FilePolarity,Positive*%
%FSLAX46Y46*%
G04 Gerber Fmt 4.6, Leading zero omitted, Abs format (unit mm)*
G04 Created by KiCad (PCBNEW 9.0.7) date 2026-01-14 18:58:22*
%MOMM*%
%LPD*%
G01*
G04 APERTURE LIST*
%TA.AperFunction,ComponentPad*%
%ADD10C,1.700000*%
%TD*%
%TA.AperFunction,ComponentPad*%
%ADD11R,1.700000X1.700000*%
%TD*%
%TA.AperFunction,ComponentPad*%
%ADD12C,1.600000*%
%TD*%
%TA.AperFunction,ComponentPad*%
%ADD13O,1.050000X1.500000*%
%TD*%
%TA.AperFunction,ComponentPad*%
%ADD14R,1.050000X1.500000*%
%TD*%
%TA.AperFunction,ViaPad*%
%ADD15C,0.600000*%
%TD*%
%TA.AperFunction,Conductor*%
%ADD16C,0.200000*%
%TD*%
G04 APERTURE END LIST*
D10*
%TO.P,DATA_OUT,4,Pin_4*%
%TO.N,/DFlipFlop3/Q*%
X43380000Y-93000000D03*
%TO.P,DATA_OUT,3,Pin_3*%
%TO.N,/DFlipFlop2/Q*%
X45920000Y-93000000D03*
%TO.P,DATA_OUT,2,Pin_2*%
%TO.N,/DFlipFlop1/Q*%
X48460000Y-93000000D03*
D11*
%TO.P,DATA_OUT,1,Pin_1*%
%TO.N,/DFlipFlop/Q*%
X51000000Y-93000000D03*
%TD*%
D12*
%TO.P,R510,2*%
%TO.N,/DFlipFlop3/Q*%
X88040000Y-64000000D03*
%TO.P,R510,1*%
%TO.N,+5V*%
X77880000Y-64000000D03*
%TD*%
D13*
%TO.P,Q507,3,C*%
%TO.N,Net-(Q507-C)*%
X90770000Y-59000000D03*
%TO.P,Q507,2,B*%
%TO.N,Net-(Q507-B)*%
X92040000Y-59000000D03*
D14*
%TO.P,Q507,1,E*%
%TO.N,Net-(Q507-E)*%
X93310000Y-59000000D03*
%TD*%
D13*
%TO.P,Q506,3,C*%
%TO.N,Net-(Q505-E)*%
X96500000Y-65500000D03*
%TO.P,Q506,2,B*%
%TO.N,Net-(Q506-B)*%
X97770000Y-65500000D03*
D14*
%TO.P,Q506,1,E*%
%TO.N,GND*%
X99040000Y-65500000D03*
%TD*%
D12*
%TO.P,R504,2*%
%TO.N,Net-(Q502-B)*%
X75040000Y-68950000D03*
%TO.P,R504,1*%
%TO.N,/DFlipFlop3/D*%
X64880000Y-68950000D03*
%TD*%
%TO.P,R503,2*%
%TO.N,Net-(Q504-B)*%
X75120000Y-59000000D03*
%TO.P,R503,1*%
%TO.N,Net-(Q501-C)*%
X64960000Y-59000000D03*
%TD*%
%TO.P,R509,2*%
%TO.N,Net-(Q506-B)*%
X106540000Y-78000000D03*
%TO.P,R509,1*%
%TO.N,Net-(Q507-C)*%
X96380000Y-78000000D03*
%TD*%
%TO.P,R508,2*%
%TO.N,Net-(Q505-B)*%
X107540000Y-66580000D03*
%TO.P,R508,1*%
%TO.N,Net-(Q502-C)*%
X107540000Y-56420000D03*
%TD*%
%TO.P,R513,2*%
%TO.N,Net-(Q507-C)*%
X88040000Y-59000000D03*
%TO.P,R513,1*%
%TO.N,+5V*%
X77880000Y-59000000D03*
%TD*%
%TO.P,R501,2*%
%TO.N,Net-(Q501-C)*%
X88120000Y-79000000D03*
%TO.P,R501,1*%
%TO.N,+5V*%
X77960000Y-79000000D03*
%TD*%
%TO.P,R512,2*%
%TO.N,Net-(Q508-B)*%
X106540000Y-82500000D03*
%TO.P,R512,1*%
%TO.N,/DFlipFlop3/Q*%
X96380000Y-82500000D03*
%TD*%
%TO.P,R506,2*%
%TO.N,Net-(Q502-C)*%
X88040000Y-74000000D03*
%TO.P,R506,1*%
%TO.N,+5V*%
X77880000Y-74000000D03*
%TD*%
%TO.P,R502,2*%
%TO.N,Net-(Q501-B)*%
X75120000Y-73950000D03*
%TO.P,R502,1*%
%TO.N,/DFlipFlop3/D*%
X64960000Y-73950000D03*
%TD*%
%TO.P,R511,2*%
%TO.N,Net-(Q507-B)*%
X102540000Y-56340000D03*
%TO.P,R511,1*%
%TO.N,Net-(Q504-C)*%
X102540000Y-66500000D03*
%TD*%
D13*
%TO.P,Q505,3,C*%
%TO.N,/DFlipFlop3/Q*%
X90770000Y-65500000D03*
%TO.P,Q505,2,B*%
%TO.N,Net-(Q505-B)*%
X92040000Y-65500000D03*
D14*
%TO.P,Q505,1,E*%
%TO.N,Net-(Q505-E)*%
X93310000Y-65500000D03*
%TD*%
D13*
%TO.P,Q508,3,C*%
%TO.N,Net-(Q507-E)*%
X96500000Y-59000000D03*
%TO.P,Q508,2,B*%
%TO.N,Net-(Q508-B)*%
X97770000Y-59000000D03*
D14*
%TO.P,Q508,1,E*%
%TO.N,GND*%
X99040000Y-59000000D03*
%TD*%
D13*
%TO.P,Q503,3,C*%
%TO.N,Net-(Q502-E)*%
X96270000Y-71640000D03*
%TO.P,Q503,2,B*%
%TO.N,Net-(Q503-B)*%
X97540000Y-71640000D03*
D14*
%TO.P,Q503,1,E*%
%TO.N,GND*%
X98810000Y-71640000D03*
%TD*%
D13*
%TO.P,Q502,3,C*%
%TO.N,Net-(Q502-C)*%
X101770000Y-71640000D03*
%TO.P,Q502,2,B*%
%TO.N,Net-(Q502-B)*%
X103040000Y-71640000D03*
D14*
%TO.P,Q502,1,E*%
%TO.N,Net-(Q502-E)*%
X104310000Y-71640000D03*
%TD*%
D12*
%TO.P,R505,2*%
%TO.N,Net-(Q503-B)*%
X75120000Y-63950000D03*
%TO.P,R505,1*%
%TO.N,WRITE_EN*%
X64960000Y-63950000D03*
%TD*%
D13*
%TO.P,Q504,3,C*%
%TO.N,Net-(Q504-C)*%
X90770000Y-71640000D03*
%TO.P,Q504,2,B*%
%TO.N,Net-(Q504-B)*%
X92040000Y-71640000D03*
D14*
%TO.P,Q504,1,E*%
%TO.N,Net-(Q502-E)*%
X93310000Y-71640000D03*
%TD*%
D13*
%TO.P,Q501,3,C*%
%TO.N,Net-(Q501-C)*%
X90770000Y-79500000D03*
%TO.P,Q501,2,B*%
%TO.N,Net-(Q501-B)*%
X92040000Y-79500000D03*
D14*
%TO.P,Q501,1,E*%
%TO.N,GND*%
X93310000Y-79500000D03*
%TD*%
D12*
%TO.P,R507,2*%
%TO.N,Net-(Q504-C)*%
X88040000Y-69000000D03*
%TO.P,R507,1*%
%TO.N,+5V*%
X77880000Y-69000000D03*
%TD*%
%TO.P,R304,1*%
%TO.N,/DFlipFlop1/D*%
X65420000Y-36450000D03*
%TO.P,R304,2*%
%TO.N,Net-(Q302-B)*%
X75580000Y-36450000D03*
%TD*%
%TO.P,R101,1*%
%TO.N,Net-(C101-Pad2)*%
X76000000Y-92920000D03*
%TO.P,R101,2*%
%TO.N,GND*%
X86160000Y-92920000D03*
%TD*%
%TO.P,R209,1*%
%TO.N,Net-(Q207-C)*%
X47920000Y-45500000D03*
%TO.P,R209,2*%
%TO.N,Net-(Q206-B)*%
X58080000Y-45500000D03*
%TD*%
%TO.P,R212,1*%
%TO.N,/DFlipFlop/Q*%
X47920000Y-50000000D03*
%TO.P,R212,2*%
%TO.N,Net-(Q208-B)*%
X58080000Y-50000000D03*
%TD*%
D14*
%TO.P,Q404,1,E*%
%TO.N,Net-(Q402-E)*%
X44992000Y-71485000D03*
D13*
%TO.P,Q404,2,B*%
%TO.N,Net-(Q404-B)*%
X43722000Y-71485000D03*
%TO.P,Q404,3,C*%
%TO.N,Net-(Q404-C)*%
X42452000Y-71485000D03*
%TD*%
D11*
%TO.P,CLK,1,Pin_1*%
%TO.N,Net-(J101-Pin_1)*%
X39000000Y-92920000D03*
%TD*%
D14*
%TO.P,Q206,1,E*%
%TO.N,GND*%
X50580000Y-33000000D03*
D13*
%TO.P,Q206,2,B*%
%TO.N,Net-(Q206-B)*%
X49310000Y-33000000D03*
%TO.P,Q206,3,C*%
%TO.N,Net-(Q205-E)*%
X48040000Y-33000000D03*
%TD*%
D12*
%TO.P,R208,1*%
%TO.N,Net-(Q202-C)*%
X59080000Y-23920000D03*
%TO.P,R208,2*%
%TO.N,Net-(Q205-B)*%
X59080000Y-34080000D03*
%TD*%
D14*
%TO.P,Q305,1,E*%
%TO.N,Net-(Q305-E)*%
X93850000Y-33000000D03*
D13*
%TO.P,Q305,2,B*%
%TO.N,Net-(Q305-B)*%
X92580000Y-33000000D03*
%TO.P,Q305,3,C*%
%TO.N,/DFlipFlop1/Q*%
X91310000Y-33000000D03*
%TD*%
D12*
%TO.P,R201,1*%
%TO.N,+5V*%
X29500000Y-46500000D03*
%TO.P,R201,2*%
%TO.N,Net-(Q201-C)*%
X39660000Y-46500000D03*
%TD*%
%TO.P,R102,1*%
%TO.N,Net-(C101-Pad2)*%
X112500000Y-59660000D03*
%TO.P,R102,2*%
%TO.N,Net-(Q101-B)*%
X112500000Y-49500000D03*
%TD*%
D11*
%TO.P,WR_EN,1,Pin_1*%
%TO.N,Net-(J102-Pin_1)*%
X34000000Y-92920000D03*
%TD*%
D12*
%TO.P,R307,1*%
%TO.N,+5V*%
X78420000Y-36500000D03*
%TO.P,R307,2*%
%TO.N,Net-(Q304-C)*%
X88580000Y-36500000D03*
%TD*%
%TO.P,R413,1*%
%TO.N,+5V*%
X29562000Y-58845000D03*
%TO.P,R413,2*%
%TO.N,Net-(Q407-C)*%
X39722000Y-58845000D03*
%TD*%
%TO.P,R412,1*%
%TO.N,/DFlipFlop2/Q*%
X48062000Y-82345000D03*
%TO.P,R412,2*%
%TO.N,Net-(Q408-B)*%
X58222000Y-82345000D03*
%TD*%
%TO.P,R411,1*%
%TO.N,Net-(Q404-C)*%
X54222000Y-66345000D03*
%TO.P,R411,2*%
%TO.N,Net-(Q407-B)*%
X54222000Y-56185000D03*
%TD*%
D14*
%TO.P,Q204,1,E*%
%TO.N,Net-(Q202-E)*%
X44850000Y-39140000D03*
D13*
%TO.P,Q204,2,B*%
%TO.N,Net-(Q204-B)*%
X43580000Y-39140000D03*
%TO.P,Q204,3,C*%
%TO.N,Net-(Q204-C)*%
X42310000Y-39140000D03*
%TD*%
D12*
%TO.P,R204,1*%
%TO.N,/DFlipFlop/D*%
X16420000Y-36450000D03*
%TO.P,R204,2*%
%TO.N,Net-(Q202-B)*%
X26580000Y-36450000D03*
%TD*%
%TO.P,R305,1*%
%TO.N,WRITE_EN*%
X65500000Y-31450000D03*
%TO.P,R305,2*%
%TO.N,Net-(Q303-B)*%
X75660000Y-31450000D03*
%TD*%
%TO.P,R313,1*%
%TO.N,+5V*%
X78420000Y-26500000D03*
%TO.P,R313,2*%
%TO.N,Net-(Q307-C)*%
X88580000Y-26500000D03*
%TD*%
D14*
%TO.P,Q101,1,E*%
%TO.N,Net-(Q101-E)*%
X102730000Y-92280000D03*
D13*
%TO.P,Q101,2,B*%
%TO.N,Net-(Q101-B)*%
X104000000Y-92280000D03*
%TO.P,Q101,3,C*%
%TO.N,Net-(Q101-C)*%
X105270000Y-92280000D03*
%TD*%
D12*
%TO.P,R213,1*%
%TO.N,+5V*%
X29420000Y-26500000D03*
%TO.P,R213,2*%
%TO.N,Net-(Q207-C)*%
X39580000Y-26500000D03*
%TD*%
%TO.P,R301,1*%
%TO.N,+5V*%
X78500000Y-46500000D03*
%TO.P,R301,2*%
%TO.N,Net-(Q301-C)*%
X88660000Y-46500000D03*
%TD*%
%TO.P,R207,1*%
%TO.N,+5V*%
X29420000Y-36500000D03*
%TO.P,R207,2*%
%TO.N,Net-(Q204-C)*%
X39580000Y-36500000D03*
%TD*%
D14*
%TO.P,Q408,1,E*%
%TO.N,GND*%
X50722000Y-58845000D03*
D13*
%TO.P,Q408,2,B*%
%TO.N,Net-(Q408-B)*%
X49452000Y-58845000D03*
%TO.P,Q408,3,C*%
%TO.N,Net-(Q407-E)*%
X48182000Y-58845000D03*
%TD*%
D14*
%TO.P,Q207,1,E*%
%TO.N,Net-(Q207-E)*%
X44850000Y-26500000D03*
D13*
%TO.P,Q207,2,B*%
%TO.N,Net-(Q207-B)*%
X43580000Y-26500000D03*
%TO.P,Q207,3,C*%
%TO.N,Net-(Q207-C)*%
X42310000Y-26500000D03*
%TD*%
D12*
%TO.P,C101,1*%
%TO.N,Net-(J101-Pin_1)*%
X67500000Y-92920000D03*
%TO.P,C101,2*%
%TO.N,Net-(C101-Pad2)*%
X72500000Y-92920000D03*
%TD*%
%TO.P,R406,1*%
%TO.N,+5V*%
X29562000Y-73845000D03*
%TO.P,R406,2*%
%TO.N,Net-(Q402-C)*%
X39722000Y-73845000D03*
%TD*%
D14*
%TO.P,Q205,1,E*%
%TO.N,Net-(Q205-E)*%
X44850000Y-33000000D03*
D13*
%TO.P,Q205,2,B*%
%TO.N,Net-(Q205-B)*%
X43580000Y-33000000D03*
%TO.P,Q205,3,C*%
%TO.N,/DFlipFlop/Q*%
X42310000Y-33000000D03*
%TD*%
D12*
%TO.P,R410,1*%
%TO.N,+5V*%
X29562000Y-63845000D03*
%TO.P,R410,2*%
%TO.N,/DFlipFlop2/Q*%
X39722000Y-63845000D03*
%TD*%
D14*
%TO.P,Q302,1,E*%
%TO.N,Net-(Q302-E)*%
X104850000Y-39140000D03*
D13*
%TO.P,Q302,2,B*%
%TO.N,Net-(Q302-B)*%
X103580000Y-39140000D03*
%TO.P,Q302,3,C*%
%TO.N,Net-(Q302-C)*%
X102310000Y-39140000D03*
%TD*%
D12*
%TO.P,R205,1*%
%TO.N,WRITE_EN*%
X16500000Y-31450000D03*
%TO.P,R205,2*%
%TO.N,Net-(Q203-B)*%
X26660000Y-31450000D03*
%TD*%
%TO.P,R409,1*%
%TO.N,Net-(Q407-C)*%
X48062000Y-77845000D03*
%TO.P,R409,2*%
%TO.N,Net-(Q406-B)*%
X58222000Y-77845000D03*
%TD*%
D14*
%TO.P,Q303,1,E*%
%TO.N,GND*%
X99350000Y-39140000D03*
D13*
%TO.P,Q303,2,B*%
%TO.N,Net-(Q303-B)*%
X98080000Y-39140000D03*
%TO.P,Q303,3,C*%
%TO.N,Net-(Q302-E)*%
X96810000Y-39140000D03*
%TD*%
D14*
%TO.P,Q103,1,E*%
%TO.N,GND*%
X89730000Y-92280000D03*
D13*
%TO.P,Q103,2,B*%
%TO.N,Net-(Q103-B)*%
X91000000Y-92280000D03*
%TO.P,Q103,3,C*%
%TO.N,WRITE_EN*%
X92270000Y-92280000D03*
%TD*%
D14*
%TO.P,Q401,1,E*%
%TO.N,GND*%
X44992000Y-79345000D03*
D13*
%TO.P,Q401,2,B*%
%TO.N,Net-(Q401-B)*%
X43722000Y-79345000D03*
%TO.P,Q401,3,C*%
%TO.N,Net-(Q401-C)*%
X42452000Y-79345000D03*
%TD*%
D12*
%TO.P,R308,1*%
%TO.N,Net-(Q302-C)*%
X108080000Y-23920000D03*
%TO.P,R308,2*%
%TO.N,Net-(Q305-B)*%
X108080000Y-34080000D03*
%TD*%
D14*
%TO.P,Q403,1,E*%
%TO.N,GND*%
X50492000Y-71485000D03*
D13*
%TO.P,Q403,2,B*%
%TO.N,Net-(Q403-B)*%
X49222000Y-71485000D03*
%TO.P,Q403,3,C*%
%TO.N,Net-(Q402-E)*%
X47952000Y-71485000D03*
%TD*%
D12*
%TO.P,R106,1*%
%TO.N,+5V*%
X65840000Y-87500000D03*
%TO.P,R106,2*%
%TO.N,WRITE_EN*%
X76000000Y-87500000D03*
%TD*%
%TO.P,R105,1*%
%TO.N,Net-(Q101-C)*%
X112500000Y-85160000D03*
%TO.P,R105,2*%
%TO.N,Net-(Q103-B)*%
X112500000Y-75000000D03*
%TD*%
D14*
%TO.P,Q203,1,E*%
%TO.N,GND*%
X50350000Y-39140000D03*
D13*
%TO.P,Q203,2,B*%
%TO.N,Net-(Q203-B)*%
X49080000Y-39140000D03*
%TO.P,Q203,3,C*%
%TO.N,Net-(Q202-E)*%
X47810000Y-39140000D03*
%TD*%
D12*
%TO.P,R309,1*%
%TO.N,Net-(Q307-C)*%
X96920000Y-45500000D03*
%TO.P,R309,2*%
%TO.N,Net-(Q306-B)*%
X107080000Y-45500000D03*
%TD*%
%TO.P,R302,1*%
%TO.N,/DFlipFlop1/D*%
X65500000Y-41450000D03*
%TO.P,R302,2*%
%TO.N,Net-(Q301-B)*%
X75660000Y-41450000D03*
%TD*%
%TO.P,R312,1*%
%TO.N,/DFlipFlop1/Q*%
X96920000Y-50000000D03*
%TO.P,R312,2*%
%TO.N,Net-(Q308-B)*%
X107080000Y-50000000D03*
%TD*%
D14*
%TO.P,Q307,1,E*%
%TO.N,Net-(Q307-E)*%
X93850000Y-26500000D03*
D13*
%TO.P,Q307,2,B*%
%TO.N,Net-(Q307-B)*%
X92580000Y-26500000D03*
%TO.P,Q307,3,C*%
%TO.N,Net-(Q307-C)*%
X91310000Y-26500000D03*
%TD*%
D12*
%TO.P,R404,1*%
%TO.N,/DFlipFlop2/D*%
X16562000Y-68795000D03*
%TO.P,R404,2*%
%TO.N,Net-(Q402-B)*%
X26722000Y-68795000D03*
%TD*%
D14*
%TO.P,Q201,1,E*%
%TO.N,GND*%
X44850000Y-47000000D03*
D13*
%TO.P,Q201,2,B*%
%TO.N,Net-(Q201-B)*%
X43580000Y-47000000D03*
%TO.P,Q201,3,C*%
%TO.N,Net-(Q201-C)*%
X42310000Y-47000000D03*
%TD*%
D14*
%TO.P,Q306,1,E*%
%TO.N,GND*%
X99580000Y-33000000D03*
D13*
%TO.P,Q306,2,B*%
%TO.N,Net-(Q306-B)*%
X98310000Y-33000000D03*
%TO.P,Q306,3,C*%
%TO.N,Net-(Q305-E)*%
X97040000Y-33000000D03*
%TD*%
D11*
%TO.P,GND,1,Pin_1*%
%TO.N,GND*%
X28500000Y-92920000D03*
%TD*%
%TO.P,DATA_IN,1,Pin_1*%
%TO.N,/DFlipFlop/D*%
X63000000Y-93000000D03*
D10*
%TO.P,DATA_IN,2,Pin_2*%
%TO.N,/DFlipFlop1/D*%
X60460000Y-93000000D03*
%TO.P,DATA_IN,3,Pin_3*%
%TO.N,/DFlipFlop2/D*%
X57920000Y-93000000D03*
%TO.P,DATA_IN,4,Pin_4*%
%TO.N,/DFlipFlop3/D*%
X55380000Y-93000000D03*
%TD*%
D14*
%TO.P,Q308,1,E*%
%TO.N,GND*%
X99580000Y-26500000D03*
D13*
%TO.P,Q308,2,B*%
%TO.N,Net-(Q308-B)*%
X98310000Y-26500000D03*
%TO.P,Q308,3,C*%
%TO.N,Net-(Q307-E)*%
X97040000Y-26500000D03*
%TD*%
D14*
%TO.P,Q102,1,E*%
%TO.N,GND*%
X96230000Y-92280000D03*
D13*
%TO.P,Q102,2,B*%
%TO.N,Net-(Q102-B)*%
X97500000Y-92280000D03*
%TO.P,Q102,3,C*%
%TO.N,Net-(Q101-E)*%
X98770000Y-92280000D03*
%TD*%
D12*
%TO.P,R206,1*%
%TO.N,+5V*%
X29420000Y-41500000D03*
%TO.P,R206,2*%
%TO.N,Net-(Q202-C)*%
X39580000Y-41500000D03*
%TD*%
D14*
%TO.P,Q406,1,E*%
%TO.N,GND*%
X50722000Y-65345000D03*
D13*
%TO.P,Q406,2,B*%
%TO.N,Net-(Q406-B)*%
X49452000Y-65345000D03*
%TO.P,Q406,3,C*%
%TO.N,Net-(Q405-E)*%
X48182000Y-65345000D03*
%TD*%
D12*
%TO.P,R403,1*%
%TO.N,Net-(Q401-C)*%
X16642000Y-58845000D03*
%TO.P,R403,2*%
%TO.N,Net-(Q404-B)*%
X26802000Y-58845000D03*
%TD*%
%TO.P,R407,1*%
%TO.N,+5V*%
X29562000Y-68845000D03*
%TO.P,R407,2*%
%TO.N,Net-(Q404-C)*%
X39722000Y-68845000D03*
%TD*%
D14*
%TO.P,Q402,1,E*%
%TO.N,Net-(Q402-E)*%
X55992000Y-71485000D03*
D13*
%TO.P,Q402,2,B*%
%TO.N,Net-(Q402-B)*%
X54722000Y-71485000D03*
%TO.P,Q402,3,C*%
%TO.N,Net-(Q402-C)*%
X53452000Y-71485000D03*
%TD*%
D14*
%TO.P,Q407,1,E*%
%TO.N,Net-(Q407-E)*%
X44992000Y-58845000D03*
D13*
%TO.P,Q407,2,B*%
%TO.N,Net-(Q407-B)*%
X43722000Y-58845000D03*
%TO.P,Q407,3,C*%
%TO.N,Net-(Q407-C)*%
X42452000Y-58845000D03*
%TD*%
D14*
%TO.P,Q301,1,E*%
%TO.N,GND*%
X93850000Y-47000000D03*
D13*
%TO.P,Q301,2,B*%
%TO.N,Net-(Q301-B)*%
X92580000Y-47000000D03*
%TO.P,Q301,3,C*%
%TO.N,Net-(Q301-C)*%
X91310000Y-47000000D03*
%TD*%
D14*
%TO.P,Q202,1,E*%
%TO.N,Net-(Q202-E)*%
X55850000Y-39140000D03*
D13*
%TO.P,Q202,2,B*%
%TO.N,Net-(Q202-B)*%
X54580000Y-39140000D03*
%TO.P,Q202,3,C*%
%TO.N,Net-(Q202-C)*%
X53310000Y-39140000D03*
%TD*%
D12*
%TO.P,R303,1*%
%TO.N,Net-(Q301-C)*%
X65500000Y-26500000D03*
%TO.P,R303,2*%
%TO.N,Net-(Q304-B)*%
X75660000Y-26500000D03*
%TD*%
%TO.P,R103,1*%
%TO.N,Net-(J102-Pin_1)*%
X112500000Y-72580000D03*
%TO.P,R103,2*%
%TO.N,Net-(Q102-B)*%
X112500000Y-62420000D03*
%TD*%
%TO.P,R306,1*%
%TO.N,+5V*%
X78420000Y-41500000D03*
%TO.P,R306,2*%
%TO.N,Net-(Q302-C)*%
X88580000Y-41500000D03*
%TD*%
%TO.P,R202,1*%
%TO.N,/DFlipFlop/D*%
X16500000Y-41450000D03*
%TO.P,R202,2*%
%TO.N,Net-(Q201-B)*%
X26660000Y-41450000D03*
%TD*%
%TO.P,R203,1*%
%TO.N,Net-(Q201-C)*%
X16500000Y-26500000D03*
%TO.P,R203,2*%
%TO.N,Net-(Q204-B)*%
X26660000Y-26500000D03*
%TD*%
D14*
%TO.P,Q208,1,E*%
%TO.N,GND*%
X50580000Y-26500000D03*
D13*
%TO.P,Q208,2,B*%
%TO.N,Net-(Q208-B)*%
X49310000Y-26500000D03*
%TO.P,Q208,3,C*%
%TO.N,Net-(Q207-E)*%
X48040000Y-26500000D03*
%TD*%
D12*
%TO.P,R311,1*%
%TO.N,Net-(Q304-C)*%
X103080000Y-34000000D03*
%TO.P,R311,2*%
%TO.N,Net-(Q307-B)*%
X103080000Y-23840000D03*
%TD*%
D11*
%TO.P,+5V,1,Pin_1*%
%TO.N,+5V*%
X24500000Y-92920000D03*
%TD*%
D12*
%TO.P,R401,1*%
%TO.N,+5V*%
X29642000Y-78845000D03*
%TO.P,R401,2*%
%TO.N,Net-(Q401-C)*%
X39802000Y-78845000D03*
%TD*%
%TO.P,R104,1*%
%TO.N,+5V*%
X65920000Y-82500000D03*
%TO.P,R104,2*%
%TO.N,Net-(Q101-C)*%
X76080000Y-82500000D03*
%TD*%
%TO.P,R211,1*%
%TO.N,Net-(Q204-C)*%
X54080000Y-34000000D03*
%TO.P,R211,2*%
%TO.N,Net-(Q207-B)*%
X54080000Y-23840000D03*
%TD*%
%TO.P,R408,1*%
%TO.N,Net-(Q402-C)*%
X59222000Y-56265000D03*
%TO.P,R408,2*%
%TO.N,Net-(Q405-B)*%
X59222000Y-66425000D03*
%TD*%
%TO.P,R310,1*%
%TO.N,+5V*%
X78420000Y-31500000D03*
%TO.P,R310,2*%
%TO.N,/DFlipFlop1/Q*%
X88580000Y-31500000D03*
%TD*%
D14*
%TO.P,Q405,1,E*%
%TO.N,Net-(Q405-E)*%
X44992000Y-65345000D03*
D13*
%TO.P,Q405,2,B*%
%TO.N,Net-(Q405-B)*%
X43722000Y-65345000D03*
%TO.P,Q405,3,C*%
%TO.N,/DFlipFlop2/Q*%
X42452000Y-65345000D03*
%TD*%
D14*
%TO.P,Q304,1,E*%
%TO.N,Net-(Q302-E)*%
X93850000Y-39140000D03*
D13*
%TO.P,Q304,2,B*%
%TO.N,Net-(Q304-B)*%
X92580000Y-39140000D03*
%TO.P,Q304,3,C*%
%TO.N,Net-(Q304-C)*%
X91310000Y-39140000D03*
%TD*%
D12*
%TO.P,R210,1*%
%TO.N,+5V*%
X29420000Y-31500000D03*
%TO.P,R210,2*%
%TO.N,/DFlipFlop/Q*%
X39580000Y-31500000D03*
%TD*%
%TO.P,R402,1*%
%TO.N,/DFlipFlop2/D*%
X16642000Y-73795000D03*
%TO.P,R402,2*%
%TO.N,Net-(Q401-B)*%
X26802000Y-73795000D03*
%TD*%
%TO.P,R405,1*%
%TO.N,WRITE_EN*%
X16642000Y-63795000D03*
%TO.P,R405,2*%
%TO.N,Net-(Q403-B)*%
X26802000Y-63795000D03*
%TD*%
D15*
%TO.N,/DFlipFlop3/Q*%
X95000000Y-85000000D03*
X91500000Y-85500000D03*
%TO.N,/DFlipFlop1/Q*%
X98000000Y-51500000D03*
X97000000Y-52500000D03*
X77000000Y-53000000D03*
X63000000Y-64000000D03*
%TO.N,/DFlipFlop/D*%
X30000000Y-22500000D03*
X66601000Y-56601000D03*
%TD*%
D16*
%TO.N,Net-(Q508-B)*%
X108641000Y-80399000D02*
X108641000Y-55963950D01*
X106540000Y-82500000D02*
X108641000Y-80399000D01*
%TO.N,+5V*%
X74460000Y-82500000D02*
X77960000Y-79000000D01*
X65920000Y-82500000D02*
X74460000Y-82500000D01*
X65840000Y-82580000D02*
X65920000Y-82500000D01*
X65840000Y-87500000D02*
X65840000Y-82580000D01*
%TO.N,/DFlipFlop3/Q*%
X94500000Y-85500000D02*
X95000000Y-85000000D01*
X91500000Y-85500000D02*
X94500000Y-85500000D01*
%TO.N,/DFlipFlop1/Q*%
X97000000Y-52500000D02*
X98000000Y-51500000D01*
X69352057Y-53000000D02*
X77000000Y-53000000D01*
X63000000Y-59352057D02*
X69352057Y-53000000D01*
X63000000Y-64000000D02*
X63000000Y-59352057D01*
%TO.N,/DFlipFlop/Q*%
X51000000Y-86000000D02*
X51000000Y-93000000D01*
X50500000Y-85500000D02*
X51000000Y-86000000D01*
X41002000Y-83002000D02*
X41002000Y-32922000D01*
X43500000Y-85500000D02*
X41002000Y-83002000D01*
X50500000Y-85500000D02*
X43500000Y-85500000D01*
X41002000Y-32922000D02*
X39580000Y-31500000D01*
%TO.N,/DFlipFlop/D*%
X66601000Y-73866050D02*
X63000000Y-77467050D01*
X66601000Y-56601000D02*
X66601000Y-73866050D01*
X63000000Y-77467050D02*
X63000000Y-93000000D01*
X29948525Y-22551475D02*
X30000000Y-22500000D01*
X29051475Y-22551475D02*
X29948525Y-22551475D01*
X29051475Y-22551475D02*
X16420000Y-35182950D01*
%TO.N,/DFlipFlop1/D*%
X62000000Y-44950000D02*
X65500000Y-41450000D01*
X62000000Y-91448000D02*
X62000000Y-44950000D01*
X61448000Y-91682900D02*
X61682900Y-91448000D01*
X61448000Y-92012000D02*
X61448000Y-91682900D01*
X61682900Y-91448000D02*
X62000000Y-91448000D01*
X60460000Y-93000000D02*
X61448000Y-92012000D01*
%TO.N,/DFlipFlop3/D*%
X62500000Y-76410000D02*
X64960000Y-73950000D01*
X62500000Y-91849000D02*
X62500000Y-76410000D01*
X61849000Y-93238760D02*
X61849000Y-91849000D01*
X60936760Y-94151000D02*
X61849000Y-93238760D01*
X55380000Y-93000000D02*
X56531000Y-94151000D01*
X56531000Y-94151000D02*
X60936760Y-94151000D01*
X61849000Y-91849000D02*
X62500000Y-91849000D01*
%TO.N,Net-(J101-Pin_1)*%
X40040000Y-95000000D02*
X39000000Y-93960000D01*
X65420000Y-95000000D02*
X40040000Y-95000000D01*
X67500000Y-92920000D02*
X65420000Y-95000000D01*
X39000000Y-93960000D02*
X39000000Y-92920000D01*
%TO.N,/DFlipFlop/D*%
X16420000Y-35182950D02*
X16420000Y-36450000D01*
%TO.N,Net-(Q401-C)*%
X38701000Y-79946000D02*
X39802000Y-78845000D01*
X29185950Y-79946000D02*
X38701000Y-79946000D01*
X16642000Y-60272050D02*
X28461000Y-72091050D01*
X28461000Y-72091050D02*
X28461000Y-79221050D01*
X16642000Y-58845000D02*
X16642000Y-60272050D01*
X28461000Y-79221050D02*
X29185950Y-79946000D01*
%TO.N,+5V*%
X77880000Y-47120000D02*
X78500000Y-46500000D01*
X77880000Y-59000000D02*
X77880000Y-47120000D01*
X29500000Y-46500000D02*
X29500000Y-58783000D01*
X29500000Y-58783000D02*
X29562000Y-58845000D01*
%TO.N,Net-(Q101-C)*%
X77101000Y-83521000D02*
X76080000Y-82500000D01*
X77101000Y-87956050D02*
X77101000Y-83521000D01*
X74899000Y-90158050D02*
X77101000Y-87956050D01*
X75521000Y-94021000D02*
X74899000Y-93399000D01*
X76456050Y-94021000D02*
X75521000Y-94021000D01*
X103941140Y-90828000D02*
X79649050Y-90828000D01*
X105270000Y-92156860D02*
X103941140Y-90828000D01*
X74899000Y-93399000D02*
X74899000Y-90158050D01*
X105270000Y-92280000D02*
X105270000Y-92156860D01*
X79649050Y-90828000D02*
X76456050Y-94021000D01*
%TO.N,WRITE_EN*%
X91342140Y-91229000D02*
X92270000Y-92156860D01*
X92270000Y-92156860D02*
X92270000Y-92280000D01*
X82190750Y-95000000D02*
X85961750Y-91229000D01*
X85961750Y-91229000D02*
X91342140Y-91229000D01*
X74000000Y-95000000D02*
X82190750Y-95000000D01*
X74000000Y-89500000D02*
X74000000Y-95000000D01*
X76000000Y-87500000D02*
X74000000Y-89500000D01*
%TO.N,/DFlipFlop3/Q*%
X96380000Y-82500000D02*
X95043000Y-81163000D01*
X95043000Y-69896140D02*
X90770000Y-65623140D01*
X90770000Y-65623140D02*
X90770000Y-65500000D01*
%TO.N,GND*%
X96157860Y-60051000D02*
X98214000Y-60051000D01*
X98810000Y-81627050D02*
X96836050Y-83601000D01*
X94642000Y-79500000D02*
X94642000Y-70765140D01*
X89944000Y-66067140D02*
X89944000Y-58432860D01*
X90427860Y-57949000D02*
X94055860Y-57949000D01*
X99040000Y-59225000D02*
X99040000Y-59000000D01*
X94642000Y-70765140D02*
X89944000Y-66067140D01*
%TO.N,/DFlipFlop3/Q*%
X95043000Y-81163000D02*
X95043000Y-69896140D01*
%TO.N,GND*%
X96836050Y-83601000D02*
X95923950Y-83601000D01*
X95923950Y-83601000D02*
X94642000Y-82319050D01*
X89944000Y-58432860D02*
X90427860Y-57949000D01*
X98214000Y-60051000D02*
X99040000Y-59225000D01*
X94642000Y-82319050D02*
X94642000Y-79500000D01*
%TO.N,Net-(Q502-C)*%
X107540000Y-63057050D02*
X101770000Y-68827050D01*
X107540000Y-56420000D02*
X107540000Y-63057050D01*
%TO.N,GND*%
X98810000Y-71640000D02*
X98810000Y-81627050D01*
X99040000Y-59000000D02*
X99040000Y-65500000D01*
X93310000Y-79500000D02*
X94642000Y-79500000D01*
%TO.N,Net-(Q502-C)*%
X101770000Y-68827050D02*
X101770000Y-71640000D01*
%TO.N,GND*%
X94055860Y-57949000D02*
X96157860Y-60051000D01*
%TO.N,+5V*%
X77880000Y-59000000D02*
X77880000Y-78920000D01*
%TO.N,Net-(Q508-B)*%
X107996050Y-55319000D02*
X105118050Y-55319000D01*
%TO.N,Net-(Q507-C)*%
X95444000Y-65837140D02*
X95444000Y-77064000D01*
X90770000Y-59000000D02*
X90770000Y-61163140D01*
%TO.N,Net-(Q506-B)*%
X99866000Y-68203000D02*
X97770000Y-66107000D01*
X97770000Y-66107000D02*
X97770000Y-65500000D01*
%TO.N,Net-(Q508-B)*%
X98214000Y-57949000D02*
X97770000Y-58393000D01*
X108641000Y-55963950D02*
X107996050Y-55319000D01*
X102488050Y-57949000D02*
X98214000Y-57949000D01*
%TO.N,Net-(Q507-C)*%
X90770000Y-61163140D02*
X95444000Y-65837140D01*
X95444000Y-77064000D02*
X96380000Y-78000000D01*
%TO.N,Net-(Q508-B)*%
X97770000Y-58393000D02*
X97770000Y-59000000D01*
X105118050Y-55319000D02*
X102488050Y-57949000D01*
%TO.N,+5V*%
X77880000Y-78920000D02*
X77960000Y-79000000D01*
%TO.N,Net-(Q506-B)*%
X99866000Y-71326000D02*
X99866000Y-68203000D01*
X106540000Y-78000000D02*
X99866000Y-71326000D01*
%TO.N,+5V*%
X29562000Y-58845000D02*
X29562000Y-78765000D01*
X29562000Y-78765000D02*
X29642000Y-78845000D01*
%TO.N,Net-(Q408-B)*%
X60323000Y-55808950D02*
X59678050Y-55164000D01*
X60323000Y-80244000D02*
X60323000Y-55808950D01*
X54170050Y-57794000D02*
X49896000Y-57794000D01*
X59678050Y-55164000D02*
X56800050Y-55164000D01*
X56800050Y-55164000D02*
X54170050Y-57794000D01*
X49896000Y-57794000D02*
X49452000Y-58238000D01*
X58222000Y-82345000D02*
X60323000Y-80244000D01*
X49452000Y-58238000D02*
X49452000Y-58845000D01*
%TO.N,Net-(Q407-C)*%
X47126000Y-65682140D02*
X47126000Y-76909000D01*
X42452000Y-58845000D02*
X42452000Y-61008140D01*
X47126000Y-76909000D02*
X48062000Y-77845000D01*
X42452000Y-61008140D02*
X47126000Y-65682140D01*
%TO.N,Net-(Q406-B)*%
X58222000Y-77845000D02*
X51548000Y-71171000D01*
X51548000Y-71171000D02*
X51548000Y-68048000D01*
X49452000Y-65952000D02*
X49452000Y-65345000D01*
X51548000Y-68048000D02*
X49452000Y-65952000D01*
%TO.N,Net-(Q402-C)*%
X59222000Y-56265000D02*
X59222000Y-62902050D01*
X59222000Y-62902050D02*
X53452000Y-68672050D01*
X53452000Y-68672050D02*
X53452000Y-71485000D01*
%TO.N,GND*%
X45737860Y-57794000D02*
X47839860Y-59896000D01*
X50722000Y-58845000D02*
X50722000Y-65345000D01*
X49896000Y-59896000D02*
X50722000Y-59070000D01*
X44992000Y-79345000D02*
X46324000Y-79345000D01*
X41626000Y-58277860D02*
X42109860Y-57794000D01*
X50492000Y-71485000D02*
X50492000Y-81472050D01*
X46324000Y-82164050D02*
X46324000Y-79345000D01*
X50492000Y-81472050D02*
X48518050Y-83446000D01*
X47605950Y-83446000D02*
X46324000Y-82164050D01*
X46324000Y-70610140D02*
X41626000Y-65912140D01*
X47839860Y-59896000D02*
X49896000Y-59896000D01*
X42109860Y-57794000D02*
X45737860Y-57794000D01*
X41626000Y-65912140D02*
X41626000Y-58277860D01*
X46324000Y-79345000D02*
X46324000Y-70610140D01*
X50722000Y-59070000D02*
X50722000Y-58845000D01*
X48518050Y-83446000D02*
X47605950Y-83446000D01*
%TO.N,/DFlipFlop2/Q*%
X42452000Y-65468140D02*
X42452000Y-65345000D01*
X46725000Y-81008000D02*
X46725000Y-69741140D01*
X46725000Y-69741140D02*
X42452000Y-65468140D01*
X48062000Y-82345000D02*
X46725000Y-81008000D01*
%TO.N,+5V*%
X78420000Y-26500000D02*
X78420000Y-46420000D01*
X78420000Y-46420000D02*
X78500000Y-46500000D01*
%TO.N,Net-(Q308-B)*%
X109181000Y-23463950D02*
X108536050Y-22819000D01*
X109181000Y-47899000D02*
X109181000Y-23463950D01*
X103028050Y-25449000D02*
X98754000Y-25449000D01*
X108536050Y-22819000D02*
X105658050Y-22819000D01*
X105658050Y-22819000D02*
X103028050Y-25449000D01*
X98754000Y-25449000D02*
X98310000Y-25893000D01*
X107080000Y-50000000D02*
X109181000Y-47899000D01*
X98310000Y-25893000D02*
X98310000Y-26500000D01*
%TO.N,Net-(Q307-C)*%
X95984000Y-33337140D02*
X95984000Y-44564000D01*
X91310000Y-26500000D02*
X91310000Y-28663140D01*
X95984000Y-44564000D02*
X96920000Y-45500000D01*
X91310000Y-28663140D02*
X95984000Y-33337140D01*
%TO.N,Net-(Q306-B)*%
X107080000Y-45500000D02*
X100406000Y-38826000D01*
X100406000Y-38826000D02*
X100406000Y-35703000D01*
X98310000Y-33607000D02*
X98310000Y-33000000D01*
X100406000Y-35703000D02*
X98310000Y-33607000D01*
%TO.N,Net-(Q302-C)*%
X108080000Y-23920000D02*
X108080000Y-30557050D01*
X108080000Y-30557050D02*
X102310000Y-36327050D01*
X102310000Y-36327050D02*
X102310000Y-39140000D01*
%TO.N,GND*%
X94595860Y-25449000D02*
X96697860Y-27551000D01*
X99580000Y-26500000D02*
X99580000Y-33000000D01*
X98754000Y-27551000D02*
X99580000Y-26725000D01*
X93850000Y-47000000D02*
X95182000Y-47000000D01*
X90484000Y-25932860D02*
X90967860Y-25449000D01*
X99350000Y-39140000D02*
X99350000Y-49127050D01*
X95182000Y-49819050D02*
X95182000Y-47000000D01*
X99350000Y-49127050D02*
X97376050Y-51101000D01*
X96463950Y-51101000D02*
X95182000Y-49819050D01*
X95182000Y-38265140D02*
X90484000Y-33567140D01*
X96697860Y-27551000D02*
X98754000Y-27551000D01*
X90967860Y-25449000D02*
X94595860Y-25449000D01*
X90484000Y-33567140D02*
X90484000Y-25932860D01*
X95182000Y-47000000D02*
X95182000Y-38265140D01*
X99580000Y-26725000D02*
X99580000Y-26500000D01*
X97376050Y-51101000D02*
X96463950Y-51101000D01*
%TO.N,/DFlipFlop1/Q*%
X91310000Y-33123140D02*
X91310000Y-33000000D01*
X95583000Y-48663000D02*
X95583000Y-37396140D01*
X95583000Y-37396140D02*
X91310000Y-33123140D01*
X96920000Y-50000000D02*
X95583000Y-48663000D01*
%TO.N,Net-(C101-Pad2)*%
X110500000Y-88352900D02*
X108432900Y-90420000D01*
X112500000Y-59660000D02*
X110500000Y-61660000D01*
X78500000Y-90420000D02*
X76000000Y-92920000D01*
X110500000Y-61660000D02*
X110500000Y-88352900D01*
X108432900Y-90420000D02*
X78500000Y-90420000D01*
%TO.N,/DFlipFlop/Q*%
X47920000Y-50000000D02*
X46583000Y-48663000D01*
X46583000Y-37396140D02*
X42310000Y-33123140D01*
X46583000Y-48663000D02*
X46583000Y-37396140D01*
X42310000Y-33123140D02*
X42310000Y-33000000D01*
%TO.N,Net-(J102-Pin_1)*%
X104168100Y-95819000D02*
X113601000Y-86386100D01*
X113601000Y-73681000D02*
X112500000Y-72580000D01*
X36899000Y-95819000D02*
X104168100Y-95819000D01*
X34000000Y-92920000D02*
X36899000Y-95819000D01*
X113601000Y-86386100D02*
X113601000Y-73681000D01*
%TO.N,GND*%
X48376050Y-51101000D02*
X47463950Y-51101000D01*
X50580000Y-26725000D02*
X50580000Y-26500000D01*
X37998000Y-95418000D02*
X83662000Y-95418000D01*
X46182000Y-47000000D02*
X46182000Y-38265140D01*
X41484000Y-33567140D02*
X41484000Y-25932860D01*
X41967860Y-25449000D02*
X45595860Y-25449000D01*
X28000000Y-92920000D02*
X29500000Y-91420000D01*
X37000000Y-92920000D02*
X37000000Y-94420000D01*
X47697860Y-27551000D02*
X49754000Y-27551000D01*
X46182000Y-38265140D02*
X41484000Y-33567140D01*
X47463950Y-51101000D02*
X46182000Y-49819050D01*
X50350000Y-49127050D02*
X48376050Y-51101000D01*
X29500000Y-91420000D02*
X35500000Y-91420000D01*
X37000000Y-94420000D02*
X37998000Y-95418000D01*
X83662000Y-95418000D02*
X86160000Y-92920000D01*
X46182000Y-49819050D02*
X46182000Y-47000000D01*
X50350000Y-39140000D02*
X50350000Y-49127050D01*
X41484000Y-25932860D02*
X41967860Y-25449000D01*
X44850000Y-47000000D02*
X46182000Y-47000000D01*
X49754000Y-27551000D02*
X50580000Y-26725000D01*
X50580000Y-26500000D02*
X50580000Y-33000000D01*
X35500000Y-91420000D02*
X37000000Y-92920000D01*
X45595860Y-25449000D02*
X47697860Y-27551000D01*
%TO.N,Net-(Q103-B)*%
X91000000Y-92505000D02*
X91826000Y-93331000D01*
X91826000Y-93331000D02*
X106089000Y-93331000D01*
X111000000Y-76500000D02*
X112500000Y-75000000D01*
X91000000Y-92280000D02*
X91000000Y-92505000D01*
X106089000Y-93331000D02*
X111000000Y-88420000D01*
X111000000Y-88420000D02*
X111000000Y-76500000D01*
%TO.N,Net-(Q202-C)*%
X53310000Y-36327050D02*
X53310000Y-39140000D01*
X59080000Y-30557050D02*
X53310000Y-36327050D01*
X59080000Y-23920000D02*
X59080000Y-30557050D01*
%TO.N,Net-(Q206-B)*%
X51406000Y-35703000D02*
X49310000Y-33607000D01*
X49310000Y-33607000D02*
X49310000Y-33000000D01*
X51406000Y-38826000D02*
X51406000Y-35703000D01*
X58080000Y-45500000D02*
X51406000Y-38826000D01*
%TO.N,Net-(Q207-C)*%
X42310000Y-28663140D02*
X46984000Y-33337140D01*
X46984000Y-44564000D02*
X47920000Y-45500000D01*
X42310000Y-26500000D02*
X42310000Y-28663140D01*
X46984000Y-33337140D02*
X46984000Y-44564000D01*
%TO.N,Net-(Q208-B)*%
X49310000Y-25893000D02*
X49310000Y-26500000D01*
X58080000Y-50000000D02*
X60181000Y-47899000D01*
X49754000Y-25449000D02*
X49310000Y-25893000D01*
X56658050Y-22819000D02*
X54028050Y-25449000D01*
X59536050Y-22819000D02*
X56658050Y-22819000D01*
X54028050Y-25449000D02*
X49754000Y-25449000D01*
X60181000Y-47899000D02*
X60181000Y-23463950D01*
X60181000Y-23463950D02*
X59536050Y-22819000D01*
%TO.N,WRITE_EN*%
X92270000Y-92055000D02*
X92270000Y-92280000D01*
%TO.N,+5V*%
X29420000Y-46420000D02*
X29500000Y-46500000D01*
X29420000Y-26500000D02*
X29420000Y-46420000D01*
%TO.N,/DFlipFlop2/D*%
X21795000Y-73795000D02*
X16642000Y-73795000D01*
X53000000Y-94500000D02*
X43252240Y-94500000D01*
X53000000Y-93752240D02*
X53000000Y-94500000D01*
X40521240Y-91769000D02*
X39769000Y-91769000D01*
X54903240Y-91849000D02*
X53000000Y-93752240D01*
X39769000Y-91769000D02*
X21795000Y-73795000D01*
X56769000Y-91849000D02*
X54903240Y-91849000D01*
X57920000Y-93000000D02*
X56769000Y-91849000D01*
X43252240Y-94500000D02*
X40521240Y-91769000D01*
%TD*%
M02*
