M48
; DRILL file {KiCad 9.0.7} date 2026-01-14T18:58:24+0000
; FORMAT={-:-/ absolute / metric / decimal}
; #@! TF.CreationDate,2026-01-14T18:58:24+00:00
; #@! TF.GenerationSoftware,Kicad,Pcbnew,9.0.7
; #@! TF.FileFunction,Plated,1,2,PTH
FMAT,2
METRIC
; #@! TA.AperFunction,Plated,PTH,ViaDrill
T1C0.300
; #@! TA.AperFunction,Plated,PTH,ComponentDrill
T2C0.750
; #@! TA.AperFunction,Plated,PTH,ComponentDrill
T3C0.800
; #@! TA.AperFunction,Plated,PTH,ComponentDrill
T4C1.000
%
G90
G05
T1
X30.0Y-22.5
X63.0Y-64.0
X66.601Y-56.601
X77.0Y-53.0
X91.5Y-85.5
X95.0Y-85.0
X97.0Y-52.5
X98.0Y-51.5
T2
X42.31Y-26.5
X42.31Y-33.0
X42.31Y-39.14
X42.31Y-47.0
X42.452Y-58.845
X42.452Y-65.345
X42.452Y-71.485
X42.452Y-79.345
X43.58Y-26.5
X43.58Y-33.0
X43.58Y-39.14
X43.58Y-47.0
X43.722Y-58.845
X43.722Y-65.345
X43.722Y-71.485
X43.722Y-79.345
X44.85Y-26.5
X44.85Y-33.0
X44.85Y-39.14
X44.85Y-47.0
X44.992Y-58.845
X44.992Y-65.345
X44.992Y-71.485
X44.992Y-79.345
X47.81Y-39.14
X47.952Y-71.485
X48.04Y-26.5
X48.04Y-33.0
X48.182Y-58.845
X48.182Y-65.345
X49.08Y-39.14
X49.222Y-71.485
X49.31Y-26.5
X49.31Y-33.0
X49.452Y-58.845
X49.452Y-65.345
X50.35Y-39.14
X50.492Y-71.485
X50.58Y-26.5
X50.58Y-33.0
X50.722Y-58.845
X50.722Y-65.345
X53.31Y-39.14
X53.452Y-71.485
X54.58Y-39.14
X54.722Y-71.485
X55.85Y-39.14
X55.992Y-71.485
X89.73Y-92.28
X90.77Y-59.0
X90.77Y-65.5
X90.77Y-71.64
X90.77Y-79.5
X91.0Y-92.28
X91.31Y-26.5
X91.31Y-33.0
X91.31Y-39.14
X91.31Y-47.0
X92.04Y-59.0
X92.04Y-65.5
X92.04Y-71.64
X92.04Y-79.5
X92.27Y-92.28
X92.58Y-26.5
X92.58Y-33.0
X92.58Y-39.14
X92.58Y-47.0
X93.31Y-59.0
X93.31Y-65.5
X93.31Y-71.64
X93.31Y-79.5
X93.85Y-26.5
X93.85Y-33.0
X93.85Y-39.14
X93.85Y-47.0
X96.23Y-92.28
X96.27Y-71.64
X96.5Y-59.0
X96.5Y-65.5
X96.81Y-39.14
X97.04Y-26.5
X97.04Y-33.0
X97.5Y-92.28
X97.54Y-71.64
X97.77Y-59.0
X97.77Y-65.5
X98.08Y-39.14
X98.31Y-26.5
X98.31Y-33.0
X98.77Y-92.28
X98.81Y-71.64
X99.04Y-59.0
X99.04Y-65.5
X99.35Y-39.14
X99.58Y-26.5
X99.58Y-33.0
X101.77Y-71.64
X102.31Y-39.14
X102.73Y-92.28
X103.04Y-71.64
X103.58Y-39.14
X104.0Y-92.28
X104.31Y-71.64
X104.85Y-39.14
X105.27Y-92.28
T3
X16.42Y-36.45
X16.5Y-26.5
X16.5Y-31.45
X16.5Y-41.45
X16.562Y-68.795
X16.642Y-58.845
X16.642Y-63.795
X16.642Y-73.795
X26.58Y-36.45
X26.66Y-26.5
X26.66Y-31.45
X26.66Y-41.45
X26.722Y-68.795
X26.802Y-58.845
X26.802Y-63.795
X26.802Y-73.795
X29.42Y-26.5
X29.42Y-31.5
X29.42Y-36.5
X29.42Y-41.5
X29.5Y-46.5
X29.562Y-58.845
X29.562Y-63.845
X29.562Y-68.845
X29.562Y-73.845
X29.642Y-78.845
X39.58Y-26.5
X39.58Y-31.5
X39.58Y-36.5
X39.58Y-41.5
X39.66Y-46.5
X39.722Y-58.845
X39.722Y-63.845
X39.722Y-68.845
X39.722Y-73.845
X39.802Y-78.845
X47.92Y-45.5
X47.92Y-50.0
X48.062Y-77.845
X48.062Y-82.345
X54.08Y-23.84
X54.08Y-34.0
X54.222Y-56.185
X54.222Y-66.345
X58.08Y-45.5
X58.08Y-50.0
X58.222Y-77.845
X58.222Y-82.345
X59.08Y-23.92
X59.08Y-34.08
X59.222Y-56.265
X59.222Y-66.425
X64.88Y-68.95
X64.96Y-59.0
X64.96Y-63.95
X64.96Y-73.95
X65.42Y-36.45
X65.5Y-26.5
X65.5Y-31.45
X65.5Y-41.45
X65.84Y-87.5
X65.92Y-82.5
X67.5Y-92.92
X72.5Y-92.92
X75.04Y-68.95
X75.12Y-59.0
X75.12Y-63.95
X75.12Y-73.95
X75.58Y-36.45
X75.66Y-26.5
X75.66Y-31.45
X75.66Y-41.45
X76.0Y-87.5
X76.0Y-92.92
X76.08Y-82.5
X77.88Y-59.0
X77.88Y-64.0
X77.88Y-69.0
X77.88Y-74.0
X77.96Y-79.0
X78.42Y-26.5
X78.42Y-31.5
X78.42Y-36.5
X78.42Y-41.5
X78.5Y-46.5
X86.16Y-92.92
X88.04Y-59.0
X88.04Y-64.0
X88.04Y-69.0
X88.04Y-74.0
X88.12Y-79.0
X88.58Y-26.5
X88.58Y-31.5
X88.58Y-36.5
X88.58Y-41.5
X88.66Y-46.5
X96.38Y-78.0
X96.38Y-82.5
X96.92Y-45.5
X96.92Y-50.0
X102.54Y-56.34
X102.54Y-66.5
X103.08Y-23.84
X103.08Y-34.0
X106.54Y-78.0
X106.54Y-82.5
X107.08Y-45.5
X107.08Y-50.0
X107.54Y-56.42
X107.54Y-66.58
X108.08Y-23.92
X108.08Y-34.08
X112.5Y-49.5
X112.5Y-59.66
X112.5Y-62.42
X112.5Y-72.58
X112.5Y-75.0
X112.5Y-85.16
T4
X24.5Y-92.92
X28.5Y-92.92
X34.0Y-92.92
X39.0Y-92.92
X43.38Y-93.0
X45.92Y-93.0
X48.46Y-93.0
X51.0Y-93.0
X55.38Y-93.0
X57.92Y-93.0
X60.46Y-93.0
X63.0Y-93.0
M30
