%TF.GenerationSoftware,KiCad,Pcbnew,9.0.7*%
%TF.CreationDate,2026-01-15T13:11:20+00:00*%
%TF.ProjectId,reg,7265672e-6b69-4636-9164-5f7063625858,rev?*%
%TF.SameCoordinates,Original*%
%TF.FileFunction,Copper,L2,Bot*%
%TF.FilePolarity,Positive*%
%FSLAX46Y46*%
G04 Gerber Fmt 4.6, Leading zero omitted, Abs format (unit mm)*
G04 Created by KiCad (PCBNEW 9.0.7) date 2026-01-15 13:11:20*
%MOMM*%
%LPD*%
G01*
G04 APERTURE LIST*
%TA.AperFunction,ComponentPad*%
%ADD10R,1.050000X1.500000*%
%TD*%
%TA.AperFunction,ComponentPad*%
%ADD11O,1.050000X1.500000*%
%TD*%
%TA.AperFunction,ComponentPad*%
%ADD12R,1.700000X1.700000*%
%TD*%
%TA.AperFunction,ComponentPad*%
%ADD13C,1.700000*%
%TD*%
%TA.AperFunction,ComponentPad*%
%ADD14C,1.600000*%
%TD*%
%TA.AperFunction,ViaPad*%
%ADD15C,0.600000*%
%TD*%
%TA.AperFunction,Conductor*%
%ADD16C,0.200000*%
%TD*%
G04 APERTURE END LIST*
D10*
%TO.P,Q706,1,E*%
%TO.N,GND*%
X61198610Y-62567889D03*
D11*
%TO.P,Q706,2,B*%
%TO.N,Net-(Q706-B)*%
X59928610Y-62567889D03*
%TO.P,Q706,3,C*%
%TO.N,Net-(Q705-E)*%
X58658610Y-62567889D03*
%TD*%
D10*
%TO.P,Q804,1,E*%
%TO.N,Net-(Q802-E)*%
X83646786Y-77668454D03*
D11*
%TO.P,Q804,2,B*%
%TO.N,Net-(Q804-B)*%
X82376786Y-77668454D03*
%TO.P,Q804,3,C*%
%TO.N,Net-(Q804-C)*%
X81106786Y-77668454D03*
%TD*%
D10*
%TO.P,Q608,1,E*%
%TO.N,GND*%
X38481392Y-72768489D03*
D11*
%TO.P,Q608,2,B*%
%TO.N,Net-(Q608-B)*%
X37211392Y-72768489D03*
%TO.P,Q608,3,C*%
%TO.N,Net-(Q607-E)*%
X35941392Y-72768489D03*
%TD*%
D10*
%TO.P,Q411,1,E*%
%TO.N,GND*%
X83719551Y-27473136D03*
D11*
%TO.P,Q411,2,B*%
%TO.N,Net-(Q411-B)*%
X82449551Y-27473136D03*
%TO.P,Q411,3,C*%
%TO.N,Net-(Q411-C)*%
X81179551Y-27473136D03*
%TD*%
D10*
%TO.P,Q705,1,E*%
%TO.N,Net-(Q705-E)*%
X55698610Y-62567889D03*
D11*
%TO.P,Q705,2,B*%
%TO.N,Net-(Q705-B)*%
X54428610Y-62567889D03*
%TO.P,Q705,3,C*%
%TO.N,Net-(Q705-C)*%
X53158610Y-62567889D03*
%TD*%
D10*
%TO.P,Q510,1,E*%
%TO.N,GND*%
X105517272Y-37380819D03*
D11*
%TO.P,Q510,2,B*%
%TO.N,Net-(Q510-B)*%
X104247272Y-37380819D03*
%TO.P,Q510,3,C*%
%TO.N,/DFlipFlop3/Q*%
X102977272Y-37380819D03*
%TD*%
D10*
%TO.P,Q205,1,E*%
%TO.N,Net-(Q205-E)*%
X32880375Y-32473136D03*
D11*
%TO.P,Q205,2,B*%
%TO.N,Net-(Q205-B)*%
X31610375Y-32473136D03*
%TO.P,Q205,3,C*%
%TO.N,Net-(Q205-C)*%
X30340375Y-32473136D03*
%TD*%
D10*
%TO.P,Q605,1,E*%
%TO.N,Net-(Q605-E)*%
X32981392Y-62768489D03*
D11*
%TO.P,Q605,2,B*%
%TO.N,Net-(Q605-B)*%
X31711392Y-62768489D03*
%TO.P,Q605,3,C*%
%TO.N,Net-(Q605-C)*%
X30441392Y-62768489D03*
%TD*%
D10*
%TO.P,Q210,1,E*%
%TO.N,GND*%
X38380375Y-37473136D03*
D11*
%TO.P,Q210,2,B*%
%TO.N,Net-(Q210-B)*%
X37110375Y-37473136D03*
%TO.P,Q210,3,C*%
%TO.N,/DFlipFlop/Q*%
X35840375Y-37473136D03*
%TD*%
D12*
%TO.P,GND,1,Pin_1*%
%TO.N,GND*%
X30500000Y-94500000D03*
%TD*%
D10*
%TO.P,Q901,1,E*%
%TO.N,GND*%
X110941579Y-57551948D03*
D11*
%TO.P,Q901,2,B*%
%TO.N,Net-(Q901-B)*%
X109671579Y-57551948D03*
%TO.P,Q901,3,C*%
%TO.N,Net-(Q901-C)*%
X108401579Y-57551948D03*
%TD*%
D10*
%TO.P,Q306,1,E*%
%TO.N,GND*%
X61251392Y-32472136D03*
D11*
%TO.P,Q306,2,B*%
%TO.N,Net-(Q306-B)*%
X59981392Y-32472136D03*
%TO.P,Q306,3,C*%
%TO.N,Net-(Q305-E)*%
X58711392Y-32472136D03*
%TD*%
D10*
%TO.P,Q710,1,E*%
%TO.N,GND*%
X61198610Y-67567889D03*
D11*
%TO.P,Q710,2,B*%
%TO.N,Net-(Q710-B)*%
X59928610Y-67567889D03*
%TO.P,Q710,3,C*%
%TO.N,/DFlipFlop5/Q*%
X58658610Y-67567889D03*
%TD*%
D12*
%TO.P,DATA_OUT,1,Pin_1*%
%TO.N,/DFlipFlop/Q*%
X18000000Y-44000000D03*
D13*
%TO.P,DATA_OUT,2,Pin_2*%
%TO.N,/DFlipFlop1/Q*%
X18000000Y-46540000D03*
%TO.P,DATA_OUT,3,Pin_3*%
%TO.N,/DFlipFlop2/Q*%
X18000000Y-49080000D03*
%TO.P,DATA_OUT,4,Pin_4*%
%TO.N,/DFlipFlop3/Q*%
X18000000Y-51620000D03*
%TO.P,DATA_OUT,5,Pin_5*%
%TO.N,/DFlipFlop4/Q*%
X18000000Y-54160000D03*
%TO.P,DATA_OUT,6,Pin_6*%
%TO.N,/DFlipFlop5/Q*%
X18000000Y-56700000D03*
%TO.P,DATA_OUT,7,Pin_7*%
%TO.N,/DFlipFlop6/Q*%
X18000000Y-59240000D03*
%TO.P,DATA_OUT,8,Pin_8*%
%TO.N,/DFlipFlop7/Q*%
X18000000Y-61780000D03*
%TD*%
D10*
%TO.P,Q202,1,E*%
%TO.N,Net-(Q202-E)*%
X32880375Y-47613136D03*
D11*
%TO.P,Q202,2,B*%
%TO.N,Net-(Q202-B)*%
X31610375Y-47613136D03*
%TO.P,Q202,3,C*%
%TO.N,Net-(Q202-C)*%
X30340375Y-47613136D03*
%TD*%
D10*
%TO.P,Q410,1,E*%
%TO.N,GND*%
X83719551Y-37473136D03*
D11*
%TO.P,Q410,2,B*%
%TO.N,Net-(Q410-B)*%
X82449551Y-37473136D03*
%TO.P,Q410,3,C*%
%TO.N,/DFlipFlop2/Q*%
X81179551Y-37473136D03*
%TD*%
D10*
%TO.P,Q203,1,E*%
%TO.N,GND*%
X43909856Y-47606534D03*
D11*
%TO.P,Q203,2,B*%
%TO.N,Net-(Q203-B)*%
X42639856Y-47606534D03*
%TO.P,Q203,3,C*%
%TO.N,Net-(Q202-E)*%
X41369856Y-47606534D03*
%TD*%
D10*
%TO.P,Q906,1,E*%
%TO.N,GND*%
X105441579Y-62551948D03*
D11*
%TO.P,Q906,2,B*%
%TO.N,Net-(Q906-B)*%
X104171579Y-62551948D03*
%TO.P,Q906,3,C*%
%TO.N,Net-(Q905-E)*%
X102901579Y-62551948D03*
%TD*%
D10*
%TO.P,Q507,1,E*%
%TO.N,Net-(Q507-E)*%
X100017272Y-42380819D03*
D11*
%TO.P,Q507,2,B*%
%TO.N,Net-(Q507-B)*%
X98747272Y-42380819D03*
%TO.P,Q507,3,C*%
%TO.N,Net-(Q507-C)*%
X97477272Y-42380819D03*
%TD*%
D10*
%TO.P,Q509,1,E*%
%TO.N,/DFlipFlop3/Q*%
X100017272Y-37380819D03*
D11*
%TO.P,Q509,2,B*%
%TO.N,Net-(Q509-B)*%
X98747272Y-37380819D03*
%TO.P,Q509,3,C*%
%TO.N,Net-(Q509-C)*%
X97477272Y-37380819D03*
%TD*%
D10*
%TO.P,Q801,1,E*%
%TO.N,GND*%
X89132940Y-57535056D03*
D11*
%TO.P,Q801,2,B*%
%TO.N,Net-(Q801-B)*%
X87862940Y-57535056D03*
%TO.P,Q801,3,C*%
%TO.N,Net-(Q801-C)*%
X86592940Y-57535056D03*
%TD*%
D10*
%TO.P,Q101,1,E*%
%TO.N,Net-(Q101-E)*%
X101230000Y-93360000D03*
D11*
%TO.P,Q101,2,B*%
%TO.N,Net-(Q101-B)*%
X102500000Y-93360000D03*
%TO.P,Q101,3,C*%
%TO.N,Net-(Q101-C)*%
X103770000Y-93360000D03*
%TD*%
D10*
%TO.P,Q601,1,E*%
%TO.N,GND*%
X43981392Y-57768489D03*
D11*
%TO.P,Q601,2,B*%
%TO.N,Net-(Q601-B)*%
X42711392Y-57768489D03*
%TO.P,Q601,3,C*%
%TO.N,Net-(Q601-C)*%
X41441392Y-57768489D03*
%TD*%
D10*
%TO.P,Q212,1,E*%
%TO.N,GND*%
X32880375Y-27473136D03*
D11*
%TO.P,Q212,2,B*%
%TO.N,Net-(Q212-B)*%
X31610375Y-27473136D03*
%TO.P,Q212,3,C*%
%TO.N,Net-(Q212-C)*%
X30340375Y-27473136D03*
%TD*%
D10*
%TO.P,Q102,1,E*%
%TO.N,GND*%
X95230000Y-93360000D03*
D11*
%TO.P,Q102,2,B*%
%TO.N,Net-(Q102-B)*%
X96500000Y-93360000D03*
%TO.P,Q102,3,C*%
%TO.N,Net-(Q101-E)*%
X97770000Y-93360000D03*
%TD*%
D10*
%TO.P,Q810,1,E*%
%TO.N,GND*%
X83632940Y-67535056D03*
D11*
%TO.P,Q810,2,B*%
%TO.N,Net-(Q810-B)*%
X82362940Y-67535056D03*
%TO.P,Q810,3,C*%
%TO.N,/DFlipFlop6/Q*%
X81092940Y-67535056D03*
%TD*%
D10*
%TO.P,Q812,1,E*%
%TO.N,GND*%
X78132940Y-57535056D03*
D11*
%TO.P,Q812,2,B*%
%TO.N,Net-(Q812-B)*%
X76862940Y-57535056D03*
%TO.P,Q812,3,C*%
%TO.N,Net-(Q812-C)*%
X75592940Y-57535056D03*
%TD*%
D14*
%TO.P,C101,1*%
%TO.N,Net-(J101-Pin_1)*%
X62886223Y-90287423D03*
%TO.P,C101,2*%
%TO.N,Net-(C101-Pad2)*%
X67886223Y-90287423D03*
%TD*%
D10*
%TO.P,Q802,1,E*%
%TO.N,Net-(Q802-E)*%
X78132940Y-77675056D03*
D11*
%TO.P,Q802,2,B*%
%TO.N,Net-(Q802-B)*%
X76862940Y-77675056D03*
%TO.P,Q802,3,C*%
%TO.N,Net-(Q802-C)*%
X75592940Y-77675056D03*
%TD*%
D10*
%TO.P,Q908,1,E*%
%TO.N,GND*%
X105441579Y-72551948D03*
D11*
%TO.P,Q908,2,B*%
%TO.N,Net-(Q908-B)*%
X104171579Y-72551948D03*
%TO.P,Q908,3,C*%
%TO.N,Net-(Q907-E)*%
X102901579Y-72551948D03*
%TD*%
D10*
%TO.P,Q707,1,E*%
%TO.N,Net-(Q707-E)*%
X55698610Y-72567889D03*
D11*
%TO.P,Q707,2,B*%
%TO.N,Net-(Q707-B)*%
X54428610Y-72567889D03*
%TO.P,Q707,3,C*%
%TO.N,Net-(Q707-C)*%
X53158610Y-72567889D03*
%TD*%
D10*
%TO.P,Q512,1,E*%
%TO.N,GND*%
X100017272Y-27380819D03*
D11*
%TO.P,Q512,2,B*%
%TO.N,Net-(Q512-B)*%
X98747272Y-27380819D03*
%TO.P,Q512,3,C*%
%TO.N,Net-(Q512-C)*%
X97477272Y-27380819D03*
%TD*%
D10*
%TO.P,Q302,1,E*%
%TO.N,Net-(Q302-E)*%
X55751392Y-47612136D03*
D11*
%TO.P,Q302,2,B*%
%TO.N,Net-(Q302-B)*%
X54481392Y-47612136D03*
%TO.P,Q302,3,C*%
%TO.N,Net-(Q302-C)*%
X53211392Y-47612136D03*
%TD*%
D10*
%TO.P,Q602,1,E*%
%TO.N,Net-(Q602-E)*%
X32981392Y-77908489D03*
D11*
%TO.P,Q602,2,B*%
%TO.N,Net-(Q602-B)*%
X31711392Y-77908489D03*
%TO.P,Q602,3,C*%
%TO.N,Net-(Q602-C)*%
X30441392Y-77908489D03*
%TD*%
D10*
%TO.P,Q806,1,E*%
%TO.N,GND*%
X83632940Y-62535056D03*
D11*
%TO.P,Q806,2,B*%
%TO.N,Net-(Q806-B)*%
X82362940Y-62535056D03*
%TO.P,Q806,3,C*%
%TO.N,Net-(Q805-E)*%
X81092940Y-62535056D03*
%TD*%
D10*
%TO.P,Q301,1,E*%
%TO.N,GND*%
X66751392Y-27472136D03*
D11*
%TO.P,Q301,2,B*%
%TO.N,Net-(Q301-B)*%
X65481392Y-27472136D03*
%TO.P,Q301,3,C*%
%TO.N,Net-(Q301-C)*%
X64211392Y-27472136D03*
%TD*%
D10*
%TO.P,Q702,1,E*%
%TO.N,Net-(Q702-E)*%
X55698610Y-77707889D03*
D11*
%TO.P,Q702,2,B*%
%TO.N,Net-(Q702-B)*%
X54428610Y-77707889D03*
%TO.P,Q702,3,C*%
%TO.N,Net-(Q702-C)*%
X53158610Y-77707889D03*
%TD*%
D10*
%TO.P,Q404,1,E*%
%TO.N,Net-(Q402-E)*%
X83733397Y-47606534D03*
D11*
%TO.P,Q404,2,B*%
%TO.N,Net-(Q404-B)*%
X82463397Y-47606534D03*
%TO.P,Q404,3,C*%
%TO.N,Net-(Q404-C)*%
X81193397Y-47606534D03*
%TD*%
D10*
%TO.P,Q703,1,E*%
%TO.N,GND*%
X66728091Y-77701287D03*
D11*
%TO.P,Q703,2,B*%
%TO.N,Net-(Q703-B)*%
X65458091Y-77701287D03*
%TO.P,Q703,3,C*%
%TO.N,Net-(Q702-E)*%
X64188091Y-77701287D03*
%TD*%
D10*
%TO.P,Q505,1,E*%
%TO.N,Net-(Q505-E)*%
X100017272Y-32380819D03*
D11*
%TO.P,Q505,2,B*%
%TO.N,Net-(Q505-B)*%
X98747272Y-32380819D03*
%TO.P,Q505,3,C*%
%TO.N,Net-(Q505-C)*%
X97477272Y-32380819D03*
%TD*%
D10*
%TO.P,Q910,1,E*%
%TO.N,GND*%
X105441579Y-67551948D03*
D11*
%TO.P,Q910,2,B*%
%TO.N,Net-(Q910-B)*%
X104171579Y-67551948D03*
%TO.P,Q910,3,C*%
%TO.N,/DFlipFlop7/Q*%
X102901579Y-67551948D03*
%TD*%
D10*
%TO.P,Q606,1,E*%
%TO.N,GND*%
X38481392Y-62768489D03*
D11*
%TO.P,Q606,2,B*%
%TO.N,Net-(Q606-B)*%
X37211392Y-62768489D03*
%TO.P,Q606,3,C*%
%TO.N,Net-(Q605-E)*%
X35941392Y-62768489D03*
%TD*%
D10*
%TO.P,Q310,1,E*%
%TO.N,GND*%
X61251392Y-37472136D03*
D11*
%TO.P,Q310,2,B*%
%TO.N,Net-(Q310-B)*%
X59981392Y-37472136D03*
%TO.P,Q310,3,C*%
%TO.N,/DFlipFlop1/Q*%
X58711392Y-37472136D03*
%TD*%
D10*
%TO.P,Q610,1,E*%
%TO.N,GND*%
X38481392Y-67768489D03*
D11*
%TO.P,Q610,2,B*%
%TO.N,Net-(Q610-B)*%
X37211392Y-67768489D03*
%TO.P,Q610,3,C*%
%TO.N,/DFlipFlop4/Q*%
X35941392Y-67768489D03*
%TD*%
D10*
%TO.P,Q511,1,E*%
%TO.N,GND*%
X105517272Y-27380819D03*
D11*
%TO.P,Q511,2,B*%
%TO.N,Net-(Q511-B)*%
X104247272Y-27380819D03*
%TO.P,Q511,3,C*%
%TO.N,Net-(Q511-C)*%
X102977272Y-27380819D03*
%TD*%
D10*
%TO.P,Q209,1,E*%
%TO.N,/DFlipFlop/Q*%
X32880375Y-37473136D03*
D11*
%TO.P,Q209,2,B*%
%TO.N,Net-(Q209-B)*%
X31610375Y-37473136D03*
%TO.P,Q209,3,C*%
%TO.N,Net-(Q209-C)*%
X30340375Y-37473136D03*
%TD*%
D10*
%TO.P,Q712,1,E*%
%TO.N,GND*%
X55698610Y-57567889D03*
D11*
%TO.P,Q712,2,B*%
%TO.N,Net-(Q712-B)*%
X54428610Y-57567889D03*
%TO.P,Q712,3,C*%
%TO.N,Net-(Q712-C)*%
X53158610Y-57567889D03*
%TD*%
D10*
%TO.P,Q307,1,E*%
%TO.N,Net-(Q307-E)*%
X55751392Y-42472136D03*
D11*
%TO.P,Q307,2,B*%
%TO.N,Net-(Q307-B)*%
X54481392Y-42472136D03*
%TO.P,Q307,3,C*%
%TO.N,Net-(Q307-C)*%
X53211392Y-42472136D03*
%TD*%
D10*
%TO.P,Q701,1,E*%
%TO.N,GND*%
X66698610Y-57567889D03*
D11*
%TO.P,Q701,2,B*%
%TO.N,Net-(Q701-B)*%
X65428610Y-57567889D03*
%TO.P,Q701,3,C*%
%TO.N,Net-(Q701-C)*%
X64158610Y-57567889D03*
%TD*%
D12*
%TO.P,+5V,1,Pin_1*%
%TO.N,+5V*%
X26000000Y-94500000D03*
%TD*%
D10*
%TO.P,Q407,1,E*%
%TO.N,Net-(Q407-E)*%
X78219551Y-42473136D03*
D11*
%TO.P,Q407,2,B*%
%TO.N,Net-(Q407-B)*%
X76949551Y-42473136D03*
%TO.P,Q407,3,C*%
%TO.N,Net-(Q407-C)*%
X75679551Y-42473136D03*
%TD*%
D10*
%TO.P,Q208,1,E*%
%TO.N,GND*%
X38380375Y-42473136D03*
D11*
%TO.P,Q208,2,B*%
%TO.N,Net-(Q208-B)*%
X37110375Y-42473136D03*
%TO.P,Q208,3,C*%
%TO.N,Net-(Q207-E)*%
X35840375Y-42473136D03*
%TD*%
D10*
%TO.P,Q506,1,E*%
%TO.N,GND*%
X105517272Y-32380819D03*
D11*
%TO.P,Q506,2,B*%
%TO.N,Net-(Q506-B)*%
X104247272Y-32380819D03*
%TO.P,Q506,3,C*%
%TO.N,Net-(Q505-E)*%
X102977272Y-32380819D03*
%TD*%
D12*
%TO.P,RD_EN,1,Pin_1*%
%TO.N,Net-(J103-Pin_1)*%
X48500000Y-94500000D03*
%TD*%
D10*
%TO.P,Q408,1,E*%
%TO.N,GND*%
X83719551Y-42473136D03*
D11*
%TO.P,Q408,2,B*%
%TO.N,Net-(Q408-B)*%
X82449551Y-42473136D03*
%TO.P,Q408,3,C*%
%TO.N,Net-(Q407-E)*%
X81179551Y-42473136D03*
%TD*%
D10*
%TO.P,Q206,1,E*%
%TO.N,GND*%
X38380375Y-32473136D03*
D11*
%TO.P,Q206,2,B*%
%TO.N,Net-(Q206-B)*%
X37110375Y-32473136D03*
%TO.P,Q206,3,C*%
%TO.N,Net-(Q205-E)*%
X35840375Y-32473136D03*
%TD*%
D10*
%TO.P,Q903,1,E*%
%TO.N,GND*%
X110971060Y-77685346D03*
D11*
%TO.P,Q903,2,B*%
%TO.N,Net-(Q903-B)*%
X109701060Y-77685346D03*
%TO.P,Q903,3,C*%
%TO.N,Net-(Q902-E)*%
X108431060Y-77685346D03*
%TD*%
D10*
%TO.P,Q905,1,E*%
%TO.N,Net-(Q905-E)*%
X99941579Y-62551948D03*
D11*
%TO.P,Q905,2,B*%
%TO.N,Net-(Q905-B)*%
X98671579Y-62551948D03*
%TO.P,Q905,3,C*%
%TO.N,Net-(Q905-C)*%
X97401579Y-62551948D03*
%TD*%
D10*
%TO.P,Q809,1,E*%
%TO.N,/DFlipFlop6/Q*%
X78132940Y-67535056D03*
D11*
%TO.P,Q809,2,B*%
%TO.N,Net-(Q809-B)*%
X76862940Y-67535056D03*
%TO.P,Q809,3,C*%
%TO.N,Net-(Q809-C)*%
X75592940Y-67535056D03*
%TD*%
D10*
%TO.P,Q403,1,E*%
%TO.N,GND*%
X89249032Y-47606534D03*
D11*
%TO.P,Q403,2,B*%
%TO.N,Net-(Q403-B)*%
X87979032Y-47606534D03*
%TO.P,Q403,3,C*%
%TO.N,Net-(Q402-E)*%
X86709032Y-47606534D03*
%TD*%
D10*
%TO.P,Q401,1,E*%
%TO.N,GND*%
X89219551Y-27473136D03*
D11*
%TO.P,Q401,2,B*%
%TO.N,Net-(Q401-B)*%
X87949551Y-27473136D03*
%TO.P,Q401,3,C*%
%TO.N,Net-(Q401-C)*%
X86679551Y-27473136D03*
%TD*%
D10*
%TO.P,Q711,1,E*%
%TO.N,GND*%
X61198610Y-57567889D03*
D11*
%TO.P,Q711,2,B*%
%TO.N,Net-(Q711-B)*%
X59928610Y-57567889D03*
%TO.P,Q711,3,C*%
%TO.N,Net-(Q711-C)*%
X58658610Y-57567889D03*
%TD*%
D10*
%TO.P,Q912,1,E*%
%TO.N,GND*%
X99941579Y-57551948D03*
D11*
%TO.P,Q912,2,B*%
%TO.N,Net-(Q912-B)*%
X98671579Y-57551948D03*
%TO.P,Q912,3,C*%
%TO.N,Net-(Q912-C)*%
X97401579Y-57551948D03*
%TD*%
D10*
%TO.P,Q609,1,E*%
%TO.N,/DFlipFlop4/Q*%
X32981392Y-67768489D03*
D11*
%TO.P,Q609,2,B*%
%TO.N,Net-(Q609-B)*%
X31711392Y-67768489D03*
%TO.P,Q609,3,C*%
%TO.N,Net-(Q609-C)*%
X30441392Y-67768489D03*
%TD*%
D10*
%TO.P,Q503,1,E*%
%TO.N,GND*%
X111046753Y-47514217D03*
D11*
%TO.P,Q503,2,B*%
%TO.N,Net-(Q503-B)*%
X109776753Y-47514217D03*
%TO.P,Q503,3,C*%
%TO.N,Net-(Q502-E)*%
X108506753Y-47514217D03*
%TD*%
D10*
%TO.P,Q803,1,E*%
%TO.N,GND*%
X89162421Y-77668454D03*
D11*
%TO.P,Q803,2,B*%
%TO.N,Net-(Q803-B)*%
X87892421Y-77668454D03*
%TO.P,Q803,3,C*%
%TO.N,Net-(Q802-E)*%
X86622421Y-77668454D03*
%TD*%
D10*
%TO.P,Q312,1,E*%
%TO.N,GND*%
X55751392Y-27472136D03*
D11*
%TO.P,Q312,2,B*%
%TO.N,Net-(Q312-B)*%
X54481392Y-27472136D03*
%TO.P,Q312,3,C*%
%TO.N,Net-(Q312-C)*%
X53211392Y-27472136D03*
%TD*%
D10*
%TO.P,Q709,1,E*%
%TO.N,/DFlipFlop5/Q*%
X55698610Y-67567889D03*
D11*
%TO.P,Q709,2,B*%
%TO.N,Net-(Q709-B)*%
X54428610Y-67567889D03*
%TO.P,Q709,3,C*%
%TO.N,Net-(Q709-C)*%
X53158610Y-67567889D03*
%TD*%
D10*
%TO.P,Q603,1,E*%
%TO.N,GND*%
X44010873Y-77901887D03*
D11*
%TO.P,Q603,2,B*%
%TO.N,Net-(Q603-B)*%
X42740873Y-77901887D03*
%TO.P,Q603,3,C*%
%TO.N,Net-(Q602-E)*%
X41470873Y-77901887D03*
%TD*%
D10*
%TO.P,Q207,1,E*%
%TO.N,Net-(Q207-E)*%
X32880375Y-42473136D03*
D11*
%TO.P,Q207,2,B*%
%TO.N,Net-(Q207-B)*%
X31610375Y-42473136D03*
%TO.P,Q207,3,C*%
%TO.N,Net-(Q207-C)*%
X30340375Y-42473136D03*
%TD*%
D10*
%TO.P,Q402,1,E*%
%TO.N,Net-(Q402-E)*%
X78219551Y-47613136D03*
D11*
%TO.P,Q402,2,B*%
%TO.N,Net-(Q402-B)*%
X76949551Y-47613136D03*
%TO.P,Q402,3,C*%
%TO.N,Net-(Q402-C)*%
X75679551Y-47613136D03*
%TD*%
D10*
%TO.P,Q305,1,E*%
%TO.N,Net-(Q305-E)*%
X55751392Y-32472136D03*
D11*
%TO.P,Q305,2,B*%
%TO.N,Net-(Q305-B)*%
X54481392Y-32472136D03*
%TO.P,Q305,3,C*%
%TO.N,Net-(Q305-C)*%
X53211392Y-32472136D03*
%TD*%
D10*
%TO.P,Q501,1,E*%
%TO.N,GND*%
X111017272Y-27380819D03*
D11*
%TO.P,Q501,2,B*%
%TO.N,Net-(Q501-B)*%
X109747272Y-27380819D03*
%TO.P,Q501,3,C*%
%TO.N,Net-(Q501-C)*%
X108477272Y-27380819D03*
%TD*%
D10*
%TO.P,Q909,1,E*%
%TO.N,/DFlipFlop7/Q*%
X99941579Y-67551948D03*
D11*
%TO.P,Q909,2,B*%
%TO.N,Net-(Q909-B)*%
X98671579Y-67551948D03*
%TO.P,Q909,3,C*%
%TO.N,Net-(Q909-C)*%
X97401579Y-67551948D03*
%TD*%
D12*
%TO.P,CLK,1,Pin_1*%
%TO.N,Net-(J101-Pin_1)*%
X36500000Y-94500000D03*
%TD*%
D10*
%TO.P,Q902,1,E*%
%TO.N,Net-(Q902-E)*%
X99941579Y-77691948D03*
D11*
%TO.P,Q902,2,B*%
%TO.N,Net-(Q902-B)*%
X98671579Y-77691948D03*
%TO.P,Q902,3,C*%
%TO.N,Net-(Q902-C)*%
X97401579Y-77691948D03*
%TD*%
D10*
%TO.P,Q805,1,E*%
%TO.N,Net-(Q805-E)*%
X78132940Y-62535056D03*
D11*
%TO.P,Q805,2,B*%
%TO.N,Net-(Q805-B)*%
X76862940Y-62535056D03*
%TO.P,Q805,3,C*%
%TO.N,Net-(Q805-C)*%
X75592940Y-62535056D03*
%TD*%
D10*
%TO.P,Q308,1,E*%
%TO.N,GND*%
X61251392Y-42472136D03*
D11*
%TO.P,Q308,2,B*%
%TO.N,Net-(Q308-B)*%
X59981392Y-42472136D03*
%TO.P,Q308,3,C*%
%TO.N,Net-(Q307-E)*%
X58711392Y-42472136D03*
%TD*%
D10*
%TO.P,Q611,1,E*%
%TO.N,GND*%
X38481392Y-57768489D03*
D11*
%TO.P,Q611,2,B*%
%TO.N,Net-(Q611-B)*%
X37211392Y-57768489D03*
%TO.P,Q611,3,C*%
%TO.N,Net-(Q611-C)*%
X35941392Y-57768489D03*
%TD*%
D10*
%TO.P,Q604,1,E*%
%TO.N,Net-(Q602-E)*%
X38495238Y-77901887D03*
D11*
%TO.P,Q604,2,B*%
%TO.N,Net-(Q604-B)*%
X37225238Y-77901887D03*
%TO.P,Q604,3,C*%
%TO.N,Net-(Q604-C)*%
X35955238Y-77901887D03*
%TD*%
D10*
%TO.P,Q103,1,E*%
%TO.N,GND*%
X89230000Y-93360000D03*
D11*
%TO.P,Q103,2,B*%
%TO.N,Net-(Q103-B)*%
X90500000Y-93360000D03*
%TO.P,Q103,3,C*%
%TO.N,WRITE_EN*%
X91770000Y-93360000D03*
%TD*%
D10*
%TO.P,Q409,1,E*%
%TO.N,/DFlipFlop2/Q*%
X78219551Y-37473136D03*
D11*
%TO.P,Q409,2,B*%
%TO.N,Net-(Q409-B)*%
X76949551Y-37473136D03*
%TO.P,Q409,3,C*%
%TO.N,Net-(Q409-C)*%
X75679551Y-37473136D03*
%TD*%
D10*
%TO.P,Q811,1,E*%
%TO.N,GND*%
X83632940Y-57535056D03*
D11*
%TO.P,Q811,2,B*%
%TO.N,Net-(Q811-B)*%
X82362940Y-57535056D03*
%TO.P,Q811,3,C*%
%TO.N,Net-(Q811-C)*%
X81092940Y-57535056D03*
%TD*%
D12*
%TO.P,DATA_IN,1,Pin_1*%
%TO.N,/DFlipFlop/D*%
X18000000Y-67500000D03*
D13*
%TO.P,DATA_IN,2,Pin_2*%
%TO.N,/DFlipFlop1/D*%
X18000000Y-70040000D03*
%TO.P,DATA_IN,3,Pin_3*%
%TO.N,/DFlipFlop2/D*%
X18000000Y-72580000D03*
%TO.P,DATA_IN,4,Pin_4*%
%TO.N,/DFlipFlop3/D*%
X18000000Y-75120000D03*
%TO.P,DATA_IN,5,Pin_5*%
%TO.N,/DFlipFlop4/D*%
X18000000Y-77660000D03*
%TO.P,DATA_IN,6,Pin_6*%
%TO.N,/DFlipFlop5/D*%
X18000000Y-80200000D03*
%TO.P,DATA_IN,7,Pin_7*%
%TO.N,/DFlipFlop6/D*%
X18000000Y-82740000D03*
%TO.P,DATA_IN,8,Pin_8*%
%TO.N,/DFlipFlop7/D*%
X18000000Y-85280000D03*
%TD*%
D10*
%TO.P,Q504,1,E*%
%TO.N,Net-(Q502-E)*%
X105531118Y-47514217D03*
D11*
%TO.P,Q504,2,B*%
%TO.N,Net-(Q504-B)*%
X104261118Y-47514217D03*
%TO.P,Q504,3,C*%
%TO.N,Net-(Q504-C)*%
X102991118Y-47514217D03*
%TD*%
D12*
%TO.P,WR_EN,1,Pin_1*%
%TO.N,Net-(J102-Pin_1)*%
X42500000Y-94500000D03*
%TD*%
D10*
%TO.P,Q304,1,E*%
%TO.N,Net-(Q302-E)*%
X61265238Y-47605534D03*
D11*
%TO.P,Q304,2,B*%
%TO.N,Net-(Q304-B)*%
X59995238Y-47605534D03*
%TO.P,Q304,3,C*%
%TO.N,Net-(Q304-C)*%
X58725238Y-47605534D03*
%TD*%
D10*
%TO.P,Q904,1,E*%
%TO.N,Net-(Q902-E)*%
X105455425Y-77685346D03*
D11*
%TO.P,Q904,2,B*%
%TO.N,Net-(Q904-B)*%
X104185425Y-77685346D03*
%TO.P,Q904,3,C*%
%TO.N,Net-(Q904-C)*%
X102915425Y-77685346D03*
%TD*%
D10*
%TO.P,Q104,1,E*%
%TO.N,GND*%
X83230000Y-93360000D03*
D11*
%TO.P,Q104,2,B*%
%TO.N,Net-(Q104-B)*%
X84500000Y-93360000D03*
%TO.P,Q104,3,C*%
%TO.N,NREAD_EN*%
X85770000Y-93360000D03*
%TD*%
D10*
%TO.P,Q508,1,E*%
%TO.N,GND*%
X105517272Y-42380819D03*
D11*
%TO.P,Q508,2,B*%
%TO.N,Net-(Q508-B)*%
X104247272Y-42380819D03*
%TO.P,Q508,3,C*%
%TO.N,Net-(Q507-E)*%
X102977272Y-42380819D03*
%TD*%
D10*
%TO.P,Q201,1,E*%
%TO.N,GND*%
X43880375Y-27473136D03*
D11*
%TO.P,Q201,2,B*%
%TO.N,Net-(Q201-B)*%
X42610375Y-27473136D03*
%TO.P,Q201,3,C*%
%TO.N,Net-(Q201-C)*%
X41340375Y-27473136D03*
%TD*%
D10*
%TO.P,Q406,1,E*%
%TO.N,GND*%
X83719551Y-32473136D03*
D11*
%TO.P,Q406,2,B*%
%TO.N,Net-(Q406-B)*%
X82449551Y-32473136D03*
%TO.P,Q406,3,C*%
%TO.N,Net-(Q405-E)*%
X81179551Y-32473136D03*
%TD*%
D10*
%TO.P,Q204,1,E*%
%TO.N,Net-(Q202-E)*%
X38394221Y-47606534D03*
D11*
%TO.P,Q204,2,B*%
%TO.N,Net-(Q204-B)*%
X37124221Y-47606534D03*
%TO.P,Q204,3,C*%
%TO.N,Net-(Q204-C)*%
X35854221Y-47606534D03*
%TD*%
D10*
%TO.P,Q211,1,E*%
%TO.N,GND*%
X38380375Y-27473136D03*
D11*
%TO.P,Q211,2,B*%
%TO.N,Net-(Q211-B)*%
X37110375Y-27473136D03*
%TO.P,Q211,3,C*%
%TO.N,Net-(Q211-C)*%
X35840375Y-27473136D03*
%TD*%
D10*
%TO.P,Q502,1,E*%
%TO.N,Net-(Q502-E)*%
X100017272Y-47520819D03*
D11*
%TO.P,Q502,2,B*%
%TO.N,Net-(Q502-B)*%
X98747272Y-47520819D03*
%TO.P,Q502,3,C*%
%TO.N,Net-(Q502-C)*%
X97477272Y-47520819D03*
%TD*%
D10*
%TO.P,Q412,1,E*%
%TO.N,GND*%
X78219551Y-27473136D03*
D11*
%TO.P,Q412,2,B*%
%TO.N,Net-(Q412-B)*%
X76949551Y-27473136D03*
%TO.P,Q412,3,C*%
%TO.N,Net-(Q412-C)*%
X75679551Y-27473136D03*
%TD*%
D10*
%TO.P,Q612,1,E*%
%TO.N,GND*%
X32981392Y-57768489D03*
D11*
%TO.P,Q612,2,B*%
%TO.N,Net-(Q612-B)*%
X31711392Y-57768489D03*
%TO.P,Q612,3,C*%
%TO.N,Net-(Q612-C)*%
X30441392Y-57768489D03*
%TD*%
D10*
%TO.P,Q807,1,E*%
%TO.N,Net-(Q807-E)*%
X78132940Y-72535056D03*
D11*
%TO.P,Q807,2,B*%
%TO.N,Net-(Q807-B)*%
X76862940Y-72535056D03*
%TO.P,Q807,3,C*%
%TO.N,Net-(Q807-C)*%
X75592940Y-72535056D03*
%TD*%
D10*
%TO.P,Q607,1,E*%
%TO.N,Net-(Q607-E)*%
X32981392Y-72768489D03*
D11*
%TO.P,Q607,2,B*%
%TO.N,Net-(Q607-B)*%
X31711392Y-72768489D03*
%TO.P,Q607,3,C*%
%TO.N,Net-(Q607-C)*%
X30441392Y-72768489D03*
%TD*%
D10*
%TO.P,Q309,1,E*%
%TO.N,/DFlipFlop1/Q*%
X55751392Y-37472136D03*
D11*
%TO.P,Q309,2,B*%
%TO.N,Net-(Q309-B)*%
X54481392Y-37472136D03*
%TO.P,Q309,3,C*%
%TO.N,Net-(Q309-C)*%
X53211392Y-37472136D03*
%TD*%
D10*
%TO.P,Q911,1,E*%
%TO.N,GND*%
X105441579Y-57551948D03*
D11*
%TO.P,Q911,2,B*%
%TO.N,Net-(Q911-B)*%
X104171579Y-57551948D03*
%TO.P,Q911,3,C*%
%TO.N,Net-(Q911-C)*%
X102901579Y-57551948D03*
%TD*%
D10*
%TO.P,Q808,1,E*%
%TO.N,GND*%
X83632940Y-72535056D03*
D11*
%TO.P,Q808,2,B*%
%TO.N,Net-(Q808-B)*%
X82362940Y-72535056D03*
%TO.P,Q808,3,C*%
%TO.N,Net-(Q807-E)*%
X81092940Y-72535056D03*
%TD*%
D10*
%TO.P,Q405,1,E*%
%TO.N,Net-(Q405-E)*%
X78219551Y-32473136D03*
D11*
%TO.P,Q405,2,B*%
%TO.N,Net-(Q405-B)*%
X76949551Y-32473136D03*
%TO.P,Q405,3,C*%
%TO.N,Net-(Q405-C)*%
X75679551Y-32473136D03*
%TD*%
D10*
%TO.P,Q704,1,E*%
%TO.N,Net-(Q702-E)*%
X61212456Y-77701287D03*
D11*
%TO.P,Q704,2,B*%
%TO.N,Net-(Q704-B)*%
X59942456Y-77701287D03*
%TO.P,Q704,3,C*%
%TO.N,Net-(Q704-C)*%
X58672456Y-77701287D03*
%TD*%
D10*
%TO.P,Q311,1,E*%
%TO.N,GND*%
X61251392Y-27472136D03*
D11*
%TO.P,Q311,2,B*%
%TO.N,Net-(Q311-B)*%
X59981392Y-27472136D03*
%TO.P,Q311,3,C*%
%TO.N,Net-(Q311-C)*%
X58711392Y-27472136D03*
%TD*%
D10*
%TO.P,Q708,1,E*%
%TO.N,GND*%
X61198610Y-72567889D03*
D11*
%TO.P,Q708,2,B*%
%TO.N,Net-(Q708-B)*%
X59928610Y-72567889D03*
%TO.P,Q708,3,C*%
%TO.N,Net-(Q707-E)*%
X58658610Y-72567889D03*
%TD*%
D10*
%TO.P,Q907,1,E*%
%TO.N,Net-(Q907-E)*%
X99941579Y-72551948D03*
D11*
%TO.P,Q907,2,B*%
%TO.N,Net-(Q907-B)*%
X98671579Y-72551948D03*
%TO.P,Q907,3,C*%
%TO.N,Net-(Q907-C)*%
X97401579Y-72551948D03*
%TD*%
D10*
%TO.P,Q303,1,E*%
%TO.N,GND*%
X66780873Y-47605534D03*
D11*
%TO.P,Q303,2,B*%
%TO.N,Net-(Q303-B)*%
X65510873Y-47605534D03*
%TO.P,Q303,3,C*%
%TO.N,Net-(Q302-E)*%
X64240873Y-47605534D03*
%TD*%
D15*
%TO.N,Net-(C101-Pad2)*%
X69535816Y-94035816D03*
%TO.N,/DFlipFlop3/D*%
X91650000Y-49750000D03*
X92250000Y-51250000D03*
X91499000Y-31205068D03*
X91650000Y-45000000D03*
%TO.N,/DFlipFlop2/D*%
X70750000Y-24000000D03*
X74500000Y-47500000D03*
%TO.N,/DFlipFlop1/D*%
X47500000Y-22050000D03*
X47575735Y-24174265D03*
X47750000Y-44250000D03*
%TO.N,/DFlipFlop/D*%
X22250000Y-50250000D03*
%TO.N,/DFlipFlop3/Q*%
X92250000Y-40000000D03*
X97280798Y-39469202D03*
X100136897Y-36157683D03*
X102886897Y-35729819D03*
%TO.N,/DFlipFlop2/Q*%
X81089176Y-35822136D03*
X78339176Y-36250000D03*
X70524551Y-40264621D03*
X75585779Y-39664221D03*
%TO.N,/DFlipFlop/Q*%
X33000000Y-36250000D03*
X35750000Y-35822136D03*
X28802182Y-37289024D03*
X25000000Y-35500000D03*
%TO.N,/DFlipFlop1/Q*%
X58621017Y-35821136D03*
X55871017Y-36249000D03*
X24918299Y-36430231D03*
X52748793Y-39251207D03*
%TO.N,Net-(J102-Pin_1)*%
X61000000Y-93789804D03*
%TO.N,Net-(Q101-B)*%
X81609265Y-90890735D03*
%TO.N,Net-(Q101-C)*%
X70500000Y-91709000D03*
X81500000Y-94500000D03*
%TO.N,GND*%
X32000000Y-43669489D03*
X37595676Y-28600970D03*
X81752565Y-68731409D03*
X36500000Y-38669489D03*
X101692259Y-48077172D03*
X82934852Y-28600970D03*
X77339176Y-43669489D03*
X81839176Y-38669489D03*
X79807927Y-78231409D03*
X99136897Y-43577172D03*
X57426379Y-48168489D03*
X104656880Y-58679782D03*
X103621847Y-41343741D03*
X77252565Y-73731409D03*
X59303185Y-71530811D03*
X81824126Y-41436058D03*
X101616566Y-78248301D03*
X59371017Y-38668489D03*
X54818235Y-73764242D03*
X34555362Y-48169489D03*
X36601017Y-68964842D03*
X82848241Y-58662890D03*
X54871017Y-43668489D03*
X34656379Y-78464842D03*
X81737515Y-71497978D03*
X36484950Y-41436058D03*
X24750000Y-51000000D03*
X23500000Y-51000000D03*
X99061204Y-73748301D03*
X59318235Y-68764242D03*
X103546154Y-71514870D03*
X103561204Y-68748301D03*
X32101017Y-73964842D03*
X36585967Y-71731411D03*
X104732573Y-28508653D03*
X73444678Y-94010172D03*
X60413911Y-58695723D03*
X103636897Y-38577172D03*
X59355967Y-41435058D03*
X57373597Y-78264242D03*
X37696693Y-58896323D03*
X87500000Y-94500000D03*
X60466693Y-28599970D03*
X79894538Y-48169489D03*
%TO.N,Net-(Q102-B)*%
X83138030Y-91570970D03*
X96500000Y-91709000D03*
%TO.N,Net-(Q103-B)*%
X72500000Y-89259409D03*
X73444678Y-90708000D03*
%TO.N,Net-(Q201-C)*%
X28573020Y-43141075D03*
X39500000Y-44269489D03*
%TO.N,Net-(Q202-E)*%
X39283008Y-47637952D03*
%TO.N,Net-(Q203-B)*%
X34500000Y-35269489D03*
X39500000Y-45269489D03*
X34500000Y-40769489D03*
%TO.N,Net-(Q204-C)*%
X28914375Y-44811642D03*
%TO.N,Net-(Q205-B)*%
X28056591Y-33089023D03*
X28914375Y-35269489D03*
%TO.N,Net-(Q205-E)*%
X29250000Y-31100000D03*
%TO.N,Net-(Q206-B)*%
X39500000Y-29669489D03*
%TO.N,Net-(Q207-B)*%
X30500000Y-45411642D03*
X28914375Y-45769489D03*
%TO.N,Net-(Q207-E)*%
X34795061Y-43669489D03*
%TO.N,Net-(Q301-C)*%
X62371017Y-44268489D03*
X51444037Y-43140075D03*
%TO.N,Net-(Q302-E)*%
X62154025Y-47636952D03*
%TO.N,Net-(Q303-B)*%
X57371017Y-40768489D03*
X62371017Y-45268489D03*
X57371017Y-35268489D03*
%TO.N,Net-(Q304-C)*%
X51785392Y-44810642D03*
%TO.N,Net-(Q305-B)*%
X50927608Y-33088023D03*
X51785392Y-35268489D03*
%TO.N,Net-(Q306-B)*%
X62371017Y-29668489D03*
%TO.N,Net-(Q307-B)*%
X51785392Y-45768489D03*
X53371017Y-45410642D03*
%TO.N,Net-(Q307-E)*%
X57498793Y-43501207D03*
%TO.N,Net-(Q401-C)*%
X84839176Y-44269489D03*
X73912196Y-43141075D03*
%TO.N,Net-(Q402-E)*%
X84622184Y-47637952D03*
%TO.N,Net-(Q403-B)*%
X79839176Y-35269489D03*
X79839176Y-40769489D03*
X84839176Y-45269489D03*
%TO.N,Net-(Q404-C)*%
X74253551Y-44811642D03*
%TO.N,Net-(Q405-B)*%
X73395767Y-33089023D03*
X74253551Y-35269489D03*
%TO.N,Net-(Q406-B)*%
X84839176Y-29669489D03*
%TO.N,Net-(Q407-E)*%
X80000000Y-43669489D03*
%TO.N,Net-(Q407-B)*%
X74253551Y-45769489D03*
X75839176Y-45411642D03*
%TO.N,Net-(Q501-C)*%
X106636897Y-44177172D03*
X95709917Y-43048758D03*
%TO.N,Net-(Q502-E)*%
X106419905Y-47545635D03*
%TO.N,Net-(Q503-B)*%
X101636897Y-35177172D03*
X106636897Y-45177172D03*
X101636897Y-40677172D03*
%TO.N,Net-(Q504-C)*%
X96051272Y-44719325D03*
%TO.N,Net-(Q505-B)*%
X96051272Y-35177172D03*
X95193488Y-32996706D03*
%TO.N,Net-(Q506-B)*%
X106636897Y-29577172D03*
%TO.N,Net-(Q507-B)*%
X97636897Y-45319325D03*
X96051272Y-45677172D03*
%TO.N,Net-(Q507-E)*%
X101750000Y-43500000D03*
%TO.N,WRITE_EN*%
X77444678Y-94484529D03*
X70000000Y-60500000D03*
X92000000Y-60750000D03*
X93500000Y-93000000D03*
X92204770Y-78150000D03*
X47500000Y-60500000D03*
X91049265Y-48549265D03*
X25324308Y-60635779D03*
%TO.N,+5V*%
X24000000Y-45750000D03*
X47000000Y-46000000D03*
X91100000Y-47250000D03*
X24120735Y-61129265D03*
X69600000Y-46250000D03*
%TO.N,/DFlipFlop4/D*%
X25100000Y-78250000D03*
%TO.N,/DFlipFlop7/D*%
X90650000Y-81000000D03*
X92250000Y-80750000D03*
X29887038Y-84165428D03*
%TO.N,/DFlipFlop5/D*%
X47750000Y-80500000D03*
X30500000Y-82750000D03*
X46750000Y-82750000D03*
%TO.N,/DFlipFlop6/D*%
X71250000Y-81400000D03*
X29998395Y-83373214D03*
X70750000Y-82600000D03*
%TO.N,/DFlipFlop7/Q*%
X92000000Y-70000000D03*
X21500000Y-54750000D03*
X97157387Y-69592613D03*
X100061204Y-66328812D03*
X102811204Y-65900948D03*
%TO.N,/DFlipFlop6/Q*%
X21500000Y-55750000D03*
X81002565Y-65884056D03*
X75636513Y-69863486D03*
X78252565Y-66311920D03*
X70250000Y-70500000D03*
%TO.N,/DFlipFlop4/Q*%
X25000000Y-70000000D03*
X35851017Y-66117489D03*
X33101017Y-66545353D03*
X30319023Y-69930977D03*
%TO.N,/DFlipFlop5/Q*%
X47750000Y-69750000D03*
X21500000Y-56750000D03*
X58568235Y-65916889D03*
X53174526Y-69825474D03*
X55818235Y-66344753D03*
%TO.N,Net-(Q601-C)*%
X28674037Y-73436428D03*
X39601017Y-74564842D03*
%TO.N,Net-(Q602-E)*%
X39384025Y-77933305D03*
%TO.N,Net-(Q603-B)*%
X39601017Y-75564842D03*
X34601017Y-65564842D03*
X34601017Y-71064842D03*
%TO.N,Net-(Q604-C)*%
X29015392Y-75106995D03*
%TO.N,Net-(Q605-B)*%
X28157608Y-63384376D03*
X29015392Y-65564842D03*
%TO.N,Net-(Q606-B)*%
X39601017Y-59964842D03*
%TO.N,Net-(Q607-B)*%
X30601017Y-75706995D03*
X29015392Y-76064842D03*
%TO.N,Net-(Q607-E)*%
X34500000Y-73964842D03*
%TO.N,Net-(Q701-C)*%
X51391255Y-73235828D03*
X62318235Y-74364242D03*
%TO.N,Net-(Q702-E)*%
X62101243Y-77732705D03*
%TO.N,Net-(Q703-B)*%
X57318235Y-65364242D03*
X62318235Y-75364242D03*
X57318235Y-70864242D03*
%TO.N,Net-(Q704-C)*%
X51732610Y-74906395D03*
%TO.N,Net-(Q705-B)*%
X51732610Y-65364242D03*
X50874826Y-63183776D03*
%TO.N,Net-(Q706-B)*%
X62318235Y-59764242D03*
%TO.N,Net-(Q707-B)*%
X53318235Y-75506395D03*
X51732610Y-75864242D03*
%TO.N,Net-(Q707-E)*%
X57250000Y-73750000D03*
%TO.N,Net-(Q801-C)*%
X73825585Y-73202995D03*
X84752565Y-74331409D03*
%TO.N,Net-(Q802-E)*%
X84535573Y-77699872D03*
%TO.N,Net-(Q803-B)*%
X79752565Y-65331409D03*
X84752565Y-75331409D03*
X79752565Y-70831409D03*
%TO.N,Net-(Q804-C)*%
X74166940Y-74873562D03*
%TO.N,Net-(Q805-B)*%
X74166940Y-65331409D03*
X73309156Y-63150943D03*
%TO.N,Net-(Q806-B)*%
X84752565Y-59731409D03*
%TO.N,Net-(Q807-E)*%
X79750000Y-73731409D03*
%TO.N,Net-(Q807-B)*%
X75752565Y-75473562D03*
X74166940Y-75831409D03*
%TO.N,Net-(Q901-C)*%
X95634224Y-73219887D03*
X106561204Y-74348301D03*
%TO.N,Net-(Q902-E)*%
X106344212Y-77716764D03*
%TO.N,Net-(Q903-B)*%
X106561204Y-75348301D03*
X101561204Y-70848301D03*
X101561204Y-65348301D03*
%TO.N,Net-(Q904-C)*%
X95975579Y-74890454D03*
%TO.N,Net-(Q905-B)*%
X95117795Y-63167835D03*
X95975579Y-65348301D03*
%TO.N,Net-(Q906-B)*%
X106561204Y-59748301D03*
%TO.N,Net-(Q907-B)*%
X97561204Y-75490454D03*
X95975579Y-75848301D03*
%TO.N,Net-(Q907-E)*%
X101500000Y-73748301D03*
%TO.N,NREAD_EN*%
X49500000Y-55350000D03*
X23799000Y-35750000D03*
X90200735Y-55049265D03*
X70250000Y-26000000D03*
X22900000Y-53500000D03*
X89575735Y-90058409D03*
X25000000Y-56500000D03*
X87500000Y-92909000D03*
X92000000Y-26250000D03*
X71750000Y-55000000D03*
X45250000Y-22650000D03*
X88750000Y-79500000D03*
X25000000Y-53749000D03*
X90250000Y-53749000D03*
X46750000Y-24267489D03*
X47750000Y-26250000D03*
%TO.N,Net-(Q205-C)*%
X34500000Y-39269489D03*
%TO.N,Net-(Q209-B)*%
X43500000Y-39269489D03*
%TO.N,Net-(Q211-C)*%
X43500000Y-37769489D03*
X39500000Y-39269489D03*
%TO.N,Net-(Q305-C)*%
X57371017Y-39268489D03*
%TO.N,Net-(Q309-B)*%
X66371017Y-39268489D03*
%TO.N,Net-(Q311-C)*%
X66371017Y-37768489D03*
X62371017Y-39268489D03*
%TO.N,Net-(Q405-C)*%
X79839176Y-39269489D03*
%TO.N,Net-(Q409-B)*%
X88839176Y-39269489D03*
%TO.N,Net-(Q411-C)*%
X88839176Y-37769489D03*
X84839176Y-39269489D03*
%TO.N,Net-(Q505-C)*%
X101636897Y-39177172D03*
%TO.N,Net-(Q509-B)*%
X110636897Y-39177172D03*
%TO.N,Net-(Q511-C)*%
X106636897Y-39177172D03*
X110636897Y-37677172D03*
%TO.N,Net-(Q605-C)*%
X34601017Y-69564842D03*
%TO.N,Net-(Q609-B)*%
X43601017Y-69564842D03*
%TO.N,Net-(Q611-C)*%
X36250000Y-61250000D03*
X39250000Y-64250000D03*
X39601017Y-69564842D03*
X43601017Y-68064842D03*
%TO.N,Net-(Q705-C)*%
X57318235Y-69364242D03*
%TO.N,Net-(Q709-B)*%
X66318235Y-69364242D03*
%TO.N,Net-(Q711-C)*%
X66318235Y-67864242D03*
X62000000Y-64000000D03*
X62318235Y-69364242D03*
X58500000Y-61250000D03*
%TO.N,Net-(Q805-C)*%
X79752565Y-69331409D03*
%TO.N,Net-(Q809-B)*%
X88752565Y-69331409D03*
%TO.N,Net-(Q811-C)*%
X80750000Y-61250000D03*
X88752565Y-67831409D03*
X84500000Y-64000000D03*
X84752565Y-69331409D03*
%TO.N,Net-(Q905-C)*%
X101561204Y-69348301D03*
%TO.N,Net-(Q909-B)*%
X110561204Y-69348301D03*
%TO.N,Net-(Q911-C)*%
X106250000Y-64000000D03*
X102750000Y-61250000D03*
X106561204Y-69348301D03*
X110561204Y-67848301D03*
%TD*%
D16*
%TO.N,Net-(C101-Pad2)*%
X69535816Y-94035816D02*
X67886223Y-92386223D01*
X67886223Y-92386223D02*
X67886223Y-90287423D01*
%TO.N,Net-(J101-Pin_1)*%
X60673646Y-92500000D02*
X38500000Y-92500000D01*
X38500000Y-92500000D02*
X36500000Y-94500000D01*
X62886223Y-90287423D02*
X60673646Y-92500000D01*
%TO.N,/DFlipFlop3/D*%
X91650000Y-50650000D02*
X92250000Y-51250000D01*
X91650000Y-49750000D02*
X91650000Y-50650000D01*
X91499000Y-31205068D02*
X91499000Y-44849000D01*
X91499000Y-44849000D02*
X91650000Y-45000000D01*
%TO.N,/DFlipFlop2/D*%
X70750000Y-24000000D02*
X70851000Y-24101000D01*
X69923551Y-40015678D02*
X69923551Y-42923551D01*
X70851000Y-39088229D02*
X69923551Y-40015678D01*
X70851000Y-24101000D02*
X70851000Y-39088229D01*
X69923551Y-42923551D02*
X74500000Y-47500000D01*
%TO.N,/DFlipFlop1/D*%
X16750000Y-32115800D02*
X26815800Y-22050000D01*
X48351000Y-43649000D02*
X47750000Y-44250000D01*
X16750000Y-68790000D02*
X16750000Y-32115800D01*
X18000000Y-70040000D02*
X16750000Y-68790000D01*
X47575735Y-24174265D02*
X48351000Y-24949530D01*
X26815800Y-22050000D02*
X47500000Y-22050000D01*
X48351000Y-24949530D02*
X48351000Y-43649000D01*
%TO.N,/DFlipFlop/D*%
X18000000Y-67500000D02*
X22903000Y-62597000D01*
X22250000Y-53699943D02*
X22250000Y-50250000D01*
X22903000Y-54352943D02*
X22250000Y-53699943D01*
X22903000Y-62597000D02*
X22903000Y-54352943D01*
%TO.N,/DFlipFlop3/Q*%
X102886897Y-37290444D02*
X102977272Y-37380819D01*
X92250000Y-40000000D02*
X92780798Y-39469202D01*
X100017272Y-37380819D02*
X100017272Y-36277308D01*
X100017272Y-36277308D02*
X100136897Y-36157683D01*
X92780798Y-39469202D02*
X97280798Y-39469202D01*
X102886897Y-35729819D02*
X102886897Y-37290444D01*
%TO.N,/DFlipFlop2/Q*%
X70524551Y-40264621D02*
X71124951Y-39664221D01*
X71124951Y-39664221D02*
X75585779Y-39664221D01*
X81089176Y-37382761D02*
X81179551Y-37473136D01*
X81089176Y-35822136D02*
X81089176Y-37382761D01*
X78219551Y-37473136D02*
X78219551Y-36369625D01*
X78219551Y-36369625D02*
X78339176Y-36250000D01*
%TO.N,/DFlipFlop/Q*%
X35750000Y-35822136D02*
X35750000Y-37382761D01*
X25000000Y-35500000D02*
X27013158Y-35500000D01*
X32880375Y-37473136D02*
X32880375Y-36369625D01*
X27013158Y-35500000D02*
X28802182Y-37289024D01*
X32880375Y-36369625D02*
X33000000Y-36250000D01*
X35750000Y-37382761D02*
X35840375Y-37473136D01*
%TO.N,/DFlipFlop1/Q*%
X49750000Y-25500000D02*
X49750000Y-36252414D01*
X55751392Y-37472136D02*
X55751392Y-36368625D01*
X47500000Y-23250000D02*
X49750000Y-25500000D01*
X58621017Y-35821136D02*
X58621017Y-37381761D01*
X26750000Y-23250000D02*
X47500000Y-23250000D01*
X24399000Y-25601000D02*
X26750000Y-23250000D01*
X24399000Y-35910932D02*
X24399000Y-25601000D01*
X58621017Y-37381761D02*
X58711392Y-37472136D01*
X24918299Y-36430231D02*
X24399000Y-35910932D01*
X49750000Y-36252414D02*
X52748793Y-39251207D01*
X55751392Y-36368625D02*
X55871017Y-36249000D01*
%TO.N,Net-(J102-Pin_1)*%
X59138804Y-95651000D02*
X43651000Y-95651000D01*
X43651000Y-95651000D02*
X42500000Y-94500000D01*
X61000000Y-93789804D02*
X59138804Y-95651000D01*
%TO.N,Net-(Q101-E)*%
X97770000Y-93360000D02*
X101230000Y-93360000D01*
%TO.N,Net-(Q101-B)*%
X102500000Y-92753000D02*
X102500000Y-93360000D01*
X81609265Y-90890735D02*
X83027530Y-92309000D01*
X102056000Y-92309000D02*
X102500000Y-92753000D01*
X83027530Y-92309000D02*
X102056000Y-92309000D01*
%TO.N,Net-(Q101-C)*%
X103770000Y-93360000D02*
X103770000Y-93585000D01*
X76843678Y-94235586D02*
X77579264Y-93500000D01*
X77612206Y-95502000D02*
X76843678Y-94733472D01*
X101853000Y-95502000D02*
X77612206Y-95502000D01*
X81500000Y-94500000D02*
X80500000Y-93500000D01*
X78709000Y-91709000D02*
X70500000Y-91709000D01*
X76843678Y-94733472D02*
X76843678Y-94235586D01*
X103770000Y-93585000D02*
X101853000Y-95502000D01*
X80500000Y-93500000D02*
X78709000Y-91709000D01*
X77579264Y-93500000D02*
X80500000Y-93500000D01*
%TO.N,GND*%
X62099659Y-58695723D02*
X62919235Y-59515299D01*
X102559439Y-71500948D02*
X100767579Y-73292808D01*
X59369889Y-41421136D02*
X60425392Y-41421136D01*
X88423032Y-48657534D02*
X88540283Y-48540283D01*
X60178179Y-38668489D02*
X59371017Y-38668489D01*
X79807927Y-78231409D02*
X80295972Y-78719454D01*
X78958940Y-73724034D02*
X78951565Y-73731409D01*
X56577392Y-43212996D02*
X56577392Y-43661114D01*
X101616566Y-78248301D02*
X102104611Y-78736346D01*
X37655392Y-71717489D02*
X38481392Y-72543489D01*
X107237897Y-29328229D02*
X107237897Y-30660194D01*
X43909856Y-47831534D02*
X43909856Y-47606534D01*
X84620600Y-28600970D02*
X85440176Y-29420546D01*
X104368366Y-68748301D02*
X103561204Y-68748301D01*
X62972017Y-30751511D02*
X61251392Y-32472136D01*
X104732573Y-28508653D02*
X106418321Y-28508653D01*
X83632940Y-62535056D02*
X83632940Y-67535056D01*
X107162204Y-59499358D02*
X107162204Y-60831323D01*
X57373597Y-78264242D02*
X57861642Y-78752287D01*
X105441579Y-67675088D02*
X104368366Y-68748301D01*
X43184873Y-78952887D02*
X43318880Y-78818880D01*
X82806940Y-71484056D02*
X83632940Y-72310056D01*
X56517235Y-73764242D02*
X54818235Y-73764242D01*
X69250000Y-78752287D02*
X80247713Y-78752287D01*
X34656379Y-78464842D02*
X35144424Y-78952887D01*
X61251392Y-42247136D02*
X61251392Y-42472136D01*
X59355967Y-41435058D02*
X59342045Y-41421136D01*
X105517272Y-42155819D02*
X105517272Y-42380819D01*
X103607925Y-41329819D02*
X102635132Y-41329819D01*
X83632940Y-67535056D02*
X83632940Y-67658196D01*
X61198610Y-62567889D02*
X61198610Y-67567889D01*
X57861642Y-78752287D02*
X65902091Y-78752287D01*
X57914424Y-48656534D02*
X58000000Y-48656534D01*
X52869252Y-48663136D02*
X57993398Y-48663136D01*
X38481392Y-67891629D02*
X37408179Y-68964842D01*
X69899000Y-91460057D02*
X70251057Y-91108000D01*
X102236346Y-78750000D02*
X102250000Y-78736346D01*
X102173702Y-48571819D02*
X102180304Y-48565217D01*
X71951229Y-94010172D02*
X69899000Y-91957943D01*
X88540283Y-48540283D02*
X89249032Y-47831534D01*
X79067100Y-91500000D02*
X81370000Y-91500000D01*
X81370000Y-91500000D02*
X83230000Y-93360000D01*
X105441579Y-67551948D02*
X105441579Y-67675088D01*
X44010873Y-78126887D02*
X44010873Y-77901887D01*
X82893551Y-41422136D02*
X83719551Y-42248136D01*
X40202017Y-61047864D02*
X38481392Y-62768489D01*
X38481392Y-62768489D02*
X38481392Y-67768489D01*
X102250000Y-78736346D02*
X110145060Y-78736346D01*
X80750800Y-71484056D02*
X78958940Y-73275916D01*
X36484950Y-41436058D02*
X36498872Y-41422136D01*
X43318880Y-78818880D02*
X44010873Y-78126887D01*
X73914136Y-48664136D02*
X80375981Y-48664136D01*
X43318880Y-78818880D02*
X57795049Y-78818880D01*
X104444059Y-38577172D02*
X103636897Y-38577172D01*
X105517272Y-37380819D02*
X105517272Y-37503959D01*
X102104611Y-78736346D02*
X102250000Y-78736346D01*
X23500000Y-61358473D02*
X23871792Y-61730265D01*
X78951565Y-73731409D02*
X77252565Y-73731409D01*
X105517272Y-37503959D02*
X104444059Y-38577172D01*
X38481392Y-67768489D02*
X38481392Y-67891629D01*
X40202017Y-59715899D02*
X40202017Y-61047864D01*
X46117390Y-45399000D02*
X49605116Y-45399000D01*
X70251057Y-91108000D02*
X70748943Y-91108000D01*
X23871792Y-61730265D02*
X28166162Y-61730265D01*
X36484950Y-41436058D02*
X36471028Y-41422136D01*
X84145000Y-94500000D02*
X83230000Y-93585000D01*
X80375981Y-48664136D02*
X80382583Y-48657534D01*
X36585967Y-71731411D02*
X36599889Y-71717489D01*
X70899000Y-45649000D02*
X73914136Y-48664136D01*
X37307162Y-38669489D02*
X36500000Y-38669489D01*
X43909856Y-47606534D02*
X46117390Y-45399000D01*
X81824126Y-41436058D02*
X81810204Y-41422136D01*
X79038176Y-43669489D02*
X77339176Y-43669489D01*
X66728091Y-77926287D02*
X66728091Y-77701287D01*
X62919235Y-60847264D02*
X61198610Y-62567889D01*
X58316470Y-71516889D02*
X56524610Y-73308749D01*
X81824126Y-41436058D02*
X81838048Y-41422136D01*
X106418321Y-28508653D02*
X107237897Y-29328229D01*
X78958940Y-73275916D02*
X78958940Y-73724034D01*
X89162421Y-77893454D02*
X89162421Y-77668454D01*
X84533989Y-58662890D02*
X85353565Y-59482466D01*
X36585967Y-71731411D02*
X36572045Y-71717489D01*
X83719551Y-42248136D02*
X83719551Y-42473136D01*
X100760204Y-73748301D02*
X99061204Y-73748301D01*
X62972017Y-29419546D02*
X62972017Y-30751511D01*
X82646338Y-38669489D02*
X81839176Y-38669489D01*
X104656880Y-58679782D02*
X106342628Y-58679782D01*
X80288259Y-78711741D02*
X80295972Y-78719454D01*
X37408179Y-68964842D02*
X36601017Y-68964842D01*
X80295972Y-78719454D02*
X88336421Y-78719454D01*
X43184873Y-78952887D02*
X44010873Y-78126887D01*
X62152441Y-28599970D02*
X62972017Y-29419546D01*
X56524610Y-73756867D02*
X56517235Y-73764242D01*
X80837411Y-41422136D02*
X79045551Y-43213996D01*
X37554375Y-41422136D02*
X38380375Y-42248136D01*
X38380375Y-32473136D02*
X38380375Y-37473136D01*
X100843272Y-43121679D02*
X100843272Y-43569797D01*
X66780873Y-47605534D02*
X68737407Y-45649000D01*
X83719551Y-32473136D02*
X83719551Y-37473136D01*
X69899000Y-91957943D02*
X69899000Y-79401287D01*
X85353565Y-59482466D02*
X85353565Y-60814431D01*
X81751437Y-71484056D02*
X82806940Y-71484056D01*
X87500000Y-94500000D02*
X84145000Y-94500000D01*
X83230000Y-93585000D02*
X83230000Y-93360000D01*
X107162204Y-60831323D02*
X105441579Y-62551948D01*
X33699000Y-43669489D02*
X32000000Y-43669489D01*
X83719551Y-37596276D02*
X82646338Y-38669489D01*
X23500000Y-51000000D02*
X23500000Y-61358473D01*
X81737515Y-71497978D02*
X81723593Y-71484056D01*
X61251392Y-37595276D02*
X60178179Y-38668489D01*
X105441579Y-72326948D02*
X105441579Y-72551948D01*
X79045551Y-43213996D02*
X79045551Y-43662114D01*
X88336421Y-78719454D02*
X89162421Y-77893454D01*
X105441579Y-62551948D02*
X105441579Y-67551948D01*
X57914424Y-48656534D02*
X65954873Y-48656534D01*
X90899000Y-46181566D02*
X90899000Y-46001057D01*
X60413911Y-58695723D02*
X62099659Y-58695723D01*
X35498235Y-41422136D02*
X33706375Y-43213996D01*
X100767579Y-73740926D02*
X100760204Y-73748301D01*
X100835897Y-43577172D02*
X99136897Y-43577172D01*
X111046753Y-47739217D02*
X111046753Y-47514217D01*
X102635132Y-41329819D02*
X100843272Y-43121679D01*
X59303185Y-71530811D02*
X59317107Y-71516889D01*
X30500000Y-94500000D02*
X30500000Y-83702887D01*
X33706375Y-43662114D02*
X33699000Y-43669489D01*
X56570017Y-43668489D02*
X54871017Y-43668489D01*
X100843272Y-43569797D02*
X100835897Y-43577172D01*
X66780873Y-47830534D02*
X66780873Y-47605534D01*
X65954873Y-48656534D02*
X66780873Y-47830534D01*
X85440176Y-29420546D02*
X85440176Y-30752511D01*
X88336421Y-78719454D02*
X88366967Y-78750000D01*
X94212313Y-45649000D02*
X97135132Y-48571819D01*
X28166162Y-61730265D02*
X31076938Y-58819489D01*
X35144424Y-78952887D02*
X43184873Y-78952887D01*
X38380375Y-37473136D02*
X38380375Y-37596276D01*
X33706375Y-43213996D02*
X33706375Y-43662114D01*
X70948943Y-91308000D02*
X78875100Y-91308000D01*
X105517272Y-32380819D02*
X105517272Y-37380819D01*
X83632940Y-67658196D02*
X82559727Y-68731409D01*
X90899000Y-46001057D02*
X91251057Y-45649000D01*
X79045551Y-43662114D02*
X79038176Y-43669489D01*
X32981392Y-57891629D02*
X32981392Y-57768489D01*
X60466693Y-28599970D02*
X62152441Y-28599970D01*
X59355967Y-41435058D02*
X59369889Y-41421136D01*
X59289263Y-71516889D02*
X58316470Y-71516889D01*
X34555362Y-48169489D02*
X31724851Y-51000000D01*
X61198610Y-67691029D02*
X60125397Y-68764242D01*
X35599252Y-71717489D02*
X33807392Y-73509349D01*
X59303185Y-71530811D02*
X59289263Y-71516889D01*
X60372610Y-71516889D02*
X61198610Y-72342889D01*
X88423032Y-48657534D02*
X89249032Y-47831534D01*
X101692259Y-48077172D02*
X102180304Y-48565217D01*
X79807927Y-78231409D02*
X80288259Y-78711741D01*
X106342628Y-58679782D02*
X107162204Y-59499358D01*
X104615579Y-71500948D02*
X105441579Y-72326948D01*
X58000000Y-48656534D02*
X65954873Y-48656534D01*
X88540283Y-48540283D02*
X90899000Y-46181566D01*
X110220753Y-48565217D02*
X111046753Y-47739217D01*
X68737407Y-45649000D02*
X70899000Y-45649000D01*
X33800017Y-73964842D02*
X32101017Y-73964842D01*
X35144424Y-78952887D02*
X35250000Y-78952887D01*
X103546154Y-71514870D02*
X103532232Y-71500948D01*
X103560076Y-71500948D02*
X104615579Y-71500948D01*
X62919235Y-59515299D02*
X62919235Y-60847264D01*
X38481392Y-72543489D02*
X38481392Y-72768489D01*
X61198610Y-72342889D02*
X61198610Y-72567889D01*
X82559727Y-68731409D02*
X81752565Y-68731409D01*
X102104611Y-78736346D02*
X110145060Y-78736346D01*
X97135132Y-48571819D02*
X102173702Y-48571819D01*
X37696693Y-58896323D02*
X39382441Y-58896323D01*
X80382583Y-48657534D02*
X88423032Y-48657534D01*
X82848241Y-58662890D02*
X84533989Y-58662890D01*
X73444678Y-94010172D02*
X71951229Y-94010172D01*
X69899000Y-79401287D02*
X69250000Y-78752287D01*
X38380375Y-37596276D02*
X37307162Y-38669489D01*
X31724851Y-51000000D02*
X24750000Y-51000000D01*
X35043407Y-48657534D02*
X43083856Y-48657534D01*
X103621847Y-41343741D02*
X103635769Y-41329819D01*
X59317107Y-71516889D02*
X60372610Y-71516889D01*
X43083856Y-48657534D02*
X43909856Y-47831534D01*
X110971060Y-77910346D02*
X110971060Y-77685346D01*
X57426379Y-48168489D02*
X57914424Y-48656534D01*
X81737515Y-71497978D02*
X81751437Y-71484056D01*
X36599889Y-71717489D02*
X37655392Y-71717489D01*
X81810204Y-41422136D02*
X80837411Y-41422136D01*
X103546154Y-71514870D02*
X103560076Y-71500948D01*
X91251057Y-45649000D02*
X94212313Y-45649000D01*
X103621847Y-41343741D02*
X103607925Y-41329819D01*
X36572045Y-71717489D02*
X35599252Y-71717489D01*
X69899000Y-91957943D02*
X69899000Y-91460057D01*
X61251392Y-32472136D02*
X61251392Y-37472136D01*
X38380375Y-42248136D02*
X38380375Y-42473136D01*
X82934852Y-28600970D02*
X84620600Y-28600970D01*
X79894538Y-48169489D02*
X80382583Y-48657534D01*
X33807392Y-73957467D02*
X33800017Y-73964842D01*
X89249032Y-47831534D02*
X89249032Y-47606534D01*
X61251392Y-37472136D02*
X61251392Y-37595276D01*
X78875100Y-91308000D02*
X79067100Y-91500000D01*
X81723593Y-71484056D02*
X80750800Y-71484056D01*
X83719551Y-37473136D02*
X83719551Y-37596276D01*
X65902091Y-78752287D02*
X66728091Y-77926287D01*
X85440176Y-30752511D02*
X83719551Y-32473136D01*
X37595676Y-28600970D02*
X39281424Y-28600970D01*
X36471028Y-41422136D02*
X35498235Y-41422136D01*
X49605116Y-45399000D02*
X52869252Y-48663136D01*
X35250000Y-78952887D02*
X43184873Y-78952887D01*
X58369252Y-41421136D02*
X56577392Y-43212996D01*
X59342045Y-41421136D02*
X58369252Y-41421136D01*
X80247713Y-78752287D02*
X80288259Y-78711741D01*
X103532232Y-71500948D02*
X102559439Y-71500948D01*
X88366967Y-78750000D02*
X102236346Y-78750000D01*
X57795049Y-78818880D02*
X57861642Y-78752287D01*
X40101000Y-30752511D02*
X38380375Y-32473136D01*
X110145060Y-78736346D02*
X110971060Y-77910346D01*
X100767579Y-73292808D02*
X100767579Y-73740926D01*
X40101000Y-29420546D02*
X40101000Y-30752511D01*
X107237897Y-30660194D02*
X105517272Y-32380819D01*
X56577392Y-43661114D02*
X56570017Y-43668489D01*
X65902091Y-78752287D02*
X69250000Y-78752287D01*
X56524610Y-73308749D02*
X56524610Y-73756867D01*
X103635769Y-41329819D02*
X104691272Y-41329819D01*
X33807392Y-73509349D02*
X33807392Y-73957467D01*
X102180304Y-48565217D02*
X110220753Y-48565217D01*
X39382441Y-58896323D02*
X40202017Y-59715899D01*
X104691272Y-41329819D02*
X105517272Y-42155819D01*
X85353565Y-60814431D02*
X83632940Y-62535056D01*
X34555362Y-48169489D02*
X35043407Y-48657534D01*
X31076938Y-58819489D02*
X32053532Y-58819489D01*
X39281424Y-28600970D02*
X40101000Y-29420546D01*
X81838048Y-41422136D02*
X82893551Y-41422136D01*
X36498872Y-41422136D02*
X37554375Y-41422136D01*
X70748943Y-91108000D02*
X70948943Y-91308000D01*
X60125397Y-68764242D02*
X59318235Y-68764242D01*
X83632940Y-72310056D02*
X83632940Y-72535056D01*
X32053532Y-58819489D02*
X32981392Y-57891629D01*
X30500000Y-83702887D02*
X35250000Y-78952887D01*
X61198610Y-67567889D02*
X61198610Y-67691029D01*
X60425392Y-41421136D02*
X61251392Y-42247136D01*
X57993398Y-48663136D02*
X58000000Y-48656534D01*
%TO.N,Net-(Q102-B)*%
X96500000Y-91709000D02*
X83276060Y-91709000D01*
X83276060Y-91709000D02*
X83138030Y-91570970D01*
%TO.N,Net-(Q103-B)*%
X72500000Y-89763322D02*
X73444678Y-90708000D01*
X72500000Y-89259409D02*
X72500000Y-89763322D01*
%TO.N,Net-(Q201-C)*%
X41340375Y-27473136D02*
X41340375Y-36609864D01*
X41340375Y-36609864D02*
X41899000Y-37168489D01*
X44101000Y-37520546D02*
X44101000Y-39668489D01*
X44101000Y-39668489D02*
X39500000Y-44269489D01*
X29237057Y-44269489D02*
X39500000Y-44269489D01*
X28573020Y-43141075D02*
X29237057Y-43805112D01*
X29237057Y-43805112D02*
X29237057Y-44269489D01*
X43748943Y-37168489D02*
X44101000Y-37520546D01*
X41899000Y-37168489D02*
X43748943Y-37168489D01*
%TO.N,Net-(Q202-E)*%
X39314426Y-47606534D02*
X41369856Y-47606534D01*
X39283008Y-47637952D02*
X39314426Y-47606534D01*
%TO.N,Net-(Q203-B)*%
X40802811Y-45269489D02*
X42639856Y-47106534D01*
X39500000Y-45269489D02*
X40802811Y-45269489D01*
X32243588Y-40769489D02*
X34500000Y-40769489D01*
X34500000Y-32215761D02*
X33706375Y-31422136D01*
X33706375Y-31422136D02*
X29998235Y-31422136D01*
X29514375Y-31905996D02*
X29514375Y-38040276D01*
X29998235Y-31422136D02*
X29514375Y-31905996D01*
X42639856Y-47106534D02*
X42639856Y-47606534D01*
X29514375Y-38040276D02*
X32243588Y-40769489D01*
X34500000Y-35269489D02*
X34500000Y-32215761D01*
%TO.N,Net-(Q204-C)*%
X28914375Y-44811642D02*
X33059329Y-44811642D01*
X33059329Y-44811642D02*
X35854221Y-47606534D01*
%TO.N,Net-(Q205-B)*%
X28914375Y-35269489D02*
X28914375Y-34183864D01*
X28914375Y-34183864D02*
X28000000Y-33269489D01*
X28000000Y-33269489D02*
X28056591Y-33212898D01*
X28056591Y-33212898D02*
X28056591Y-33089023D01*
%TO.N,Net-(Q205-E)*%
X29350000Y-31000000D02*
X34367239Y-31000000D01*
X34367239Y-31000000D02*
X35840375Y-32473136D01*
X29250000Y-31100000D02*
X29350000Y-31000000D01*
%TO.N,Net-(Q206-B)*%
X39500000Y-29669489D02*
X39307022Y-29669489D01*
X37110375Y-31866136D02*
X37110375Y-32473136D01*
X39307022Y-29669489D02*
X37110375Y-31866136D01*
%TO.N,Net-(Q207-B)*%
X28914375Y-45769489D02*
X30142153Y-45769489D01*
X30142153Y-45769489D02*
X30500000Y-45411642D01*
%TO.N,Net-(Q207-E)*%
X34795061Y-43669489D02*
X34795061Y-42874428D01*
X34795061Y-42874428D02*
X35196353Y-42473136D01*
X35196353Y-42473136D02*
X35840375Y-42473136D01*
%TO.N,Net-(Q301-C)*%
X66972017Y-39667489D02*
X62371017Y-44268489D01*
X64211392Y-36608864D02*
X64770017Y-37167489D01*
X66972017Y-37519546D02*
X66972017Y-39667489D01*
X64211392Y-27472136D02*
X64211392Y-36608864D01*
X66619960Y-37167489D02*
X66972017Y-37519546D01*
X52108074Y-43804112D02*
X52108074Y-44268489D01*
X52108074Y-44268489D02*
X62371017Y-44268489D01*
X51444037Y-43140075D02*
X52108074Y-43804112D01*
X64770017Y-37167489D02*
X66619960Y-37167489D01*
%TO.N,Net-(Q302-E)*%
X62154025Y-47636952D02*
X62185443Y-47605534D01*
X62185443Y-47605534D02*
X64240873Y-47605534D01*
%TO.N,Net-(Q303-B)*%
X56577392Y-31421136D02*
X52869252Y-31421136D01*
X57371017Y-35268489D02*
X57371017Y-32214761D01*
X63673828Y-45268489D02*
X65510873Y-47105534D01*
X52385392Y-38039276D02*
X55114605Y-40768489D01*
X57371017Y-32214761D02*
X56577392Y-31421136D01*
X65510873Y-47105534D02*
X65510873Y-47605534D01*
X52385392Y-31904996D02*
X52385392Y-38039276D01*
X52869252Y-31421136D02*
X52385392Y-31904996D01*
X55114605Y-40768489D02*
X57371017Y-40768489D01*
X62371017Y-45268489D02*
X63673828Y-45268489D01*
%TO.N,Net-(Q304-C)*%
X55930346Y-44810642D02*
X58725238Y-47605534D01*
X51785392Y-44810642D02*
X55930346Y-44810642D01*
%TO.N,Net-(Q305-B)*%
X50871017Y-33268489D02*
X50927608Y-33211898D01*
X51785392Y-35268489D02*
X51785392Y-34182864D01*
X50927608Y-33211898D02*
X50927608Y-33088023D01*
X51785392Y-34182864D02*
X50871017Y-33268489D01*
%TO.N,Net-(Q305-E)*%
X57619960Y-35869489D02*
X58711392Y-34778057D01*
X55751392Y-32472136D02*
X55751392Y-34498807D01*
X55751392Y-34498807D02*
X57122074Y-35869489D01*
X57122074Y-35869489D02*
X57619960Y-35869489D01*
X58711392Y-34778057D02*
X58711392Y-32472136D01*
%TO.N,Net-(Q306-B)*%
X59981392Y-31865136D02*
X59981392Y-32472136D01*
X62178039Y-29668489D02*
X59981392Y-31865136D01*
X62371017Y-29668489D02*
X62178039Y-29668489D01*
%TO.N,Net-(Q307-B)*%
X51785392Y-45768489D02*
X53013170Y-45768489D01*
X53013170Y-45768489D02*
X53371017Y-45410642D01*
%TO.N,Net-(Q307-E)*%
X57498793Y-43501207D02*
X57682321Y-43501207D01*
X57682321Y-43501207D02*
X58711392Y-42472136D01*
%TO.N,Net-(Q401-C)*%
X73912196Y-43141075D02*
X74576233Y-43805112D01*
X74576233Y-43805112D02*
X74576233Y-44269489D01*
X89440176Y-39668489D02*
X84839176Y-44269489D01*
X87238176Y-37168489D02*
X89088119Y-37168489D01*
X89440176Y-37520546D02*
X89440176Y-39668489D01*
X86679551Y-36609864D02*
X87238176Y-37168489D01*
X89088119Y-37168489D02*
X89440176Y-37520546D01*
X86679551Y-27473136D02*
X86679551Y-36609864D01*
X74576233Y-44269489D02*
X84839176Y-44269489D01*
%TO.N,Net-(Q402-E)*%
X84622184Y-47637952D02*
X84653602Y-47606534D01*
X84653602Y-47606534D02*
X86709032Y-47606534D01*
%TO.N,Net-(Q403-B)*%
X79839176Y-35269489D02*
X79839176Y-32215761D01*
X77582764Y-40769489D02*
X79839176Y-40769489D01*
X86141987Y-45269489D02*
X87979032Y-47106534D01*
X79045551Y-31422136D02*
X75337411Y-31422136D01*
X87979032Y-47106534D02*
X87979032Y-47606534D01*
X74853551Y-38040276D02*
X77582764Y-40769489D01*
X79839176Y-32215761D02*
X79045551Y-31422136D01*
X74853551Y-31905996D02*
X74853551Y-38040276D01*
X84839176Y-45269489D02*
X86141987Y-45269489D01*
X75337411Y-31422136D02*
X74853551Y-31905996D01*
%TO.N,Net-(Q404-C)*%
X78398505Y-44811642D02*
X81193397Y-47606534D01*
X74253551Y-44811642D02*
X78398505Y-44811642D01*
%TO.N,Net-(Q405-E)*%
X80088119Y-35870489D02*
X81179551Y-34779057D01*
X81179551Y-34779057D02*
X81179551Y-32473136D01*
X79590233Y-35870489D02*
X80088119Y-35870489D01*
X78219551Y-34499807D02*
X79590233Y-35870489D01*
X78219551Y-32473136D02*
X78219551Y-34499807D01*
%TO.N,Net-(Q405-B)*%
X74253551Y-34183864D02*
X73339176Y-33269489D01*
X74253551Y-35269489D02*
X74253551Y-34183864D01*
X73339176Y-33269489D02*
X73395767Y-33212898D01*
X73395767Y-33212898D02*
X73395767Y-33089023D01*
%TO.N,Net-(Q406-B)*%
X82449551Y-31866136D02*
X82449551Y-32473136D01*
X84646198Y-29669489D02*
X82449551Y-31866136D01*
X84839176Y-29669489D02*
X84646198Y-29669489D01*
%TO.N,Net-(Q407-E)*%
X80000000Y-43652687D02*
X81179551Y-42473136D01*
X80000000Y-43669489D02*
X80000000Y-43652687D01*
%TO.N,Net-(Q407-B)*%
X75481329Y-45769489D02*
X75839176Y-45411642D01*
X74253551Y-45769489D02*
X75481329Y-45769489D01*
%TO.N,Net-(Q501-C)*%
X96373954Y-44177172D02*
X106636897Y-44177172D01*
X110885840Y-37076172D02*
X111237897Y-37428229D01*
X95709917Y-43048758D02*
X96373954Y-43712795D01*
X109035897Y-37076172D02*
X110885840Y-37076172D01*
X111237897Y-39576172D02*
X106636897Y-44177172D01*
X108477272Y-27380819D02*
X108477272Y-36517547D01*
X96373954Y-43712795D02*
X96373954Y-44177172D01*
X111237897Y-37428229D02*
X111237897Y-39576172D01*
X108477272Y-36517547D02*
X109035897Y-37076172D01*
%TO.N,Net-(Q502-E)*%
X106451323Y-47514217D02*
X108506753Y-47514217D01*
X106419905Y-47545635D02*
X106451323Y-47514217D01*
%TO.N,Net-(Q503-B)*%
X96651272Y-37947959D02*
X99380485Y-40677172D01*
X96651272Y-31813679D02*
X96651272Y-37947959D01*
X101636897Y-32123444D02*
X100843272Y-31329819D01*
X99380485Y-40677172D02*
X101636897Y-40677172D01*
X107939708Y-45177172D02*
X109776753Y-47014217D01*
X101636897Y-35177172D02*
X101636897Y-32123444D01*
X100843272Y-31329819D02*
X97135132Y-31329819D01*
X97135132Y-31329819D02*
X96651272Y-31813679D01*
X106636897Y-45177172D02*
X107939708Y-45177172D01*
X109776753Y-47014217D02*
X109776753Y-47514217D01*
%TO.N,Net-(Q504-C)*%
X96051272Y-44719325D02*
X100196226Y-44719325D01*
X100196226Y-44719325D02*
X102991118Y-47514217D01*
%TO.N,Net-(Q505-B)*%
X96051272Y-34091547D02*
X95136897Y-33177172D01*
X95193488Y-33120581D02*
X95193488Y-32996706D01*
X95136897Y-33177172D02*
X95193488Y-33120581D01*
X96051272Y-35177172D02*
X96051272Y-34091547D01*
%TO.N,Net-(Q505-E)*%
X102977272Y-34686740D02*
X102977272Y-32380819D01*
X101885840Y-35778172D02*
X102977272Y-34686740D01*
X100017272Y-34407490D02*
X101387954Y-35778172D01*
X101387954Y-35778172D02*
X101885840Y-35778172D01*
X100017272Y-32380819D02*
X100017272Y-34407490D01*
%TO.N,Net-(Q506-B)*%
X106636897Y-29577172D02*
X106443919Y-29577172D01*
X106443919Y-29577172D02*
X104247272Y-31773819D01*
X104247272Y-31773819D02*
X104247272Y-32380819D01*
%TO.N,Net-(Q507-B)*%
X96051272Y-45677172D02*
X97279050Y-45677172D01*
X97279050Y-45677172D02*
X97636897Y-45319325D01*
%TO.N,Net-(Q507-E)*%
X101858091Y-43500000D02*
X102977272Y-42380819D01*
X101750000Y-43500000D02*
X101858091Y-43500000D01*
%TO.N,WRITE_EN*%
X91770000Y-93360000D02*
X93140000Y-93360000D01*
X29476031Y-56484056D02*
X25324308Y-60635779D01*
X90254000Y-95101000D02*
X91770000Y-93585000D01*
X92204770Y-78150000D02*
X91399000Y-77344230D01*
X91399000Y-57924116D02*
X91049265Y-57574381D01*
X51515944Y-56484056D02*
X47500000Y-60500000D01*
X91399000Y-77344230D02*
X91399000Y-61351000D01*
X91770000Y-93585000D02*
X91770000Y-93360000D01*
X77444678Y-94484529D02*
X78061149Y-95101000D01*
X51750000Y-56484056D02*
X29476031Y-56484056D01*
X74015944Y-56484056D02*
X51750000Y-56484056D01*
X91399000Y-61351000D02*
X92000000Y-60750000D01*
X74015944Y-56484056D02*
X70000000Y-60500000D01*
X89958940Y-56484056D02*
X74015944Y-56484056D01*
X93140000Y-93360000D02*
X93500000Y-93000000D01*
X78061149Y-95101000D02*
X90254000Y-95101000D01*
X91399000Y-57924116D02*
X89958940Y-56484056D01*
X91049265Y-57574381D02*
X91049265Y-48549265D01*
X51750000Y-56484056D02*
X51515944Y-56484056D01*
X91399000Y-61351000D02*
X91399000Y-57924116D01*
%TO.N,+5V*%
X24120735Y-45870735D02*
X24000000Y-45750000D01*
X40643390Y-52750000D02*
X47000000Y-46393390D01*
X69600000Y-51150000D02*
X69600000Y-46250000D01*
X91000000Y-47350000D02*
X91000000Y-47750000D01*
X40643390Y-52750000D02*
X68000000Y-52750000D01*
X86000000Y-52750000D02*
X68000000Y-52750000D01*
X91000000Y-47750000D02*
X86000000Y-52750000D01*
X68000000Y-52750000D02*
X69600000Y-51150000D01*
X24120735Y-52750000D02*
X24120735Y-45870735D01*
X91100000Y-47250000D02*
X91000000Y-47350000D01*
X24120735Y-61129265D02*
X24120735Y-52750000D01*
X24120735Y-52750000D02*
X40643390Y-52750000D01*
X47000000Y-46393390D02*
X47000000Y-46000000D01*
%TO.N,/DFlipFlop4/D*%
X18000000Y-77660000D02*
X24510000Y-77660000D01*
X24510000Y-77660000D02*
X25100000Y-78250000D01*
%TO.N,/DFlipFlop7/D*%
X92000000Y-81000000D02*
X92250000Y-80750000D01*
X90650000Y-81000000D02*
X92000000Y-81000000D01*
X18000000Y-85280000D02*
X19114572Y-84165428D01*
X19114572Y-84165428D02*
X29887038Y-84165428D01*
%TO.N,/DFlipFlop5/D*%
X20550000Y-82750000D02*
X30500000Y-82750000D01*
X18000000Y-80200000D02*
X20550000Y-82750000D01*
X46750000Y-82750000D02*
X47750000Y-81750000D01*
X47750000Y-81750000D02*
X47750000Y-80500000D01*
%TO.N,/DFlipFlop6/D*%
X71000000Y-81400000D02*
X70750000Y-81650000D01*
X70750000Y-81650000D02*
X70750000Y-82600000D01*
X18000000Y-82740000D02*
X18633214Y-83373214D01*
X71250000Y-81400000D02*
X71000000Y-81400000D01*
X18633214Y-83373214D02*
X29998395Y-83373214D01*
%TO.N,/DFlipFlop7/Q*%
X22502000Y-55752000D02*
X21500000Y-54750000D01*
X92000000Y-70000000D02*
X96750000Y-70000000D01*
X96750000Y-70000000D02*
X97157387Y-69592613D01*
X18000000Y-61780000D02*
X22502000Y-57278000D01*
X102811204Y-67461573D02*
X102901579Y-67551948D01*
X99941579Y-66448437D02*
X100061204Y-66328812D01*
X102811204Y-65900948D02*
X102811204Y-67461573D01*
X99941579Y-67551948D02*
X99941579Y-66448437D01*
X22502000Y-57278000D02*
X22502000Y-55752000D01*
%TO.N,/DFlipFlop6/Q*%
X81002565Y-65884056D02*
X81002565Y-67444681D01*
X22101000Y-56998943D02*
X22101000Y-56351000D01*
X22101000Y-56351000D02*
X21500000Y-55750000D01*
X70886514Y-69863486D02*
X75636513Y-69863486D01*
X70250000Y-70500000D02*
X70886514Y-69863486D01*
X19859943Y-59240000D02*
X22101000Y-56998943D01*
X18000000Y-59240000D02*
X19859943Y-59240000D01*
X81002565Y-67444681D02*
X81092940Y-67535056D01*
X78132940Y-67535056D02*
X78132940Y-66431545D01*
X78132940Y-66431545D02*
X78252565Y-66311920D01*
%TO.N,/DFlipFlop4/Q*%
X35851017Y-66117489D02*
X35851017Y-67678114D01*
X25000000Y-70000000D02*
X30250000Y-70000000D01*
X32981392Y-67768489D02*
X32981392Y-66664978D01*
X32981392Y-66664978D02*
X33101017Y-66545353D01*
X30250000Y-70000000D02*
X30319023Y-69930977D01*
X35851017Y-67678114D02*
X35941392Y-67768489D01*
%TO.N,/DFlipFlop5/Q*%
X21450000Y-56700000D02*
X21500000Y-56750000D01*
X53099052Y-69750000D02*
X53174526Y-69825474D01*
X55698610Y-66464378D02*
X55818235Y-66344753D01*
X55698610Y-67567889D02*
X55698610Y-66464378D01*
X58568235Y-67477514D02*
X58658610Y-67567889D01*
X47750000Y-69750000D02*
X53099052Y-69750000D01*
X58568235Y-65916889D02*
X58568235Y-67477514D01*
X18000000Y-56700000D02*
X21450000Y-56700000D01*
%TO.N,Net-(Q601-C)*%
X43849960Y-67463842D02*
X44202017Y-67815899D01*
X44202017Y-69963842D02*
X39601017Y-74564842D01*
X41441392Y-57768489D02*
X41441392Y-66905217D01*
X29338074Y-74564842D02*
X39601017Y-74564842D01*
X44202017Y-67815899D02*
X44202017Y-69963842D01*
X29338074Y-74100465D02*
X29338074Y-74564842D01*
X28674037Y-73436428D02*
X29338074Y-74100465D01*
X42000017Y-67463842D02*
X43849960Y-67463842D01*
X41441392Y-66905217D02*
X42000017Y-67463842D01*
%TO.N,Net-(Q602-E)*%
X39384025Y-77933305D02*
X39415443Y-77901887D01*
X39415443Y-77901887D02*
X41470873Y-77901887D01*
%TO.N,Net-(Q603-B)*%
X34601017Y-65564842D02*
X34601017Y-62511114D01*
X34601017Y-62511114D02*
X33807392Y-61717489D01*
X29615392Y-62201349D02*
X29615392Y-68335629D01*
X40903828Y-75564842D02*
X42740873Y-77401887D01*
X30099252Y-61717489D02*
X29615392Y-62201349D01*
X39601017Y-75564842D02*
X40903828Y-75564842D01*
X42740873Y-77401887D02*
X42740873Y-77901887D01*
X29615392Y-68335629D02*
X32344605Y-71064842D01*
X32344605Y-71064842D02*
X34601017Y-71064842D01*
X33807392Y-61717489D02*
X30099252Y-61717489D01*
%TO.N,Net-(Q604-C)*%
X29015392Y-75106995D02*
X33160346Y-75106995D01*
X33160346Y-75106995D02*
X35955238Y-77901887D01*
%TO.N,Net-(Q605-E)*%
X32981392Y-64795160D02*
X34352074Y-66165842D01*
X34952721Y-66165842D02*
X35941392Y-65177171D01*
X35941392Y-65177171D02*
X35941392Y-62768489D01*
X32981392Y-62768489D02*
X32981392Y-64795160D01*
X34352074Y-66165842D02*
X34952721Y-66165842D01*
%TO.N,Net-(Q605-B)*%
X29015392Y-65564842D02*
X29015392Y-64479217D01*
X28101017Y-63564842D02*
X28157608Y-63508251D01*
X28157608Y-63508251D02*
X28157608Y-63384376D01*
X29015392Y-64479217D02*
X28101017Y-63564842D01*
%TO.N,Net-(Q606-B)*%
X39601017Y-59964842D02*
X39408039Y-59964842D01*
X37211392Y-62161489D02*
X37211392Y-62768489D01*
X39408039Y-59964842D02*
X37211392Y-62161489D01*
%TO.N,Net-(Q607-B)*%
X29015392Y-76064842D02*
X30243170Y-76064842D01*
X30243170Y-76064842D02*
X30601017Y-75706995D01*
%TO.N,Net-(Q607-E)*%
X34745039Y-73964842D02*
X35941392Y-72768489D01*
X34500000Y-73964842D02*
X34745039Y-73964842D01*
%TO.N,Net-(Q701-C)*%
X66567178Y-67263242D02*
X66919235Y-67615299D01*
X52055292Y-74364242D02*
X62318235Y-74364242D01*
X66919235Y-69763242D02*
X62318235Y-74364242D01*
X64717235Y-67263242D02*
X66567178Y-67263242D01*
X52055292Y-73899865D02*
X52055292Y-74364242D01*
X64158610Y-57567889D02*
X64158610Y-66704617D01*
X64158610Y-66704617D02*
X64717235Y-67263242D01*
X66919235Y-67615299D02*
X66919235Y-69763242D01*
X51391255Y-73235828D02*
X52055292Y-73899865D01*
%TO.N,Net-(Q702-E)*%
X62101243Y-77732705D02*
X62132661Y-77701287D01*
X62132661Y-77701287D02*
X64188091Y-77701287D01*
%TO.N,Net-(Q703-B)*%
X52816470Y-61516889D02*
X52332610Y-62000749D01*
X56524610Y-61516889D02*
X52816470Y-61516889D01*
X57318235Y-62310514D02*
X56524610Y-61516889D01*
X62318235Y-75364242D02*
X63621046Y-75364242D01*
X52332610Y-62000749D02*
X52332610Y-68135029D01*
X52332610Y-68135029D02*
X55061823Y-70864242D01*
X65458091Y-77201287D02*
X65458091Y-77701287D01*
X63621046Y-75364242D02*
X65458091Y-77201287D01*
X55061823Y-70864242D02*
X57318235Y-70864242D01*
X57318235Y-65364242D02*
X57318235Y-62310514D01*
%TO.N,Net-(Q704-C)*%
X55877564Y-74906395D02*
X58672456Y-77701287D01*
X51732610Y-74906395D02*
X55877564Y-74906395D01*
%TO.N,Net-(Q705-B)*%
X50874826Y-63307651D02*
X50874826Y-63183776D01*
X51732610Y-65364242D02*
X51732610Y-64278617D01*
X50818235Y-63364242D02*
X50874826Y-63307651D01*
X51732610Y-64278617D02*
X50818235Y-63364242D01*
%TO.N,Net-(Q705-E)*%
X57069292Y-65965242D02*
X57567178Y-65965242D01*
X57567178Y-65965242D02*
X58658610Y-64873810D01*
X55698610Y-62567889D02*
X55698610Y-64594560D01*
X58658610Y-64873810D02*
X58658610Y-62567889D01*
X55698610Y-64594560D02*
X57069292Y-65965242D01*
%TO.N,Net-(Q706-B)*%
X59928610Y-61960889D02*
X59928610Y-62567889D01*
X62318235Y-59764242D02*
X62125257Y-59764242D01*
X62125257Y-59764242D02*
X59928610Y-61960889D01*
%TO.N,Net-(Q707-B)*%
X52960388Y-75864242D02*
X53318235Y-75506395D01*
X51732610Y-75864242D02*
X52960388Y-75864242D01*
%TO.N,Net-(Q707-E)*%
X57250000Y-73750000D02*
X57476499Y-73750000D01*
X57476499Y-73750000D02*
X58658610Y-72567889D01*
%TO.N,Net-(Q801-C)*%
X89001508Y-67230409D02*
X89353565Y-67582466D01*
X74489622Y-74331409D02*
X84752565Y-74331409D01*
X89353565Y-67582466D02*
X89353565Y-69730409D01*
X87151565Y-67230409D02*
X89001508Y-67230409D01*
X74489622Y-73867032D02*
X74489622Y-74331409D01*
X86592940Y-57535056D02*
X86592940Y-66671784D01*
X89353565Y-69730409D02*
X84752565Y-74331409D01*
X86592940Y-66671784D02*
X87151565Y-67230409D01*
X73825585Y-73202995D02*
X74489622Y-73867032D01*
%TO.N,Net-(Q802-E)*%
X84566991Y-77668454D02*
X86622421Y-77668454D01*
X84535573Y-77699872D02*
X84566991Y-77668454D01*
%TO.N,Net-(Q803-B)*%
X78958940Y-61484056D02*
X75250800Y-61484056D01*
X74766940Y-61967916D02*
X74766940Y-68102196D01*
X77496153Y-70831409D02*
X79752565Y-70831409D01*
X84752565Y-75331409D02*
X86055376Y-75331409D01*
X79752565Y-65331409D02*
X79752565Y-62277681D01*
X75250800Y-61484056D02*
X74766940Y-61967916D01*
X86055376Y-75331409D02*
X87892421Y-77168454D01*
X74766940Y-68102196D02*
X77496153Y-70831409D01*
X87892421Y-77168454D02*
X87892421Y-77668454D01*
X79752565Y-62277681D02*
X78958940Y-61484056D01*
%TO.N,Net-(Q804-C)*%
X78311894Y-74873562D02*
X81106786Y-77668454D01*
X74166940Y-74873562D02*
X78311894Y-74873562D01*
%TO.N,Net-(Q805-E)*%
X78132940Y-62535056D02*
X78132940Y-64561727D01*
X78132940Y-64561727D02*
X79503622Y-65932409D01*
X81092940Y-64840977D02*
X81092940Y-62535056D01*
X80001508Y-65932409D02*
X81092940Y-64840977D01*
X79503622Y-65932409D02*
X80001508Y-65932409D01*
%TO.N,Net-(Q805-B)*%
X74166940Y-64245784D02*
X73252565Y-63331409D01*
X74166940Y-65331409D02*
X74166940Y-64245784D01*
X73252565Y-63331409D02*
X73309156Y-63274818D01*
X73309156Y-63274818D02*
X73309156Y-63150943D01*
%TO.N,Net-(Q806-B)*%
X82362940Y-61928056D02*
X82362940Y-62535056D01*
X84559587Y-59731409D02*
X82362940Y-61928056D01*
X84752565Y-59731409D02*
X84559587Y-59731409D01*
%TO.N,Net-(Q807-E)*%
X79750000Y-73731409D02*
X79896587Y-73731409D01*
X79896587Y-73731409D02*
X81092940Y-72535056D01*
%TO.N,Net-(Q807-B)*%
X74166940Y-75831409D02*
X75394718Y-75831409D01*
X75394718Y-75831409D02*
X75752565Y-75473562D01*
%TO.N,Net-(Q901-C)*%
X111162204Y-67599358D02*
X111162204Y-69747301D01*
X111162204Y-69747301D02*
X106561204Y-74348301D01*
X95634224Y-73219887D02*
X96298261Y-73883924D01*
X110810147Y-67247301D02*
X111162204Y-67599358D01*
X108401579Y-57551948D02*
X108401579Y-66688676D01*
X108960204Y-67247301D02*
X110810147Y-67247301D01*
X96298261Y-74348301D02*
X106561204Y-74348301D01*
X96298261Y-73883924D02*
X96298261Y-74348301D01*
X108401579Y-66688676D02*
X108960204Y-67247301D01*
%TO.N,Net-(Q902-E)*%
X106375630Y-77685346D02*
X108431060Y-77685346D01*
X106344212Y-77716764D02*
X106375630Y-77685346D01*
%TO.N,Net-(Q903-B)*%
X107864015Y-75348301D02*
X109701060Y-77185346D01*
X101561204Y-62294573D02*
X100767579Y-61500948D01*
X101561204Y-65348301D02*
X101561204Y-62294573D01*
X96575579Y-61984808D02*
X96575579Y-68119088D01*
X100767579Y-61500948D02*
X97059439Y-61500948D01*
X109701060Y-77185346D02*
X109701060Y-77685346D01*
X96575579Y-68119088D02*
X99304792Y-70848301D01*
X97059439Y-61500948D02*
X96575579Y-61984808D01*
X99304792Y-70848301D02*
X101561204Y-70848301D01*
X106561204Y-75348301D02*
X107864015Y-75348301D01*
%TO.N,Net-(Q904-C)*%
X100120533Y-74890454D02*
X102915425Y-77685346D01*
X95975579Y-74890454D02*
X100120533Y-74890454D01*
%TO.N,Net-(Q905-E)*%
X101912908Y-65949301D02*
X102901579Y-64960630D01*
X99941579Y-64578619D02*
X101312261Y-65949301D01*
X102901579Y-64960630D02*
X102901579Y-62551948D01*
X99941579Y-62551948D02*
X99941579Y-64578619D01*
X101312261Y-65949301D02*
X101912908Y-65949301D01*
%TO.N,Net-(Q905-B)*%
X95117795Y-63291710D02*
X95117795Y-63167835D01*
X95975579Y-65348301D02*
X95975579Y-64262676D01*
X95061204Y-63348301D02*
X95117795Y-63291710D01*
X95975579Y-64262676D02*
X95061204Y-63348301D01*
%TO.N,Net-(Q906-B)*%
X104171579Y-61944948D02*
X104171579Y-62551948D01*
X106368226Y-59748301D02*
X104171579Y-61944948D01*
X106561204Y-59748301D02*
X106368226Y-59748301D01*
%TO.N,Net-(Q907-B)*%
X97203357Y-75848301D02*
X97561204Y-75490454D01*
X95975579Y-75848301D02*
X97203357Y-75848301D01*
%TO.N,Net-(Q907-E)*%
X101500000Y-73309505D02*
X102257557Y-72551948D01*
X101500000Y-73748301D02*
X101500000Y-73309505D01*
X102257557Y-72551948D02*
X102901579Y-72551948D01*
%TO.N,NREAD_EN*%
X49850000Y-55000000D02*
X26500000Y-55000000D01*
X26500000Y-55000000D02*
X25000000Y-56500000D01*
X90200735Y-55049265D02*
X71799265Y-55049265D01*
X71799265Y-55049265D02*
X71750000Y-55000000D01*
X89575735Y-80325735D02*
X88750000Y-79500000D01*
X22900000Y-36750000D02*
X22900000Y-26532900D01*
X90200735Y-53798265D02*
X90250000Y-53749000D01*
X71750000Y-55000000D02*
X49850000Y-55000000D01*
X90200735Y-55049265D02*
X90200735Y-53798265D01*
X88400000Y-22650000D02*
X92000000Y-26250000D01*
X66900000Y-22650000D02*
X88400000Y-22650000D01*
X89575735Y-90058409D02*
X89575735Y-80325735D01*
X25249000Y-53749000D02*
X26500000Y-55000000D01*
X26782900Y-22650000D02*
X45250000Y-22650000D01*
X45250000Y-22650000D02*
X66900000Y-22650000D01*
X25000000Y-53749000D02*
X25249000Y-53749000D01*
X22900000Y-26532900D02*
X26782900Y-22650000D01*
X66900000Y-22650000D02*
X70250000Y-26000000D01*
X46750000Y-25250000D02*
X47750000Y-26250000D01*
X49850000Y-55000000D02*
X49500000Y-55350000D01*
X85770000Y-93360000D02*
X87049000Y-93360000D01*
X22900000Y-36750000D02*
X22900000Y-53500000D01*
X87049000Y-93360000D02*
X87500000Y-92909000D01*
X22900000Y-36649000D02*
X22900000Y-36750000D01*
X23799000Y-35750000D02*
X22900000Y-36649000D01*
X46750000Y-24267489D02*
X46750000Y-25250000D01*
%TO.N,Net-(Q205-C)*%
X34500000Y-39269489D02*
X34500000Y-36769489D01*
X34500000Y-36769489D02*
X30340375Y-32609864D01*
X30340375Y-32609864D02*
X30340375Y-32473136D01*
%TO.N,Net-(Q209-B)*%
X31610375Y-38080136D02*
X31610375Y-37473136D01*
X43500000Y-39269489D02*
X42899000Y-39870489D01*
X42899000Y-39870489D02*
X33400728Y-39870489D01*
X33400728Y-39870489D02*
X31610375Y-38080136D01*
%TO.N,Net-(Q211-C)*%
X39206375Y-26422136D02*
X40502000Y-27717761D01*
X35840375Y-27473136D02*
X35840375Y-27349996D01*
X40502000Y-37271489D02*
X41000000Y-37769489D01*
X40502000Y-27717761D02*
X40502000Y-37271489D01*
X36768235Y-26422136D02*
X39206375Y-26422136D01*
X41000000Y-37769489D02*
X43500000Y-37769489D01*
X39500000Y-39269489D02*
X41000000Y-37769489D01*
X35840375Y-27349996D02*
X36768235Y-26422136D01*
%TO.N,Net-(Q305-C)*%
X53211392Y-32608864D02*
X53211392Y-32472136D01*
X57371017Y-39268489D02*
X57371017Y-36768489D01*
X57371017Y-36768489D02*
X53211392Y-32608864D01*
%TO.N,Net-(Q309-B)*%
X66371017Y-39268489D02*
X65770017Y-39869489D01*
X54481392Y-38079136D02*
X54481392Y-37472136D01*
X56271745Y-39869489D02*
X54481392Y-38079136D01*
X65770017Y-39869489D02*
X56271745Y-39869489D01*
%TO.N,Net-(Q311-C)*%
X58711392Y-27348996D02*
X59639252Y-26421136D01*
X64000000Y-37768489D02*
X66371017Y-37768489D01*
X63385392Y-26904996D02*
X63385392Y-37153881D01*
X63871017Y-37768489D02*
X66371017Y-37768489D01*
X63385392Y-37153881D02*
X64000000Y-37768489D01*
X62371017Y-39268489D02*
X63871017Y-37768489D01*
X59639252Y-26421136D02*
X62901532Y-26421136D01*
X62901532Y-26421136D02*
X63385392Y-26904996D01*
X58711392Y-27472136D02*
X58711392Y-27348996D01*
X63871017Y-37768489D02*
X64000000Y-37768489D01*
%TO.N,Net-(Q405-C)*%
X79839176Y-39269489D02*
X79839176Y-36769489D01*
X75679551Y-32609864D02*
X75679551Y-32473136D01*
X79839176Y-36769489D02*
X75679551Y-32609864D01*
%TO.N,Net-(Q409-B)*%
X76949551Y-38080136D02*
X76949551Y-37473136D01*
X88839176Y-39269489D02*
X88238176Y-39870489D01*
X88238176Y-39870489D02*
X78739904Y-39870489D01*
X78739904Y-39870489D02*
X76949551Y-38080136D01*
%TO.N,Net-(Q411-C)*%
X81730551Y-26422136D02*
X84545551Y-26422136D01*
X84545551Y-26422136D02*
X85841176Y-27717761D01*
X81179551Y-27473136D02*
X81179551Y-26973136D01*
X86339176Y-37769489D02*
X88839176Y-37769489D01*
X85841176Y-27717761D02*
X85841176Y-37341176D01*
X85841176Y-37341176D02*
X86304333Y-37804333D01*
X84839176Y-39269489D02*
X86304333Y-37804333D01*
X84839176Y-39269489D02*
X86339176Y-37769489D01*
X86304333Y-37804333D02*
X86339176Y-37769489D01*
X81179551Y-26973136D02*
X81730551Y-26422136D01*
%TO.N,Net-(Q505-C)*%
X97477272Y-32517547D02*
X97477272Y-32380819D01*
X101636897Y-36677172D02*
X97477272Y-32517547D01*
X101636897Y-39177172D02*
X101636897Y-36677172D01*
%TO.N,Net-(Q509-B)*%
X110035897Y-39778172D02*
X100537625Y-39778172D01*
X100537625Y-39778172D02*
X98747272Y-37987819D01*
X110636897Y-39177172D02*
X110035897Y-39778172D01*
X98747272Y-37987819D02*
X98747272Y-37380819D01*
%TO.N,Net-(Q511-C)*%
X103905132Y-26329819D02*
X106343272Y-26329819D01*
X107638897Y-37179172D02*
X108136897Y-37677172D01*
X106636897Y-39177172D02*
X108136897Y-37677172D01*
X106343272Y-26329819D02*
X107638897Y-27625444D01*
X102977272Y-27380819D02*
X102977272Y-27257679D01*
X107638897Y-27625444D02*
X107638897Y-37179172D01*
X102977272Y-27257679D02*
X103905132Y-26329819D01*
X108136897Y-37677172D02*
X110636897Y-37677172D01*
%TO.N,Net-(Q605-C)*%
X30441392Y-62905217D02*
X30441392Y-62768489D01*
X34601017Y-69564842D02*
X34601017Y-67064842D01*
X34601017Y-67064842D02*
X30441392Y-62905217D01*
%TO.N,Net-(Q609-B)*%
X33501745Y-70165842D02*
X31711392Y-68375489D01*
X43601017Y-69564842D02*
X43000017Y-70165842D01*
X43000017Y-70165842D02*
X33501745Y-70165842D01*
X31711392Y-68375489D02*
X31711392Y-67768489D01*
%TO.N,Net-(Q611-C)*%
X39250000Y-64250000D02*
X39250000Y-66213825D01*
X36250000Y-58077097D02*
X36250000Y-61250000D01*
X35941392Y-57768489D02*
X36250000Y-58077097D01*
X39250000Y-66213825D02*
X41101017Y-68064842D01*
X39601017Y-69564842D02*
X41101017Y-68064842D01*
X41101017Y-68064842D02*
X43601017Y-68064842D01*
%TO.N,Net-(Q705-C)*%
X53158610Y-62704617D02*
X53158610Y-62567889D01*
X57318235Y-69364242D02*
X57318235Y-66864242D01*
X57318235Y-66864242D02*
X53158610Y-62704617D01*
%TO.N,Net-(Q709-B)*%
X65717235Y-69965242D02*
X56218963Y-69965242D01*
X56218963Y-69965242D02*
X54428610Y-68174889D01*
X66318235Y-69364242D02*
X65717235Y-69965242D01*
X54428610Y-68174889D02*
X54428610Y-67567889D01*
%TO.N,Net-(Q711-C)*%
X63716238Y-67966238D02*
X63818235Y-67864242D01*
X63818235Y-67864242D02*
X66318235Y-67864242D01*
X62318235Y-69364242D02*
X63716238Y-67966238D01*
X62000000Y-66250000D02*
X63716238Y-67966238D01*
X62000000Y-64000000D02*
X62000000Y-66250000D01*
X58658610Y-61091390D02*
X58500000Y-61250000D01*
X62318235Y-69364242D02*
X63818235Y-67864242D01*
X58658610Y-57567889D02*
X58658610Y-61091390D01*
%TO.N,Net-(Q805-C)*%
X75592940Y-62671784D02*
X75592940Y-62535056D01*
X79752565Y-69331409D02*
X79752565Y-66831409D01*
X79752565Y-66831409D02*
X75592940Y-62671784D01*
%TO.N,Net-(Q809-B)*%
X78653293Y-69932409D02*
X76862940Y-68142056D01*
X88752565Y-69331409D02*
X88151565Y-69932409D01*
X76862940Y-68142056D02*
X76862940Y-67535056D01*
X88151565Y-69932409D02*
X78653293Y-69932409D01*
%TO.N,Net-(Q811-C)*%
X84500000Y-64000000D02*
X84500000Y-66078844D01*
X80750000Y-57877996D02*
X80750000Y-61250000D01*
X86252565Y-67831409D02*
X88752565Y-67831409D01*
X81092940Y-57535056D02*
X80750000Y-57877996D01*
X84500000Y-66078844D02*
X86252565Y-67831409D01*
X84752565Y-69331409D02*
X86252565Y-67831409D01*
%TO.N,Net-(Q905-C)*%
X101561204Y-66848301D02*
X97401579Y-62688676D01*
X101561204Y-69348301D02*
X101561204Y-66848301D01*
X97401579Y-62688676D02*
X97401579Y-62551948D01*
%TO.N,Net-(Q909-B)*%
X110561204Y-69348301D02*
X109960204Y-69949301D01*
X100461932Y-69949301D02*
X98671579Y-68158948D01*
X109960204Y-69949301D02*
X100461932Y-69949301D01*
X98671579Y-68158948D02*
X98671579Y-67551948D01*
%TO.N,Net-(Q911-C)*%
X107954752Y-67954752D02*
X108061204Y-67848301D01*
X102750000Y-57703527D02*
X102750000Y-61250000D01*
X106250000Y-66250000D02*
X107954752Y-67954752D01*
X106561204Y-69348301D02*
X108061204Y-67848301D01*
X102901579Y-57551948D02*
X102750000Y-57703527D01*
X106250000Y-64000000D02*
X106250000Y-66250000D01*
X108061204Y-67848301D02*
X110561204Y-67848301D01*
X106561204Y-69348301D02*
X107954752Y-67954752D01*
%TD*%
M02*
