M48
; DRILL file {KiCad 9.0.7} date 2026-01-15T13:11:27+0000
; FORMAT={-:-/ absolute / metric / decimal}
; #@! TF.CreationDate,2026-01-15T13:11:27+00:00
; #@! TF.GenerationSoftware,Kicad,Pcbnew,9.0.7
; #@! TF.FileFunction,Plated,1,2,PTH
FMAT,2
METRIC
; #@! TA.AperFunction,Plated,PTH,ViaDrill
T1C0.300
; #@! TA.AperFunction,Plated,PTH,ComponentDrill
T2C0.750
; #@! TA.AperFunction,Plated,PTH,ComponentDrill
T3C0.800
; #@! TA.AperFunction,Plated,PTH,ComponentDrill
T4C1.000
%
G90
G05
T1
X21.5Y-54.75
X21.5Y-55.75
X21.5Y-56.75
X22.25Y-50.25
X22.9Y-53.5
X23.5Y-51.0
X23.799Y-35.75
X24.0Y-45.75
X24.121Y-61.129
X24.75Y-51.0
X24.918Y-36.43
X25.0Y-35.5
X25.0Y-53.749
X25.0Y-56.5
X25.0Y-70.0
X25.1Y-78.25
X25.324Y-60.636
X28.057Y-33.089
X28.158Y-63.384
X28.573Y-43.141
X28.674Y-73.436
X28.802Y-37.289
X28.914Y-35.269
X28.914Y-44.812
X28.914Y-45.769
X29.015Y-65.565
X29.015Y-75.107
X29.015Y-76.065
X29.25Y-31.1
X29.887Y-84.165
X29.998Y-83.373
X30.319Y-69.931
X30.5Y-45.412
X30.5Y-82.75
X30.601Y-75.707
X32.0Y-43.669
X32.101Y-73.965
X33.0Y-36.25
X33.101Y-66.545
X34.5Y-35.269
X34.5Y-39.269
X34.5Y-40.769
X34.5Y-73.965
X34.555Y-48.169
X34.601Y-65.565
X34.601Y-69.565
X34.601Y-71.065
X34.656Y-78.465
X34.795Y-43.669
X35.75Y-35.822
X35.851Y-66.117
X36.25Y-61.25
X36.485Y-41.436
X36.5Y-38.669
X36.586Y-71.731
X36.601Y-68.965
X37.596Y-28.601
X37.697Y-58.896
X39.25Y-64.25
X39.283Y-47.638
X39.384Y-77.933
X39.5Y-29.669
X39.5Y-39.269
X39.5Y-44.269
X39.5Y-45.269
X39.601Y-59.965
X39.601Y-69.565
X39.601Y-74.565
X39.601Y-75.565
X43.5Y-37.769
X43.5Y-39.269
X43.601Y-68.065
X43.601Y-69.565
X45.25Y-22.65
X46.75Y-24.267
X46.75Y-82.75
X47.0Y-46.0
X47.5Y-22.05
X47.5Y-60.5
X47.576Y-24.174
X47.75Y-26.25
X47.75Y-44.25
X47.75Y-69.75
X47.75Y-80.5
X49.5Y-55.35
X50.875Y-63.184
X50.928Y-33.088
X51.391Y-73.236
X51.444Y-43.14
X51.733Y-65.364
X51.733Y-74.906
X51.733Y-75.864
X51.785Y-35.268
X51.785Y-44.811
X51.785Y-45.768
X52.749Y-39.251
X53.175Y-69.825
X53.318Y-75.506
X53.371Y-45.411
X54.818Y-73.764
X54.871Y-43.668
X55.818Y-66.345
X55.871Y-36.249
X57.25Y-73.75
X57.318Y-65.364
X57.318Y-69.364
X57.318Y-70.864
X57.371Y-35.268
X57.371Y-39.268
X57.371Y-40.768
X57.374Y-78.264
X57.426Y-48.168
X57.499Y-43.501
X58.5Y-61.25
X58.568Y-65.917
X58.621Y-35.821
X59.303Y-71.531
X59.318Y-68.764
X59.356Y-41.435
X59.371Y-38.668
X60.414Y-58.696
X60.467Y-28.6
X61.0Y-93.79
X62.0Y-64.0
X62.101Y-77.733
X62.154Y-47.637
X62.318Y-59.764
X62.318Y-69.364
X62.318Y-74.364
X62.318Y-75.364
X62.371Y-29.668
X62.371Y-39.268
X62.371Y-44.268
X62.371Y-45.268
X66.318Y-67.864
X66.318Y-69.364
X66.371Y-37.768
X66.371Y-39.268
X69.536Y-94.036
X69.6Y-46.25
X70.0Y-60.5
X70.25Y-26.0
X70.25Y-70.5
X70.5Y-91.709
X70.525Y-40.265
X70.75Y-24.0
X70.75Y-82.6
X71.25Y-81.4
X71.75Y-55.0
X72.5Y-89.259
X73.309Y-63.151
X73.396Y-33.089
X73.445Y-90.708
X73.445Y-94.01
X73.826Y-73.203
X73.912Y-43.141
X74.167Y-65.331
X74.167Y-74.874
X74.167Y-75.831
X74.254Y-35.269
X74.254Y-44.812
X74.254Y-45.769
X74.5Y-47.5
X75.586Y-39.664
X75.637Y-69.863
X75.753Y-75.474
X75.839Y-45.412
X77.253Y-73.731
X77.339Y-43.669
X77.445Y-94.485
X78.253Y-66.312
X78.339Y-36.25
X79.75Y-73.731
X79.753Y-65.331
X79.753Y-69.331
X79.753Y-70.831
X79.808Y-78.231
X79.839Y-35.269
X79.839Y-39.269
X79.839Y-40.769
X79.895Y-48.169
X80.0Y-43.669
X80.75Y-61.25
X81.003Y-65.884
X81.089Y-35.822
X81.5Y-94.5
X81.609Y-90.891
X81.738Y-71.498
X81.753Y-68.731
X81.824Y-41.436
X81.839Y-38.669
X82.848Y-58.663
X82.935Y-28.601
X83.138Y-91.571
X84.5Y-64.0
X84.536Y-77.7
X84.622Y-47.638
X84.753Y-59.731
X84.753Y-69.331
X84.753Y-74.331
X84.753Y-75.331
X84.839Y-29.669
X84.839Y-39.269
X84.839Y-44.269
X84.839Y-45.269
X87.5Y-92.909
X87.5Y-94.5
X88.75Y-79.5
X88.753Y-67.831
X88.753Y-69.331
X88.839Y-37.769
X88.839Y-39.269
X89.576Y-90.058
X90.201Y-55.049
X90.25Y-53.749
X90.65Y-81.0
X91.049Y-48.549
X91.1Y-47.25
X91.499Y-31.205
X91.65Y-45.0
X91.65Y-49.75
X92.0Y-26.25
X92.0Y-60.75
X92.0Y-70.0
X92.205Y-78.15
X92.25Y-40.0
X92.25Y-51.25
X92.25Y-80.75
X93.5Y-93.0
X95.118Y-63.168
X95.193Y-32.997
X95.634Y-73.22
X95.71Y-43.049
X95.976Y-65.348
X95.976Y-74.89
X95.976Y-75.848
X96.051Y-35.177
X96.051Y-44.719
X96.051Y-45.677
X96.5Y-91.709
X97.157Y-69.593
X97.281Y-39.469
X97.561Y-75.49
X97.637Y-45.319
X99.061Y-73.748
X99.137Y-43.577
X100.061Y-66.329
X100.137Y-36.158
X101.5Y-73.748
X101.561Y-65.348
X101.561Y-69.348
X101.561Y-70.848
X101.617Y-78.248
X101.637Y-35.177
X101.637Y-39.177
X101.637Y-40.677
X101.692Y-48.077
X101.75Y-43.5
X102.75Y-61.25
X102.811Y-65.901
X102.887Y-35.73
X103.546Y-71.515
X103.561Y-68.748
X103.622Y-41.344
X103.637Y-38.577
X104.657Y-58.68
X104.733Y-28.509
X106.25Y-64.0
X106.344Y-77.717
X106.42Y-47.546
X106.561Y-59.748
X106.561Y-69.348
X106.561Y-74.348
X106.561Y-75.348
X106.637Y-29.577
X106.637Y-39.177
X106.637Y-44.177
X106.637Y-45.177
X110.561Y-67.848
X110.561Y-69.348
X110.637Y-37.677
X110.637Y-39.177
T2
X30.34Y-27.473
X30.34Y-32.473
X30.34Y-37.473
X30.34Y-42.473
X30.34Y-47.613
X30.441Y-57.768
X30.441Y-62.768
X30.441Y-67.768
X30.441Y-72.768
X30.441Y-77.908
X31.61Y-27.473
X31.61Y-32.473
X31.61Y-37.473
X31.61Y-42.473
X31.61Y-47.613
X31.711Y-57.768
X31.711Y-62.768
X31.711Y-67.768
X31.711Y-72.768
X31.711Y-77.908
X32.88Y-27.473
X32.88Y-32.473
X32.88Y-37.473
X32.88Y-42.473
X32.88Y-47.613
X32.981Y-57.768
X32.981Y-62.768
X32.981Y-67.768
X32.981Y-72.768
X32.981Y-77.908
X35.84Y-27.473
X35.84Y-32.473
X35.84Y-37.473
X35.84Y-42.473
X35.854Y-47.607
X35.941Y-57.768
X35.941Y-62.768
X35.941Y-67.768
X35.941Y-72.768
X35.955Y-77.902
X37.11Y-27.473
X37.11Y-32.473
X37.11Y-37.473
X37.11Y-42.473
X37.124Y-47.607
X37.211Y-57.768
X37.211Y-62.768
X37.211Y-67.768
X37.211Y-72.768
X37.225Y-77.902
X38.38Y-27.473
X38.38Y-32.473
X38.38Y-37.473
X38.38Y-42.473
X38.394Y-47.607
X38.481Y-57.768
X38.481Y-62.768
X38.481Y-67.768
X38.481Y-72.768
X38.495Y-77.902
X41.34Y-27.473
X41.37Y-47.607
X41.441Y-57.768
X41.471Y-77.902
X42.61Y-27.473
X42.64Y-47.607
X42.711Y-57.768
X42.741Y-77.902
X43.88Y-27.473
X43.91Y-47.607
X43.981Y-57.768
X44.011Y-77.902
X53.159Y-57.568
X53.159Y-62.568
X53.159Y-67.568
X53.159Y-72.568
X53.159Y-77.708
X53.211Y-27.472
X53.211Y-32.472
X53.211Y-37.472
X53.211Y-42.472
X53.211Y-47.612
X54.429Y-57.568
X54.429Y-62.568
X54.429Y-67.568
X54.429Y-72.568
X54.429Y-77.708
X54.481Y-27.472
X54.481Y-32.472
X54.481Y-37.472
X54.481Y-42.472
X54.481Y-47.612
X55.699Y-57.568
X55.699Y-62.568
X55.699Y-67.568
X55.699Y-72.568
X55.699Y-77.708
X55.751Y-27.472
X55.751Y-32.472
X55.751Y-37.472
X55.751Y-42.472
X55.751Y-47.612
X58.659Y-57.568
X58.659Y-62.568
X58.659Y-67.568
X58.659Y-72.568
X58.672Y-77.701
X58.711Y-27.472
X58.711Y-32.472
X58.711Y-37.472
X58.711Y-42.472
X58.725Y-47.606
X59.929Y-57.568
X59.929Y-62.568
X59.929Y-67.568
X59.929Y-72.568
X59.942Y-77.701
X59.981Y-27.472
X59.981Y-32.472
X59.981Y-37.472
X59.981Y-42.472
X59.995Y-47.606
X61.199Y-57.568
X61.199Y-62.568
X61.199Y-67.568
X61.199Y-72.568
X61.212Y-77.701
X61.251Y-27.472
X61.251Y-32.472
X61.251Y-37.472
X61.251Y-42.472
X61.265Y-47.606
X64.159Y-57.568
X64.188Y-77.701
X64.211Y-27.472
X64.241Y-47.606
X65.429Y-57.568
X65.458Y-77.701
X65.481Y-27.472
X65.511Y-47.606
X66.699Y-57.568
X66.728Y-77.701
X66.751Y-27.472
X66.781Y-47.606
X75.593Y-57.535
X75.593Y-62.535
X75.593Y-67.535
X75.593Y-72.535
X75.593Y-77.675
X75.68Y-27.473
X75.68Y-32.473
X75.68Y-37.473
X75.68Y-42.473
X75.68Y-47.613
X76.863Y-57.535
X76.863Y-62.535
X76.863Y-67.535
X76.863Y-72.535
X76.863Y-77.675
X76.95Y-27.473
X76.95Y-32.473
X76.95Y-37.473
X76.95Y-42.473
X76.95Y-47.613
X78.133Y-57.535
X78.133Y-62.535
X78.133Y-67.535
X78.133Y-72.535
X78.133Y-77.675
X78.22Y-27.473
X78.22Y-32.473
X78.22Y-37.473
X78.22Y-42.473
X78.22Y-47.613
X81.093Y-57.535
X81.093Y-62.535
X81.093Y-67.535
X81.093Y-72.535
X81.107Y-77.668
X81.18Y-27.473
X81.18Y-32.473
X81.18Y-37.473
X81.18Y-42.473
X81.193Y-47.607
X82.363Y-57.535
X82.363Y-62.535
X82.363Y-67.535
X82.363Y-72.535
X82.377Y-77.668
X82.45Y-27.473
X82.45Y-32.473
X82.45Y-37.473
X82.45Y-42.473
X82.463Y-47.607
X83.23Y-93.36
X83.633Y-57.535
X83.633Y-62.535
X83.633Y-67.535
X83.633Y-72.535
X83.647Y-77.668
X83.72Y-27.473
X83.72Y-32.473
X83.72Y-37.473
X83.72Y-42.473
X83.733Y-47.607
X84.5Y-93.36
X85.77Y-93.36
X86.593Y-57.535
X86.622Y-77.668
X86.68Y-27.473
X86.709Y-47.607
X87.863Y-57.535
X87.892Y-77.668
X87.95Y-27.473
X87.979Y-47.607
X89.133Y-57.535
X89.162Y-77.668
X89.22Y-27.473
X89.23Y-93.36
X89.249Y-47.607
X90.5Y-93.36
X91.77Y-93.36
X95.23Y-93.36
X96.5Y-93.36
X97.402Y-57.552
X97.402Y-62.552
X97.402Y-67.552
X97.402Y-72.552
X97.402Y-77.692
X97.477Y-27.381
X97.477Y-32.381
X97.477Y-37.381
X97.477Y-42.381
X97.477Y-47.521
X97.77Y-93.36
X98.672Y-57.552
X98.672Y-62.552
X98.672Y-67.552
X98.672Y-72.552
X98.672Y-77.692
X98.747Y-27.381
X98.747Y-32.381
X98.747Y-37.381
X98.747Y-42.381
X98.747Y-47.521
X99.942Y-57.552
X99.942Y-62.552
X99.942Y-67.552
X99.942Y-72.552
X99.942Y-77.692
X100.017Y-27.381
X100.017Y-32.381
X100.017Y-37.381
X100.017Y-42.381
X100.017Y-47.521
X101.23Y-93.36
X102.5Y-93.36
X102.902Y-57.552
X102.902Y-62.552
X102.902Y-67.552
X102.902Y-72.552
X102.915Y-77.685
X102.977Y-27.381
X102.977Y-32.381
X102.977Y-37.381
X102.977Y-42.381
X102.991Y-47.514
X103.77Y-93.36
X104.172Y-57.552
X104.172Y-62.552
X104.172Y-67.552
X104.172Y-72.552
X104.185Y-77.685
X104.247Y-27.381
X104.247Y-32.381
X104.247Y-37.381
X104.247Y-42.381
X104.261Y-47.514
X105.442Y-57.552
X105.442Y-62.552
X105.442Y-67.552
X105.442Y-72.552
X105.455Y-77.685
X105.517Y-27.381
X105.517Y-32.381
X105.517Y-37.381
X105.517Y-42.381
X105.531Y-47.514
X108.402Y-57.552
X108.431Y-77.685
X108.477Y-27.381
X108.507Y-47.514
X109.672Y-57.552
X109.701Y-77.685
X109.747Y-27.381
X109.777Y-47.514
X110.942Y-57.552
X110.971Y-77.685
X111.017Y-27.381
X111.047Y-47.514
T3
X62.886Y-90.287
X67.886Y-90.287
T4
X18.0Y-44.0
X18.0Y-46.54
X18.0Y-49.08
X18.0Y-51.62
X18.0Y-54.16
X18.0Y-56.7
X18.0Y-59.24
X18.0Y-61.78
X18.0Y-67.5
X18.0Y-70.04
X18.0Y-72.58
X18.0Y-75.12
X18.0Y-77.66
X18.0Y-80.2
X18.0Y-82.74
X18.0Y-85.28
X26.0Y-94.5
X30.5Y-94.5
X36.5Y-94.5
X42.5Y-94.5
X48.5Y-94.5
M30
