%TF.GenerationSoftware,KiCad,Pcbnew,9.0.7*%
%TF.CreationDate,2026-01-15T13:11:20+00:00*%
%TF.ProjectId,reg,7265672e-6b69-4636-9164-5f7063625858,rev?*%
%TF.SameCoordinates,Original*%
%TF.FileFunction,Soldermask,Bot*%
%TF.FilePolarity,Negative*%
%FSLAX46Y46*%
G04 Gerber Fmt 4.6, Leading zero omitted, Abs format (unit mm)*
G04 Created by KiCad (PCBNEW 9.0.7) date 2026-01-15 13:11:20*
%MOMM*%
%LPD*%
G01*
G04 APERTURE LIST*
%ADD10R,1.050000X1.500000*%
%ADD11O,1.050000X1.500000*%
%ADD12R,1.700000X1.700000*%
%ADD13C,1.700000*%
%ADD14C,3.200000*%
%ADD15C,1.600000*%
G04 APERTURE END LIST*
D10*
%TO.C,Q706*%
X61198610Y-62567889D03*
D11*
X59928610Y-62567889D03*
X58658610Y-62567889D03*
%TD*%
D10*
%TO.C,Q804*%
X83646786Y-77668454D03*
D11*
X82376786Y-77668454D03*
X81106786Y-77668454D03*
%TD*%
D10*
%TO.C,Q608*%
X38481392Y-72768489D03*
D11*
X37211392Y-72768489D03*
X35941392Y-72768489D03*
%TD*%
D10*
%TO.C,Q411*%
X83719551Y-27473136D03*
D11*
X82449551Y-27473136D03*
X81179551Y-27473136D03*
%TD*%
D10*
%TO.C,Q705*%
X55698610Y-62567889D03*
D11*
X54428610Y-62567889D03*
X53158610Y-62567889D03*
%TD*%
D10*
%TO.C,Q510*%
X105517272Y-37380819D03*
D11*
X104247272Y-37380819D03*
X102977272Y-37380819D03*
%TD*%
D10*
%TO.C,Q205*%
X32880375Y-32473136D03*
D11*
X31610375Y-32473136D03*
X30340375Y-32473136D03*
%TD*%
D10*
%TO.C,Q605*%
X32981392Y-62768489D03*
D11*
X31711392Y-62768489D03*
X30441392Y-62768489D03*
%TD*%
D10*
%TO.C,Q210*%
X38380375Y-37473136D03*
D11*
X37110375Y-37473136D03*
X35840375Y-37473136D03*
%TD*%
D12*
%TO.C,GND*%
X30500000Y-94500000D03*
%TD*%
D10*
%TO.C,Q901*%
X110941579Y-57551948D03*
D11*
X109671579Y-57551948D03*
X108401579Y-57551948D03*
%TD*%
D10*
%TO.C,Q306*%
X61251392Y-32472136D03*
D11*
X59981392Y-32472136D03*
X58711392Y-32472136D03*
%TD*%
D10*
%TO.C,Q710*%
X61198610Y-67567889D03*
D11*
X59928610Y-67567889D03*
X58658610Y-67567889D03*
%TD*%
D12*
%TO.C,DATA_OUT*%
X18000000Y-44000000D03*
D13*
X18000000Y-46540000D03*
X18000000Y-49080000D03*
X18000000Y-51620000D03*
X18000000Y-54160000D03*
X18000000Y-56700000D03*
X18000000Y-59240000D03*
X18000000Y-61780000D03*
%TD*%
D10*
%TO.C,Q202*%
X32880375Y-47613136D03*
D11*
X31610375Y-47613136D03*
X30340375Y-47613136D03*
%TD*%
D10*
%TO.C,Q410*%
X83719551Y-37473136D03*
D11*
X82449551Y-37473136D03*
X81179551Y-37473136D03*
%TD*%
D10*
%TO.C,Q203*%
X43909856Y-47606534D03*
D11*
X42639856Y-47606534D03*
X41369856Y-47606534D03*
%TD*%
D10*
%TO.C,Q906*%
X105441579Y-62551948D03*
D11*
X104171579Y-62551948D03*
X102901579Y-62551948D03*
%TD*%
D10*
%TO.C,Q507*%
X100017272Y-42380819D03*
D11*
X98747272Y-42380819D03*
X97477272Y-42380819D03*
%TD*%
D10*
%TO.C,Q509*%
X100017272Y-37380819D03*
D11*
X98747272Y-37380819D03*
X97477272Y-37380819D03*
%TD*%
D10*
%TO.C,Q801*%
X89132940Y-57535056D03*
D11*
X87862940Y-57535056D03*
X86592940Y-57535056D03*
%TD*%
D10*
%TO.C,Q101*%
X101230000Y-93360000D03*
D11*
X102500000Y-93360000D03*
X103770000Y-93360000D03*
%TD*%
D10*
%TO.C,Q601*%
X43981392Y-57768489D03*
D11*
X42711392Y-57768489D03*
X41441392Y-57768489D03*
%TD*%
D10*
%TO.C,Q212*%
X32880375Y-27473136D03*
D11*
X31610375Y-27473136D03*
X30340375Y-27473136D03*
%TD*%
D10*
%TO.C,Q102*%
X95230000Y-93360000D03*
D11*
X96500000Y-93360000D03*
X97770000Y-93360000D03*
%TD*%
D10*
%TO.C,Q810*%
X83632940Y-67535056D03*
D11*
X82362940Y-67535056D03*
X81092940Y-67535056D03*
%TD*%
D14*
%TO.C,REF\u002A\u002A*%
X111000000Y-92420000D03*
%TD*%
D10*
%TO.C,Q812*%
X78132940Y-57535056D03*
D11*
X76862940Y-57535056D03*
X75592940Y-57535056D03*
%TD*%
D15*
%TO.C,C101*%
X62886223Y-90287423D03*
X67886223Y-90287423D03*
%TD*%
D10*
%TO.C,Q802*%
X78132940Y-77675056D03*
D11*
X76862940Y-77675056D03*
X75592940Y-77675056D03*
%TD*%
D10*
%TO.C,Q908*%
X105441579Y-72551948D03*
D11*
X104171579Y-72551948D03*
X102901579Y-72551948D03*
%TD*%
D14*
%TO.C,REF\u002A\u002A*%
X111000000Y-19500000D03*
%TD*%
D10*
%TO.C,Q707*%
X55698610Y-72567889D03*
D11*
X54428610Y-72567889D03*
X53158610Y-72567889D03*
%TD*%
D10*
%TO.C,Q512*%
X100017272Y-27380819D03*
D11*
X98747272Y-27380819D03*
X97477272Y-27380819D03*
%TD*%
D10*
%TO.C,Q302*%
X55751392Y-47612136D03*
D11*
X54481392Y-47612136D03*
X53211392Y-47612136D03*
%TD*%
D10*
%TO.C,Q602*%
X32981392Y-77908489D03*
D11*
X31711392Y-77908489D03*
X30441392Y-77908489D03*
%TD*%
D10*
%TO.C,Q806*%
X83632940Y-62535056D03*
D11*
X82362940Y-62535056D03*
X81092940Y-62535056D03*
%TD*%
D10*
%TO.C,Q301*%
X66751392Y-27472136D03*
D11*
X65481392Y-27472136D03*
X64211392Y-27472136D03*
%TD*%
D10*
%TO.C,Q702*%
X55698610Y-77707889D03*
D11*
X54428610Y-77707889D03*
X53158610Y-77707889D03*
%TD*%
D10*
%TO.C,Q404*%
X83733397Y-47606534D03*
D11*
X82463397Y-47606534D03*
X81193397Y-47606534D03*
%TD*%
D10*
%TO.C,Q703*%
X66728091Y-77701287D03*
D11*
X65458091Y-77701287D03*
X64188091Y-77701287D03*
%TD*%
D10*
%TO.C,Q505*%
X100017272Y-32380819D03*
D11*
X98747272Y-32380819D03*
X97477272Y-32380819D03*
%TD*%
D10*
%TO.C,Q910*%
X105441579Y-67551948D03*
D11*
X104171579Y-67551948D03*
X102901579Y-67551948D03*
%TD*%
D10*
%TO.C,Q606*%
X38481392Y-62768489D03*
D11*
X37211392Y-62768489D03*
X35941392Y-62768489D03*
%TD*%
D10*
%TO.C,Q310*%
X61251392Y-37472136D03*
D11*
X59981392Y-37472136D03*
X58711392Y-37472136D03*
%TD*%
D10*
%TO.C,Q610*%
X38481392Y-67768489D03*
D11*
X37211392Y-67768489D03*
X35941392Y-67768489D03*
%TD*%
D10*
%TO.C,Q511*%
X105517272Y-27380819D03*
D11*
X104247272Y-27380819D03*
X102977272Y-27380819D03*
%TD*%
D10*
%TO.C,Q209*%
X32880375Y-37473136D03*
D11*
X31610375Y-37473136D03*
X30340375Y-37473136D03*
%TD*%
D10*
%TO.C,Q712*%
X55698610Y-57567889D03*
D11*
X54428610Y-57567889D03*
X53158610Y-57567889D03*
%TD*%
D10*
%TO.C,Q307*%
X55751392Y-42472136D03*
D11*
X54481392Y-42472136D03*
X53211392Y-42472136D03*
%TD*%
D10*
%TO.C,Q701*%
X66698610Y-57567889D03*
D11*
X65428610Y-57567889D03*
X64158610Y-57567889D03*
%TD*%
D12*
%TO.C,+5V*%
X26000000Y-94500000D03*
%TD*%
D10*
%TO.C,Q407*%
X78219551Y-42473136D03*
D11*
X76949551Y-42473136D03*
X75679551Y-42473136D03*
%TD*%
D10*
%TO.C,Q208*%
X38380375Y-42473136D03*
D11*
X37110375Y-42473136D03*
X35840375Y-42473136D03*
%TD*%
D10*
%TO.C,Q506*%
X105517272Y-32380819D03*
D11*
X104247272Y-32380819D03*
X102977272Y-32380819D03*
%TD*%
D12*
%TO.C,RD_EN*%
X48500000Y-94500000D03*
%TD*%
D10*
%TO.C,Q408*%
X83719551Y-42473136D03*
D11*
X82449551Y-42473136D03*
X81179551Y-42473136D03*
%TD*%
D10*
%TO.C,Q206*%
X38380375Y-32473136D03*
D11*
X37110375Y-32473136D03*
X35840375Y-32473136D03*
%TD*%
D10*
%TO.C,Q903*%
X110971060Y-77685346D03*
D11*
X109701060Y-77685346D03*
X108431060Y-77685346D03*
%TD*%
D10*
%TO.C,Q905*%
X99941579Y-62551948D03*
D11*
X98671579Y-62551948D03*
X97401579Y-62551948D03*
%TD*%
D10*
%TO.C,Q809*%
X78132940Y-67535056D03*
D11*
X76862940Y-67535056D03*
X75592940Y-67535056D03*
%TD*%
D10*
%TO.C,Q403*%
X89249032Y-47606534D03*
D11*
X87979032Y-47606534D03*
X86709032Y-47606534D03*
%TD*%
D14*
%TO.C,REF\u002A\u002A*%
X19000000Y-19500000D03*
%TD*%
D10*
%TO.C,Q401*%
X89219551Y-27473136D03*
D11*
X87949551Y-27473136D03*
X86679551Y-27473136D03*
%TD*%
D10*
%TO.C,Q711*%
X61198610Y-57567889D03*
D11*
X59928610Y-57567889D03*
X58658610Y-57567889D03*
%TD*%
D10*
%TO.C,Q912*%
X99941579Y-57551948D03*
D11*
X98671579Y-57551948D03*
X97401579Y-57551948D03*
%TD*%
D10*
%TO.C,Q609*%
X32981392Y-67768489D03*
D11*
X31711392Y-67768489D03*
X30441392Y-67768489D03*
%TD*%
D10*
%TO.C,Q503*%
X111046753Y-47514217D03*
D11*
X109776753Y-47514217D03*
X108506753Y-47514217D03*
%TD*%
D10*
%TO.C,Q803*%
X89162421Y-77668454D03*
D11*
X87892421Y-77668454D03*
X86622421Y-77668454D03*
%TD*%
D10*
%TO.C,Q312*%
X55751392Y-27472136D03*
D11*
X54481392Y-27472136D03*
X53211392Y-27472136D03*
%TD*%
D10*
%TO.C,Q709*%
X55698610Y-67567889D03*
D11*
X54428610Y-67567889D03*
X53158610Y-67567889D03*
%TD*%
D10*
%TO.C,Q603*%
X44010873Y-77901887D03*
D11*
X42740873Y-77901887D03*
X41470873Y-77901887D03*
%TD*%
D10*
%TO.C,Q207*%
X32880375Y-42473136D03*
D11*
X31610375Y-42473136D03*
X30340375Y-42473136D03*
%TD*%
D10*
%TO.C,Q402*%
X78219551Y-47613136D03*
D11*
X76949551Y-47613136D03*
X75679551Y-47613136D03*
%TD*%
D10*
%TO.C,Q305*%
X55751392Y-32472136D03*
D11*
X54481392Y-32472136D03*
X53211392Y-32472136D03*
%TD*%
D10*
%TO.C,Q501*%
X111017272Y-27380819D03*
D11*
X109747272Y-27380819D03*
X108477272Y-27380819D03*
%TD*%
D10*
%TO.C,Q909*%
X99941579Y-67551948D03*
D11*
X98671579Y-67551948D03*
X97401579Y-67551948D03*
%TD*%
D12*
%TO.C,CLK*%
X36500000Y-94500000D03*
%TD*%
D10*
%TO.C,Q902*%
X99941579Y-77691948D03*
D11*
X98671579Y-77691948D03*
X97401579Y-77691948D03*
%TD*%
D10*
%TO.C,Q805*%
X78132940Y-62535056D03*
D11*
X76862940Y-62535056D03*
X75592940Y-62535056D03*
%TD*%
D10*
%TO.C,Q308*%
X61251392Y-42472136D03*
D11*
X59981392Y-42472136D03*
X58711392Y-42472136D03*
%TD*%
D10*
%TO.C,Q611*%
X38481392Y-57768489D03*
D11*
X37211392Y-57768489D03*
X35941392Y-57768489D03*
%TD*%
D10*
%TO.C,Q604*%
X38495238Y-77901887D03*
D11*
X37225238Y-77901887D03*
X35955238Y-77901887D03*
%TD*%
D10*
%TO.C,Q103*%
X89230000Y-93360000D03*
D11*
X90500000Y-93360000D03*
X91770000Y-93360000D03*
%TD*%
D10*
%TO.C,Q409*%
X78219551Y-37473136D03*
D11*
X76949551Y-37473136D03*
X75679551Y-37473136D03*
%TD*%
D10*
%TO.C,Q811*%
X83632940Y-57535056D03*
D11*
X82362940Y-57535056D03*
X81092940Y-57535056D03*
%TD*%
D12*
%TO.C,DATA_IN*%
X18000000Y-67500000D03*
D13*
X18000000Y-70040000D03*
X18000000Y-72580000D03*
X18000000Y-75120000D03*
X18000000Y-77660000D03*
X18000000Y-80200000D03*
X18000000Y-82740000D03*
X18000000Y-85280000D03*
%TD*%
D10*
%TO.C,Q504*%
X105531118Y-47514217D03*
D11*
X104261118Y-47514217D03*
X102991118Y-47514217D03*
%TD*%
D12*
%TO.C,WR_EN*%
X42500000Y-94500000D03*
%TD*%
D10*
%TO.C,Q304*%
X61265238Y-47605534D03*
D11*
X59995238Y-47605534D03*
X58725238Y-47605534D03*
%TD*%
D14*
%TO.C,REF\u002A\u002A*%
X19000000Y-92420000D03*
%TD*%
D10*
%TO.C,Q904*%
X105455425Y-77685346D03*
D11*
X104185425Y-77685346D03*
X102915425Y-77685346D03*
%TD*%
D10*
%TO.C,Q104*%
X83230000Y-93360000D03*
D11*
X84500000Y-93360000D03*
X85770000Y-93360000D03*
%TD*%
D10*
%TO.C,Q508*%
X105517272Y-42380819D03*
D11*
X104247272Y-42380819D03*
X102977272Y-42380819D03*
%TD*%
D10*
%TO.C,Q201*%
X43880375Y-27473136D03*
D11*
X42610375Y-27473136D03*
X41340375Y-27473136D03*
%TD*%
D10*
%TO.C,Q406*%
X83719551Y-32473136D03*
D11*
X82449551Y-32473136D03*
X81179551Y-32473136D03*
%TD*%
D10*
%TO.C,Q204*%
X38394221Y-47606534D03*
D11*
X37124221Y-47606534D03*
X35854221Y-47606534D03*
%TD*%
D10*
%TO.C,Q211*%
X38380375Y-27473136D03*
D11*
X37110375Y-27473136D03*
X35840375Y-27473136D03*
%TD*%
D10*
%TO.C,Q502*%
X100017272Y-47520819D03*
D11*
X98747272Y-47520819D03*
X97477272Y-47520819D03*
%TD*%
D10*
%TO.C,Q412*%
X78219551Y-27473136D03*
D11*
X76949551Y-27473136D03*
X75679551Y-27473136D03*
%TD*%
D10*
%TO.C,Q612*%
X32981392Y-57768489D03*
D11*
X31711392Y-57768489D03*
X30441392Y-57768489D03*
%TD*%
D10*
%TO.C,Q807*%
X78132940Y-72535056D03*
D11*
X76862940Y-72535056D03*
X75592940Y-72535056D03*
%TD*%
D10*
%TO.C,Q607*%
X32981392Y-72768489D03*
D11*
X31711392Y-72768489D03*
X30441392Y-72768489D03*
%TD*%
D10*
%TO.C,Q309*%
X55751392Y-37472136D03*
D11*
X54481392Y-37472136D03*
X53211392Y-37472136D03*
%TD*%
D10*
%TO.C,Q911*%
X105441579Y-57551948D03*
D11*
X104171579Y-57551948D03*
X102901579Y-57551948D03*
%TD*%
D10*
%TO.C,Q808*%
X83632940Y-72535056D03*
D11*
X82362940Y-72535056D03*
X81092940Y-72535056D03*
%TD*%
D10*
%TO.C,Q405*%
X78219551Y-32473136D03*
D11*
X76949551Y-32473136D03*
X75679551Y-32473136D03*
%TD*%
D10*
%TO.C,Q704*%
X61212456Y-77701287D03*
D11*
X59942456Y-77701287D03*
X58672456Y-77701287D03*
%TD*%
D10*
%TO.C,Q311*%
X61251392Y-27472136D03*
D11*
X59981392Y-27472136D03*
X58711392Y-27472136D03*
%TD*%
D10*
%TO.C,Q708*%
X61198610Y-72567889D03*
D11*
X59928610Y-72567889D03*
X58658610Y-72567889D03*
%TD*%
D10*
%TO.C,Q907*%
X99941579Y-72551948D03*
D11*
X98671579Y-72551948D03*
X97401579Y-72551948D03*
%TD*%
D10*
%TO.C,Q303*%
X66780873Y-47605534D03*
D11*
X65510873Y-47605534D03*
X64240873Y-47605534D03*
%TD*%
M02*
