%TF.GenerationSoftware,KiCad,Pcbnew,9.0.7*%
%TF.CreationDate,2026-01-15T13:11:20+00:00*%
%TF.ProjectId,reg,7265672e-6b69-4636-9164-5f7063625858,rev?*%
%TF.SameCoordinates,Original*%
%TF.FileFunction,Legend,Bot*%
%TF.FilePolarity,Positive*%
%FSLAX46Y46*%
G04 Gerber Fmt 4.6, Leading zero omitted, Abs format (unit mm)*
G04 Created by KiCad (PCBNEW 9.0.7) date 2026-01-15 13:11:20*
%MOMM*%
%LPD*%
G01*
G04 APERTURE LIST*
%ADD10C,0.300000*%
G04 APERTURE END LIST*
D10*
X40945489Y-18800828D02*
X40945489Y-20086542D01*
X40945489Y-20086542D02*
X41016917Y-20229400D01*
X41016917Y-20229400D02*
X41159774Y-20300828D01*
X41159774Y-20300828D02*
X41231203Y-20300828D01*
X40945489Y-18300828D02*
X41016917Y-18372257D01*
X41016917Y-18372257D02*
X40945489Y-18443685D01*
X40945489Y-18443685D02*
X40874060Y-18372257D01*
X40874060Y-18372257D02*
X40945489Y-18300828D01*
X40945489Y-18300828D02*
X40945489Y-18443685D01*
X39588346Y-19800828D02*
X39588346Y-19015114D01*
X39588346Y-19015114D02*
X39659774Y-18872257D01*
X39659774Y-18872257D02*
X39802631Y-18800828D01*
X39802631Y-18800828D02*
X40088346Y-18800828D01*
X40088346Y-18800828D02*
X40231203Y-18872257D01*
X39588346Y-19729400D02*
X39731203Y-19800828D01*
X39731203Y-19800828D02*
X40088346Y-19800828D01*
X40088346Y-19800828D02*
X40231203Y-19729400D01*
X40231203Y-19729400D02*
X40302631Y-19586542D01*
X40302631Y-19586542D02*
X40302631Y-19443685D01*
X40302631Y-19443685D02*
X40231203Y-19300828D01*
X40231203Y-19300828D02*
X40088346Y-19229400D01*
X40088346Y-19229400D02*
X39731203Y-19229400D01*
X39731203Y-19229400D02*
X39588346Y-19157971D01*
X38874060Y-19800828D02*
X38874060Y-18800828D01*
X38874060Y-18943685D02*
X38802631Y-18872257D01*
X38802631Y-18872257D02*
X38659774Y-18800828D01*
X38659774Y-18800828D02*
X38445488Y-18800828D01*
X38445488Y-18800828D02*
X38302631Y-18872257D01*
X38302631Y-18872257D02*
X38231203Y-19015114D01*
X38231203Y-19015114D02*
X38231203Y-19800828D01*
X38231203Y-19015114D02*
X38159774Y-18872257D01*
X38159774Y-18872257D02*
X38016917Y-18800828D01*
X38016917Y-18800828D02*
X37802631Y-18800828D01*
X37802631Y-18800828D02*
X37659774Y-18872257D01*
X37659774Y-18872257D02*
X37588345Y-19015114D01*
X37588345Y-19015114D02*
X37588345Y-19800828D01*
X36874060Y-19800828D02*
X36874060Y-18800828D01*
X36874060Y-18300828D02*
X36945488Y-18372257D01*
X36945488Y-18372257D02*
X36874060Y-18443685D01*
X36874060Y-18443685D02*
X36802631Y-18372257D01*
X36802631Y-18372257D02*
X36874060Y-18300828D01*
X36874060Y-18300828D02*
X36874060Y-18443685D01*
X35588345Y-19729400D02*
X35731202Y-19800828D01*
X35731202Y-19800828D02*
X36016917Y-19800828D01*
X36016917Y-19800828D02*
X36159774Y-19729400D01*
X36159774Y-19729400D02*
X36231202Y-19586542D01*
X36231202Y-19586542D02*
X36231202Y-19015114D01*
X36231202Y-19015114D02*
X36159774Y-18872257D01*
X36159774Y-18872257D02*
X36016917Y-18800828D01*
X36016917Y-18800828D02*
X35731202Y-18800828D01*
X35731202Y-18800828D02*
X35588345Y-18872257D01*
X35588345Y-18872257D02*
X35516917Y-19015114D01*
X35516917Y-19015114D02*
X35516917Y-19157971D01*
X35516917Y-19157971D02*
X36231202Y-19300828D01*
X34874060Y-19800828D02*
X34874060Y-18300828D01*
X34874060Y-18872257D02*
X34731203Y-18800828D01*
X34731203Y-18800828D02*
X34445488Y-18800828D01*
X34445488Y-18800828D02*
X34302631Y-18872257D01*
X34302631Y-18872257D02*
X34231203Y-18943685D01*
X34231203Y-18943685D02*
X34159774Y-19086542D01*
X34159774Y-19086542D02*
X34159774Y-19515114D01*
X34159774Y-19515114D02*
X34231203Y-19657971D01*
X34231203Y-19657971D02*
X34302631Y-19729400D01*
X34302631Y-19729400D02*
X34445488Y-19800828D01*
X34445488Y-19800828D02*
X34731203Y-19800828D01*
X34731203Y-19800828D02*
X34874060Y-19729400D01*
X33516917Y-19800828D02*
X33516917Y-18800828D01*
X33516917Y-19086542D02*
X33445488Y-18943685D01*
X33445488Y-18943685D02*
X33374060Y-18872257D01*
X33374060Y-18872257D02*
X33231202Y-18800828D01*
X33231202Y-18800828D02*
X33088345Y-18800828D01*
X32588346Y-18800828D02*
X32588346Y-19800828D01*
X32588346Y-18943685D02*
X32516917Y-18872257D01*
X32516917Y-18872257D02*
X32374060Y-18800828D01*
X32374060Y-18800828D02*
X32159774Y-18800828D01*
X32159774Y-18800828D02*
X32016917Y-18872257D01*
X32016917Y-18872257D02*
X31945489Y-19015114D01*
X31945489Y-19015114D02*
X31945489Y-19800828D01*
X30159774Y-18443685D02*
X30088346Y-18372257D01*
X30088346Y-18372257D02*
X29945489Y-18300828D01*
X29945489Y-18300828D02*
X29588346Y-18300828D01*
X29588346Y-18300828D02*
X29445489Y-18372257D01*
X29445489Y-18372257D02*
X29374060Y-18443685D01*
X29374060Y-18443685D02*
X29302631Y-18586542D01*
X29302631Y-18586542D02*
X29302631Y-18729400D01*
X29302631Y-18729400D02*
X29374060Y-18943685D01*
X29374060Y-18943685D02*
X30231203Y-19800828D01*
X30231203Y-19800828D02*
X29302631Y-19800828D01*
X28374060Y-18300828D02*
X28231203Y-18300828D01*
X28231203Y-18300828D02*
X28088346Y-18372257D01*
X28088346Y-18372257D02*
X28016918Y-18443685D01*
X28016918Y-18443685D02*
X27945489Y-18586542D01*
X27945489Y-18586542D02*
X27874060Y-18872257D01*
X27874060Y-18872257D02*
X27874060Y-19229400D01*
X27874060Y-19229400D02*
X27945489Y-19515114D01*
X27945489Y-19515114D02*
X28016918Y-19657971D01*
X28016918Y-19657971D02*
X28088346Y-19729400D01*
X28088346Y-19729400D02*
X28231203Y-19800828D01*
X28231203Y-19800828D02*
X28374060Y-19800828D01*
X28374060Y-19800828D02*
X28516918Y-19729400D01*
X28516918Y-19729400D02*
X28588346Y-19657971D01*
X28588346Y-19657971D02*
X28659775Y-19515114D01*
X28659775Y-19515114D02*
X28731203Y-19229400D01*
X28731203Y-19229400D02*
X28731203Y-18872257D01*
X28731203Y-18872257D02*
X28659775Y-18586542D01*
X28659775Y-18586542D02*
X28588346Y-18443685D01*
X28588346Y-18443685D02*
X28516918Y-18372257D01*
X28516918Y-18372257D02*
X28374060Y-18300828D01*
X27302632Y-18443685D02*
X27231204Y-18372257D01*
X27231204Y-18372257D02*
X27088347Y-18300828D01*
X27088347Y-18300828D02*
X26731204Y-18300828D01*
X26731204Y-18300828D02*
X26588347Y-18372257D01*
X26588347Y-18372257D02*
X26516918Y-18443685D01*
X26516918Y-18443685D02*
X26445489Y-18586542D01*
X26445489Y-18586542D02*
X26445489Y-18729400D01*
X26445489Y-18729400D02*
X26516918Y-18943685D01*
X26516918Y-18943685D02*
X27374061Y-19800828D01*
X27374061Y-19800828D02*
X26445489Y-19800828D01*
X25159776Y-18300828D02*
X25445490Y-18300828D01*
X25445490Y-18300828D02*
X25588347Y-18372257D01*
X25588347Y-18372257D02*
X25659776Y-18443685D01*
X25659776Y-18443685D02*
X25802633Y-18657971D01*
X25802633Y-18657971D02*
X25874061Y-18943685D01*
X25874061Y-18943685D02*
X25874061Y-19515114D01*
X25874061Y-19515114D02*
X25802633Y-19657971D01*
X25802633Y-19657971D02*
X25731204Y-19729400D01*
X25731204Y-19729400D02*
X25588347Y-19800828D01*
X25588347Y-19800828D02*
X25302633Y-19800828D01*
X25302633Y-19800828D02*
X25159776Y-19729400D01*
X25159776Y-19729400D02*
X25088347Y-19657971D01*
X25088347Y-19657971D02*
X25016918Y-19515114D01*
X25016918Y-19515114D02*
X25016918Y-19157971D01*
X25016918Y-19157971D02*
X25088347Y-19015114D01*
X25088347Y-19015114D02*
X25159776Y-18943685D01*
X25159776Y-18943685D02*
X25302633Y-18872257D01*
X25302633Y-18872257D02*
X25588347Y-18872257D01*
X25588347Y-18872257D02*
X25731204Y-18943685D01*
X25731204Y-18943685D02*
X25802633Y-19015114D01*
X25802633Y-19015114D02*
X25874061Y-19157971D01*
M02*
