%TF.GenerationSoftware,KiCad,Pcbnew,9.0.7*%
%TF.CreationDate,2026-01-15T13:11:20+00:00*%
%TF.ProjectId,reg,7265672e-6b69-4636-9164-5f7063625858,rev?*%
%TF.SameCoordinates,Original*%
%TF.FileFunction,Legend,Top*%
%TF.FilePolarity,Positive*%
%FSLAX46Y46*%
G04 Gerber Fmt 4.6, Leading zero omitted, Abs format (unit mm)*
G04 Created by KiCad (PCBNEW 9.0.7) date 2026-01-15 13:11:20*
%MOMM*%
%LPD*%
G01*
G04 APERTURE LIST*
%ADD10C,0.300000*%
%ADD11C,0.150000*%
%ADD12C,0.120000*%
G04 APERTURE END LIST*
D10*
X25268796Y-18943685D02*
X25125939Y-18872257D01*
X25125939Y-18872257D02*
X25054510Y-18800828D01*
X25054510Y-18800828D02*
X24983082Y-18657971D01*
X24983082Y-18657971D02*
X24983082Y-18586542D01*
X24983082Y-18586542D02*
X25054510Y-18443685D01*
X25054510Y-18443685D02*
X25125939Y-18372257D01*
X25125939Y-18372257D02*
X25268796Y-18300828D01*
X25268796Y-18300828D02*
X25554510Y-18300828D01*
X25554510Y-18300828D02*
X25697368Y-18372257D01*
X25697368Y-18372257D02*
X25768796Y-18443685D01*
X25768796Y-18443685D02*
X25840225Y-18586542D01*
X25840225Y-18586542D02*
X25840225Y-18657971D01*
X25840225Y-18657971D02*
X25768796Y-18800828D01*
X25768796Y-18800828D02*
X25697368Y-18872257D01*
X25697368Y-18872257D02*
X25554510Y-18943685D01*
X25554510Y-18943685D02*
X25268796Y-18943685D01*
X25268796Y-18943685D02*
X25125939Y-19015114D01*
X25125939Y-19015114D02*
X25054510Y-19086542D01*
X25054510Y-19086542D02*
X24983082Y-19229400D01*
X24983082Y-19229400D02*
X24983082Y-19515114D01*
X24983082Y-19515114D02*
X25054510Y-19657971D01*
X25054510Y-19657971D02*
X25125939Y-19729400D01*
X25125939Y-19729400D02*
X25268796Y-19800828D01*
X25268796Y-19800828D02*
X25554510Y-19800828D01*
X25554510Y-19800828D02*
X25697368Y-19729400D01*
X25697368Y-19729400D02*
X25768796Y-19657971D01*
X25768796Y-19657971D02*
X25840225Y-19515114D01*
X25840225Y-19515114D02*
X25840225Y-19229400D01*
X25840225Y-19229400D02*
X25768796Y-19086542D01*
X25768796Y-19086542D02*
X25697368Y-19015114D01*
X25697368Y-19015114D02*
X25554510Y-18943685D01*
X28125938Y-19015114D02*
X28340224Y-19086542D01*
X28340224Y-19086542D02*
X28411653Y-19157971D01*
X28411653Y-19157971D02*
X28483081Y-19300828D01*
X28483081Y-19300828D02*
X28483081Y-19515114D01*
X28483081Y-19515114D02*
X28411653Y-19657971D01*
X28411653Y-19657971D02*
X28340224Y-19729400D01*
X28340224Y-19729400D02*
X28197367Y-19800828D01*
X28197367Y-19800828D02*
X27625938Y-19800828D01*
X27625938Y-19800828D02*
X27625938Y-18300828D01*
X27625938Y-18300828D02*
X28125938Y-18300828D01*
X28125938Y-18300828D02*
X28268796Y-18372257D01*
X28268796Y-18372257D02*
X28340224Y-18443685D01*
X28340224Y-18443685D02*
X28411653Y-18586542D01*
X28411653Y-18586542D02*
X28411653Y-18729400D01*
X28411653Y-18729400D02*
X28340224Y-18872257D01*
X28340224Y-18872257D02*
X28268796Y-18943685D01*
X28268796Y-18943685D02*
X28125938Y-19015114D01*
X28125938Y-19015114D02*
X27625938Y-19015114D01*
X29125938Y-19800828D02*
X29125938Y-18300828D01*
X29625939Y-18300828D02*
X30483082Y-18300828D01*
X30054510Y-19800828D02*
X30054510Y-18300828D01*
X32983081Y-19800828D02*
X32483081Y-19086542D01*
X32125938Y-19800828D02*
X32125938Y-18300828D01*
X32125938Y-18300828D02*
X32697367Y-18300828D01*
X32697367Y-18300828D02*
X32840224Y-18372257D01*
X32840224Y-18372257D02*
X32911653Y-18443685D01*
X32911653Y-18443685D02*
X32983081Y-18586542D01*
X32983081Y-18586542D02*
X32983081Y-18800828D01*
X32983081Y-18800828D02*
X32911653Y-18943685D01*
X32911653Y-18943685D02*
X32840224Y-19015114D01*
X32840224Y-19015114D02*
X32697367Y-19086542D01*
X32697367Y-19086542D02*
X32125938Y-19086542D01*
X33625938Y-19015114D02*
X34125938Y-19015114D01*
X34340224Y-19800828D02*
X33625938Y-19800828D01*
X33625938Y-19800828D02*
X33625938Y-18300828D01*
X33625938Y-18300828D02*
X34340224Y-18300828D01*
X35768796Y-18372257D02*
X35625939Y-18300828D01*
X35625939Y-18300828D02*
X35411653Y-18300828D01*
X35411653Y-18300828D02*
X35197367Y-18372257D01*
X35197367Y-18372257D02*
X35054510Y-18515114D01*
X35054510Y-18515114D02*
X34983081Y-18657971D01*
X34983081Y-18657971D02*
X34911653Y-18943685D01*
X34911653Y-18943685D02*
X34911653Y-19157971D01*
X34911653Y-19157971D02*
X34983081Y-19443685D01*
X34983081Y-19443685D02*
X35054510Y-19586542D01*
X35054510Y-19586542D02*
X35197367Y-19729400D01*
X35197367Y-19729400D02*
X35411653Y-19800828D01*
X35411653Y-19800828D02*
X35554510Y-19800828D01*
X35554510Y-19800828D02*
X35768796Y-19729400D01*
X35768796Y-19729400D02*
X35840224Y-19657971D01*
X35840224Y-19657971D02*
X35840224Y-19157971D01*
X35840224Y-19157971D02*
X35554510Y-19157971D01*
X36483081Y-19800828D02*
X36483081Y-18300828D01*
X37125939Y-19729400D02*
X37340225Y-19800828D01*
X37340225Y-19800828D02*
X37697367Y-19800828D01*
X37697367Y-19800828D02*
X37840225Y-19729400D01*
X37840225Y-19729400D02*
X37911653Y-19657971D01*
X37911653Y-19657971D02*
X37983082Y-19515114D01*
X37983082Y-19515114D02*
X37983082Y-19372257D01*
X37983082Y-19372257D02*
X37911653Y-19229400D01*
X37911653Y-19229400D02*
X37840225Y-19157971D01*
X37840225Y-19157971D02*
X37697367Y-19086542D01*
X37697367Y-19086542D02*
X37411653Y-19015114D01*
X37411653Y-19015114D02*
X37268796Y-18943685D01*
X37268796Y-18943685D02*
X37197367Y-18872257D01*
X37197367Y-18872257D02*
X37125939Y-18729400D01*
X37125939Y-18729400D02*
X37125939Y-18586542D01*
X37125939Y-18586542D02*
X37197367Y-18443685D01*
X37197367Y-18443685D02*
X37268796Y-18372257D01*
X37268796Y-18372257D02*
X37411653Y-18300828D01*
X37411653Y-18300828D02*
X37768796Y-18300828D01*
X37768796Y-18300828D02*
X37983082Y-18372257D01*
X38411653Y-18300828D02*
X39268796Y-18300828D01*
X38840224Y-19800828D02*
X38840224Y-18300828D01*
X39768795Y-19015114D02*
X40268795Y-19015114D01*
X40483081Y-19800828D02*
X39768795Y-19800828D01*
X39768795Y-19800828D02*
X39768795Y-18300828D01*
X39768795Y-18300828D02*
X40483081Y-18300828D01*
X41983081Y-19800828D02*
X41483081Y-19086542D01*
X41125938Y-19800828D02*
X41125938Y-18300828D01*
X41125938Y-18300828D02*
X41697367Y-18300828D01*
X41697367Y-18300828D02*
X41840224Y-18372257D01*
X41840224Y-18372257D02*
X41911653Y-18443685D01*
X41911653Y-18443685D02*
X41983081Y-18586542D01*
X41983081Y-18586542D02*
X41983081Y-18800828D01*
X41983081Y-18800828D02*
X41911653Y-18943685D01*
X41911653Y-18943685D02*
X41840224Y-19015114D01*
X41840224Y-19015114D02*
X41697367Y-19086542D01*
X41697367Y-19086542D02*
X41125938Y-19086542D01*
X43554510Y-18300828D02*
X44054510Y-19800828D01*
X44054510Y-19800828D02*
X44554510Y-18300828D01*
X44911652Y-18300828D02*
X45840224Y-18300828D01*
X45840224Y-18300828D02*
X45340224Y-18872257D01*
X45340224Y-18872257D02*
X45554509Y-18872257D01*
X45554509Y-18872257D02*
X45697367Y-18943685D01*
X45697367Y-18943685D02*
X45768795Y-19015114D01*
X45768795Y-19015114D02*
X45840224Y-19157971D01*
X45840224Y-19157971D02*
X45840224Y-19515114D01*
X45840224Y-19515114D02*
X45768795Y-19657971D01*
X45768795Y-19657971D02*
X45697367Y-19729400D01*
X45697367Y-19729400D02*
X45554509Y-19800828D01*
X45554509Y-19800828D02*
X45125938Y-19800828D01*
X45125938Y-19800828D02*
X44983081Y-19729400D01*
X44983081Y-19729400D02*
X44911652Y-19657971D01*
D11*
X29738095Y-91622438D02*
X29642857Y-91574819D01*
X29642857Y-91574819D02*
X29500000Y-91574819D01*
X29500000Y-91574819D02*
X29357143Y-91622438D01*
X29357143Y-91622438D02*
X29261905Y-91717676D01*
X29261905Y-91717676D02*
X29214286Y-91812914D01*
X29214286Y-91812914D02*
X29166667Y-92003390D01*
X29166667Y-92003390D02*
X29166667Y-92146247D01*
X29166667Y-92146247D02*
X29214286Y-92336723D01*
X29214286Y-92336723D02*
X29261905Y-92431961D01*
X29261905Y-92431961D02*
X29357143Y-92527200D01*
X29357143Y-92527200D02*
X29500000Y-92574819D01*
X29500000Y-92574819D02*
X29595238Y-92574819D01*
X29595238Y-92574819D02*
X29738095Y-92527200D01*
X29738095Y-92527200D02*
X29785714Y-92479580D01*
X29785714Y-92479580D02*
X29785714Y-92146247D01*
X29785714Y-92146247D02*
X29595238Y-92146247D01*
X30214286Y-92574819D02*
X30214286Y-91574819D01*
X30214286Y-91574819D02*
X30785714Y-92574819D01*
X30785714Y-92574819D02*
X30785714Y-91574819D01*
X31261905Y-92574819D02*
X31261905Y-91574819D01*
X31261905Y-91574819D02*
X31500000Y-91574819D01*
X31500000Y-91574819D02*
X31642857Y-91622438D01*
X31642857Y-91622438D02*
X31738095Y-91717676D01*
X31738095Y-91717676D02*
X31785714Y-91812914D01*
X31785714Y-91812914D02*
X31833333Y-92003390D01*
X31833333Y-92003390D02*
X31833333Y-92146247D01*
X31833333Y-92146247D02*
X31785714Y-92336723D01*
X31785714Y-92336723D02*
X31738095Y-92431961D01*
X31738095Y-92431961D02*
X31642857Y-92527200D01*
X31642857Y-92527200D02*
X31500000Y-92574819D01*
X31500000Y-92574819D02*
X31261905Y-92574819D01*
X21454819Y-56309523D02*
X20454819Y-56309523D01*
X20454819Y-56309523D02*
X20454819Y-56071428D01*
X20454819Y-56071428D02*
X20502438Y-55928571D01*
X20502438Y-55928571D02*
X20597676Y-55833333D01*
X20597676Y-55833333D02*
X20692914Y-55785714D01*
X20692914Y-55785714D02*
X20883390Y-55738095D01*
X20883390Y-55738095D02*
X21026247Y-55738095D01*
X21026247Y-55738095D02*
X21216723Y-55785714D01*
X21216723Y-55785714D02*
X21311961Y-55833333D01*
X21311961Y-55833333D02*
X21407200Y-55928571D01*
X21407200Y-55928571D02*
X21454819Y-56071428D01*
X21454819Y-56071428D02*
X21454819Y-56309523D01*
X21169104Y-55357142D02*
X21169104Y-54880952D01*
X21454819Y-55452380D02*
X20454819Y-55119047D01*
X20454819Y-55119047D02*
X21454819Y-54785714D01*
X20454819Y-54595237D02*
X20454819Y-54023809D01*
X21454819Y-54309523D02*
X20454819Y-54309523D01*
X21169104Y-53738094D02*
X21169104Y-53261904D01*
X21454819Y-53833332D02*
X20454819Y-53499999D01*
X20454819Y-53499999D02*
X21454819Y-53166666D01*
X21550057Y-53071428D02*
X21550057Y-52309523D01*
X20454819Y-51880951D02*
X20454819Y-51690475D01*
X20454819Y-51690475D02*
X20502438Y-51595237D01*
X20502438Y-51595237D02*
X20597676Y-51499999D01*
X20597676Y-51499999D02*
X20788152Y-51452380D01*
X20788152Y-51452380D02*
X21121485Y-51452380D01*
X21121485Y-51452380D02*
X21311961Y-51499999D01*
X21311961Y-51499999D02*
X21407200Y-51595237D01*
X21407200Y-51595237D02*
X21454819Y-51690475D01*
X21454819Y-51690475D02*
X21454819Y-51880951D01*
X21454819Y-51880951D02*
X21407200Y-51976189D01*
X21407200Y-51976189D02*
X21311961Y-52071427D01*
X21311961Y-52071427D02*
X21121485Y-52119046D01*
X21121485Y-52119046D02*
X20788152Y-52119046D01*
X20788152Y-52119046D02*
X20597676Y-52071427D01*
X20597676Y-52071427D02*
X20502438Y-51976189D01*
X20502438Y-51976189D02*
X20454819Y-51880951D01*
X20454819Y-51023808D02*
X21264342Y-51023808D01*
X21264342Y-51023808D02*
X21359580Y-50976189D01*
X21359580Y-50976189D02*
X21407200Y-50928570D01*
X21407200Y-50928570D02*
X21454819Y-50833332D01*
X21454819Y-50833332D02*
X21454819Y-50642856D01*
X21454819Y-50642856D02*
X21407200Y-50547618D01*
X21407200Y-50547618D02*
X21359580Y-50499999D01*
X21359580Y-50499999D02*
X21264342Y-50452380D01*
X21264342Y-50452380D02*
X20454819Y-50452380D01*
X20454819Y-50119046D02*
X20454819Y-49547618D01*
X21454819Y-49833332D02*
X20454819Y-49833332D01*
X78163130Y-89665228D02*
X77829797Y-89189037D01*
X77591702Y-89665228D02*
X77591702Y-88665228D01*
X77591702Y-88665228D02*
X77972654Y-88665228D01*
X77972654Y-88665228D02*
X78067892Y-88712847D01*
X78067892Y-88712847D02*
X78115511Y-88760466D01*
X78115511Y-88760466D02*
X78163130Y-88855704D01*
X78163130Y-88855704D02*
X78163130Y-88998561D01*
X78163130Y-88998561D02*
X78115511Y-89093799D01*
X78115511Y-89093799D02*
X78067892Y-89141418D01*
X78067892Y-89141418D02*
X77972654Y-89189037D01*
X77972654Y-89189037D02*
X77591702Y-89189037D01*
X79115511Y-89665228D02*
X78544083Y-89665228D01*
X78829797Y-89665228D02*
X78829797Y-88665228D01*
X78829797Y-88665228D02*
X78734559Y-88808085D01*
X78734559Y-88808085D02*
X78639321Y-88903323D01*
X78639321Y-88903323D02*
X78544083Y-88950942D01*
X79734559Y-88665228D02*
X79829797Y-88665228D01*
X79829797Y-88665228D02*
X79925035Y-88712847D01*
X79925035Y-88712847D02*
X79972654Y-88760466D01*
X79972654Y-88760466D02*
X80020273Y-88855704D01*
X80020273Y-88855704D02*
X80067892Y-89046180D01*
X80067892Y-89046180D02*
X80067892Y-89284275D01*
X80067892Y-89284275D02*
X80020273Y-89474751D01*
X80020273Y-89474751D02*
X79972654Y-89569989D01*
X79972654Y-89569989D02*
X79925035Y-89617609D01*
X79925035Y-89617609D02*
X79829797Y-89665228D01*
X79829797Y-89665228D02*
X79734559Y-89665228D01*
X79734559Y-89665228D02*
X79639321Y-89617609D01*
X79639321Y-89617609D02*
X79591702Y-89569989D01*
X79591702Y-89569989D02*
X79544083Y-89474751D01*
X79544083Y-89474751D02*
X79496464Y-89284275D01*
X79496464Y-89284275D02*
X79496464Y-89046180D01*
X79496464Y-89046180D02*
X79544083Y-88855704D01*
X79544083Y-88855704D02*
X79591702Y-88760466D01*
X79591702Y-88760466D02*
X79639321Y-88712847D01*
X79639321Y-88712847D02*
X79734559Y-88665228D01*
X80448845Y-88760466D02*
X80496464Y-88712847D01*
X80496464Y-88712847D02*
X80591702Y-88665228D01*
X80591702Y-88665228D02*
X80829797Y-88665228D01*
X80829797Y-88665228D02*
X80925035Y-88712847D01*
X80925035Y-88712847D02*
X80972654Y-88760466D01*
X80972654Y-88760466D02*
X81020273Y-88855704D01*
X81020273Y-88855704D02*
X81020273Y-88950942D01*
X81020273Y-88950942D02*
X80972654Y-89093799D01*
X80972654Y-89093799D02*
X80401226Y-89665228D01*
X80401226Y-89665228D02*
X81020273Y-89665228D01*
X101452380Y-90350057D02*
X101357142Y-90302438D01*
X101357142Y-90302438D02*
X101261904Y-90207200D01*
X101261904Y-90207200D02*
X101119047Y-90064342D01*
X101119047Y-90064342D02*
X101023809Y-90016723D01*
X101023809Y-90016723D02*
X100928571Y-90016723D01*
X100976190Y-90254819D02*
X100880952Y-90207200D01*
X100880952Y-90207200D02*
X100785714Y-90111961D01*
X100785714Y-90111961D02*
X100738095Y-89921485D01*
X100738095Y-89921485D02*
X100738095Y-89588152D01*
X100738095Y-89588152D02*
X100785714Y-89397676D01*
X100785714Y-89397676D02*
X100880952Y-89302438D01*
X100880952Y-89302438D02*
X100976190Y-89254819D01*
X100976190Y-89254819D02*
X101166666Y-89254819D01*
X101166666Y-89254819D02*
X101261904Y-89302438D01*
X101261904Y-89302438D02*
X101357142Y-89397676D01*
X101357142Y-89397676D02*
X101404761Y-89588152D01*
X101404761Y-89588152D02*
X101404761Y-89921485D01*
X101404761Y-89921485D02*
X101357142Y-90111961D01*
X101357142Y-90111961D02*
X101261904Y-90207200D01*
X101261904Y-90207200D02*
X101166666Y-90254819D01*
X101166666Y-90254819D02*
X100976190Y-90254819D01*
X102357142Y-90254819D02*
X101785714Y-90254819D01*
X102071428Y-90254819D02*
X102071428Y-89254819D01*
X102071428Y-89254819D02*
X101976190Y-89397676D01*
X101976190Y-89397676D02*
X101880952Y-89492914D01*
X101880952Y-89492914D02*
X101785714Y-89540533D01*
X102976190Y-89254819D02*
X103071428Y-89254819D01*
X103071428Y-89254819D02*
X103166666Y-89302438D01*
X103166666Y-89302438D02*
X103214285Y-89350057D01*
X103214285Y-89350057D02*
X103261904Y-89445295D01*
X103261904Y-89445295D02*
X103309523Y-89635771D01*
X103309523Y-89635771D02*
X103309523Y-89873866D01*
X103309523Y-89873866D02*
X103261904Y-90064342D01*
X103261904Y-90064342D02*
X103214285Y-90159580D01*
X103214285Y-90159580D02*
X103166666Y-90207200D01*
X103166666Y-90207200D02*
X103071428Y-90254819D01*
X103071428Y-90254819D02*
X102976190Y-90254819D01*
X102976190Y-90254819D02*
X102880952Y-90207200D01*
X102880952Y-90207200D02*
X102833333Y-90159580D01*
X102833333Y-90159580D02*
X102785714Y-90064342D01*
X102785714Y-90064342D02*
X102738095Y-89873866D01*
X102738095Y-89873866D02*
X102738095Y-89635771D01*
X102738095Y-89635771D02*
X102785714Y-89445295D01*
X102785714Y-89445295D02*
X102833333Y-89350057D01*
X102833333Y-89350057D02*
X102880952Y-89302438D01*
X102880952Y-89302438D02*
X102976190Y-89254819D01*
X104261904Y-90254819D02*
X103690476Y-90254819D01*
X103976190Y-90254819D02*
X103976190Y-89254819D01*
X103976190Y-89254819D02*
X103880952Y-89397676D01*
X103880952Y-89397676D02*
X103785714Y-89492914D01*
X103785714Y-89492914D02*
X103690476Y-89540533D01*
X74250630Y-93165228D02*
X73917297Y-92689037D01*
X73679202Y-93165228D02*
X73679202Y-92165228D01*
X73679202Y-92165228D02*
X74060154Y-92165228D01*
X74060154Y-92165228D02*
X74155392Y-92212847D01*
X74155392Y-92212847D02*
X74203011Y-92260466D01*
X74203011Y-92260466D02*
X74250630Y-92355704D01*
X74250630Y-92355704D02*
X74250630Y-92498561D01*
X74250630Y-92498561D02*
X74203011Y-92593799D01*
X74203011Y-92593799D02*
X74155392Y-92641418D01*
X74155392Y-92641418D02*
X74060154Y-92689037D01*
X74060154Y-92689037D02*
X73679202Y-92689037D01*
X75203011Y-93165228D02*
X74631583Y-93165228D01*
X74917297Y-93165228D02*
X74917297Y-92165228D01*
X74917297Y-92165228D02*
X74822059Y-92308085D01*
X74822059Y-92308085D02*
X74726821Y-92403323D01*
X74726821Y-92403323D02*
X74631583Y-92450942D01*
X75822059Y-92165228D02*
X75917297Y-92165228D01*
X75917297Y-92165228D02*
X76012535Y-92212847D01*
X76012535Y-92212847D02*
X76060154Y-92260466D01*
X76060154Y-92260466D02*
X76107773Y-92355704D01*
X76107773Y-92355704D02*
X76155392Y-92546180D01*
X76155392Y-92546180D02*
X76155392Y-92784275D01*
X76155392Y-92784275D02*
X76107773Y-92974751D01*
X76107773Y-92974751D02*
X76060154Y-93069989D01*
X76060154Y-93069989D02*
X76012535Y-93117609D01*
X76012535Y-93117609D02*
X75917297Y-93165228D01*
X75917297Y-93165228D02*
X75822059Y-93165228D01*
X75822059Y-93165228D02*
X75726821Y-93117609D01*
X75726821Y-93117609D02*
X75679202Y-93069989D01*
X75679202Y-93069989D02*
X75631583Y-92974751D01*
X75631583Y-92974751D02*
X75583964Y-92784275D01*
X75583964Y-92784275D02*
X75583964Y-92546180D01*
X75583964Y-92546180D02*
X75631583Y-92355704D01*
X75631583Y-92355704D02*
X75679202Y-92260466D01*
X75679202Y-92260466D02*
X75726821Y-92212847D01*
X75726821Y-92212847D02*
X75822059Y-92165228D01*
X77012535Y-92165228D02*
X76822059Y-92165228D01*
X76822059Y-92165228D02*
X76726821Y-92212847D01*
X76726821Y-92212847D02*
X76679202Y-92260466D01*
X76679202Y-92260466D02*
X76583964Y-92403323D01*
X76583964Y-92403323D02*
X76536345Y-92593799D01*
X76536345Y-92593799D02*
X76536345Y-92974751D01*
X76536345Y-92974751D02*
X76583964Y-93069989D01*
X76583964Y-93069989D02*
X76631583Y-93117609D01*
X76631583Y-93117609D02*
X76726821Y-93165228D01*
X76726821Y-93165228D02*
X76917297Y-93165228D01*
X76917297Y-93165228D02*
X77012535Y-93117609D01*
X77012535Y-93117609D02*
X77060154Y-93069989D01*
X77060154Y-93069989D02*
X77107773Y-92974751D01*
X77107773Y-92974751D02*
X77107773Y-92736656D01*
X77107773Y-92736656D02*
X77060154Y-92641418D01*
X77060154Y-92641418D02*
X77012535Y-92593799D01*
X77012535Y-92593799D02*
X76917297Y-92546180D01*
X76917297Y-92546180D02*
X76726821Y-92546180D01*
X76726821Y-92546180D02*
X76631583Y-92593799D01*
X76631583Y-92593799D02*
X76583964Y-92641418D01*
X76583964Y-92641418D02*
X76536345Y-92736656D01*
X66324953Y-93171420D02*
X65991620Y-92695229D01*
X65753525Y-93171420D02*
X65753525Y-92171420D01*
X65753525Y-92171420D02*
X66134477Y-92171420D01*
X66134477Y-92171420D02*
X66229715Y-92219039D01*
X66229715Y-92219039D02*
X66277334Y-92266658D01*
X66277334Y-92266658D02*
X66324953Y-92361896D01*
X66324953Y-92361896D02*
X66324953Y-92504753D01*
X66324953Y-92504753D02*
X66277334Y-92599991D01*
X66277334Y-92599991D02*
X66229715Y-92647610D01*
X66229715Y-92647610D02*
X66134477Y-92695229D01*
X66134477Y-92695229D02*
X65753525Y-92695229D01*
X67277334Y-93171420D02*
X66705906Y-93171420D01*
X66991620Y-93171420D02*
X66991620Y-92171420D01*
X66991620Y-92171420D02*
X66896382Y-92314277D01*
X66896382Y-92314277D02*
X66801144Y-92409515D01*
X66801144Y-92409515D02*
X66705906Y-92457134D01*
X67896382Y-92171420D02*
X67991620Y-92171420D01*
X67991620Y-92171420D02*
X68086858Y-92219039D01*
X68086858Y-92219039D02*
X68134477Y-92266658D01*
X68134477Y-92266658D02*
X68182096Y-92361896D01*
X68182096Y-92361896D02*
X68229715Y-92552372D01*
X68229715Y-92552372D02*
X68229715Y-92790467D01*
X68229715Y-92790467D02*
X68182096Y-92980943D01*
X68182096Y-92980943D02*
X68134477Y-93076181D01*
X68134477Y-93076181D02*
X68086858Y-93123801D01*
X68086858Y-93123801D02*
X67991620Y-93171420D01*
X67991620Y-93171420D02*
X67896382Y-93171420D01*
X67896382Y-93171420D02*
X67801144Y-93123801D01*
X67801144Y-93123801D02*
X67753525Y-93076181D01*
X67753525Y-93076181D02*
X67705906Y-92980943D01*
X67705906Y-92980943D02*
X67658287Y-92790467D01*
X67658287Y-92790467D02*
X67658287Y-92552372D01*
X67658287Y-92552372D02*
X67705906Y-92361896D01*
X67705906Y-92361896D02*
X67753525Y-92266658D01*
X67753525Y-92266658D02*
X67801144Y-92219039D01*
X67801144Y-92219039D02*
X67896382Y-92171420D01*
X68563049Y-92171420D02*
X69229715Y-92171420D01*
X69229715Y-92171420D02*
X68801144Y-93171420D01*
X95452380Y-90350057D02*
X95357142Y-90302438D01*
X95357142Y-90302438D02*
X95261904Y-90207200D01*
X95261904Y-90207200D02*
X95119047Y-90064342D01*
X95119047Y-90064342D02*
X95023809Y-90016723D01*
X95023809Y-90016723D02*
X94928571Y-90016723D01*
X94976190Y-90254819D02*
X94880952Y-90207200D01*
X94880952Y-90207200D02*
X94785714Y-90111961D01*
X94785714Y-90111961D02*
X94738095Y-89921485D01*
X94738095Y-89921485D02*
X94738095Y-89588152D01*
X94738095Y-89588152D02*
X94785714Y-89397676D01*
X94785714Y-89397676D02*
X94880952Y-89302438D01*
X94880952Y-89302438D02*
X94976190Y-89254819D01*
X94976190Y-89254819D02*
X95166666Y-89254819D01*
X95166666Y-89254819D02*
X95261904Y-89302438D01*
X95261904Y-89302438D02*
X95357142Y-89397676D01*
X95357142Y-89397676D02*
X95404761Y-89588152D01*
X95404761Y-89588152D02*
X95404761Y-89921485D01*
X95404761Y-89921485D02*
X95357142Y-90111961D01*
X95357142Y-90111961D02*
X95261904Y-90207200D01*
X95261904Y-90207200D02*
X95166666Y-90254819D01*
X95166666Y-90254819D02*
X94976190Y-90254819D01*
X96357142Y-90254819D02*
X95785714Y-90254819D01*
X96071428Y-90254819D02*
X96071428Y-89254819D01*
X96071428Y-89254819D02*
X95976190Y-89397676D01*
X95976190Y-89397676D02*
X95880952Y-89492914D01*
X95880952Y-89492914D02*
X95785714Y-89540533D01*
X96976190Y-89254819D02*
X97071428Y-89254819D01*
X97071428Y-89254819D02*
X97166666Y-89302438D01*
X97166666Y-89302438D02*
X97214285Y-89350057D01*
X97214285Y-89350057D02*
X97261904Y-89445295D01*
X97261904Y-89445295D02*
X97309523Y-89635771D01*
X97309523Y-89635771D02*
X97309523Y-89873866D01*
X97309523Y-89873866D02*
X97261904Y-90064342D01*
X97261904Y-90064342D02*
X97214285Y-90159580D01*
X97214285Y-90159580D02*
X97166666Y-90207200D01*
X97166666Y-90207200D02*
X97071428Y-90254819D01*
X97071428Y-90254819D02*
X96976190Y-90254819D01*
X96976190Y-90254819D02*
X96880952Y-90207200D01*
X96880952Y-90207200D02*
X96833333Y-90159580D01*
X96833333Y-90159580D02*
X96785714Y-90064342D01*
X96785714Y-90064342D02*
X96738095Y-89873866D01*
X96738095Y-89873866D02*
X96738095Y-89635771D01*
X96738095Y-89635771D02*
X96785714Y-89445295D01*
X96785714Y-89445295D02*
X96833333Y-89350057D01*
X96833333Y-89350057D02*
X96880952Y-89302438D01*
X96880952Y-89302438D02*
X96976190Y-89254819D01*
X97690476Y-89350057D02*
X97738095Y-89302438D01*
X97738095Y-89302438D02*
X97833333Y-89254819D01*
X97833333Y-89254819D02*
X98071428Y-89254819D01*
X98071428Y-89254819D02*
X98166666Y-89302438D01*
X98166666Y-89302438D02*
X98214285Y-89350057D01*
X98214285Y-89350057D02*
X98261904Y-89445295D01*
X98261904Y-89445295D02*
X98261904Y-89540533D01*
X98261904Y-89540533D02*
X98214285Y-89683390D01*
X98214285Y-89683390D02*
X97642857Y-90254819D01*
X97642857Y-90254819D02*
X98261904Y-90254819D01*
X58880952Y-90859580D02*
X58833333Y-90907200D01*
X58833333Y-90907200D02*
X58690476Y-90954819D01*
X58690476Y-90954819D02*
X58595238Y-90954819D01*
X58595238Y-90954819D02*
X58452381Y-90907200D01*
X58452381Y-90907200D02*
X58357143Y-90811961D01*
X58357143Y-90811961D02*
X58309524Y-90716723D01*
X58309524Y-90716723D02*
X58261905Y-90526247D01*
X58261905Y-90526247D02*
X58261905Y-90383390D01*
X58261905Y-90383390D02*
X58309524Y-90192914D01*
X58309524Y-90192914D02*
X58357143Y-90097676D01*
X58357143Y-90097676D02*
X58452381Y-90002438D01*
X58452381Y-90002438D02*
X58595238Y-89954819D01*
X58595238Y-89954819D02*
X58690476Y-89954819D01*
X58690476Y-89954819D02*
X58833333Y-90002438D01*
X58833333Y-90002438D02*
X58880952Y-90050057D01*
X59833333Y-90954819D02*
X59261905Y-90954819D01*
X59547619Y-90954819D02*
X59547619Y-89954819D01*
X59547619Y-89954819D02*
X59452381Y-90097676D01*
X59452381Y-90097676D02*
X59357143Y-90192914D01*
X59357143Y-90192914D02*
X59261905Y-90240533D01*
X60452381Y-89954819D02*
X60547619Y-89954819D01*
X60547619Y-89954819D02*
X60642857Y-90002438D01*
X60642857Y-90002438D02*
X60690476Y-90050057D01*
X60690476Y-90050057D02*
X60738095Y-90145295D01*
X60738095Y-90145295D02*
X60785714Y-90335771D01*
X60785714Y-90335771D02*
X60785714Y-90573866D01*
X60785714Y-90573866D02*
X60738095Y-90764342D01*
X60738095Y-90764342D02*
X60690476Y-90859580D01*
X60690476Y-90859580D02*
X60642857Y-90907200D01*
X60642857Y-90907200D02*
X60547619Y-90954819D01*
X60547619Y-90954819D02*
X60452381Y-90954819D01*
X60452381Y-90954819D02*
X60357143Y-90907200D01*
X60357143Y-90907200D02*
X60309524Y-90859580D01*
X60309524Y-90859580D02*
X60261905Y-90764342D01*
X60261905Y-90764342D02*
X60214286Y-90573866D01*
X60214286Y-90573866D02*
X60214286Y-90335771D01*
X60214286Y-90335771D02*
X60261905Y-90145295D01*
X60261905Y-90145295D02*
X60309524Y-90050057D01*
X60309524Y-90050057D02*
X60357143Y-90002438D01*
X60357143Y-90002438D02*
X60452381Y-89954819D01*
X61738095Y-90954819D02*
X61166667Y-90954819D01*
X61452381Y-90954819D02*
X61452381Y-89954819D01*
X61452381Y-89954819D02*
X61357143Y-90097676D01*
X61357143Y-90097676D02*
X61261905Y-90192914D01*
X61261905Y-90192914D02*
X61166667Y-90240533D01*
X74250630Y-89665228D02*
X73917297Y-89189037D01*
X73679202Y-89665228D02*
X73679202Y-88665228D01*
X73679202Y-88665228D02*
X74060154Y-88665228D01*
X74060154Y-88665228D02*
X74155392Y-88712847D01*
X74155392Y-88712847D02*
X74203011Y-88760466D01*
X74203011Y-88760466D02*
X74250630Y-88855704D01*
X74250630Y-88855704D02*
X74250630Y-88998561D01*
X74250630Y-88998561D02*
X74203011Y-89093799D01*
X74203011Y-89093799D02*
X74155392Y-89141418D01*
X74155392Y-89141418D02*
X74060154Y-89189037D01*
X74060154Y-89189037D02*
X73679202Y-89189037D01*
X75203011Y-89665228D02*
X74631583Y-89665228D01*
X74917297Y-89665228D02*
X74917297Y-88665228D01*
X74917297Y-88665228D02*
X74822059Y-88808085D01*
X74822059Y-88808085D02*
X74726821Y-88903323D01*
X74726821Y-88903323D02*
X74631583Y-88950942D01*
X75822059Y-88665228D02*
X75917297Y-88665228D01*
X75917297Y-88665228D02*
X76012535Y-88712847D01*
X76012535Y-88712847D02*
X76060154Y-88760466D01*
X76060154Y-88760466D02*
X76107773Y-88855704D01*
X76107773Y-88855704D02*
X76155392Y-89046180D01*
X76155392Y-89046180D02*
X76155392Y-89284275D01*
X76155392Y-89284275D02*
X76107773Y-89474751D01*
X76107773Y-89474751D02*
X76060154Y-89569989D01*
X76060154Y-89569989D02*
X76012535Y-89617609D01*
X76012535Y-89617609D02*
X75917297Y-89665228D01*
X75917297Y-89665228D02*
X75822059Y-89665228D01*
X75822059Y-89665228D02*
X75726821Y-89617609D01*
X75726821Y-89617609D02*
X75679202Y-89569989D01*
X75679202Y-89569989D02*
X75631583Y-89474751D01*
X75631583Y-89474751D02*
X75583964Y-89284275D01*
X75583964Y-89284275D02*
X75583964Y-89046180D01*
X75583964Y-89046180D02*
X75631583Y-88855704D01*
X75631583Y-88855704D02*
X75679202Y-88760466D01*
X75679202Y-88760466D02*
X75726821Y-88712847D01*
X75726821Y-88712847D02*
X75822059Y-88665228D01*
X76488726Y-88665228D02*
X77107773Y-88665228D01*
X77107773Y-88665228D02*
X76774440Y-89046180D01*
X76774440Y-89046180D02*
X76917297Y-89046180D01*
X76917297Y-89046180D02*
X77012535Y-89093799D01*
X77012535Y-89093799D02*
X77060154Y-89141418D01*
X77060154Y-89141418D02*
X77107773Y-89236656D01*
X77107773Y-89236656D02*
X77107773Y-89474751D01*
X77107773Y-89474751D02*
X77060154Y-89569989D01*
X77060154Y-89569989D02*
X77012535Y-89617609D01*
X77012535Y-89617609D02*
X76917297Y-89665228D01*
X76917297Y-89665228D02*
X76631583Y-89665228D01*
X76631583Y-89665228D02*
X76536345Y-89617609D01*
X76536345Y-89617609D02*
X76488726Y-89569989D01*
X24714286Y-92193866D02*
X25476191Y-92193866D01*
X25095238Y-92574819D02*
X25095238Y-91812914D01*
X26428571Y-91574819D02*
X25952381Y-91574819D01*
X25952381Y-91574819D02*
X25904762Y-92051009D01*
X25904762Y-92051009D02*
X25952381Y-92003390D01*
X25952381Y-92003390D02*
X26047619Y-91955771D01*
X26047619Y-91955771D02*
X26285714Y-91955771D01*
X26285714Y-91955771D02*
X26380952Y-92003390D01*
X26380952Y-92003390D02*
X26428571Y-92051009D01*
X26428571Y-92051009D02*
X26476190Y-92146247D01*
X26476190Y-92146247D02*
X26476190Y-92384342D01*
X26476190Y-92384342D02*
X26428571Y-92479580D01*
X26428571Y-92479580D02*
X26380952Y-92527200D01*
X26380952Y-92527200D02*
X26285714Y-92574819D01*
X26285714Y-92574819D02*
X26047619Y-92574819D01*
X26047619Y-92574819D02*
X25952381Y-92527200D01*
X25952381Y-92527200D02*
X25904762Y-92479580D01*
X26761905Y-91574819D02*
X27095238Y-92574819D01*
X27095238Y-92574819D02*
X27428571Y-91574819D01*
X46952380Y-92574819D02*
X46619047Y-92098628D01*
X46380952Y-92574819D02*
X46380952Y-91574819D01*
X46380952Y-91574819D02*
X46761904Y-91574819D01*
X46761904Y-91574819D02*
X46857142Y-91622438D01*
X46857142Y-91622438D02*
X46904761Y-91670057D01*
X46904761Y-91670057D02*
X46952380Y-91765295D01*
X46952380Y-91765295D02*
X46952380Y-91908152D01*
X46952380Y-91908152D02*
X46904761Y-92003390D01*
X46904761Y-92003390D02*
X46857142Y-92051009D01*
X46857142Y-92051009D02*
X46761904Y-92098628D01*
X46761904Y-92098628D02*
X46380952Y-92098628D01*
X47380952Y-92574819D02*
X47380952Y-91574819D01*
X47380952Y-91574819D02*
X47619047Y-91574819D01*
X47619047Y-91574819D02*
X47761904Y-91622438D01*
X47761904Y-91622438D02*
X47857142Y-91717676D01*
X47857142Y-91717676D02*
X47904761Y-91812914D01*
X47904761Y-91812914D02*
X47952380Y-92003390D01*
X47952380Y-92003390D02*
X47952380Y-92146247D01*
X47952380Y-92146247D02*
X47904761Y-92336723D01*
X47904761Y-92336723D02*
X47857142Y-92431961D01*
X47857142Y-92431961D02*
X47761904Y-92527200D01*
X47761904Y-92527200D02*
X47619047Y-92574819D01*
X47619047Y-92574819D02*
X47380952Y-92574819D01*
X48142857Y-92670057D02*
X48904761Y-92670057D01*
X49142857Y-92051009D02*
X49476190Y-92051009D01*
X49619047Y-92574819D02*
X49142857Y-92574819D01*
X49142857Y-92574819D02*
X49142857Y-91574819D01*
X49142857Y-91574819D02*
X49619047Y-91574819D01*
X50047619Y-92574819D02*
X50047619Y-91574819D01*
X50047619Y-91574819D02*
X50619047Y-92574819D01*
X50619047Y-92574819D02*
X50619047Y-91574819D01*
X70163130Y-89665228D02*
X69829797Y-89189037D01*
X69591702Y-89665228D02*
X69591702Y-88665228D01*
X69591702Y-88665228D02*
X69972654Y-88665228D01*
X69972654Y-88665228D02*
X70067892Y-88712847D01*
X70067892Y-88712847D02*
X70115511Y-88760466D01*
X70115511Y-88760466D02*
X70163130Y-88855704D01*
X70163130Y-88855704D02*
X70163130Y-88998561D01*
X70163130Y-88998561D02*
X70115511Y-89093799D01*
X70115511Y-89093799D02*
X70067892Y-89141418D01*
X70067892Y-89141418D02*
X69972654Y-89189037D01*
X69972654Y-89189037D02*
X69591702Y-89189037D01*
X71115511Y-89665228D02*
X70544083Y-89665228D01*
X70829797Y-89665228D02*
X70829797Y-88665228D01*
X70829797Y-88665228D02*
X70734559Y-88808085D01*
X70734559Y-88808085D02*
X70639321Y-88903323D01*
X70639321Y-88903323D02*
X70544083Y-88950942D01*
X71734559Y-88665228D02*
X71829797Y-88665228D01*
X71829797Y-88665228D02*
X71925035Y-88712847D01*
X71925035Y-88712847D02*
X71972654Y-88760466D01*
X71972654Y-88760466D02*
X72020273Y-88855704D01*
X72020273Y-88855704D02*
X72067892Y-89046180D01*
X72067892Y-89046180D02*
X72067892Y-89284275D01*
X72067892Y-89284275D02*
X72020273Y-89474751D01*
X72020273Y-89474751D02*
X71972654Y-89569989D01*
X71972654Y-89569989D02*
X71925035Y-89617609D01*
X71925035Y-89617609D02*
X71829797Y-89665228D01*
X71829797Y-89665228D02*
X71734559Y-89665228D01*
X71734559Y-89665228D02*
X71639321Y-89617609D01*
X71639321Y-89617609D02*
X71591702Y-89569989D01*
X71591702Y-89569989D02*
X71544083Y-89474751D01*
X71544083Y-89474751D02*
X71496464Y-89284275D01*
X71496464Y-89284275D02*
X71496464Y-89046180D01*
X71496464Y-89046180D02*
X71544083Y-88855704D01*
X71544083Y-88855704D02*
X71591702Y-88760466D01*
X71591702Y-88760466D02*
X71639321Y-88712847D01*
X71639321Y-88712847D02*
X71734559Y-88665228D01*
X72972654Y-88665228D02*
X72496464Y-88665228D01*
X72496464Y-88665228D02*
X72448845Y-89141418D01*
X72448845Y-89141418D02*
X72496464Y-89093799D01*
X72496464Y-89093799D02*
X72591702Y-89046180D01*
X72591702Y-89046180D02*
X72829797Y-89046180D01*
X72829797Y-89046180D02*
X72925035Y-89093799D01*
X72925035Y-89093799D02*
X72972654Y-89141418D01*
X72972654Y-89141418D02*
X73020273Y-89236656D01*
X73020273Y-89236656D02*
X73020273Y-89474751D01*
X73020273Y-89474751D02*
X72972654Y-89569989D01*
X72972654Y-89569989D02*
X72925035Y-89617609D01*
X72925035Y-89617609D02*
X72829797Y-89665228D01*
X72829797Y-89665228D02*
X72591702Y-89665228D01*
X72591702Y-89665228D02*
X72496464Y-89617609D01*
X72496464Y-89617609D02*
X72448845Y-89569989D01*
X35904761Y-92479580D02*
X35857142Y-92527200D01*
X35857142Y-92527200D02*
X35714285Y-92574819D01*
X35714285Y-92574819D02*
X35619047Y-92574819D01*
X35619047Y-92574819D02*
X35476190Y-92527200D01*
X35476190Y-92527200D02*
X35380952Y-92431961D01*
X35380952Y-92431961D02*
X35333333Y-92336723D01*
X35333333Y-92336723D02*
X35285714Y-92146247D01*
X35285714Y-92146247D02*
X35285714Y-92003390D01*
X35285714Y-92003390D02*
X35333333Y-91812914D01*
X35333333Y-91812914D02*
X35380952Y-91717676D01*
X35380952Y-91717676D02*
X35476190Y-91622438D01*
X35476190Y-91622438D02*
X35619047Y-91574819D01*
X35619047Y-91574819D02*
X35714285Y-91574819D01*
X35714285Y-91574819D02*
X35857142Y-91622438D01*
X35857142Y-91622438D02*
X35904761Y-91670057D01*
X36809523Y-92574819D02*
X36333333Y-92574819D01*
X36333333Y-92574819D02*
X36333333Y-91574819D01*
X37142857Y-92574819D02*
X37142857Y-91574819D01*
X37714285Y-92574819D02*
X37285714Y-92003390D01*
X37714285Y-91574819D02*
X37142857Y-92146247D01*
X89452380Y-90350057D02*
X89357142Y-90302438D01*
X89357142Y-90302438D02*
X89261904Y-90207200D01*
X89261904Y-90207200D02*
X89119047Y-90064342D01*
X89119047Y-90064342D02*
X89023809Y-90016723D01*
X89023809Y-90016723D02*
X88928571Y-90016723D01*
X88976190Y-90254819D02*
X88880952Y-90207200D01*
X88880952Y-90207200D02*
X88785714Y-90111961D01*
X88785714Y-90111961D02*
X88738095Y-89921485D01*
X88738095Y-89921485D02*
X88738095Y-89588152D01*
X88738095Y-89588152D02*
X88785714Y-89397676D01*
X88785714Y-89397676D02*
X88880952Y-89302438D01*
X88880952Y-89302438D02*
X88976190Y-89254819D01*
X88976190Y-89254819D02*
X89166666Y-89254819D01*
X89166666Y-89254819D02*
X89261904Y-89302438D01*
X89261904Y-89302438D02*
X89357142Y-89397676D01*
X89357142Y-89397676D02*
X89404761Y-89588152D01*
X89404761Y-89588152D02*
X89404761Y-89921485D01*
X89404761Y-89921485D02*
X89357142Y-90111961D01*
X89357142Y-90111961D02*
X89261904Y-90207200D01*
X89261904Y-90207200D02*
X89166666Y-90254819D01*
X89166666Y-90254819D02*
X88976190Y-90254819D01*
X90357142Y-90254819D02*
X89785714Y-90254819D01*
X90071428Y-90254819D02*
X90071428Y-89254819D01*
X90071428Y-89254819D02*
X89976190Y-89397676D01*
X89976190Y-89397676D02*
X89880952Y-89492914D01*
X89880952Y-89492914D02*
X89785714Y-89540533D01*
X90976190Y-89254819D02*
X91071428Y-89254819D01*
X91071428Y-89254819D02*
X91166666Y-89302438D01*
X91166666Y-89302438D02*
X91214285Y-89350057D01*
X91214285Y-89350057D02*
X91261904Y-89445295D01*
X91261904Y-89445295D02*
X91309523Y-89635771D01*
X91309523Y-89635771D02*
X91309523Y-89873866D01*
X91309523Y-89873866D02*
X91261904Y-90064342D01*
X91261904Y-90064342D02*
X91214285Y-90159580D01*
X91214285Y-90159580D02*
X91166666Y-90207200D01*
X91166666Y-90207200D02*
X91071428Y-90254819D01*
X91071428Y-90254819D02*
X90976190Y-90254819D01*
X90976190Y-90254819D02*
X90880952Y-90207200D01*
X90880952Y-90207200D02*
X90833333Y-90159580D01*
X90833333Y-90159580D02*
X90785714Y-90064342D01*
X90785714Y-90064342D02*
X90738095Y-89873866D01*
X90738095Y-89873866D02*
X90738095Y-89635771D01*
X90738095Y-89635771D02*
X90785714Y-89445295D01*
X90785714Y-89445295D02*
X90833333Y-89350057D01*
X90833333Y-89350057D02*
X90880952Y-89302438D01*
X90880952Y-89302438D02*
X90976190Y-89254819D01*
X91642857Y-89254819D02*
X92261904Y-89254819D01*
X92261904Y-89254819D02*
X91928571Y-89635771D01*
X91928571Y-89635771D02*
X92071428Y-89635771D01*
X92071428Y-89635771D02*
X92166666Y-89683390D01*
X92166666Y-89683390D02*
X92214285Y-89731009D01*
X92214285Y-89731009D02*
X92261904Y-89826247D01*
X92261904Y-89826247D02*
X92261904Y-90064342D01*
X92261904Y-90064342D02*
X92214285Y-90159580D01*
X92214285Y-90159580D02*
X92166666Y-90207200D01*
X92166666Y-90207200D02*
X92071428Y-90254819D01*
X92071428Y-90254819D02*
X91785714Y-90254819D01*
X91785714Y-90254819D02*
X91690476Y-90207200D01*
X91690476Y-90207200D02*
X91642857Y-90159580D01*
X21454819Y-79142856D02*
X20454819Y-79142856D01*
X20454819Y-79142856D02*
X20454819Y-78904761D01*
X20454819Y-78904761D02*
X20502438Y-78761904D01*
X20502438Y-78761904D02*
X20597676Y-78666666D01*
X20597676Y-78666666D02*
X20692914Y-78619047D01*
X20692914Y-78619047D02*
X20883390Y-78571428D01*
X20883390Y-78571428D02*
X21026247Y-78571428D01*
X21026247Y-78571428D02*
X21216723Y-78619047D01*
X21216723Y-78619047D02*
X21311961Y-78666666D01*
X21311961Y-78666666D02*
X21407200Y-78761904D01*
X21407200Y-78761904D02*
X21454819Y-78904761D01*
X21454819Y-78904761D02*
X21454819Y-79142856D01*
X21169104Y-78190475D02*
X21169104Y-77714285D01*
X21454819Y-78285713D02*
X20454819Y-77952380D01*
X20454819Y-77952380D02*
X21454819Y-77619047D01*
X20454819Y-77428570D02*
X20454819Y-76857142D01*
X21454819Y-77142856D02*
X20454819Y-77142856D01*
X21169104Y-76571427D02*
X21169104Y-76095237D01*
X21454819Y-76666665D02*
X20454819Y-76333332D01*
X20454819Y-76333332D02*
X21454819Y-75999999D01*
X21550057Y-75904761D02*
X21550057Y-75142856D01*
X21454819Y-74904760D02*
X20454819Y-74904760D01*
X21454819Y-74428570D02*
X20454819Y-74428570D01*
X20454819Y-74428570D02*
X21454819Y-73857142D01*
X21454819Y-73857142D02*
X20454819Y-73857142D01*
X40214286Y-91574819D02*
X40452381Y-92574819D01*
X40452381Y-92574819D02*
X40642857Y-91860533D01*
X40642857Y-91860533D02*
X40833333Y-92574819D01*
X40833333Y-92574819D02*
X41071429Y-91574819D01*
X42023809Y-92574819D02*
X41690476Y-92098628D01*
X41452381Y-92574819D02*
X41452381Y-91574819D01*
X41452381Y-91574819D02*
X41833333Y-91574819D01*
X41833333Y-91574819D02*
X41928571Y-91622438D01*
X41928571Y-91622438D02*
X41976190Y-91670057D01*
X41976190Y-91670057D02*
X42023809Y-91765295D01*
X42023809Y-91765295D02*
X42023809Y-91908152D01*
X42023809Y-91908152D02*
X41976190Y-92003390D01*
X41976190Y-92003390D02*
X41928571Y-92051009D01*
X41928571Y-92051009D02*
X41833333Y-92098628D01*
X41833333Y-92098628D02*
X41452381Y-92098628D01*
X42214286Y-92670057D02*
X42976190Y-92670057D01*
X43214286Y-92051009D02*
X43547619Y-92051009D01*
X43690476Y-92574819D02*
X43214286Y-92574819D01*
X43214286Y-92574819D02*
X43214286Y-91574819D01*
X43214286Y-91574819D02*
X43690476Y-91574819D01*
X44119048Y-92574819D02*
X44119048Y-91574819D01*
X44119048Y-91574819D02*
X44690476Y-92574819D01*
X44690476Y-92574819D02*
X44690476Y-91574819D01*
X83452380Y-90350057D02*
X83357142Y-90302438D01*
X83357142Y-90302438D02*
X83261904Y-90207200D01*
X83261904Y-90207200D02*
X83119047Y-90064342D01*
X83119047Y-90064342D02*
X83023809Y-90016723D01*
X83023809Y-90016723D02*
X82928571Y-90016723D01*
X82976190Y-90254819D02*
X82880952Y-90207200D01*
X82880952Y-90207200D02*
X82785714Y-90111961D01*
X82785714Y-90111961D02*
X82738095Y-89921485D01*
X82738095Y-89921485D02*
X82738095Y-89588152D01*
X82738095Y-89588152D02*
X82785714Y-89397676D01*
X82785714Y-89397676D02*
X82880952Y-89302438D01*
X82880952Y-89302438D02*
X82976190Y-89254819D01*
X82976190Y-89254819D02*
X83166666Y-89254819D01*
X83166666Y-89254819D02*
X83261904Y-89302438D01*
X83261904Y-89302438D02*
X83357142Y-89397676D01*
X83357142Y-89397676D02*
X83404761Y-89588152D01*
X83404761Y-89588152D02*
X83404761Y-89921485D01*
X83404761Y-89921485D02*
X83357142Y-90111961D01*
X83357142Y-90111961D02*
X83261904Y-90207200D01*
X83261904Y-90207200D02*
X83166666Y-90254819D01*
X83166666Y-90254819D02*
X82976190Y-90254819D01*
X84357142Y-90254819D02*
X83785714Y-90254819D01*
X84071428Y-90254819D02*
X84071428Y-89254819D01*
X84071428Y-89254819D02*
X83976190Y-89397676D01*
X83976190Y-89397676D02*
X83880952Y-89492914D01*
X83880952Y-89492914D02*
X83785714Y-89540533D01*
X84976190Y-89254819D02*
X85071428Y-89254819D01*
X85071428Y-89254819D02*
X85166666Y-89302438D01*
X85166666Y-89302438D02*
X85214285Y-89350057D01*
X85214285Y-89350057D02*
X85261904Y-89445295D01*
X85261904Y-89445295D02*
X85309523Y-89635771D01*
X85309523Y-89635771D02*
X85309523Y-89873866D01*
X85309523Y-89873866D02*
X85261904Y-90064342D01*
X85261904Y-90064342D02*
X85214285Y-90159580D01*
X85214285Y-90159580D02*
X85166666Y-90207200D01*
X85166666Y-90207200D02*
X85071428Y-90254819D01*
X85071428Y-90254819D02*
X84976190Y-90254819D01*
X84976190Y-90254819D02*
X84880952Y-90207200D01*
X84880952Y-90207200D02*
X84833333Y-90159580D01*
X84833333Y-90159580D02*
X84785714Y-90064342D01*
X84785714Y-90064342D02*
X84738095Y-89873866D01*
X84738095Y-89873866D02*
X84738095Y-89635771D01*
X84738095Y-89635771D02*
X84785714Y-89445295D01*
X84785714Y-89445295D02*
X84833333Y-89350057D01*
X84833333Y-89350057D02*
X84880952Y-89302438D01*
X84880952Y-89302438D02*
X84976190Y-89254819D01*
X86166666Y-89588152D02*
X86166666Y-90254819D01*
X85928571Y-89207200D02*
X85690476Y-89921485D01*
X85690476Y-89921485D02*
X86309523Y-89921485D01*
X78250630Y-93165228D02*
X77917297Y-92689037D01*
X77679202Y-93165228D02*
X77679202Y-92165228D01*
X77679202Y-92165228D02*
X78060154Y-92165228D01*
X78060154Y-92165228D02*
X78155392Y-92212847D01*
X78155392Y-92212847D02*
X78203011Y-92260466D01*
X78203011Y-92260466D02*
X78250630Y-92355704D01*
X78250630Y-92355704D02*
X78250630Y-92498561D01*
X78250630Y-92498561D02*
X78203011Y-92593799D01*
X78203011Y-92593799D02*
X78155392Y-92641418D01*
X78155392Y-92641418D02*
X78060154Y-92689037D01*
X78060154Y-92689037D02*
X77679202Y-92689037D01*
X79203011Y-93165228D02*
X78631583Y-93165228D01*
X78917297Y-93165228D02*
X78917297Y-92165228D01*
X78917297Y-92165228D02*
X78822059Y-92308085D01*
X78822059Y-92308085D02*
X78726821Y-92403323D01*
X78726821Y-92403323D02*
X78631583Y-92450942D01*
X79822059Y-92165228D02*
X79917297Y-92165228D01*
X79917297Y-92165228D02*
X80012535Y-92212847D01*
X80012535Y-92212847D02*
X80060154Y-92260466D01*
X80060154Y-92260466D02*
X80107773Y-92355704D01*
X80107773Y-92355704D02*
X80155392Y-92546180D01*
X80155392Y-92546180D02*
X80155392Y-92784275D01*
X80155392Y-92784275D02*
X80107773Y-92974751D01*
X80107773Y-92974751D02*
X80060154Y-93069989D01*
X80060154Y-93069989D02*
X80012535Y-93117609D01*
X80012535Y-93117609D02*
X79917297Y-93165228D01*
X79917297Y-93165228D02*
X79822059Y-93165228D01*
X79822059Y-93165228D02*
X79726821Y-93117609D01*
X79726821Y-93117609D02*
X79679202Y-93069989D01*
X79679202Y-93069989D02*
X79631583Y-92974751D01*
X79631583Y-92974751D02*
X79583964Y-92784275D01*
X79583964Y-92784275D02*
X79583964Y-92546180D01*
X79583964Y-92546180D02*
X79631583Y-92355704D01*
X79631583Y-92355704D02*
X79679202Y-92260466D01*
X79679202Y-92260466D02*
X79726821Y-92212847D01*
X79726821Y-92212847D02*
X79822059Y-92165228D01*
X81012535Y-92498561D02*
X81012535Y-93165228D01*
X80774440Y-92117609D02*
X80536345Y-92831894D01*
X80536345Y-92831894D02*
X81155392Y-92831894D01*
X70338130Y-93165228D02*
X70004797Y-92689037D01*
X69766702Y-93165228D02*
X69766702Y-92165228D01*
X69766702Y-92165228D02*
X70147654Y-92165228D01*
X70147654Y-92165228D02*
X70242892Y-92212847D01*
X70242892Y-92212847D02*
X70290511Y-92260466D01*
X70290511Y-92260466D02*
X70338130Y-92355704D01*
X70338130Y-92355704D02*
X70338130Y-92498561D01*
X70338130Y-92498561D02*
X70290511Y-92593799D01*
X70290511Y-92593799D02*
X70242892Y-92641418D01*
X70242892Y-92641418D02*
X70147654Y-92689037D01*
X70147654Y-92689037D02*
X69766702Y-92689037D01*
X71290511Y-93165228D02*
X70719083Y-93165228D01*
X71004797Y-93165228D02*
X71004797Y-92165228D01*
X71004797Y-92165228D02*
X70909559Y-92308085D01*
X70909559Y-92308085D02*
X70814321Y-92403323D01*
X70814321Y-92403323D02*
X70719083Y-92450942D01*
X71909559Y-92165228D02*
X72004797Y-92165228D01*
X72004797Y-92165228D02*
X72100035Y-92212847D01*
X72100035Y-92212847D02*
X72147654Y-92260466D01*
X72147654Y-92260466D02*
X72195273Y-92355704D01*
X72195273Y-92355704D02*
X72242892Y-92546180D01*
X72242892Y-92546180D02*
X72242892Y-92784275D01*
X72242892Y-92784275D02*
X72195273Y-92974751D01*
X72195273Y-92974751D02*
X72147654Y-93069989D01*
X72147654Y-93069989D02*
X72100035Y-93117609D01*
X72100035Y-93117609D02*
X72004797Y-93165228D01*
X72004797Y-93165228D02*
X71909559Y-93165228D01*
X71909559Y-93165228D02*
X71814321Y-93117609D01*
X71814321Y-93117609D02*
X71766702Y-93069989D01*
X71766702Y-93069989D02*
X71719083Y-92974751D01*
X71719083Y-92974751D02*
X71671464Y-92784275D01*
X71671464Y-92784275D02*
X71671464Y-92546180D01*
X71671464Y-92546180D02*
X71719083Y-92355704D01*
X71719083Y-92355704D02*
X71766702Y-92260466D01*
X71766702Y-92260466D02*
X71814321Y-92212847D01*
X71814321Y-92212847D02*
X71909559Y-92165228D01*
X73195273Y-93165228D02*
X72623845Y-93165228D01*
X72909559Y-93165228D02*
X72909559Y-92165228D01*
X72909559Y-92165228D02*
X72814321Y-92308085D01*
X72814321Y-92308085D02*
X72719083Y-92403323D01*
X72719083Y-92403323D02*
X72623845Y-92450942D01*
X62378226Y-93194623D02*
X62044893Y-92718432D01*
X61806798Y-93194623D02*
X61806798Y-92194623D01*
X61806798Y-92194623D02*
X62187750Y-92194623D01*
X62187750Y-92194623D02*
X62282988Y-92242242D01*
X62282988Y-92242242D02*
X62330607Y-92289861D01*
X62330607Y-92289861D02*
X62378226Y-92385099D01*
X62378226Y-92385099D02*
X62378226Y-92527956D01*
X62378226Y-92527956D02*
X62330607Y-92623194D01*
X62330607Y-92623194D02*
X62282988Y-92670813D01*
X62282988Y-92670813D02*
X62187750Y-92718432D01*
X62187750Y-92718432D02*
X61806798Y-92718432D01*
X63330607Y-93194623D02*
X62759179Y-93194623D01*
X63044893Y-93194623D02*
X63044893Y-92194623D01*
X63044893Y-92194623D02*
X62949655Y-92337480D01*
X62949655Y-92337480D02*
X62854417Y-92432718D01*
X62854417Y-92432718D02*
X62759179Y-92480337D01*
X63949655Y-92194623D02*
X64044893Y-92194623D01*
X64044893Y-92194623D02*
X64140131Y-92242242D01*
X64140131Y-92242242D02*
X64187750Y-92289861D01*
X64187750Y-92289861D02*
X64235369Y-92385099D01*
X64235369Y-92385099D02*
X64282988Y-92575575D01*
X64282988Y-92575575D02*
X64282988Y-92813670D01*
X64282988Y-92813670D02*
X64235369Y-93004146D01*
X64235369Y-93004146D02*
X64187750Y-93099384D01*
X64187750Y-93099384D02*
X64140131Y-93147004D01*
X64140131Y-93147004D02*
X64044893Y-93194623D01*
X64044893Y-93194623D02*
X63949655Y-93194623D01*
X63949655Y-93194623D02*
X63854417Y-93147004D01*
X63854417Y-93147004D02*
X63806798Y-93099384D01*
X63806798Y-93099384D02*
X63759179Y-93004146D01*
X63759179Y-93004146D02*
X63711560Y-92813670D01*
X63711560Y-92813670D02*
X63711560Y-92575575D01*
X63711560Y-92575575D02*
X63759179Y-92385099D01*
X63759179Y-92385099D02*
X63806798Y-92289861D01*
X63806798Y-92289861D02*
X63854417Y-92242242D01*
X63854417Y-92242242D02*
X63949655Y-92194623D01*
X64854417Y-92623194D02*
X64759179Y-92575575D01*
X64759179Y-92575575D02*
X64711560Y-92527956D01*
X64711560Y-92527956D02*
X64663941Y-92432718D01*
X64663941Y-92432718D02*
X64663941Y-92385099D01*
X64663941Y-92385099D02*
X64711560Y-92289861D01*
X64711560Y-92289861D02*
X64759179Y-92242242D01*
X64759179Y-92242242D02*
X64854417Y-92194623D01*
X64854417Y-92194623D02*
X65044893Y-92194623D01*
X65044893Y-92194623D02*
X65140131Y-92242242D01*
X65140131Y-92242242D02*
X65187750Y-92289861D01*
X65187750Y-92289861D02*
X65235369Y-92385099D01*
X65235369Y-92385099D02*
X65235369Y-92432718D01*
X65235369Y-92432718D02*
X65187750Y-92527956D01*
X65187750Y-92527956D02*
X65140131Y-92575575D01*
X65140131Y-92575575D02*
X65044893Y-92623194D01*
X65044893Y-92623194D02*
X64854417Y-92623194D01*
X64854417Y-92623194D02*
X64759179Y-92670813D01*
X64759179Y-92670813D02*
X64711560Y-92718432D01*
X64711560Y-92718432D02*
X64663941Y-92813670D01*
X64663941Y-92813670D02*
X64663941Y-93004146D01*
X64663941Y-93004146D02*
X64711560Y-93099384D01*
X64711560Y-93099384D02*
X64759179Y-93147004D01*
X64759179Y-93147004D02*
X64854417Y-93194623D01*
X64854417Y-93194623D02*
X65044893Y-93194623D01*
X65044893Y-93194623D02*
X65140131Y-93147004D01*
X65140131Y-93147004D02*
X65187750Y-93099384D01*
X65187750Y-93099384D02*
X65235369Y-93004146D01*
X65235369Y-93004146D02*
X65235369Y-92813670D01*
X65235369Y-92813670D02*
X65187750Y-92718432D01*
X65187750Y-92718432D02*
X65140131Y-92670813D01*
X65140131Y-92670813D02*
X65044893Y-92623194D01*
D12*
%TO.C,R407*%
X72222487Y-43554023D02*
X72676615Y-43554023D01*
X72222487Y-45024023D02*
X72676615Y-45024023D01*
%TO.C,Q706*%
X61728610Y-60717889D02*
X58128610Y-60717889D01*
X59928610Y-65167889D02*
G75*
G02*
X58090132Y-60729411I0J2600000D01*
G01*
X61767088Y-60729411D02*
G75*
G02*
X59928610Y-65167890I-1838478J-1838478D01*
G01*
%TO.C,R903*%
X108423954Y-72864800D02*
X108878082Y-72864800D01*
X108423954Y-74334800D02*
X108878082Y-74334800D01*
%TO.C,R509*%
X108520208Y-30645819D02*
X108974336Y-30645819D01*
X108520208Y-32115819D02*
X108974336Y-32115819D01*
%TO.C,Q804*%
X84176786Y-75818454D02*
X80576786Y-75818454D01*
X82376786Y-80268454D02*
G75*
G02*
X80538308Y-75829976I0J2600000D01*
G01*
X84215264Y-75829976D02*
G75*
G02*
X82376786Y-80268455I-1838478J-1838478D01*
G01*
%TO.C,Q608*%
X39011392Y-70918489D02*
X35411392Y-70918489D01*
X37211392Y-75368489D02*
G75*
G02*
X35372914Y-70930011I0J2600000D01*
G01*
X39049870Y-70930011D02*
G75*
G02*
X37211392Y-75368490I-1838478J-1838478D01*
G01*
%TO.C,R807*%
X72135876Y-73615943D02*
X72590004Y-73615943D01*
X72135876Y-75085943D02*
X72590004Y-75085943D01*
%TO.C,R505*%
X94048054Y-29454977D02*
X94502182Y-29454977D01*
X94048054Y-30924977D02*
X94502182Y-30924977D01*
%TO.C,Q411*%
X84249551Y-25623136D02*
X80649551Y-25623136D01*
X82449551Y-30073136D02*
G75*
G02*
X80611073Y-25634658I0J2600000D01*
G01*
X84288029Y-25634658D02*
G75*
G02*
X82449551Y-30073137I-1838478J-1838478D01*
G01*
%TO.C,R319*%
X49786169Y-25533489D02*
X50240297Y-25533489D01*
X49786169Y-27003489D02*
X50240297Y-27003489D01*
%TO.C,Q705*%
X56228610Y-60717889D02*
X52628610Y-60717889D01*
X54428610Y-65167889D02*
G75*
G02*
X52590132Y-60729411I0J2600000D01*
G01*
X56267088Y-60729411D02*
G75*
G02*
X54428610Y-65167890I-1838478J-1838478D01*
G01*
%TO.C,Q510*%
X106047272Y-35530819D02*
X102447272Y-35530819D01*
X104247272Y-39980819D02*
G75*
G02*
X102408794Y-35542341I0J2600000D01*
G01*
X106085750Y-35542341D02*
G75*
G02*
X104247272Y-39980820I-1838478J-1838478D01*
G01*
%TO.C,Q205*%
X33410375Y-30623136D02*
X29810375Y-30623136D01*
X31610375Y-35073136D02*
G75*
G02*
X29771897Y-30634658I0J2600000D01*
G01*
X33448853Y-30634658D02*
G75*
G02*
X31610375Y-35073137I-1838478J-1838478D01*
G01*
%TO.C,R713*%
X49701546Y-67648776D02*
X50155674Y-67648776D01*
X49701546Y-69118776D02*
X50155674Y-69118776D01*
%TO.C,R616*%
X41484328Y-65040600D02*
X41938456Y-65040600D01*
X41484328Y-66510600D02*
X41938456Y-66510600D01*
%TO.C,Q605*%
X33511392Y-60918489D02*
X29911392Y-60918489D01*
X31711392Y-65368489D02*
G75*
G02*
X29872914Y-60930011I0J2600000D01*
G01*
X33549870Y-60930011D02*
G75*
G02*
X31711392Y-65368490I-1838478J-1838478D01*
G01*
%TO.C,Q210*%
X38910375Y-35623136D02*
X35310375Y-35623136D01*
X37110375Y-40073136D02*
G75*
G02*
X35271897Y-35634658I0J2600000D01*
G01*
X38948853Y-35634658D02*
G75*
G02*
X37110375Y-40073137I-1838478J-1838478D01*
G01*
%TO.C,R719*%
X49733387Y-55629242D02*
X50187515Y-55629242D01*
X49733387Y-57099242D02*
X50187515Y-57099242D01*
%TO.C,R312*%
X64254328Y-40737136D02*
X64708456Y-40737136D01*
X64254328Y-42207136D02*
X64708456Y-42207136D01*
%TO.C,R712*%
X64201546Y-70832889D02*
X64655674Y-70832889D01*
X64201546Y-72302889D02*
X64655674Y-72302889D01*
%TO.C,R203*%
X41362750Y-42785988D02*
X41816878Y-42785988D01*
X41362750Y-44255988D02*
X41816878Y-44255988D01*
%TO.C,GND*%
X29120000Y-93120000D02*
X30500000Y-93120000D01*
X29120000Y-94500000D02*
X29120000Y-93120000D01*
X29120000Y-95770000D02*
X29120000Y-95880000D01*
X29120000Y-95770000D02*
X31880000Y-95770000D01*
X29120000Y-95880000D02*
X31880000Y-95880000D01*
X31880000Y-95770000D02*
X31880000Y-95880000D01*
%TO.C,Q901*%
X111471579Y-55701948D02*
X107871579Y-55701948D01*
X109671579Y-60151948D02*
G75*
G02*
X107833101Y-55713470I0J2600000D01*
G01*
X111510057Y-55713470D02*
G75*
G02*
X109671579Y-60151949I-1838478J-1838478D01*
G01*
%TO.C,Q306*%
X61781392Y-30622136D02*
X58181392Y-30622136D01*
X59981392Y-35072136D02*
G75*
G02*
X58142914Y-30633658I0J2600000D01*
G01*
X61819870Y-30633658D02*
G75*
G02*
X59981392Y-35072137I-1838478J-1838478D01*
G01*
%TO.C,Q710*%
X61728610Y-65717889D02*
X58128610Y-65717889D01*
X59928610Y-70167889D02*
G75*
G02*
X58090132Y-65729411I0J2600000D01*
G01*
X61767088Y-65729411D02*
G75*
G02*
X59928610Y-70167890I-1838478J-1838478D01*
G01*
%TO.C,R720*%
X49729392Y-57642047D02*
X50183520Y-57642047D01*
X49729392Y-59112047D02*
X50183520Y-59112047D01*
%TO.C,DATA_OUT*%
X16620000Y-42620000D02*
X18000000Y-42620000D01*
X16620000Y-44000000D02*
X16620000Y-42620000D01*
X16620000Y-45270000D02*
X16620000Y-63160000D01*
X16620000Y-45270000D02*
X19380000Y-45270000D01*
X16620000Y-63160000D02*
X19380000Y-63160000D01*
X19380000Y-45270000D02*
X19380000Y-63160000D01*
%TO.C,R412*%
X86722487Y-40738136D02*
X87176615Y-40738136D01*
X86722487Y-42208136D02*
X87176615Y-42208136D01*
%TO.C,R901*%
X93944515Y-71632835D02*
X94398643Y-71632835D01*
X93944515Y-73102835D02*
X94398643Y-73102835D01*
%TO.C,R513*%
X94020208Y-37461706D02*
X94474336Y-37461706D01*
X94020208Y-38931706D02*
X94474336Y-38931706D01*
%TO.C,Q202*%
X33410375Y-45763136D02*
X29810375Y-45763136D01*
X31610375Y-50213136D02*
G75*
G02*
X29771897Y-45774658I0J2600000D01*
G01*
X33448853Y-45774658D02*
G75*
G02*
X31610375Y-50213137I-1838478J-1838478D01*
G01*
%TO.C,R706*%
X49701546Y-69648776D02*
X50155674Y-69648776D01*
X49701546Y-71118776D02*
X50155674Y-71118776D01*
%TO.C,R908*%
X93944515Y-61632835D02*
X94398643Y-61632835D01*
X93944515Y-63102835D02*
X94398643Y-63102835D01*
%TO.C,R510*%
X94020208Y-33461706D02*
X94474336Y-33461706D01*
X94020208Y-34931706D02*
X94474336Y-34931706D01*
%TO.C,Q410*%
X84249551Y-35623136D02*
X80649551Y-35623136D01*
X82449551Y-40073136D02*
G75*
G02*
X80611073Y-35634658I0J2600000D01*
G01*
X84288029Y-35634658D02*
G75*
G02*
X82449551Y-40073137I-1838478J-1838478D01*
G01*
%TO.C,Q203*%
X44439856Y-45756534D02*
X40839856Y-45756534D01*
X42639856Y-50206534D02*
G75*
G02*
X40801378Y-45768056I0J2600000D01*
G01*
X44478334Y-45768056D02*
G75*
G02*
X42639856Y-50206535I-1838478J-1838478D01*
G01*
%TO.C,R808*%
X72135876Y-61615943D02*
X72590004Y-61615943D01*
X72135876Y-63085943D02*
X72590004Y-63085943D01*
%TO.C,R102*%
X79055114Y-90125409D02*
X79509242Y-90125409D01*
X79055114Y-91595409D02*
X79509242Y-91595409D01*
%TO.C,Q906*%
X105971579Y-60701948D02*
X102371579Y-60701948D01*
X104171579Y-65151948D02*
G75*
G02*
X102333101Y-60713470I0J2600000D01*
G01*
X106010057Y-60713470D02*
G75*
G02*
X104171579Y-65151949I-1838478J-1838478D01*
G01*
%TO.C,Q507*%
X100547272Y-40530819D02*
X96947272Y-40530819D01*
X98747272Y-44980819D02*
G75*
G02*
X96908794Y-40542341I0J2600000D01*
G01*
X100585750Y-40542341D02*
G75*
G02*
X98747272Y-44980820I-1838478J-1838478D01*
G01*
%TO.C,R610*%
X26984328Y-63849376D02*
X27438456Y-63849376D01*
X26984328Y-65319376D02*
X27438456Y-65319376D01*
%TO.C,Q509*%
X100547272Y-35530819D02*
X96947272Y-35530819D01*
X98747272Y-39980819D02*
G75*
G02*
X96908794Y-35542341I0J2600000D01*
G01*
X100585750Y-35542341D02*
G75*
G02*
X98747272Y-39980820I-1838478J-1838478D01*
G01*
%TO.C,R810*%
X72135876Y-63615943D02*
X72590004Y-63615943D01*
X72135876Y-65085943D02*
X72590004Y-65085943D01*
%TO.C,R209*%
X41383311Y-30738136D02*
X41837439Y-30738136D01*
X41383311Y-32208136D02*
X41837439Y-32208136D01*
%TO.C,Q801*%
X89662940Y-55685056D02*
X86062940Y-55685056D01*
X87862940Y-60135056D02*
G75*
G02*
X86024462Y-55696578I0J2600000D01*
G01*
X89701418Y-55696578D02*
G75*
G02*
X87862940Y-60135057I-1838478J-1838478D01*
G01*
%TO.C,R614*%
X26984328Y-65849376D02*
X27438456Y-65849376D01*
X26984328Y-67319376D02*
X27438456Y-67319376D01*
%TO.C,R809*%
X86635876Y-60800056D02*
X87090004Y-60800056D01*
X86635876Y-62270056D02*
X87090004Y-62270056D01*
%TO.C,Q101*%
X100700000Y-95210000D02*
X104300000Y-95210000D01*
X100661522Y-95198478D02*
G75*
G02*
X102500000Y-90759999I1838478J1838478D01*
G01*
X102500000Y-90760000D02*
G75*
G02*
X104338478Y-95198478I0J-2600000D01*
G01*
%TO.C,R310*%
X49754328Y-33553023D02*
X50208456Y-33553023D01*
X49754328Y-35023023D02*
X50208456Y-35023023D01*
%TO.C,R402*%
X72222889Y-47566610D02*
X72677017Y-47566610D01*
X72222889Y-49036610D02*
X72677017Y-49036610D01*
%TO.C,R210*%
X26883311Y-33554023D02*
X27337439Y-33554023D01*
X26883311Y-35024023D02*
X27337439Y-35024023D01*
%TO.C,Q601*%
X44511392Y-55918489D02*
X40911392Y-55918489D01*
X42711392Y-60368489D02*
G75*
G02*
X40872914Y-55930011I0J2600000D01*
G01*
X44549870Y-55930011D02*
G75*
G02*
X42711392Y-60368490I-1838478J-1838478D01*
G01*
%TO.C,R611*%
X26995044Y-75846328D02*
X27449172Y-75846328D01*
X26995044Y-77316328D02*
X27449172Y-77316328D01*
%TO.C,Q212*%
X33410375Y-25623136D02*
X29810375Y-25623136D01*
X31610375Y-30073136D02*
G75*
G02*
X29771897Y-25634658I0J2600000D01*
G01*
X33448853Y-25634658D02*
G75*
G02*
X31610375Y-30073137I-1838478J-1838478D01*
G01*
%TO.C,R106*%
X75142614Y-93625409D02*
X75596742Y-93625409D01*
X75142614Y-95095409D02*
X75596742Y-95095409D01*
%TO.C,R107*%
X67216937Y-93631601D02*
X67671065Y-93631601D01*
X67216937Y-95101601D02*
X67671065Y-95101601D01*
%TO.C,R711*%
X49712262Y-75645728D02*
X50166390Y-75645728D01*
X49712262Y-77115728D02*
X50166390Y-77115728D01*
%TO.C,R208*%
X26883311Y-31554023D02*
X27337439Y-31554023D01*
X26883311Y-33024023D02*
X27337439Y-33024023D01*
%TO.C,R206*%
X26883311Y-39554023D02*
X27337439Y-39554023D01*
X26883311Y-41024023D02*
X27337439Y-41024023D01*
%TO.C,R703*%
X64180985Y-72880741D02*
X64635113Y-72880741D01*
X64180985Y-74350741D02*
X64635113Y-74350741D01*
%TO.C,R318*%
X64254328Y-32744247D02*
X64708456Y-32744247D01*
X64254328Y-34214247D02*
X64708456Y-34214247D01*
%TO.C,R913*%
X93944515Y-67632835D02*
X94398643Y-67632835D01*
X93944515Y-69102835D02*
X94398643Y-69102835D01*
%TO.C,R316*%
X64254328Y-34744247D02*
X64708456Y-34744247D01*
X64254328Y-36214247D02*
X64708456Y-36214247D01*
%TO.C,R811*%
X72146592Y-75612895D02*
X72600720Y-75612895D01*
X72146592Y-77082895D02*
X72600720Y-77082895D01*
%TO.C,Q102*%
X94700000Y-95210000D02*
X98300000Y-95210000D01*
X94661522Y-95198478D02*
G75*
G02*
X96500000Y-90759999I1838478J1838478D01*
G01*
X96500000Y-90760000D02*
G75*
G02*
X98338478Y-95198478I0J-2600000D01*
G01*
%TO.C,R705*%
X49729392Y-59642047D02*
X50183520Y-59642047D01*
X49729392Y-61112047D02*
X50183520Y-61112047D01*
%TO.C,R906*%
X93944515Y-69632835D02*
X94398643Y-69632835D01*
X93944515Y-71102835D02*
X94398643Y-71102835D01*
%TO.C,R410*%
X72222487Y-33554023D02*
X72676615Y-33554023D01*
X72222487Y-35024023D02*
X72676615Y-35024023D01*
%TO.C,R507*%
X94020208Y-43461706D02*
X94474336Y-43461706D01*
X94020208Y-44931706D02*
X94474336Y-44931706D01*
%TO.C,Q810*%
X84162940Y-65685056D02*
X80562940Y-65685056D01*
X82362940Y-70135056D02*
G75*
G02*
X80524462Y-65696578I0J2600000D01*
G01*
X84201418Y-65696578D02*
G75*
G02*
X82362940Y-70135057I-1838478J-1838478D01*
G01*
%TO.C,R607*%
X26984328Y-73849376D02*
X27438456Y-73849376D01*
X26984328Y-75319376D02*
X27438456Y-75319376D01*
%TO.C,Q812*%
X78662940Y-55685056D02*
X75062940Y-55685056D01*
X76862940Y-60135056D02*
G75*
G02*
X75024462Y-55696578I0J2600000D01*
G01*
X78701418Y-55696578D02*
G75*
G02*
X76862940Y-60135057I-1838478J-1838478D01*
G01*
%TO.C,R303*%
X64233767Y-42784988D02*
X64687895Y-42784988D01*
X64233767Y-44254988D02*
X64687895Y-44254988D01*
%TO.C,C101*%
X62766223Y-88917423D02*
X68006223Y-88917423D01*
X62766223Y-89254423D02*
X62766223Y-88917423D01*
X62766223Y-91657423D02*
X62766223Y-91320423D01*
X68006223Y-88917423D02*
X68006223Y-89254423D01*
X68006223Y-91320423D02*
X68006223Y-91657423D01*
X68006223Y-91657423D02*
X62766223Y-91657423D01*
%TO.C,R411*%
X72233203Y-45550975D02*
X72687331Y-45550975D01*
X72233203Y-47020975D02*
X72687331Y-47020975D01*
%TO.C,R305*%
X49782174Y-29546294D02*
X50236302Y-29546294D01*
X49782174Y-31016294D02*
X50236302Y-31016294D01*
%TO.C,Q802*%
X78662940Y-75825056D02*
X75062940Y-75825056D01*
X76862940Y-80275056D02*
G75*
G02*
X75024462Y-75836578I0J2600000D01*
G01*
X78701418Y-75836578D02*
G75*
G02*
X76862940Y-80275057I-1838478J-1838478D01*
G01*
%TO.C,Q908*%
X105971579Y-70701948D02*
X102371579Y-70701948D01*
X104171579Y-75151948D02*
G75*
G02*
X102333101Y-70713470I0J2600000D01*
G01*
X106010057Y-70713470D02*
G75*
G02*
X104171579Y-75151949I-1838478J-1838478D01*
G01*
%TO.C,Q707*%
X56228610Y-70717889D02*
X52628610Y-70717889D01*
X54428610Y-75167889D02*
G75*
G02*
X52590132Y-70729411I0J2600000D01*
G01*
X56267088Y-70729411D02*
G75*
G02*
X54428610Y-75167890I-1838478J-1838478D01*
G01*
%TO.C,R414*%
X72222487Y-35554023D02*
X72676615Y-35554023D01*
X72222487Y-37024023D02*
X72676615Y-37024023D01*
%TO.C,Q512*%
X100547272Y-25530819D02*
X96947272Y-25530819D01*
X98747272Y-29980819D02*
G75*
G02*
X96908794Y-25542341I0J2600000D01*
G01*
X100585750Y-25542341D02*
G75*
G02*
X98747272Y-29980820I-1838478J-1838478D01*
G01*
%TO.C,Q302*%
X56281392Y-45762136D02*
X52681392Y-45762136D01*
X54481392Y-50212136D02*
G75*
G02*
X52642914Y-45773658I0J2600000D01*
G01*
X56319870Y-45773658D02*
G75*
G02*
X54481392Y-50212137I-1838478J-1838478D01*
G01*
%TO.C,R103*%
X75142614Y-90125409D02*
X75596742Y-90125409D01*
X75142614Y-91595409D02*
X75596742Y-91595409D01*
%TO.C,R813*%
X72135876Y-67615943D02*
X72590004Y-67615943D01*
X72135876Y-69085943D02*
X72590004Y-69085943D01*
%TO.C,R806*%
X72135876Y-69615943D02*
X72590004Y-69615943D01*
X72135876Y-71085943D02*
X72590004Y-71085943D01*
%TO.C,R805*%
X72163722Y-59609214D02*
X72617850Y-59609214D01*
X72163722Y-61079214D02*
X72617850Y-61079214D01*
%TO.C,R802*%
X72136278Y-77628530D02*
X72590406Y-77628530D01*
X72136278Y-79098530D02*
X72590406Y-79098530D01*
%TO.C,R202*%
X26883713Y-47566610D02*
X27337841Y-47566610D01*
X26883713Y-49036610D02*
X27337841Y-49036610D01*
%TO.C,Q602*%
X33511392Y-76058489D02*
X29911392Y-76058489D01*
X31711392Y-80508489D02*
G75*
G02*
X29872914Y-76070011I0J2600000D01*
G01*
X33549870Y-76070011D02*
G75*
G02*
X31711392Y-80508490I-1838478J-1838478D01*
G01*
%TO.C,R416*%
X86722487Y-34745247D02*
X87176615Y-34745247D01*
X86722487Y-36215247D02*
X87176615Y-36215247D01*
%TO.C,Q806*%
X84162940Y-60685056D02*
X80562940Y-60685056D01*
X82362940Y-65135056D02*
G75*
G02*
X80524462Y-60696578I0J2600000D01*
G01*
X84201418Y-60696578D02*
G75*
G02*
X82362940Y-65135057I-1838478J-1838478D01*
G01*
%TO.C,R619*%
X27016169Y-55829842D02*
X27470297Y-55829842D01*
X27016169Y-57299842D02*
X27470297Y-57299842D01*
%TO.C,R408*%
X72222487Y-31554023D02*
X72676615Y-31554023D01*
X72222487Y-33024023D02*
X72676615Y-33024023D01*
%TO.C,R201*%
X26883311Y-41554023D02*
X27337439Y-41554023D01*
X26883311Y-43024023D02*
X27337439Y-43024023D01*
%TO.C,Q301*%
X67281392Y-25622136D02*
X63681392Y-25622136D01*
X65481392Y-30072136D02*
G75*
G02*
X63642914Y-25633658I0J2600000D01*
G01*
X67319870Y-25633658D02*
G75*
G02*
X65481392Y-30072137I-1838478J-1838478D01*
G01*
%TO.C,Q702*%
X56228610Y-75857889D02*
X52628610Y-75857889D01*
X54428610Y-80307889D02*
G75*
G02*
X52590132Y-75869411I0J2600000D01*
G01*
X56267088Y-75869411D02*
G75*
G02*
X54428610Y-80307890I-1838478J-1838478D01*
G01*
%TO.C,Q404*%
X84263397Y-45756534D02*
X80663397Y-45756534D01*
X82463397Y-50206534D02*
G75*
G02*
X80624919Y-45768056I0J2600000D01*
G01*
X84301875Y-45768056D02*
G75*
G02*
X82463397Y-50206535I-1838478J-1838478D01*
G01*
%TO.C,R613*%
X26984328Y-67849376D02*
X27438456Y-67849376D01*
X26984328Y-69319376D02*
X27438456Y-69319376D01*
%TO.C,R818*%
X86635876Y-62807167D02*
X87090004Y-62807167D01*
X86635876Y-64277167D02*
X87090004Y-64277167D01*
%TO.C,R716*%
X64201546Y-64840000D02*
X64655674Y-64840000D01*
X64201546Y-66310000D02*
X64655674Y-66310000D01*
%TO.C,Q703*%
X67258091Y-75851287D02*
X63658091Y-75851287D01*
X65458091Y-80301287D02*
G75*
G02*
X63619613Y-75862809I0J2600000D01*
G01*
X67296569Y-75862809D02*
G75*
G02*
X65458091Y-80301288I-1838478J-1838478D01*
G01*
%TO.C,R204*%
X26883713Y-49566610D02*
X27337841Y-49566610D01*
X26883713Y-51036610D02*
X27337841Y-51036610D01*
%TO.C,Q505*%
X100547272Y-30530819D02*
X96947272Y-30530819D01*
X98747272Y-34980819D02*
G75*
G02*
X96908794Y-30542341I0J2600000D01*
G01*
X100585750Y-30542341D02*
G75*
G02*
X98747272Y-34980820I-1838478J-1838478D01*
G01*
%TO.C,R605*%
X27012174Y-59842647D02*
X27466302Y-59842647D01*
X27012174Y-61312647D02*
X27466302Y-61312647D01*
%TO.C,Q910*%
X105971579Y-65701948D02*
X102371579Y-65701948D01*
X104171579Y-70151948D02*
G75*
G02*
X102333101Y-65713470I0J2600000D01*
G01*
X106010057Y-65713470D02*
G75*
G02*
X104171579Y-70151949I-1838478J-1838478D01*
G01*
%TO.C,Q606*%
X39011392Y-60918489D02*
X35411392Y-60918489D01*
X37211392Y-65368489D02*
G75*
G02*
X35372914Y-60930011I0J2600000D01*
G01*
X39049870Y-60930011D02*
G75*
G02*
X37211392Y-65368490I-1838478J-1838478D01*
G01*
%TO.C,Q310*%
X61781392Y-35622136D02*
X58181392Y-35622136D01*
X59981392Y-40072136D02*
G75*
G02*
X58142914Y-35633658I0J2600000D01*
G01*
X61819870Y-35633658D02*
G75*
G02*
X59981392Y-40072137I-1838478J-1838478D01*
G01*
%TO.C,R309*%
X64254328Y-30737136D02*
X64708456Y-30737136D01*
X64254328Y-32207136D02*
X64708456Y-32207136D01*
%TO.C,R515*%
X108520208Y-38652930D02*
X108974336Y-38652930D01*
X108520208Y-40122930D02*
X108974336Y-40122930D01*
%TO.C,R602*%
X26984730Y-77861963D02*
X27438858Y-77861963D01*
X26984730Y-79331963D02*
X27438858Y-79331963D01*
%TO.C,R511*%
X94030924Y-45458658D02*
X94485052Y-45458658D01*
X94030924Y-46928658D02*
X94485052Y-46928658D01*
%TO.C,R817*%
X86635876Y-66807167D02*
X87090004Y-66807167D01*
X86635876Y-68277167D02*
X87090004Y-68277167D01*
%TO.C,Q610*%
X39011392Y-65918489D02*
X35411392Y-65918489D01*
X37211392Y-70368489D02*
G75*
G02*
X35372914Y-65930011I0J2600000D01*
G01*
X39049870Y-65930011D02*
G75*
G02*
X37211392Y-70368490I-1838478J-1838478D01*
G01*
%TO.C,R615*%
X41484328Y-69040600D02*
X41938456Y-69040600D01*
X41484328Y-70510600D02*
X41938456Y-70510600D01*
%TO.C,R910*%
X93944515Y-63632835D02*
X94398643Y-63632835D01*
X93944515Y-65102835D02*
X94398643Y-65102835D01*
%TO.C,Q511*%
X106047272Y-25530819D02*
X102447272Y-25530819D01*
X104247272Y-29980819D02*
G75*
G02*
X102408794Y-25542341I0J2600000D01*
G01*
X106085750Y-25542341D02*
G75*
G02*
X104247272Y-29980820I-1838478J-1838478D01*
G01*
%TO.C,R920*%
X93972361Y-57626106D02*
X94426489Y-57626106D01*
X93972361Y-59096106D02*
X94426489Y-59096106D01*
%TO.C,Q209*%
X33410375Y-35623136D02*
X29810375Y-35623136D01*
X31610375Y-40073136D02*
G75*
G02*
X29771897Y-35634658I0J2600000D01*
G01*
X33448853Y-35634658D02*
G75*
G02*
X31610375Y-40073137I-1838478J-1838478D01*
G01*
%TO.C,R212*%
X41383311Y-40738136D02*
X41837439Y-40738136D01*
X41383311Y-42208136D02*
X41837439Y-42208136D01*
%TO.C,Q712*%
X56228610Y-55717889D02*
X52628610Y-55717889D01*
X54428610Y-60167889D02*
G75*
G02*
X52590132Y-55729411I0J2600000D01*
G01*
X56267088Y-55729411D02*
G75*
G02*
X54428610Y-60167890I-1838478J-1838478D01*
G01*
%TO.C,R620*%
X27012174Y-57842647D02*
X27466302Y-57842647D01*
X27012174Y-59312647D02*
X27466302Y-59312647D01*
%TO.C,R701*%
X49701546Y-71648776D02*
X50155674Y-71648776D01*
X49701546Y-73118776D02*
X50155674Y-73118776D01*
%TO.C,R702*%
X49701948Y-77661363D02*
X50156076Y-77661363D01*
X49701948Y-79131363D02*
X50156076Y-79131363D01*
%TO.C,R603*%
X41463767Y-73081341D02*
X41917895Y-73081341D01*
X41463767Y-74551341D02*
X41917895Y-74551341D01*
%TO.C,R609*%
X41484328Y-61033489D02*
X41938456Y-61033489D01*
X41484328Y-62503489D02*
X41938456Y-62503489D01*
%TO.C,R608*%
X26984328Y-61849376D02*
X27438456Y-61849376D01*
X26984328Y-63319376D02*
X27438456Y-63319376D01*
%TO.C,R506*%
X94020208Y-39461706D02*
X94474336Y-39461706D01*
X94020208Y-40931706D02*
X94474336Y-40931706D01*
%TO.C,Q307*%
X56281392Y-40622136D02*
X52681392Y-40622136D01*
X54481392Y-45072136D02*
G75*
G02*
X52642914Y-40633658I0J2600000D01*
G01*
X56319870Y-40633658D02*
G75*
G02*
X54481392Y-45072137I-1838478J-1838478D01*
G01*
%TO.C,R819*%
X72167717Y-55596409D02*
X72621845Y-55596409D01*
X72167717Y-57066409D02*
X72621845Y-57066409D01*
%TO.C,R710*%
X49701546Y-63648776D02*
X50155674Y-63648776D01*
X49701546Y-65118776D02*
X50155674Y-65118776D01*
%TO.C,R918*%
X108444515Y-62824059D02*
X108898643Y-62824059D01*
X108444515Y-64294059D02*
X108898643Y-64294059D01*
%TO.C,Q701*%
X67228610Y-55717889D02*
X63628610Y-55717889D01*
X65428610Y-60167889D02*
G75*
G02*
X63590132Y-55729411I0J2600000D01*
G01*
X67267088Y-55729411D02*
G75*
G02*
X65428610Y-60167890I-1838478J-1838478D01*
G01*
%TO.C,+5V*%
X24620000Y-93120000D02*
X26000000Y-93120000D01*
X24620000Y-94500000D02*
X24620000Y-93120000D01*
X24620000Y-95770000D02*
X24620000Y-95880000D01*
X24620000Y-95770000D02*
X27380000Y-95770000D01*
X24620000Y-95880000D02*
X27380000Y-95880000D01*
X27380000Y-95770000D02*
X27380000Y-95880000D01*
%TO.C,R718*%
X64201546Y-62840000D02*
X64655674Y-62840000D01*
X64201546Y-64310000D02*
X64655674Y-64310000D01*
%TO.C,R415*%
X86722487Y-38745247D02*
X87176615Y-38745247D01*
X86722487Y-40215247D02*
X87176615Y-40215247D01*
%TO.C,Q407*%
X78749551Y-40623136D02*
X75149551Y-40623136D01*
X76949551Y-45073136D02*
G75*
G02*
X75111073Y-40634658I0J2600000D01*
G01*
X78788029Y-40634658D02*
G75*
G02*
X76949551Y-45073137I-1838478J-1838478D01*
G01*
%TO.C,R714*%
X49701546Y-65648776D02*
X50155674Y-65648776D01*
X49701546Y-67118776D02*
X50155674Y-67118776D01*
%TO.C,Q208*%
X38910375Y-40623136D02*
X35310375Y-40623136D01*
X37110375Y-45073136D02*
G75*
G02*
X35271897Y-40634658I0J2600000D01*
G01*
X38948853Y-40634658D02*
G75*
G02*
X37110375Y-45073137I-1838478J-1838478D01*
G01*
%TO.C,R406*%
X72222487Y-39554023D02*
X72676615Y-39554023D01*
X72222487Y-41024023D02*
X72676615Y-41024023D01*
%TO.C,Q506*%
X106047272Y-30530819D02*
X102447272Y-30530819D01*
X104247272Y-34980819D02*
G75*
G02*
X102408794Y-30542341I0J2600000D01*
G01*
X106085750Y-30542341D02*
G75*
G02*
X104247272Y-34980820I-1838478J-1838478D01*
G01*
%TO.C,R915*%
X108444515Y-68824059D02*
X108898643Y-68824059D01*
X108444515Y-70294059D02*
X108898643Y-70294059D01*
%TO.C,R617*%
X41484328Y-67040600D02*
X41938456Y-67040600D01*
X41484328Y-68510600D02*
X41938456Y-68510600D01*
%TO.C,RD_EN*%
X47120000Y-93120000D02*
X48500000Y-93120000D01*
X47120000Y-94500000D02*
X47120000Y-93120000D01*
X47120000Y-95770000D02*
X47120000Y-95880000D01*
X47120000Y-95770000D02*
X49880000Y-95770000D01*
X47120000Y-95880000D02*
X49880000Y-95880000D01*
X49880000Y-95770000D02*
X49880000Y-95880000D01*
%TO.C,R820*%
X72163722Y-57609214D02*
X72617850Y-57609214D01*
X72163722Y-59079214D02*
X72617850Y-59079214D01*
%TO.C,R902*%
X93944917Y-77645422D02*
X94399045Y-77645422D01*
X93944917Y-79115422D02*
X94399045Y-79115422D01*
%TO.C,Q408*%
X84249551Y-40623136D02*
X80649551Y-40623136D01*
X82449551Y-45073136D02*
G75*
G02*
X80611073Y-40634658I0J2600000D01*
G01*
X84288029Y-40634658D02*
G75*
G02*
X82449551Y-45073137I-1838478J-1838478D01*
G01*
%TO.C,Q206*%
X38910375Y-30623136D02*
X35310375Y-30623136D01*
X37110375Y-35073136D02*
G75*
G02*
X35271897Y-30634658I0J2600000D01*
G01*
X38948853Y-30634658D02*
G75*
G02*
X37110375Y-35073137I-1838478J-1838478D01*
G01*
%TO.C,R804*%
X72136278Y-79628530D02*
X72590406Y-79628530D01*
X72136278Y-81098530D02*
X72590406Y-81098530D01*
%TO.C,R618*%
X41484328Y-63040600D02*
X41938456Y-63040600D01*
X41484328Y-64510600D02*
X41938456Y-64510600D01*
%TO.C,Q903*%
X111501060Y-75835346D02*
X107901060Y-75835346D01*
X109701060Y-80285346D02*
G75*
G02*
X107862582Y-75846868I0J2600000D01*
G01*
X111539538Y-75846868D02*
G75*
G02*
X109701060Y-80285347I-1838478J-1838478D01*
G01*
%TO.C,R205*%
X26911157Y-29547294D02*
X27365285Y-29547294D01*
X26911157Y-31017294D02*
X27365285Y-31017294D01*
%TO.C,R313*%
X49754328Y-37553023D02*
X50208456Y-37553023D01*
X49754328Y-39023023D02*
X50208456Y-39023023D01*
%TO.C,Q905*%
X100471579Y-60701948D02*
X96871579Y-60701948D01*
X98671579Y-65151948D02*
G75*
G02*
X96833101Y-60713470I0J2600000D01*
G01*
X100510057Y-60713470D02*
G75*
G02*
X98671579Y-65151949I-1838478J-1838478D01*
G01*
%TO.C,Q809*%
X78662940Y-65685056D02*
X75062940Y-65685056D01*
X76862940Y-70135056D02*
G75*
G02*
X75024462Y-65696578I0J2600000D01*
G01*
X78701418Y-65696578D02*
G75*
G02*
X76862940Y-70135057I-1838478J-1838478D01*
G01*
%TO.C,R911*%
X93955231Y-75629787D02*
X94409359Y-75629787D01*
X93955231Y-77099787D02*
X94409359Y-77099787D01*
%TO.C,R518*%
X108520208Y-32652930D02*
X108974336Y-32652930D01*
X108520208Y-34122930D02*
X108974336Y-34122930D01*
%TO.C,R317*%
X64254328Y-36744247D02*
X64708456Y-36744247D01*
X64254328Y-38214247D02*
X64708456Y-38214247D01*
%TO.C,Q403*%
X89779032Y-45756534D02*
X86179032Y-45756534D01*
X87979032Y-50206534D02*
G75*
G02*
X86140554Y-45768056I0J2600000D01*
G01*
X89817510Y-45768056D02*
G75*
G02*
X87979032Y-50206535I-1838478J-1838478D01*
G01*
%TO.C,Q401*%
X89749551Y-25623136D02*
X86149551Y-25623136D01*
X87949551Y-30073136D02*
G75*
G02*
X86111073Y-25634658I0J2600000D01*
G01*
X89788029Y-25634658D02*
G75*
G02*
X87949551Y-30073137I-1838478J-1838478D01*
G01*
%TO.C,Q711*%
X61728610Y-55717889D02*
X58128610Y-55717889D01*
X59928610Y-60167889D02*
G75*
G02*
X58090132Y-55729411I0J2600000D01*
G01*
X61767088Y-55729411D02*
G75*
G02*
X59928610Y-60167890I-1838478J-1838478D01*
G01*
%TO.C,R803*%
X86615315Y-72847908D02*
X87069443Y-72847908D01*
X86615315Y-74317908D02*
X87069443Y-74317908D01*
%TO.C,R715*%
X64201546Y-68840000D02*
X64655674Y-68840000D01*
X64201546Y-70310000D02*
X64655674Y-70310000D01*
%TO.C,Q912*%
X100471579Y-55701948D02*
X96871579Y-55701948D01*
X98671579Y-60151948D02*
G75*
G02*
X96833101Y-55713470I0J2600000D01*
G01*
X100510057Y-55713470D02*
G75*
G02*
X98671579Y-60151949I-1838478J-1838478D01*
G01*
%TO.C,R306*%
X49754328Y-39553023D02*
X50208456Y-39553023D01*
X49754328Y-41023023D02*
X50208456Y-41023023D01*
%TO.C,R909*%
X108444515Y-60816948D02*
X108898643Y-60816948D01*
X108444515Y-62286948D02*
X108898643Y-62286948D01*
%TO.C,R220*%
X26911157Y-27547294D02*
X27365285Y-27547294D01*
X26911157Y-29017294D02*
X27365285Y-29017294D01*
%TO.C,Q609*%
X33511392Y-65918489D02*
X29911392Y-65918489D01*
X31711392Y-70368489D02*
G75*
G02*
X29872914Y-65930011I0J2600000D01*
G01*
X33549870Y-65930011D02*
G75*
G02*
X31711392Y-70368490I-1838478J-1838478D01*
G01*
%TO.C,R213*%
X26883311Y-37554023D02*
X27337439Y-37554023D01*
X26883311Y-39024023D02*
X27337439Y-39024023D01*
%TO.C,R503*%
X108499647Y-42693671D02*
X108953775Y-42693671D01*
X108499647Y-44163671D02*
X108953775Y-44163671D01*
%TO.C,Q503*%
X111576753Y-45664217D02*
X107976753Y-45664217D01*
X109776753Y-50114217D02*
G75*
G02*
X107938275Y-45675739I0J2600000D01*
G01*
X111615231Y-45675739D02*
G75*
G02*
X109776753Y-50114218I-1838478J-1838478D01*
G01*
%TO.C,R105*%
X71055114Y-90125409D02*
X71509242Y-90125409D01*
X71055114Y-91595409D02*
X71509242Y-91595409D01*
%TO.C,Q803*%
X89692421Y-75818454D02*
X86092421Y-75818454D01*
X87892421Y-80268454D02*
G75*
G02*
X86053943Y-75829976I0J2600000D01*
G01*
X89730899Y-75829976D02*
G75*
G02*
X87892421Y-80268455I-1838478J-1838478D01*
G01*
%TO.C,R304*%
X49754730Y-49565610D02*
X50208858Y-49565610D01*
X49754730Y-51035610D02*
X50208858Y-51035610D01*
%TO.C,Q312*%
X56281392Y-25622136D02*
X52681392Y-25622136D01*
X54481392Y-30072136D02*
G75*
G02*
X52642914Y-25633658I0J2600000D01*
G01*
X56319870Y-25633658D02*
G75*
G02*
X54481392Y-30072137I-1838478J-1838478D01*
G01*
%TO.C,Q709*%
X56228610Y-65717889D02*
X52628610Y-65717889D01*
X54428610Y-70167889D02*
G75*
G02*
X52590132Y-65729411I0J2600000D01*
G01*
X56267088Y-65729411D02*
G75*
G02*
X54428610Y-70167890I-1838478J-1838478D01*
G01*
%TO.C,R601*%
X26984328Y-71849376D02*
X27438456Y-71849376D01*
X26984328Y-73319376D02*
X27438456Y-73319376D01*
%TO.C,Q603*%
X44540873Y-76051887D02*
X40940873Y-76051887D01*
X42740873Y-80501887D02*
G75*
G02*
X40902395Y-76063409I0J2600000D01*
G01*
X44579351Y-76063409D02*
G75*
G02*
X42740873Y-80501888I-1838478J-1838478D01*
G01*
%TO.C,R517*%
X108520208Y-36652930D02*
X108974336Y-36652930D01*
X108520208Y-38122930D02*
X108974336Y-38122930D01*
%TO.C,R801*%
X72135876Y-71615943D02*
X72590004Y-71615943D01*
X72135876Y-73085943D02*
X72590004Y-73085943D01*
%TO.C,Q207*%
X33410375Y-40623136D02*
X29810375Y-40623136D01*
X31610375Y-45073136D02*
G75*
G02*
X29771897Y-40634658I0J2600000D01*
G01*
X33448853Y-40634658D02*
G75*
G02*
X31610375Y-45073137I-1838478J-1838478D01*
G01*
%TO.C,R217*%
X41383311Y-36745247D02*
X41837439Y-36745247D01*
X41383311Y-38215247D02*
X41837439Y-38215247D01*
%TO.C,R606*%
X26984328Y-69849376D02*
X27438456Y-69849376D01*
X26984328Y-71319376D02*
X27438456Y-71319376D01*
%TO.C,Q402*%
X78749551Y-45763136D02*
X75149551Y-45763136D01*
X76949551Y-50213136D02*
G75*
G02*
X75111073Y-45774658I0J2600000D01*
G01*
X78788029Y-45774658D02*
G75*
G02*
X76949551Y-50213137I-1838478J-1838478D01*
G01*
%TO.C,R311*%
X49765044Y-45549975D02*
X50219172Y-45549975D01*
X49765044Y-47019975D02*
X50219172Y-47019975D01*
%TO.C,R516*%
X108520208Y-34652930D02*
X108974336Y-34652930D01*
X108520208Y-36122930D02*
X108974336Y-36122930D01*
%TO.C,Q305*%
X56281392Y-30622136D02*
X52681392Y-30622136D01*
X54481392Y-35072136D02*
G75*
G02*
X52642914Y-30633658I0J2600000D01*
G01*
X56319870Y-30633658D02*
G75*
G02*
X54481392Y-35072137I-1838478J-1838478D01*
G01*
%TO.C,R419*%
X72254328Y-25534489D02*
X72708456Y-25534489D01*
X72254328Y-27004489D02*
X72708456Y-27004489D01*
%TO.C,Q501*%
X111547272Y-25530819D02*
X107947272Y-25530819D01*
X109747272Y-29980819D02*
G75*
G02*
X107908794Y-25542341I0J2600000D01*
G01*
X111585750Y-25542341D02*
G75*
G02*
X109747272Y-29980820I-1838478J-1838478D01*
G01*
%TO.C,Q909*%
X100471579Y-65701948D02*
X96871579Y-65701948D01*
X98671579Y-70151948D02*
G75*
G02*
X96833101Y-65713470I0J2600000D01*
G01*
X100510057Y-65713470D02*
G75*
G02*
X98671579Y-70151949I-1838478J-1838478D01*
G01*
%TO.C,R418*%
X86722487Y-32745247D02*
X87176615Y-32745247D01*
X86722487Y-34215247D02*
X87176615Y-34215247D01*
%TO.C,CLK*%
X35120000Y-93120000D02*
X36500000Y-93120000D01*
X35120000Y-94500000D02*
X35120000Y-93120000D01*
X35120000Y-95770000D02*
X35120000Y-95880000D01*
X35120000Y-95770000D02*
X37880000Y-95770000D01*
X35120000Y-95880000D02*
X37880000Y-95880000D01*
X37880000Y-95770000D02*
X37880000Y-95880000D01*
%TO.C,Q902*%
X100471579Y-75841948D02*
X96871579Y-75841948D01*
X98671579Y-80291948D02*
G75*
G02*
X96833101Y-75853470I0J2600000D01*
G01*
X100510057Y-75853470D02*
G75*
G02*
X98671579Y-80291949I-1838478J-1838478D01*
G01*
%TO.C,R302*%
X49754730Y-47565610D02*
X50208858Y-47565610D01*
X49754730Y-49035610D02*
X50208858Y-49035610D01*
%TO.C,R211*%
X26894027Y-45550975D02*
X27348155Y-45550975D01*
X26894027Y-47020975D02*
X27348155Y-47020975D01*
%TO.C,Q805*%
X78662940Y-60685056D02*
X75062940Y-60685056D01*
X76862940Y-65135056D02*
G75*
G02*
X75024462Y-60696578I0J2600000D01*
G01*
X78701418Y-60696578D02*
G75*
G02*
X76862940Y-65135057I-1838478J-1838478D01*
G01*
%TO.C,R207*%
X26883311Y-43554023D02*
X27337439Y-43554023D01*
X26883311Y-45024023D02*
X27337439Y-45024023D01*
%TO.C,Q308*%
X61781392Y-40622136D02*
X58181392Y-40622136D01*
X59981392Y-45072136D02*
G75*
G02*
X58142914Y-40633658I0J2600000D01*
G01*
X61819870Y-40633658D02*
G75*
G02*
X59981392Y-45072137I-1838478J-1838478D01*
G01*
%TO.C,R214*%
X26883311Y-35554023D02*
X27337439Y-35554023D01*
X26883311Y-37024023D02*
X27337439Y-37024023D01*
%TO.C,R308*%
X49754328Y-31553023D02*
X50208456Y-31553023D01*
X49754328Y-33023023D02*
X50208456Y-33023023D01*
%TO.C,R314*%
X49754328Y-35553023D02*
X50208456Y-35553023D01*
X49754328Y-37023023D02*
X50208456Y-37023023D01*
%TO.C,R307*%
X49754328Y-43553023D02*
X50208456Y-43553023D01*
X49754328Y-45023023D02*
X50208456Y-45023023D01*
%TO.C,R216*%
X41383311Y-34745247D02*
X41837439Y-34745247D01*
X41383311Y-36215247D02*
X41837439Y-36215247D01*
%TO.C,R219*%
X26915152Y-25534489D02*
X27369280Y-25534489D01*
X26915152Y-27004489D02*
X27369280Y-27004489D01*
%TO.C,Q611*%
X39011392Y-55918489D02*
X35411392Y-55918489D01*
X37211392Y-60368489D02*
G75*
G02*
X35372914Y-55930011I0J2600000D01*
G01*
X39049870Y-55930011D02*
G75*
G02*
X37211392Y-60368490I-1838478J-1838478D01*
G01*
%TO.C,Q604*%
X39025238Y-76051887D02*
X35425238Y-76051887D01*
X37225238Y-80501887D02*
G75*
G02*
X35386760Y-76063409I0J2600000D01*
G01*
X39063716Y-76063409D02*
G75*
G02*
X37225238Y-80501888I-1838478J-1838478D01*
G01*
%TO.C,Q103*%
X88700000Y-95210000D02*
X92300000Y-95210000D01*
X88661522Y-95198478D02*
G75*
G02*
X90500000Y-90759999I1838478J1838478D01*
G01*
X90500000Y-90760000D02*
G75*
G02*
X92338478Y-95198478I0J-2600000D01*
G01*
%TO.C,R403*%
X86701926Y-42785988D02*
X87156054Y-42785988D01*
X86701926Y-44255988D02*
X87156054Y-44255988D01*
%TO.C,R215*%
X41383311Y-38745247D02*
X41837439Y-38745247D01*
X41383311Y-40215247D02*
X41837439Y-40215247D01*
%TO.C,R816*%
X86635876Y-64807167D02*
X87090004Y-64807167D01*
X86635876Y-66277167D02*
X87090004Y-66277167D01*
%TO.C,Q409*%
X78749551Y-35623136D02*
X75149551Y-35623136D01*
X76949551Y-40073136D02*
G75*
G02*
X75111073Y-35634658I0J2600000D01*
G01*
X78788029Y-35634658D02*
G75*
G02*
X76949551Y-40073137I-1838478J-1838478D01*
G01*
%TO.C,R404*%
X72222889Y-49566610D02*
X72677017Y-49566610D01*
X72222889Y-51036610D02*
X72677017Y-51036610D01*
%TO.C,Q811*%
X84162940Y-55685056D02*
X80562940Y-55685056D01*
X82362940Y-60135056D02*
G75*
G02*
X80524462Y-55696578I0J2600000D01*
G01*
X84201418Y-55696578D02*
G75*
G02*
X82362940Y-60135057I-1838478J-1838478D01*
G01*
%TO.C,DATA_IN*%
X16620000Y-66120000D02*
X18000000Y-66120000D01*
X16620000Y-67500000D02*
X16620000Y-66120000D01*
X16620000Y-68770000D02*
X16620000Y-86660000D01*
X16620000Y-68770000D02*
X19380000Y-68770000D01*
X16620000Y-86660000D02*
X19380000Y-86660000D01*
X19380000Y-68770000D02*
X19380000Y-86660000D01*
%TO.C,Q504*%
X106061118Y-45664217D02*
X102461118Y-45664217D01*
X104261118Y-50114217D02*
G75*
G02*
X102422640Y-45675739I0J2600000D01*
G01*
X106099596Y-45675739D02*
G75*
G02*
X104261118Y-50114218I-1838478J-1838478D01*
G01*
%TO.C,WR_EN*%
X41120000Y-93120000D02*
X42500000Y-93120000D01*
X41120000Y-94500000D02*
X41120000Y-93120000D01*
X41120000Y-95770000D02*
X41120000Y-95880000D01*
X41120000Y-95770000D02*
X43880000Y-95770000D01*
X41120000Y-95880000D02*
X43880000Y-95880000D01*
X43880000Y-95770000D02*
X43880000Y-95880000D01*
%TO.C,R904*%
X93944917Y-79645422D02*
X94399045Y-79645422D01*
X93944917Y-81115422D02*
X94399045Y-81115422D01*
%TO.C,Q304*%
X61795238Y-45755534D02*
X58195238Y-45755534D01*
X59995238Y-50205534D02*
G75*
G02*
X58156760Y-45767056I0J2600000D01*
G01*
X61833716Y-45767056D02*
G75*
G02*
X59995238Y-50205535I-1838478J-1838478D01*
G01*
%TO.C,R409*%
X86722487Y-30738136D02*
X87176615Y-30738136D01*
X86722487Y-32208136D02*
X87176615Y-32208136D01*
%TO.C,R514*%
X94020208Y-35461706D02*
X94474336Y-35461706D01*
X94020208Y-36931706D02*
X94474336Y-36931706D01*
%TO.C,Q904*%
X105985425Y-75835346D02*
X102385425Y-75835346D01*
X104185425Y-80285346D02*
G75*
G02*
X102346947Y-75846868I0J2600000D01*
G01*
X106023903Y-75846868D02*
G75*
G02*
X104185425Y-80285347I-1838478J-1838478D01*
G01*
%TO.C,R413*%
X72222487Y-37554023D02*
X72676615Y-37554023D01*
X72222487Y-39024023D02*
X72676615Y-39024023D01*
%TO.C,R504*%
X94020610Y-49474293D02*
X94474738Y-49474293D01*
X94020610Y-50944293D02*
X94474738Y-50944293D01*
%TO.C,Q104*%
X82700000Y-95210000D02*
X86300000Y-95210000D01*
X82661522Y-95198478D02*
G75*
G02*
X84500000Y-90759999I1838478J1838478D01*
G01*
X84500000Y-90760000D02*
G75*
G02*
X86338478Y-95198478I0J-2600000D01*
G01*
%TO.C,R512*%
X108520208Y-40645819D02*
X108974336Y-40645819D01*
X108520208Y-42115819D02*
X108974336Y-42115819D01*
%TO.C,R814*%
X72135876Y-65615943D02*
X72590004Y-65615943D01*
X72135876Y-67085943D02*
X72590004Y-67085943D01*
%TO.C,R704*%
X49701948Y-79661363D02*
X50156076Y-79661363D01*
X49701948Y-81131363D02*
X50156076Y-81131363D01*
%TO.C,Q508*%
X106047272Y-40530819D02*
X102447272Y-40530819D01*
X104247272Y-44980819D02*
G75*
G02*
X102408794Y-40542341I0J2600000D01*
G01*
X106085750Y-40542341D02*
G75*
G02*
X104247272Y-44980820I-1838478J-1838478D01*
G01*
%TO.C,R508*%
X94020208Y-31461706D02*
X94474336Y-31461706D01*
X94020208Y-32931706D02*
X94474336Y-32931706D01*
%TO.C,R501*%
X94020208Y-41461706D02*
X94474336Y-41461706D01*
X94020208Y-42931706D02*
X94474336Y-42931706D01*
%TO.C,Q201*%
X44410375Y-25623136D02*
X40810375Y-25623136D01*
X42610375Y-30073136D02*
G75*
G02*
X40771897Y-25634658I0J2600000D01*
G01*
X44448853Y-25634658D02*
G75*
G02*
X42610375Y-30073137I-1838478J-1838478D01*
G01*
%TO.C,R218*%
X41383311Y-32745247D02*
X41837439Y-32745247D01*
X41383311Y-34215247D02*
X41837439Y-34215247D01*
%TO.C,R912*%
X108444515Y-70816948D02*
X108898643Y-70816948D01*
X108444515Y-72286948D02*
X108898643Y-72286948D01*
%TO.C,R320*%
X49782174Y-27546294D02*
X50236302Y-27546294D01*
X49782174Y-29016294D02*
X50236302Y-29016294D01*
%TO.C,Q406*%
X84249551Y-30623136D02*
X80649551Y-30623136D01*
X82449551Y-35073136D02*
G75*
G02*
X80611073Y-30634658I0J2600000D01*
G01*
X84288029Y-30634658D02*
G75*
G02*
X82449551Y-35073137I-1838478J-1838478D01*
G01*
%TO.C,Q204*%
X38924221Y-45756534D02*
X35324221Y-45756534D01*
X37124221Y-50206534D02*
G75*
G02*
X35285743Y-45768056I0J2600000D01*
G01*
X38962699Y-45768056D02*
G75*
G02*
X37124221Y-50206535I-1838478J-1838478D01*
G01*
%TO.C,Q211*%
X38910375Y-25623136D02*
X35310375Y-25623136D01*
X37110375Y-30073136D02*
G75*
G02*
X35271897Y-25634658I0J2600000D01*
G01*
X38948853Y-25634658D02*
G75*
G02*
X37110375Y-30073137I-1838478J-1838478D01*
G01*
%TO.C,R708*%
X49701546Y-61648776D02*
X50155674Y-61648776D01*
X49701546Y-63118776D02*
X50155674Y-63118776D01*
%TO.C,R520*%
X94048054Y-27454977D02*
X94502182Y-27454977D01*
X94048054Y-28924977D02*
X94502182Y-28924977D01*
%TO.C,R914*%
X93944515Y-65632835D02*
X94398643Y-65632835D01*
X93944515Y-67102835D02*
X94398643Y-67102835D01*
%TO.C,R104*%
X79142614Y-93625409D02*
X79596742Y-93625409D01*
X79142614Y-95095409D02*
X79596742Y-95095409D01*
%TO.C,R815*%
X86635876Y-68807167D02*
X87090004Y-68807167D01*
X86635876Y-70277167D02*
X87090004Y-70277167D01*
%TO.C,R707*%
X49701546Y-73648776D02*
X50155674Y-73648776D01*
X49701546Y-75118776D02*
X50155674Y-75118776D01*
%TO.C,Q502*%
X100547272Y-45670819D02*
X96947272Y-45670819D01*
X98747272Y-50120819D02*
G75*
G02*
X96908794Y-45682341I0J2600000D01*
G01*
X100585750Y-45682341D02*
G75*
G02*
X98747272Y-50120820I-1838478J-1838478D01*
G01*
%TO.C,R420*%
X72250333Y-27547294D02*
X72704461Y-27547294D01*
X72250333Y-29017294D02*
X72704461Y-29017294D01*
%TO.C,Q412*%
X78749551Y-25623136D02*
X75149551Y-25623136D01*
X76949551Y-30073136D02*
G75*
G02*
X75111073Y-25634658I0J2600000D01*
G01*
X78788029Y-25634658D02*
G75*
G02*
X76949551Y-30073137I-1838478J-1838478D01*
G01*
%TO.C,R917*%
X108444515Y-66824059D02*
X108898643Y-66824059D01*
X108444515Y-68294059D02*
X108898643Y-68294059D01*
%TO.C,Q612*%
X33511392Y-55918489D02*
X29911392Y-55918489D01*
X31711392Y-60368489D02*
G75*
G02*
X29872914Y-55930011I0J2600000D01*
G01*
X33549870Y-55930011D02*
G75*
G02*
X31711392Y-60368490I-1838478J-1838478D01*
G01*
%TO.C,R405*%
X72250333Y-29547294D02*
X72704461Y-29547294D01*
X72250333Y-31017294D02*
X72704461Y-31017294D01*
%TO.C,Q807*%
X78662940Y-70685056D02*
X75062940Y-70685056D01*
X76862940Y-75135056D02*
G75*
G02*
X75024462Y-70696578I0J2600000D01*
G01*
X78701418Y-70696578D02*
G75*
G02*
X76862940Y-75135057I-1838478J-1838478D01*
G01*
%TO.C,Q607*%
X33511392Y-70918489D02*
X29911392Y-70918489D01*
X31711392Y-75368489D02*
G75*
G02*
X29872914Y-70930011I0J2600000D01*
G01*
X33549870Y-70930011D02*
G75*
G02*
X31711392Y-75368490I-1838478J-1838478D01*
G01*
%TO.C,R916*%
X108444515Y-64824059D02*
X108898643Y-64824059D01*
X108444515Y-66294059D02*
X108898643Y-66294059D01*
%TO.C,R502*%
X94020610Y-47474293D02*
X94474738Y-47474293D01*
X94020610Y-48944293D02*
X94474738Y-48944293D01*
%TO.C,R101*%
X71230114Y-93625409D02*
X71684242Y-93625409D01*
X71230114Y-95095409D02*
X71684242Y-95095409D01*
%TO.C,R401*%
X72222487Y-41554023D02*
X72676615Y-41554023D01*
X72222487Y-43024023D02*
X72676615Y-43024023D01*
%TO.C,R108*%
X63270210Y-93654804D02*
X63724338Y-93654804D01*
X63270210Y-95124804D02*
X63724338Y-95124804D01*
%TO.C,Q309*%
X56281392Y-35622136D02*
X52681392Y-35622136D01*
X54481392Y-40072136D02*
G75*
G02*
X52642914Y-35633658I0J2600000D01*
G01*
X56319870Y-35633658D02*
G75*
G02*
X54481392Y-40072137I-1838478J-1838478D01*
G01*
%TO.C,R519*%
X94052049Y-25442172D02*
X94506177Y-25442172D01*
X94052049Y-26912172D02*
X94506177Y-26912172D01*
%TO.C,Q911*%
X105971579Y-55701948D02*
X102371579Y-55701948D01*
X104171579Y-60151948D02*
G75*
G02*
X102333101Y-55713470I0J2600000D01*
G01*
X106010057Y-55713470D02*
G75*
G02*
X104171579Y-60151949I-1838478J-1838478D01*
G01*
%TO.C,Q808*%
X84162940Y-70685056D02*
X80562940Y-70685056D01*
X82362940Y-75135056D02*
G75*
G02*
X80524462Y-70696578I0J2600000D01*
G01*
X84201418Y-70696578D02*
G75*
G02*
X82362940Y-75135057I-1838478J-1838478D01*
G01*
%TO.C,Q405*%
X78749551Y-30623136D02*
X75149551Y-30623136D01*
X76949551Y-35073136D02*
G75*
G02*
X75111073Y-30634658I0J2600000D01*
G01*
X78788029Y-30634658D02*
G75*
G02*
X76949551Y-35073137I-1838478J-1838478D01*
G01*
%TO.C,Q704*%
X61742456Y-75851287D02*
X58142456Y-75851287D01*
X59942456Y-80301287D02*
G75*
G02*
X58103978Y-75862809I0J2600000D01*
G01*
X61780934Y-75862809D02*
G75*
G02*
X59942456Y-80301288I-1838478J-1838478D01*
G01*
%TO.C,R301*%
X49754328Y-41553023D02*
X50208456Y-41553023D01*
X49754328Y-43023023D02*
X50208456Y-43023023D01*
%TO.C,R709*%
X64201546Y-60832889D02*
X64655674Y-60832889D01*
X64201546Y-62302889D02*
X64655674Y-62302889D01*
%TO.C,Q311*%
X61781392Y-25622136D02*
X58181392Y-25622136D01*
X59981392Y-30072136D02*
G75*
G02*
X58142914Y-25633658I0J2600000D01*
G01*
X61819870Y-25633658D02*
G75*
G02*
X59981392Y-30072137I-1838478J-1838478D01*
G01*
%TO.C,R812*%
X86635876Y-70800056D02*
X87090004Y-70800056D01*
X86635876Y-72270056D02*
X87090004Y-72270056D01*
%TO.C,R919*%
X93976356Y-55613301D02*
X94430484Y-55613301D01*
X93976356Y-57083301D02*
X94430484Y-57083301D01*
%TO.C,Q708*%
X61728610Y-70717889D02*
X58128610Y-70717889D01*
X59928610Y-75167889D02*
G75*
G02*
X58090132Y-70729411I0J2600000D01*
G01*
X61767088Y-70729411D02*
G75*
G02*
X59928610Y-75167890I-1838478J-1838478D01*
G01*
%TO.C,Q907*%
X100471579Y-70701948D02*
X96871579Y-70701948D01*
X98671579Y-75151948D02*
G75*
G02*
X96833101Y-70713470I0J2600000D01*
G01*
X100510057Y-70713470D02*
G75*
G02*
X98671579Y-75151949I-1838478J-1838478D01*
G01*
%TO.C,R604*%
X26984730Y-79861963D02*
X27438858Y-79861963D01*
X26984730Y-81331963D02*
X27438858Y-81331963D01*
%TO.C,R905*%
X93972361Y-59626106D02*
X94426489Y-59626106D01*
X93972361Y-61096106D02*
X94426489Y-61096106D01*
%TO.C,R315*%
X64254328Y-38744247D02*
X64708456Y-38744247D01*
X64254328Y-40214247D02*
X64708456Y-40214247D01*
%TO.C,Q303*%
X67310873Y-45755534D02*
X63710873Y-45755534D01*
X65510873Y-50205534D02*
G75*
G02*
X63672395Y-45767056I0J2600000D01*
G01*
X67349351Y-45767056D02*
G75*
G02*
X65510873Y-50205535I-1838478J-1838478D01*
G01*
%TO.C,R717*%
X64201546Y-66840000D02*
X64655674Y-66840000D01*
X64201546Y-68310000D02*
X64655674Y-68310000D01*
%TO.C,R907*%
X93944515Y-73632835D02*
X94398643Y-73632835D01*
X93944515Y-75102835D02*
X94398643Y-75102835D01*
%TO.C,R612*%
X41484328Y-71033489D02*
X41938456Y-71033489D01*
X41484328Y-72503489D02*
X41938456Y-72503489D01*
%TO.C,R417*%
X86722487Y-36745247D02*
X87176615Y-36745247D01*
X86722487Y-38215247D02*
X87176615Y-38215247D01*
%TD*%
M02*
