%TF.GenerationSoftware,KiCad,Pcbnew,9.0.7*%
%TF.CreationDate,2026-01-14T18:58:22+00:00*%
%TF.ProjectId,reg,7265672e-6b69-4636-9164-5f7063625858,rev?*%
%TF.SameCoordinates,Original*%
%TF.FileFunction,Soldermask,Top*%
%TF.FilePolarity,Negative*%
%FSLAX46Y46*%
G04 Gerber Fmt 4.6, Leading zero omitted, Abs format (unit mm)*
G04 Created by KiCad (PCBNEW 9.0.7) date 2026-01-14 18:58:22*
%MOMM*%
%LPD*%
G01*
G04 APERTURE LIST*
%ADD10C,1.700000*%
%ADD11R,1.700000X1.700000*%
%ADD12C,1.600000*%
%ADD13O,1.050000X1.500000*%
%ADD14R,1.050000X1.500000*%
%ADD15C,3.200000*%
G04 APERTURE END LIST*
D10*
%TO.C,DATA_OUT*%
X43380000Y-93000000D03*
X45920000Y-93000000D03*
X48460000Y-93000000D03*
D11*
X51000000Y-93000000D03*
%TD*%
D12*
%TO.C,R510*%
X88040000Y-64000000D03*
X77880000Y-64000000D03*
%TD*%
D13*
%TO.C,Q507*%
X90770000Y-59000000D03*
X92040000Y-59000000D03*
D14*
X93310000Y-59000000D03*
%TD*%
D13*
%TO.C,Q506*%
X96500000Y-65500000D03*
X97770000Y-65500000D03*
D14*
X99040000Y-65500000D03*
%TD*%
D12*
%TO.C,R504*%
X75040000Y-68950000D03*
X64880000Y-68950000D03*
%TD*%
%TO.C,R503*%
X75120000Y-59000000D03*
X64960000Y-59000000D03*
%TD*%
%TO.C,R509*%
X106540000Y-78000000D03*
X96380000Y-78000000D03*
%TD*%
%TO.C,R508*%
X107540000Y-66580000D03*
X107540000Y-56420000D03*
%TD*%
%TO.C,R513*%
X88040000Y-59000000D03*
X77880000Y-59000000D03*
%TD*%
%TO.C,R501*%
X88120000Y-79000000D03*
X77960000Y-79000000D03*
%TD*%
%TO.C,R512*%
X106540000Y-82500000D03*
X96380000Y-82500000D03*
%TD*%
%TO.C,R506*%
X88040000Y-74000000D03*
X77880000Y-74000000D03*
%TD*%
%TO.C,R502*%
X75120000Y-73950000D03*
X64960000Y-73950000D03*
%TD*%
%TO.C,R511*%
X102540000Y-56340000D03*
X102540000Y-66500000D03*
%TD*%
D13*
%TO.C,Q505*%
X90770000Y-65500000D03*
X92040000Y-65500000D03*
D14*
X93310000Y-65500000D03*
%TD*%
D13*
%TO.C,Q508*%
X96500000Y-59000000D03*
X97770000Y-59000000D03*
D14*
X99040000Y-59000000D03*
%TD*%
D13*
%TO.C,Q503*%
X96270000Y-71640000D03*
X97540000Y-71640000D03*
D14*
X98810000Y-71640000D03*
%TD*%
D13*
%TO.C,Q502*%
X101770000Y-71640000D03*
X103040000Y-71640000D03*
D14*
X104310000Y-71640000D03*
%TD*%
D12*
%TO.C,R505*%
X75120000Y-63950000D03*
X64960000Y-63950000D03*
%TD*%
D13*
%TO.C,Q504*%
X90770000Y-71640000D03*
X92040000Y-71640000D03*
D14*
X93310000Y-71640000D03*
%TD*%
D13*
%TO.C,Q501*%
X90770000Y-79500000D03*
X92040000Y-79500000D03*
D14*
X93310000Y-79500000D03*
%TD*%
D12*
%TO.C,R507*%
X88040000Y-69000000D03*
X77880000Y-69000000D03*
%TD*%
%TO.C,R304*%
X65420000Y-36450000D03*
X75580000Y-36450000D03*
%TD*%
%TO.C,R101*%
X76000000Y-92920000D03*
X86160000Y-92920000D03*
%TD*%
%TO.C,R209*%
X47920000Y-45500000D03*
X58080000Y-45500000D03*
%TD*%
%TO.C,R212*%
X47920000Y-50000000D03*
X58080000Y-50000000D03*
%TD*%
D14*
%TO.C,Q404*%
X44992000Y-71485000D03*
D13*
X43722000Y-71485000D03*
X42452000Y-71485000D03*
%TD*%
D11*
%TO.C,CLK*%
X39000000Y-92920000D03*
%TD*%
D14*
%TO.C,Q206*%
X50580000Y-33000000D03*
D13*
X49310000Y-33000000D03*
X48040000Y-33000000D03*
%TD*%
D12*
%TO.C,R208*%
X59080000Y-23920000D03*
X59080000Y-34080000D03*
%TD*%
D14*
%TO.C,Q305*%
X93850000Y-33000000D03*
D13*
X92580000Y-33000000D03*
X91310000Y-33000000D03*
%TD*%
D12*
%TO.C,R201*%
X29500000Y-46500000D03*
X39660000Y-46500000D03*
%TD*%
%TO.C,R102*%
X112500000Y-59660000D03*
X112500000Y-49500000D03*
%TD*%
D11*
%TO.C,WR_EN*%
X34000000Y-92920000D03*
%TD*%
D12*
%TO.C,R307*%
X78420000Y-36500000D03*
X88580000Y-36500000D03*
%TD*%
%TO.C,R413*%
X29562000Y-58845000D03*
X39722000Y-58845000D03*
%TD*%
%TO.C,R412*%
X48062000Y-82345000D03*
X58222000Y-82345000D03*
%TD*%
%TO.C,R411*%
X54222000Y-66345000D03*
X54222000Y-56185000D03*
%TD*%
D15*
%TO.C,REF\u002A\u002A*%
X111000000Y-92420000D03*
%TD*%
D14*
%TO.C,Q204*%
X44850000Y-39140000D03*
D13*
X43580000Y-39140000D03*
X42310000Y-39140000D03*
%TD*%
D12*
%TO.C,R204*%
X16420000Y-36450000D03*
X26580000Y-36450000D03*
%TD*%
%TO.C,R305*%
X65500000Y-31450000D03*
X75660000Y-31450000D03*
%TD*%
D15*
%TO.C,REF\u002A\u002A*%
X111000000Y-19500000D03*
%TD*%
D12*
%TO.C,R313*%
X78420000Y-26500000D03*
X88580000Y-26500000D03*
%TD*%
D14*
%TO.C,Q101*%
X102730000Y-92280000D03*
D13*
X104000000Y-92280000D03*
X105270000Y-92280000D03*
%TD*%
D12*
%TO.C,R213*%
X29420000Y-26500000D03*
X39580000Y-26500000D03*
%TD*%
%TO.C,R301*%
X78500000Y-46500000D03*
X88660000Y-46500000D03*
%TD*%
%TO.C,R207*%
X29420000Y-36500000D03*
X39580000Y-36500000D03*
%TD*%
D14*
%TO.C,Q408*%
X50722000Y-58845000D03*
D13*
X49452000Y-58845000D03*
X48182000Y-58845000D03*
%TD*%
D14*
%TO.C,Q207*%
X44850000Y-26500000D03*
D13*
X43580000Y-26500000D03*
X42310000Y-26500000D03*
%TD*%
D12*
%TO.C,C101*%
X67500000Y-92920000D03*
X72500000Y-92920000D03*
%TD*%
%TO.C,R406*%
X29562000Y-73845000D03*
X39722000Y-73845000D03*
%TD*%
D14*
%TO.C,Q205*%
X44850000Y-33000000D03*
D13*
X43580000Y-33000000D03*
X42310000Y-33000000D03*
%TD*%
D12*
%TO.C,R410*%
X29562000Y-63845000D03*
X39722000Y-63845000D03*
%TD*%
D14*
%TO.C,Q302*%
X104850000Y-39140000D03*
D13*
X103580000Y-39140000D03*
X102310000Y-39140000D03*
%TD*%
D12*
%TO.C,R205*%
X16500000Y-31450000D03*
X26660000Y-31450000D03*
%TD*%
%TO.C,R409*%
X48062000Y-77845000D03*
X58222000Y-77845000D03*
%TD*%
D14*
%TO.C,Q303*%
X99350000Y-39140000D03*
D13*
X98080000Y-39140000D03*
X96810000Y-39140000D03*
%TD*%
D14*
%TO.C,Q103*%
X89730000Y-92280000D03*
D13*
X91000000Y-92280000D03*
X92270000Y-92280000D03*
%TD*%
D15*
%TO.C,REF\u002A\u002A*%
X19000000Y-19500000D03*
%TD*%
D14*
%TO.C,Q401*%
X44992000Y-79345000D03*
D13*
X43722000Y-79345000D03*
X42452000Y-79345000D03*
%TD*%
D12*
%TO.C,R308*%
X108080000Y-23920000D03*
X108080000Y-34080000D03*
%TD*%
D14*
%TO.C,Q403*%
X50492000Y-71485000D03*
D13*
X49222000Y-71485000D03*
X47952000Y-71485000D03*
%TD*%
D12*
%TO.C,R106*%
X65840000Y-87500000D03*
X76000000Y-87500000D03*
%TD*%
%TO.C,R105*%
X112500000Y-85160000D03*
X112500000Y-75000000D03*
%TD*%
D14*
%TO.C,Q203*%
X50350000Y-39140000D03*
D13*
X49080000Y-39140000D03*
X47810000Y-39140000D03*
%TD*%
D12*
%TO.C,R309*%
X96920000Y-45500000D03*
X107080000Y-45500000D03*
%TD*%
%TO.C,R302*%
X65500000Y-41450000D03*
X75660000Y-41450000D03*
%TD*%
%TO.C,R312*%
X96920000Y-50000000D03*
X107080000Y-50000000D03*
%TD*%
D14*
%TO.C,Q307*%
X93850000Y-26500000D03*
D13*
X92580000Y-26500000D03*
X91310000Y-26500000D03*
%TD*%
D12*
%TO.C,R404*%
X16562000Y-68795000D03*
X26722000Y-68795000D03*
%TD*%
D14*
%TO.C,Q201*%
X44850000Y-47000000D03*
D13*
X43580000Y-47000000D03*
X42310000Y-47000000D03*
%TD*%
D14*
%TO.C,Q306*%
X99580000Y-33000000D03*
D13*
X98310000Y-33000000D03*
X97040000Y-33000000D03*
%TD*%
D11*
%TO.C,GND*%
X28500000Y-92920000D03*
%TD*%
%TO.C,DATA_IN*%
X63000000Y-93000000D03*
D10*
X60460000Y-93000000D03*
X57920000Y-93000000D03*
X55380000Y-93000000D03*
%TD*%
D15*
%TO.C,REF\u002A\u002A*%
X19000000Y-92420000D03*
%TD*%
D14*
%TO.C,Q308*%
X99580000Y-26500000D03*
D13*
X98310000Y-26500000D03*
X97040000Y-26500000D03*
%TD*%
D14*
%TO.C,Q102*%
X96230000Y-92280000D03*
D13*
X97500000Y-92280000D03*
X98770000Y-92280000D03*
%TD*%
D12*
%TO.C,R206*%
X29420000Y-41500000D03*
X39580000Y-41500000D03*
%TD*%
D14*
%TO.C,Q406*%
X50722000Y-65345000D03*
D13*
X49452000Y-65345000D03*
X48182000Y-65345000D03*
%TD*%
D12*
%TO.C,R403*%
X16642000Y-58845000D03*
X26802000Y-58845000D03*
%TD*%
%TO.C,R407*%
X29562000Y-68845000D03*
X39722000Y-68845000D03*
%TD*%
D14*
%TO.C,Q402*%
X55992000Y-71485000D03*
D13*
X54722000Y-71485000D03*
X53452000Y-71485000D03*
%TD*%
D14*
%TO.C,Q407*%
X44992000Y-58845000D03*
D13*
X43722000Y-58845000D03*
X42452000Y-58845000D03*
%TD*%
D14*
%TO.C,Q301*%
X93850000Y-47000000D03*
D13*
X92580000Y-47000000D03*
X91310000Y-47000000D03*
%TD*%
D14*
%TO.C,Q202*%
X55850000Y-39140000D03*
D13*
X54580000Y-39140000D03*
X53310000Y-39140000D03*
%TD*%
D12*
%TO.C,R303*%
X65500000Y-26500000D03*
X75660000Y-26500000D03*
%TD*%
%TO.C,R103*%
X112500000Y-72580000D03*
X112500000Y-62420000D03*
%TD*%
%TO.C,R306*%
X78420000Y-41500000D03*
X88580000Y-41500000D03*
%TD*%
%TO.C,R202*%
X16500000Y-41450000D03*
X26660000Y-41450000D03*
%TD*%
%TO.C,R203*%
X16500000Y-26500000D03*
X26660000Y-26500000D03*
%TD*%
D14*
%TO.C,Q208*%
X50580000Y-26500000D03*
D13*
X49310000Y-26500000D03*
X48040000Y-26500000D03*
%TD*%
D12*
%TO.C,R311*%
X103080000Y-34000000D03*
X103080000Y-23840000D03*
%TD*%
D11*
%TO.C,+5V*%
X24500000Y-92920000D03*
%TD*%
D12*
%TO.C,R401*%
X29642000Y-78845000D03*
X39802000Y-78845000D03*
%TD*%
%TO.C,R104*%
X65920000Y-82500000D03*
X76080000Y-82500000D03*
%TD*%
%TO.C,R211*%
X54080000Y-34000000D03*
X54080000Y-23840000D03*
%TD*%
%TO.C,R408*%
X59222000Y-56265000D03*
X59222000Y-66425000D03*
%TD*%
%TO.C,R310*%
X78420000Y-31500000D03*
X88580000Y-31500000D03*
%TD*%
D14*
%TO.C,Q405*%
X44992000Y-65345000D03*
D13*
X43722000Y-65345000D03*
X42452000Y-65345000D03*
%TD*%
D14*
%TO.C,Q304*%
X93850000Y-39140000D03*
D13*
X92580000Y-39140000D03*
X91310000Y-39140000D03*
%TD*%
D12*
%TO.C,R210*%
X29420000Y-31500000D03*
X39580000Y-31500000D03*
%TD*%
%TO.C,R402*%
X16642000Y-73795000D03*
X26802000Y-73795000D03*
%TD*%
%TO.C,R405*%
X16642000Y-63795000D03*
X26802000Y-63795000D03*
%TD*%
M02*
