%TF.GenerationSoftware,KiCad,Pcbnew,9.0.7*%
%TF.CreationDate,2026-01-15T13:11:20+00:00*%
%TF.ProjectId,reg,7265672e-6b69-4636-9164-5f7063625858,rev?*%
%TF.SameCoordinates,Original*%
%TF.FileFunction,Copper,L1,Top*%
%TF.FilePolarity,Positive*%
%FSLAX46Y46*%
G04 Gerber Fmt 4.6, Leading zero omitted, Abs format (unit mm)*
G04 Created by KiCad (PCBNEW 9.0.7) date 2026-01-15 13:11:20*
%MOMM*%
%LPD*%
G01*
G04 APERTURE LIST*
G04 Aperture macros list*
%AMRoundRect*
0 Rectangle with rounded corners*
0 $1 Rounding radius*
0 $2 $3 $4 $5 $6 $7 $8 $9 X,Y pos of 4 corners*
0 Add a 4 corners polygon primitive as box body*
4,1,4,$2,$3,$4,$5,$6,$7,$8,$9,$2,$3,0*
0 Add four circle primitives for the rounded corners*
1,1,$1+$1,$2,$3*
1,1,$1+$1,$4,$5*
1,1,$1+$1,$6,$7*
1,1,$1+$1,$8,$9*
0 Add four rect primitives between the rounded corners*
20,1,$1+$1,$2,$3,$4,$5,0*
20,1,$1+$1,$4,$5,$6,$7,0*
20,1,$1+$1,$6,$7,$8,$9,0*
20,1,$1+$1,$8,$9,$2,$3,0*%
G04 Aperture macros list end*
%TA.AperFunction,SMDPad,CuDef*%
%ADD10RoundRect,0.250000X-0.262500X-0.450000X0.262500X-0.450000X0.262500X0.450000X-0.262500X0.450000X0*%
%TD*%
%TA.AperFunction,ComponentPad*%
%ADD11R,1.050000X1.500000*%
%TD*%
%TA.AperFunction,ComponentPad*%
%ADD12O,1.050000X1.500000*%
%TD*%
%TA.AperFunction,ComponentPad*%
%ADD13R,1.700000X1.700000*%
%TD*%
%TA.AperFunction,ComponentPad*%
%ADD14C,1.700000*%
%TD*%
%TA.AperFunction,ComponentPad*%
%ADD15C,1.600000*%
%TD*%
%TA.AperFunction,ViaPad*%
%ADD16C,0.600000*%
%TD*%
%TA.AperFunction,Conductor*%
%ADD17C,0.200000*%
%TD*%
G04 APERTURE END LIST*
D10*
%TO.P,R407,1*%
%TO.N,+5V*%
X71537051Y-44289023D03*
%TO.P,R407,2*%
%TO.N,Net-(Q404-C)*%
X73362051Y-44289023D03*
%TD*%
D11*
%TO.P,Q706,1,E*%
%TO.N,GND*%
X61198610Y-62567889D03*
D12*
%TO.P,Q706,2,B*%
%TO.N,Net-(Q706-B)*%
X59928610Y-62567889D03*
%TO.P,Q706,3,C*%
%TO.N,Net-(Q705-E)*%
X58658610Y-62567889D03*
%TD*%
D10*
%TO.P,R903,1*%
%TO.N,Net-(Q901-C)*%
X107738518Y-73599800D03*
%TO.P,R903,2*%
%TO.N,Net-(Q904-B)*%
X109563518Y-73599800D03*
%TD*%
%TO.P,R509,1*%
%TO.N,Net-(Q507-C)*%
X107834772Y-31380819D03*
%TO.P,R509,2*%
%TO.N,Net-(Q506-B)*%
X109659772Y-31380819D03*
%TD*%
D11*
%TO.P,Q804,1,E*%
%TO.N,Net-(Q802-E)*%
X83646786Y-77668454D03*
D12*
%TO.P,Q804,2,B*%
%TO.N,Net-(Q804-B)*%
X82376786Y-77668454D03*
%TO.P,Q804,3,C*%
%TO.N,Net-(Q804-C)*%
X81106786Y-77668454D03*
%TD*%
D11*
%TO.P,Q608,1,E*%
%TO.N,GND*%
X38481392Y-72768489D03*
D12*
%TO.P,Q608,2,B*%
%TO.N,Net-(Q608-B)*%
X37211392Y-72768489D03*
%TO.P,Q608,3,C*%
%TO.N,Net-(Q607-E)*%
X35941392Y-72768489D03*
%TD*%
D10*
%TO.P,R807,1*%
%TO.N,+5V*%
X71450440Y-74350943D03*
%TO.P,R807,2*%
%TO.N,Net-(Q804-C)*%
X73275440Y-74350943D03*
%TD*%
%TO.P,R505,1*%
%TO.N,WRITE_EN*%
X93362618Y-30189977D03*
%TO.P,R505,2*%
%TO.N,Net-(Q503-B)*%
X95187618Y-30189977D03*
%TD*%
D11*
%TO.P,Q411,1,E*%
%TO.N,GND*%
X83719551Y-27473136D03*
D12*
%TO.P,Q411,2,B*%
%TO.N,Net-(Q411-B)*%
X82449551Y-27473136D03*
%TO.P,Q411,3,C*%
%TO.N,Net-(Q411-C)*%
X81179551Y-27473136D03*
%TD*%
D10*
%TO.P,R319,1*%
%TO.N,NREAD_EN*%
X49100733Y-26268489D03*
%TO.P,R319,2*%
%TO.N,Net-(Q312-B)*%
X50925733Y-26268489D03*
%TD*%
D11*
%TO.P,Q705,1,E*%
%TO.N,Net-(Q705-E)*%
X55698610Y-62567889D03*
D12*
%TO.P,Q705,2,B*%
%TO.N,Net-(Q705-B)*%
X54428610Y-62567889D03*
%TO.P,Q705,3,C*%
%TO.N,Net-(Q705-C)*%
X53158610Y-62567889D03*
%TD*%
D11*
%TO.P,Q510,1,E*%
%TO.N,GND*%
X105517272Y-37380819D03*
D12*
%TO.P,Q510,2,B*%
%TO.N,Net-(Q510-B)*%
X104247272Y-37380819D03*
%TO.P,Q510,3,C*%
%TO.N,/DFlipFlop3/Q*%
X102977272Y-37380819D03*
%TD*%
D11*
%TO.P,Q205,1,E*%
%TO.N,Net-(Q205-E)*%
X32880375Y-32473136D03*
D12*
%TO.P,Q205,2,B*%
%TO.N,Net-(Q205-B)*%
X31610375Y-32473136D03*
%TO.P,Q205,3,C*%
%TO.N,Net-(Q205-C)*%
X30340375Y-32473136D03*
%TD*%
D10*
%TO.P,R713,1*%
%TO.N,+5V*%
X49016110Y-68383776D03*
%TO.P,R713,2*%
%TO.N,Net-(Q707-C)*%
X50841110Y-68383776D03*
%TD*%
%TO.P,R616,1*%
%TO.N,Net-(Q612-C)*%
X40798892Y-65775600D03*
%TO.P,R616,2*%
%TO.N,Net-(Q610-B)*%
X42623892Y-65775600D03*
%TD*%
D11*
%TO.P,Q605,1,E*%
%TO.N,Net-(Q605-E)*%
X32981392Y-62768489D03*
D12*
%TO.P,Q605,2,B*%
%TO.N,Net-(Q605-B)*%
X31711392Y-62768489D03*
%TO.P,Q605,3,C*%
%TO.N,Net-(Q605-C)*%
X30441392Y-62768489D03*
%TD*%
D11*
%TO.P,Q210,1,E*%
%TO.N,GND*%
X38380375Y-37473136D03*
D12*
%TO.P,Q210,2,B*%
%TO.N,Net-(Q210-B)*%
X37110375Y-37473136D03*
%TO.P,Q210,3,C*%
%TO.N,/DFlipFlop/Q*%
X35840375Y-37473136D03*
%TD*%
D10*
%TO.P,R719,1*%
%TO.N,NREAD_EN*%
X49047951Y-56364242D03*
%TO.P,R719,2*%
%TO.N,Net-(Q712-B)*%
X50872951Y-56364242D03*
%TD*%
%TO.P,R312,1*%
%TO.N,Net-(Q305-C)*%
X63568892Y-41472136D03*
%TO.P,R312,2*%
%TO.N,Net-(Q308-B)*%
X65393892Y-41472136D03*
%TD*%
%TO.P,R712,1*%
%TO.N,Net-(Q705-C)*%
X63516110Y-71567889D03*
%TO.P,R712,2*%
%TO.N,Net-(Q708-B)*%
X65341110Y-71567889D03*
%TD*%
%TO.P,R203,1*%
%TO.N,Net-(Q201-C)*%
X40677314Y-43520988D03*
%TO.P,R203,2*%
%TO.N,Net-(Q204-B)*%
X42502314Y-43520988D03*
%TD*%
D13*
%TO.P,GND,1,Pin_1*%
%TO.N,GND*%
X30500000Y-94500000D03*
%TD*%
D11*
%TO.P,Q901,1,E*%
%TO.N,GND*%
X110941579Y-57551948D03*
D12*
%TO.P,Q901,2,B*%
%TO.N,Net-(Q901-B)*%
X109671579Y-57551948D03*
%TO.P,Q901,3,C*%
%TO.N,Net-(Q901-C)*%
X108401579Y-57551948D03*
%TD*%
D11*
%TO.P,Q306,1,E*%
%TO.N,GND*%
X61251392Y-32472136D03*
D12*
%TO.P,Q306,2,B*%
%TO.N,Net-(Q306-B)*%
X59981392Y-32472136D03*
%TO.P,Q306,3,C*%
%TO.N,Net-(Q305-E)*%
X58711392Y-32472136D03*
%TD*%
D11*
%TO.P,Q710,1,E*%
%TO.N,GND*%
X61198610Y-67567889D03*
D12*
%TO.P,Q710,2,B*%
%TO.N,Net-(Q710-B)*%
X59928610Y-67567889D03*
%TO.P,Q710,3,C*%
%TO.N,/DFlipFlop5/Q*%
X58658610Y-67567889D03*
%TD*%
D10*
%TO.P,R720,1*%
%TO.N,NREAD_EN*%
X49043956Y-58377047D03*
%TO.P,R720,2*%
%TO.N,Net-(Q711-B)*%
X50868956Y-58377047D03*
%TD*%
D13*
%TO.P,DATA_OUT,1,Pin_1*%
%TO.N,/DFlipFlop/Q*%
X18000000Y-44000000D03*
D14*
%TO.P,DATA_OUT,2,Pin_2*%
%TO.N,/DFlipFlop1/Q*%
X18000000Y-46540000D03*
%TO.P,DATA_OUT,3,Pin_3*%
%TO.N,/DFlipFlop2/Q*%
X18000000Y-49080000D03*
%TO.P,DATA_OUT,4,Pin_4*%
%TO.N,/DFlipFlop3/Q*%
X18000000Y-51620000D03*
%TO.P,DATA_OUT,5,Pin_5*%
%TO.N,/DFlipFlop4/Q*%
X18000000Y-54160000D03*
%TO.P,DATA_OUT,6,Pin_6*%
%TO.N,/DFlipFlop5/Q*%
X18000000Y-56700000D03*
%TO.P,DATA_OUT,7,Pin_7*%
%TO.N,/DFlipFlop6/Q*%
X18000000Y-59240000D03*
%TO.P,DATA_OUT,8,Pin_8*%
%TO.N,/DFlipFlop7/Q*%
X18000000Y-61780000D03*
%TD*%
D10*
%TO.P,R412,1*%
%TO.N,Net-(Q405-C)*%
X86037051Y-41473136D03*
%TO.P,R412,2*%
%TO.N,Net-(Q408-B)*%
X87862051Y-41473136D03*
%TD*%
%TO.P,R901,1*%
%TO.N,+5V*%
X93259079Y-72367835D03*
%TO.P,R901,2*%
%TO.N,Net-(Q901-C)*%
X95084079Y-72367835D03*
%TD*%
%TO.P,R513,1*%
%TO.N,+5V*%
X93334772Y-38196706D03*
%TO.P,R513,2*%
%TO.N,Net-(Q507-C)*%
X95159772Y-38196706D03*
%TD*%
D11*
%TO.P,Q202,1,E*%
%TO.N,Net-(Q202-E)*%
X32880375Y-47613136D03*
D12*
%TO.P,Q202,2,B*%
%TO.N,Net-(Q202-B)*%
X31610375Y-47613136D03*
%TO.P,Q202,3,C*%
%TO.N,Net-(Q202-C)*%
X30340375Y-47613136D03*
%TD*%
D10*
%TO.P,R706,1*%
%TO.N,+5V*%
X49016110Y-70383776D03*
%TO.P,R706,2*%
%TO.N,Net-(Q702-C)*%
X50841110Y-70383776D03*
%TD*%
%TO.P,R908,1*%
%TO.N,Net-(Q902-C)*%
X93259079Y-62367835D03*
%TO.P,R908,2*%
%TO.N,Net-(Q905-B)*%
X95084079Y-62367835D03*
%TD*%
%TO.P,R510,1*%
%TO.N,+5V*%
X93334772Y-34196706D03*
%TO.P,R510,2*%
%TO.N,Net-(Q505-C)*%
X95159772Y-34196706D03*
%TD*%
D11*
%TO.P,Q410,1,E*%
%TO.N,GND*%
X83719551Y-37473136D03*
D12*
%TO.P,Q410,2,B*%
%TO.N,Net-(Q410-B)*%
X82449551Y-37473136D03*
%TO.P,Q410,3,C*%
%TO.N,/DFlipFlop2/Q*%
X81179551Y-37473136D03*
%TD*%
D11*
%TO.P,Q203,1,E*%
%TO.N,GND*%
X43909856Y-47606534D03*
D12*
%TO.P,Q203,2,B*%
%TO.N,Net-(Q203-B)*%
X42639856Y-47606534D03*
%TO.P,Q203,3,C*%
%TO.N,Net-(Q202-E)*%
X41369856Y-47606534D03*
%TD*%
D10*
%TO.P,R808,1*%
%TO.N,Net-(Q802-C)*%
X71450440Y-62350943D03*
%TO.P,R808,2*%
%TO.N,Net-(Q805-B)*%
X73275440Y-62350943D03*
%TD*%
%TO.P,R102,1*%
%TO.N,Net-(C101-Pad2)*%
X78369678Y-90860409D03*
%TO.P,R102,2*%
%TO.N,Net-(Q101-B)*%
X80194678Y-90860409D03*
%TD*%
D11*
%TO.P,Q906,1,E*%
%TO.N,GND*%
X105441579Y-62551948D03*
D12*
%TO.P,Q906,2,B*%
%TO.N,Net-(Q906-B)*%
X104171579Y-62551948D03*
%TO.P,Q906,3,C*%
%TO.N,Net-(Q905-E)*%
X102901579Y-62551948D03*
%TD*%
D11*
%TO.P,Q507,1,E*%
%TO.N,Net-(Q507-E)*%
X100017272Y-42380819D03*
D12*
%TO.P,Q507,2,B*%
%TO.N,Net-(Q507-B)*%
X98747272Y-42380819D03*
%TO.P,Q507,3,C*%
%TO.N,Net-(Q507-C)*%
X97477272Y-42380819D03*
%TD*%
D10*
%TO.P,R610,1*%
%TO.N,+5V*%
X26298892Y-64584376D03*
%TO.P,R610,2*%
%TO.N,Net-(Q605-C)*%
X28123892Y-64584376D03*
%TD*%
D11*
%TO.P,Q509,1,E*%
%TO.N,/DFlipFlop3/Q*%
X100017272Y-37380819D03*
D12*
%TO.P,Q509,2,B*%
%TO.N,Net-(Q509-B)*%
X98747272Y-37380819D03*
%TO.P,Q509,3,C*%
%TO.N,Net-(Q509-C)*%
X97477272Y-37380819D03*
%TD*%
D10*
%TO.P,R810,1*%
%TO.N,+5V*%
X71450440Y-64350943D03*
%TO.P,R810,2*%
%TO.N,Net-(Q805-C)*%
X73275440Y-64350943D03*
%TD*%
%TO.P,R209,1*%
%TO.N,Net-(Q207-C)*%
X40697875Y-31473136D03*
%TO.P,R209,2*%
%TO.N,Net-(Q206-B)*%
X42522875Y-31473136D03*
%TD*%
D11*
%TO.P,Q801,1,E*%
%TO.N,GND*%
X89132940Y-57535056D03*
D12*
%TO.P,Q801,2,B*%
%TO.N,Net-(Q801-B)*%
X87862940Y-57535056D03*
%TO.P,Q801,3,C*%
%TO.N,Net-(Q801-C)*%
X86592940Y-57535056D03*
%TD*%
D10*
%TO.P,R614,1*%
%TO.N,+5V*%
X26298892Y-66584376D03*
%TO.P,R614,2*%
%TO.N,Net-(Q609-C)*%
X28123892Y-66584376D03*
%TD*%
%TO.P,R809,1*%
%TO.N,Net-(Q807-C)*%
X85950440Y-61535056D03*
%TO.P,R809,2*%
%TO.N,Net-(Q806-B)*%
X87775440Y-61535056D03*
%TD*%
D11*
%TO.P,Q101,1,E*%
%TO.N,Net-(Q101-E)*%
X101230000Y-93360000D03*
D12*
%TO.P,Q101,2,B*%
%TO.N,Net-(Q101-B)*%
X102500000Y-93360000D03*
%TO.P,Q101,3,C*%
%TO.N,Net-(Q101-C)*%
X103770000Y-93360000D03*
%TD*%
D10*
%TO.P,R310,1*%
%TO.N,+5V*%
X49068892Y-34288023D03*
%TO.P,R310,2*%
%TO.N,Net-(Q305-C)*%
X50893892Y-34288023D03*
%TD*%
%TO.P,R402,1*%
%TO.N,/DFlipFlop2/D*%
X71537453Y-48301610D03*
%TO.P,R402,2*%
%TO.N,Net-(Q401-B)*%
X73362453Y-48301610D03*
%TD*%
%TO.P,R210,1*%
%TO.N,+5V*%
X26197875Y-34289023D03*
%TO.P,R210,2*%
%TO.N,Net-(Q205-C)*%
X28022875Y-34289023D03*
%TD*%
D11*
%TO.P,Q601,1,E*%
%TO.N,GND*%
X43981392Y-57768489D03*
D12*
%TO.P,Q601,2,B*%
%TO.N,Net-(Q601-B)*%
X42711392Y-57768489D03*
%TO.P,Q601,3,C*%
%TO.N,Net-(Q601-C)*%
X41441392Y-57768489D03*
%TD*%
D10*
%TO.P,R611,1*%
%TO.N,Net-(Q604-C)*%
X26309608Y-76581328D03*
%TO.P,R611,2*%
%TO.N,Net-(Q607-B)*%
X28134608Y-76581328D03*
%TD*%
D11*
%TO.P,Q212,1,E*%
%TO.N,GND*%
X32880375Y-27473136D03*
D12*
%TO.P,Q212,2,B*%
%TO.N,Net-(Q212-B)*%
X31610375Y-27473136D03*
%TO.P,Q212,3,C*%
%TO.N,Net-(Q212-C)*%
X30340375Y-27473136D03*
%TD*%
D10*
%TO.P,R106,1*%
%TO.N,+5V*%
X74457178Y-94360409D03*
%TO.P,R106,2*%
%TO.N,WRITE_EN*%
X76282178Y-94360409D03*
%TD*%
%TO.P,R107,1*%
%TO.N,+5V*%
X66531501Y-94366601D03*
%TO.P,R107,2*%
%TO.N,NREAD_EN*%
X68356501Y-94366601D03*
%TD*%
%TO.P,R711,1*%
%TO.N,Net-(Q704-C)*%
X49026826Y-76380728D03*
%TO.P,R711,2*%
%TO.N,Net-(Q707-B)*%
X50851826Y-76380728D03*
%TD*%
%TO.P,R208,1*%
%TO.N,Net-(Q202-C)*%
X26197875Y-32289023D03*
%TO.P,R208,2*%
%TO.N,Net-(Q205-B)*%
X28022875Y-32289023D03*
%TD*%
%TO.P,R206,1*%
%TO.N,+5V*%
X26197875Y-40289023D03*
%TO.P,R206,2*%
%TO.N,Net-(Q202-C)*%
X28022875Y-40289023D03*
%TD*%
%TO.P,R703,1*%
%TO.N,Net-(Q701-C)*%
X63495549Y-73615741D03*
%TO.P,R703,2*%
%TO.N,Net-(Q704-B)*%
X65320549Y-73615741D03*
%TD*%
%TO.P,R318,1*%
%TO.N,Net-(Q307-C)*%
X63568892Y-33479247D03*
%TO.P,R318,2*%
%TO.N,Net-(Q312-C)*%
X65393892Y-33479247D03*
%TD*%
%TO.P,R913,1*%
%TO.N,+5V*%
X93259079Y-68367835D03*
%TO.P,R913,2*%
%TO.N,Net-(Q907-C)*%
X95084079Y-68367835D03*
%TD*%
%TO.P,R316,1*%
%TO.N,Net-(Q312-C)*%
X63568892Y-35479247D03*
%TO.P,R316,2*%
%TO.N,Net-(Q310-B)*%
X65393892Y-35479247D03*
%TD*%
%TO.P,R811,1*%
%TO.N,Net-(Q804-C)*%
X71461156Y-76347895D03*
%TO.P,R811,2*%
%TO.N,Net-(Q807-B)*%
X73286156Y-76347895D03*
%TD*%
D11*
%TO.P,Q102,1,E*%
%TO.N,GND*%
X95230000Y-93360000D03*
D12*
%TO.P,Q102,2,B*%
%TO.N,Net-(Q102-B)*%
X96500000Y-93360000D03*
%TO.P,Q102,3,C*%
%TO.N,Net-(Q101-E)*%
X97770000Y-93360000D03*
%TD*%
D10*
%TO.P,R705,1*%
%TO.N,WRITE_EN*%
X49043956Y-60377047D03*
%TO.P,R705,2*%
%TO.N,Net-(Q703-B)*%
X50868956Y-60377047D03*
%TD*%
%TO.P,R906,1*%
%TO.N,+5V*%
X93259079Y-70367835D03*
%TO.P,R906,2*%
%TO.N,Net-(Q902-C)*%
X95084079Y-70367835D03*
%TD*%
%TO.P,R410,1*%
%TO.N,+5V*%
X71537051Y-34289023D03*
%TO.P,R410,2*%
%TO.N,Net-(Q405-C)*%
X73362051Y-34289023D03*
%TD*%
%TO.P,R507,1*%
%TO.N,+5V*%
X93334772Y-44196706D03*
%TO.P,R507,2*%
%TO.N,Net-(Q504-C)*%
X95159772Y-44196706D03*
%TD*%
D11*
%TO.P,Q810,1,E*%
%TO.N,GND*%
X83632940Y-67535056D03*
D12*
%TO.P,Q810,2,B*%
%TO.N,Net-(Q810-B)*%
X82362940Y-67535056D03*
%TO.P,Q810,3,C*%
%TO.N,/DFlipFlop6/Q*%
X81092940Y-67535056D03*
%TD*%
D10*
%TO.P,R607,1*%
%TO.N,+5V*%
X26298892Y-74584376D03*
%TO.P,R607,2*%
%TO.N,Net-(Q604-C)*%
X28123892Y-74584376D03*
%TD*%
D11*
%TO.P,Q812,1,E*%
%TO.N,GND*%
X78132940Y-57535056D03*
D12*
%TO.P,Q812,2,B*%
%TO.N,Net-(Q812-B)*%
X76862940Y-57535056D03*
%TO.P,Q812,3,C*%
%TO.N,Net-(Q812-C)*%
X75592940Y-57535056D03*
%TD*%
D10*
%TO.P,R303,1*%
%TO.N,Net-(Q301-C)*%
X63548331Y-43519988D03*
%TO.P,R303,2*%
%TO.N,Net-(Q304-B)*%
X65373331Y-43519988D03*
%TD*%
D15*
%TO.P,C101,1*%
%TO.N,Net-(J101-Pin_1)*%
X62886223Y-90287423D03*
%TO.P,C101,2*%
%TO.N,Net-(C101-Pad2)*%
X67886223Y-90287423D03*
%TD*%
D10*
%TO.P,R411,1*%
%TO.N,Net-(Q404-C)*%
X71547767Y-46285975D03*
%TO.P,R411,2*%
%TO.N,Net-(Q407-B)*%
X73372767Y-46285975D03*
%TD*%
%TO.P,R305,1*%
%TO.N,WRITE_EN*%
X49096738Y-30281294D03*
%TO.P,R305,2*%
%TO.N,Net-(Q303-B)*%
X50921738Y-30281294D03*
%TD*%
D11*
%TO.P,Q802,1,E*%
%TO.N,Net-(Q802-E)*%
X78132940Y-77675056D03*
D12*
%TO.P,Q802,2,B*%
%TO.N,Net-(Q802-B)*%
X76862940Y-77675056D03*
%TO.P,Q802,3,C*%
%TO.N,Net-(Q802-C)*%
X75592940Y-77675056D03*
%TD*%
D11*
%TO.P,Q908,1,E*%
%TO.N,GND*%
X105441579Y-72551948D03*
D12*
%TO.P,Q908,2,B*%
%TO.N,Net-(Q908-B)*%
X104171579Y-72551948D03*
%TO.P,Q908,3,C*%
%TO.N,Net-(Q907-E)*%
X102901579Y-72551948D03*
%TD*%
D11*
%TO.P,Q707,1,E*%
%TO.N,Net-(Q707-E)*%
X55698610Y-72567889D03*
D12*
%TO.P,Q707,2,B*%
%TO.N,Net-(Q707-B)*%
X54428610Y-72567889D03*
%TO.P,Q707,3,C*%
%TO.N,Net-(Q707-C)*%
X53158610Y-72567889D03*
%TD*%
D10*
%TO.P,R414,1*%
%TO.N,+5V*%
X71537051Y-36289023D03*
%TO.P,R414,2*%
%TO.N,Net-(Q409-C)*%
X73362051Y-36289023D03*
%TD*%
D11*
%TO.P,Q512,1,E*%
%TO.N,GND*%
X100017272Y-27380819D03*
D12*
%TO.P,Q512,2,B*%
%TO.N,Net-(Q512-B)*%
X98747272Y-27380819D03*
%TO.P,Q512,3,C*%
%TO.N,Net-(Q512-C)*%
X97477272Y-27380819D03*
%TD*%
D11*
%TO.P,Q302,1,E*%
%TO.N,Net-(Q302-E)*%
X55751392Y-47612136D03*
D12*
%TO.P,Q302,2,B*%
%TO.N,Net-(Q302-B)*%
X54481392Y-47612136D03*
%TO.P,Q302,3,C*%
%TO.N,Net-(Q302-C)*%
X53211392Y-47612136D03*
%TD*%
D10*
%TO.P,R103,1*%
%TO.N,Net-(J102-Pin_1)*%
X74457178Y-90860409D03*
%TO.P,R103,2*%
%TO.N,Net-(Q102-B)*%
X76282178Y-90860409D03*
%TD*%
%TO.P,R813,1*%
%TO.N,+5V*%
X71450440Y-68350943D03*
%TO.P,R813,2*%
%TO.N,Net-(Q807-C)*%
X73275440Y-68350943D03*
%TD*%
%TO.P,R806,1*%
%TO.N,+5V*%
X71450440Y-70350943D03*
%TO.P,R806,2*%
%TO.N,Net-(Q802-C)*%
X73275440Y-70350943D03*
%TD*%
%TO.P,R805,1*%
%TO.N,WRITE_EN*%
X71478286Y-60344214D03*
%TO.P,R805,2*%
%TO.N,Net-(Q803-B)*%
X73303286Y-60344214D03*
%TD*%
%TO.P,R802,1*%
%TO.N,/DFlipFlop6/D*%
X71450842Y-78363530D03*
%TO.P,R802,2*%
%TO.N,Net-(Q801-B)*%
X73275842Y-78363530D03*
%TD*%
%TO.P,R202,1*%
%TO.N,/DFlipFlop/D*%
X26198277Y-48301610D03*
%TO.P,R202,2*%
%TO.N,Net-(Q201-B)*%
X28023277Y-48301610D03*
%TD*%
D11*
%TO.P,Q602,1,E*%
%TO.N,Net-(Q602-E)*%
X32981392Y-77908489D03*
D12*
%TO.P,Q602,2,B*%
%TO.N,Net-(Q602-B)*%
X31711392Y-77908489D03*
%TO.P,Q602,3,C*%
%TO.N,Net-(Q602-C)*%
X30441392Y-77908489D03*
%TD*%
D10*
%TO.P,R416,1*%
%TO.N,Net-(Q412-C)*%
X86037051Y-35480247D03*
%TO.P,R416,2*%
%TO.N,Net-(Q410-B)*%
X87862051Y-35480247D03*
%TD*%
D11*
%TO.P,Q806,1,E*%
%TO.N,GND*%
X83632940Y-62535056D03*
D12*
%TO.P,Q806,2,B*%
%TO.N,Net-(Q806-B)*%
X82362940Y-62535056D03*
%TO.P,Q806,3,C*%
%TO.N,Net-(Q805-E)*%
X81092940Y-62535056D03*
%TD*%
D10*
%TO.P,R619,1*%
%TO.N,NREAD_EN*%
X26330733Y-56564842D03*
%TO.P,R619,2*%
%TO.N,Net-(Q612-B)*%
X28155733Y-56564842D03*
%TD*%
%TO.P,R408,1*%
%TO.N,Net-(Q402-C)*%
X71537051Y-32289023D03*
%TO.P,R408,2*%
%TO.N,Net-(Q405-B)*%
X73362051Y-32289023D03*
%TD*%
%TO.P,R201,1*%
%TO.N,+5V*%
X26197875Y-42289023D03*
%TO.P,R201,2*%
%TO.N,Net-(Q201-C)*%
X28022875Y-42289023D03*
%TD*%
D11*
%TO.P,Q301,1,E*%
%TO.N,GND*%
X66751392Y-27472136D03*
D12*
%TO.P,Q301,2,B*%
%TO.N,Net-(Q301-B)*%
X65481392Y-27472136D03*
%TO.P,Q301,3,C*%
%TO.N,Net-(Q301-C)*%
X64211392Y-27472136D03*
%TD*%
D11*
%TO.P,Q702,1,E*%
%TO.N,Net-(Q702-E)*%
X55698610Y-77707889D03*
D12*
%TO.P,Q702,2,B*%
%TO.N,Net-(Q702-B)*%
X54428610Y-77707889D03*
%TO.P,Q702,3,C*%
%TO.N,Net-(Q702-C)*%
X53158610Y-77707889D03*
%TD*%
D11*
%TO.P,Q404,1,E*%
%TO.N,Net-(Q402-E)*%
X83733397Y-47606534D03*
D12*
%TO.P,Q404,2,B*%
%TO.N,Net-(Q404-B)*%
X82463397Y-47606534D03*
%TO.P,Q404,3,C*%
%TO.N,Net-(Q404-C)*%
X81193397Y-47606534D03*
%TD*%
D10*
%TO.P,R613,1*%
%TO.N,+5V*%
X26298892Y-68584376D03*
%TO.P,R613,2*%
%TO.N,Net-(Q607-C)*%
X28123892Y-68584376D03*
%TD*%
%TO.P,R818,1*%
%TO.N,Net-(Q807-C)*%
X85950440Y-63542167D03*
%TO.P,R818,2*%
%TO.N,Net-(Q812-C)*%
X87775440Y-63542167D03*
%TD*%
%TO.P,R716,1*%
%TO.N,Net-(Q712-C)*%
X63516110Y-65575000D03*
%TO.P,R716,2*%
%TO.N,Net-(Q710-B)*%
X65341110Y-65575000D03*
%TD*%
D11*
%TO.P,Q703,1,E*%
%TO.N,GND*%
X66728091Y-77701287D03*
D12*
%TO.P,Q703,2,B*%
%TO.N,Net-(Q703-B)*%
X65458091Y-77701287D03*
%TO.P,Q703,3,C*%
%TO.N,Net-(Q702-E)*%
X64188091Y-77701287D03*
%TD*%
D10*
%TO.P,R204,1*%
%TO.N,/DFlipFlop/D*%
X26198277Y-50301610D03*
%TO.P,R204,2*%
%TO.N,Net-(Q202-B)*%
X28023277Y-50301610D03*
%TD*%
D11*
%TO.P,Q505,1,E*%
%TO.N,Net-(Q505-E)*%
X100017272Y-32380819D03*
D12*
%TO.P,Q505,2,B*%
%TO.N,Net-(Q505-B)*%
X98747272Y-32380819D03*
%TO.P,Q505,3,C*%
%TO.N,Net-(Q505-C)*%
X97477272Y-32380819D03*
%TD*%
D10*
%TO.P,R605,1*%
%TO.N,WRITE_EN*%
X26326738Y-60577647D03*
%TO.P,R605,2*%
%TO.N,Net-(Q603-B)*%
X28151738Y-60577647D03*
%TD*%
D11*
%TO.P,Q910,1,E*%
%TO.N,GND*%
X105441579Y-67551948D03*
D12*
%TO.P,Q910,2,B*%
%TO.N,Net-(Q910-B)*%
X104171579Y-67551948D03*
%TO.P,Q910,3,C*%
%TO.N,/DFlipFlop7/Q*%
X102901579Y-67551948D03*
%TD*%
D11*
%TO.P,Q606,1,E*%
%TO.N,GND*%
X38481392Y-62768489D03*
D12*
%TO.P,Q606,2,B*%
%TO.N,Net-(Q606-B)*%
X37211392Y-62768489D03*
%TO.P,Q606,3,C*%
%TO.N,Net-(Q605-E)*%
X35941392Y-62768489D03*
%TD*%
D11*
%TO.P,Q310,1,E*%
%TO.N,GND*%
X61251392Y-37472136D03*
D12*
%TO.P,Q310,2,B*%
%TO.N,Net-(Q310-B)*%
X59981392Y-37472136D03*
%TO.P,Q310,3,C*%
%TO.N,/DFlipFlop1/Q*%
X58711392Y-37472136D03*
%TD*%
D10*
%TO.P,R309,1*%
%TO.N,Net-(Q307-C)*%
X63568892Y-31472136D03*
%TO.P,R309,2*%
%TO.N,Net-(Q306-B)*%
X65393892Y-31472136D03*
%TD*%
%TO.P,R515,1*%
%TO.N,Net-(Q511-C)*%
X107834772Y-39387930D03*
%TO.P,R515,2*%
%TO.N,Net-(Q509-B)*%
X109659772Y-39387930D03*
%TD*%
%TO.P,R602,1*%
%TO.N,/DFlipFlop4/D*%
X26299294Y-78596963D03*
%TO.P,R602,2*%
%TO.N,Net-(Q601-B)*%
X28124294Y-78596963D03*
%TD*%
%TO.P,R511,1*%
%TO.N,Net-(Q504-C)*%
X93345488Y-46193658D03*
%TO.P,R511,2*%
%TO.N,Net-(Q507-B)*%
X95170488Y-46193658D03*
%TD*%
%TO.P,R817,1*%
%TO.N,Net-(Q805-C)*%
X85950440Y-67542167D03*
%TO.P,R817,2*%
%TO.N,Net-(Q811-C)*%
X87775440Y-67542167D03*
%TD*%
D11*
%TO.P,Q610,1,E*%
%TO.N,GND*%
X38481392Y-67768489D03*
D12*
%TO.P,Q610,2,B*%
%TO.N,Net-(Q610-B)*%
X37211392Y-67768489D03*
%TO.P,Q610,3,C*%
%TO.N,/DFlipFlop4/Q*%
X35941392Y-67768489D03*
%TD*%
D10*
%TO.P,R615,1*%
%TO.N,Net-(Q611-C)*%
X40798892Y-69775600D03*
%TO.P,R615,2*%
%TO.N,Net-(Q609-B)*%
X42623892Y-69775600D03*
%TD*%
%TO.P,R910,1*%
%TO.N,+5V*%
X93259079Y-64367835D03*
%TO.P,R910,2*%
%TO.N,Net-(Q905-C)*%
X95084079Y-64367835D03*
%TD*%
D11*
%TO.P,Q511,1,E*%
%TO.N,GND*%
X105517272Y-27380819D03*
D12*
%TO.P,Q511,2,B*%
%TO.N,Net-(Q511-B)*%
X104247272Y-27380819D03*
%TO.P,Q511,3,C*%
%TO.N,Net-(Q511-C)*%
X102977272Y-27380819D03*
%TD*%
D10*
%TO.P,R920,1*%
%TO.N,NREAD_EN*%
X93286925Y-58361106D03*
%TO.P,R920,2*%
%TO.N,Net-(Q911-B)*%
X95111925Y-58361106D03*
%TD*%
D11*
%TO.P,Q209,1,E*%
%TO.N,/DFlipFlop/Q*%
X32880375Y-37473136D03*
D12*
%TO.P,Q209,2,B*%
%TO.N,Net-(Q209-B)*%
X31610375Y-37473136D03*
%TO.P,Q209,3,C*%
%TO.N,Net-(Q209-C)*%
X30340375Y-37473136D03*
%TD*%
D10*
%TO.P,R212,1*%
%TO.N,Net-(Q205-C)*%
X40697875Y-41473136D03*
%TO.P,R212,2*%
%TO.N,Net-(Q208-B)*%
X42522875Y-41473136D03*
%TD*%
D11*
%TO.P,Q712,1,E*%
%TO.N,GND*%
X55698610Y-57567889D03*
D12*
%TO.P,Q712,2,B*%
%TO.N,Net-(Q712-B)*%
X54428610Y-57567889D03*
%TO.P,Q712,3,C*%
%TO.N,Net-(Q712-C)*%
X53158610Y-57567889D03*
%TD*%
D10*
%TO.P,R620,1*%
%TO.N,NREAD_EN*%
X26326738Y-58577647D03*
%TO.P,R620,2*%
%TO.N,Net-(Q611-B)*%
X28151738Y-58577647D03*
%TD*%
%TO.P,R701,1*%
%TO.N,+5V*%
X49016110Y-72383776D03*
%TO.P,R701,2*%
%TO.N,Net-(Q701-C)*%
X50841110Y-72383776D03*
%TD*%
%TO.P,R702,1*%
%TO.N,/DFlipFlop5/D*%
X49016512Y-78396363D03*
%TO.P,R702,2*%
%TO.N,Net-(Q701-B)*%
X50841512Y-78396363D03*
%TD*%
%TO.P,R603,1*%
%TO.N,Net-(Q601-C)*%
X40778331Y-73816341D03*
%TO.P,R603,2*%
%TO.N,Net-(Q604-B)*%
X42603331Y-73816341D03*
%TD*%
%TO.P,R609,1*%
%TO.N,Net-(Q607-C)*%
X40798892Y-61768489D03*
%TO.P,R609,2*%
%TO.N,Net-(Q606-B)*%
X42623892Y-61768489D03*
%TD*%
%TO.P,R608,1*%
%TO.N,Net-(Q602-C)*%
X26298892Y-62584376D03*
%TO.P,R608,2*%
%TO.N,Net-(Q605-B)*%
X28123892Y-62584376D03*
%TD*%
%TO.P,R506,1*%
%TO.N,+5V*%
X93334772Y-40196706D03*
%TO.P,R506,2*%
%TO.N,Net-(Q502-C)*%
X95159772Y-40196706D03*
%TD*%
D11*
%TO.P,Q307,1,E*%
%TO.N,Net-(Q307-E)*%
X55751392Y-42472136D03*
D12*
%TO.P,Q307,2,B*%
%TO.N,Net-(Q307-B)*%
X54481392Y-42472136D03*
%TO.P,Q307,3,C*%
%TO.N,Net-(Q307-C)*%
X53211392Y-42472136D03*
%TD*%
D10*
%TO.P,R819,1*%
%TO.N,NREAD_EN*%
X71482281Y-56331409D03*
%TO.P,R819,2*%
%TO.N,Net-(Q812-B)*%
X73307281Y-56331409D03*
%TD*%
%TO.P,R710,1*%
%TO.N,+5V*%
X49016110Y-64383776D03*
%TO.P,R710,2*%
%TO.N,Net-(Q705-C)*%
X50841110Y-64383776D03*
%TD*%
%TO.P,R918,1*%
%TO.N,Net-(Q907-C)*%
X107759079Y-63559059D03*
%TO.P,R918,2*%
%TO.N,Net-(Q912-C)*%
X109584079Y-63559059D03*
%TD*%
D11*
%TO.P,Q701,1,E*%
%TO.N,GND*%
X66698610Y-57567889D03*
D12*
%TO.P,Q701,2,B*%
%TO.N,Net-(Q701-B)*%
X65428610Y-57567889D03*
%TO.P,Q701,3,C*%
%TO.N,Net-(Q701-C)*%
X64158610Y-57567889D03*
%TD*%
D13*
%TO.P,+5V,1,Pin_1*%
%TO.N,+5V*%
X26000000Y-94500000D03*
%TD*%
D10*
%TO.P,R718,1*%
%TO.N,Net-(Q707-C)*%
X63516110Y-63575000D03*
%TO.P,R718,2*%
%TO.N,Net-(Q712-C)*%
X65341110Y-63575000D03*
%TD*%
%TO.P,R415,1*%
%TO.N,Net-(Q411-C)*%
X86037051Y-39480247D03*
%TO.P,R415,2*%
%TO.N,Net-(Q409-B)*%
X87862051Y-39480247D03*
%TD*%
D11*
%TO.P,Q407,1,E*%
%TO.N,Net-(Q407-E)*%
X78219551Y-42473136D03*
D12*
%TO.P,Q407,2,B*%
%TO.N,Net-(Q407-B)*%
X76949551Y-42473136D03*
%TO.P,Q407,3,C*%
%TO.N,Net-(Q407-C)*%
X75679551Y-42473136D03*
%TD*%
D10*
%TO.P,R714,1*%
%TO.N,+5V*%
X49016110Y-66383776D03*
%TO.P,R714,2*%
%TO.N,Net-(Q709-C)*%
X50841110Y-66383776D03*
%TD*%
D11*
%TO.P,Q208,1,E*%
%TO.N,GND*%
X38380375Y-42473136D03*
D12*
%TO.P,Q208,2,B*%
%TO.N,Net-(Q208-B)*%
X37110375Y-42473136D03*
%TO.P,Q208,3,C*%
%TO.N,Net-(Q207-E)*%
X35840375Y-42473136D03*
%TD*%
D10*
%TO.P,R406,1*%
%TO.N,+5V*%
X71537051Y-40289023D03*
%TO.P,R406,2*%
%TO.N,Net-(Q402-C)*%
X73362051Y-40289023D03*
%TD*%
D11*
%TO.P,Q506,1,E*%
%TO.N,GND*%
X105517272Y-32380819D03*
D12*
%TO.P,Q506,2,B*%
%TO.N,Net-(Q506-B)*%
X104247272Y-32380819D03*
%TO.P,Q506,3,C*%
%TO.N,Net-(Q505-E)*%
X102977272Y-32380819D03*
%TD*%
D10*
%TO.P,R915,1*%
%TO.N,Net-(Q911-C)*%
X107759079Y-69559059D03*
%TO.P,R915,2*%
%TO.N,Net-(Q909-B)*%
X109584079Y-69559059D03*
%TD*%
%TO.P,R617,1*%
%TO.N,Net-(Q605-C)*%
X40798892Y-67775600D03*
%TO.P,R617,2*%
%TO.N,Net-(Q611-C)*%
X42623892Y-67775600D03*
%TD*%
D13*
%TO.P,RD_EN,1,Pin_1*%
%TO.N,Net-(J103-Pin_1)*%
X48500000Y-94500000D03*
%TD*%
D10*
%TO.P,R820,1*%
%TO.N,NREAD_EN*%
X71478286Y-58344214D03*
%TO.P,R820,2*%
%TO.N,Net-(Q811-B)*%
X73303286Y-58344214D03*
%TD*%
%TO.P,R902,1*%
%TO.N,/DFlipFlop7/D*%
X93259481Y-78380422D03*
%TO.P,R902,2*%
%TO.N,Net-(Q901-B)*%
X95084481Y-78380422D03*
%TD*%
D11*
%TO.P,Q408,1,E*%
%TO.N,GND*%
X83719551Y-42473136D03*
D12*
%TO.P,Q408,2,B*%
%TO.N,Net-(Q408-B)*%
X82449551Y-42473136D03*
%TO.P,Q408,3,C*%
%TO.N,Net-(Q407-E)*%
X81179551Y-42473136D03*
%TD*%
D11*
%TO.P,Q206,1,E*%
%TO.N,GND*%
X38380375Y-32473136D03*
D12*
%TO.P,Q206,2,B*%
%TO.N,Net-(Q206-B)*%
X37110375Y-32473136D03*
%TO.P,Q206,3,C*%
%TO.N,Net-(Q205-E)*%
X35840375Y-32473136D03*
%TD*%
D10*
%TO.P,R804,1*%
%TO.N,/DFlipFlop6/D*%
X71450842Y-80363530D03*
%TO.P,R804,2*%
%TO.N,Net-(Q802-B)*%
X73275842Y-80363530D03*
%TD*%
%TO.P,R618,1*%
%TO.N,Net-(Q607-C)*%
X40798892Y-63775600D03*
%TO.P,R618,2*%
%TO.N,Net-(Q612-C)*%
X42623892Y-63775600D03*
%TD*%
D11*
%TO.P,Q903,1,E*%
%TO.N,GND*%
X110971060Y-77685346D03*
D12*
%TO.P,Q903,2,B*%
%TO.N,Net-(Q903-B)*%
X109701060Y-77685346D03*
%TO.P,Q903,3,C*%
%TO.N,Net-(Q902-E)*%
X108431060Y-77685346D03*
%TD*%
D10*
%TO.P,R205,1*%
%TO.N,WRITE_EN*%
X26225721Y-30282294D03*
%TO.P,R205,2*%
%TO.N,Net-(Q203-B)*%
X28050721Y-30282294D03*
%TD*%
%TO.P,R313,1*%
%TO.N,+5V*%
X49068892Y-38288023D03*
%TO.P,R313,2*%
%TO.N,Net-(Q307-C)*%
X50893892Y-38288023D03*
%TD*%
D11*
%TO.P,Q905,1,E*%
%TO.N,Net-(Q905-E)*%
X99941579Y-62551948D03*
D12*
%TO.P,Q905,2,B*%
%TO.N,Net-(Q905-B)*%
X98671579Y-62551948D03*
%TO.P,Q905,3,C*%
%TO.N,Net-(Q905-C)*%
X97401579Y-62551948D03*
%TD*%
D11*
%TO.P,Q809,1,E*%
%TO.N,/DFlipFlop6/Q*%
X78132940Y-67535056D03*
D12*
%TO.P,Q809,2,B*%
%TO.N,Net-(Q809-B)*%
X76862940Y-67535056D03*
%TO.P,Q809,3,C*%
%TO.N,Net-(Q809-C)*%
X75592940Y-67535056D03*
%TD*%
D10*
%TO.P,R911,1*%
%TO.N,Net-(Q904-C)*%
X93269795Y-76364787D03*
%TO.P,R911,2*%
%TO.N,Net-(Q907-B)*%
X95094795Y-76364787D03*
%TD*%
%TO.P,R518,1*%
%TO.N,Net-(Q507-C)*%
X107834772Y-33387930D03*
%TO.P,R518,2*%
%TO.N,Net-(Q512-C)*%
X109659772Y-33387930D03*
%TD*%
%TO.P,R317,1*%
%TO.N,Net-(Q305-C)*%
X63568892Y-37479247D03*
%TO.P,R317,2*%
%TO.N,Net-(Q311-C)*%
X65393892Y-37479247D03*
%TD*%
D11*
%TO.P,Q403,1,E*%
%TO.N,GND*%
X89249032Y-47606534D03*
D12*
%TO.P,Q403,2,B*%
%TO.N,Net-(Q403-B)*%
X87979032Y-47606534D03*
%TO.P,Q403,3,C*%
%TO.N,Net-(Q402-E)*%
X86709032Y-47606534D03*
%TD*%
D11*
%TO.P,Q401,1,E*%
%TO.N,GND*%
X89219551Y-27473136D03*
D12*
%TO.P,Q401,2,B*%
%TO.N,Net-(Q401-B)*%
X87949551Y-27473136D03*
%TO.P,Q401,3,C*%
%TO.N,Net-(Q401-C)*%
X86679551Y-27473136D03*
%TD*%
D11*
%TO.P,Q711,1,E*%
%TO.N,GND*%
X61198610Y-57567889D03*
D12*
%TO.P,Q711,2,B*%
%TO.N,Net-(Q711-B)*%
X59928610Y-57567889D03*
%TO.P,Q711,3,C*%
%TO.N,Net-(Q711-C)*%
X58658610Y-57567889D03*
%TD*%
D10*
%TO.P,R803,1*%
%TO.N,Net-(Q801-C)*%
X85929879Y-73582908D03*
%TO.P,R803,2*%
%TO.N,Net-(Q804-B)*%
X87754879Y-73582908D03*
%TD*%
%TO.P,R715,1*%
%TO.N,Net-(Q711-C)*%
X63516110Y-69575000D03*
%TO.P,R715,2*%
%TO.N,Net-(Q709-B)*%
X65341110Y-69575000D03*
%TD*%
D11*
%TO.P,Q912,1,E*%
%TO.N,GND*%
X99941579Y-57551948D03*
D12*
%TO.P,Q912,2,B*%
%TO.N,Net-(Q912-B)*%
X98671579Y-57551948D03*
%TO.P,Q912,3,C*%
%TO.N,Net-(Q912-C)*%
X97401579Y-57551948D03*
%TD*%
D10*
%TO.P,R306,1*%
%TO.N,+5V*%
X49068892Y-40288023D03*
%TO.P,R306,2*%
%TO.N,Net-(Q302-C)*%
X50893892Y-40288023D03*
%TD*%
%TO.P,R909,1*%
%TO.N,Net-(Q907-C)*%
X107759079Y-61551948D03*
%TO.P,R909,2*%
%TO.N,Net-(Q906-B)*%
X109584079Y-61551948D03*
%TD*%
%TO.P,R220,1*%
%TO.N,NREAD_EN*%
X26225721Y-28282294D03*
%TO.P,R220,2*%
%TO.N,Net-(Q211-B)*%
X28050721Y-28282294D03*
%TD*%
D11*
%TO.P,Q609,1,E*%
%TO.N,/DFlipFlop4/Q*%
X32981392Y-67768489D03*
D12*
%TO.P,Q609,2,B*%
%TO.N,Net-(Q609-B)*%
X31711392Y-67768489D03*
%TO.P,Q609,3,C*%
%TO.N,Net-(Q609-C)*%
X30441392Y-67768489D03*
%TD*%
D10*
%TO.P,R213,1*%
%TO.N,+5V*%
X26197875Y-38289023D03*
%TO.P,R213,2*%
%TO.N,Net-(Q207-C)*%
X28022875Y-38289023D03*
%TD*%
%TO.P,R503,1*%
%TO.N,Net-(Q501-C)*%
X107814211Y-43428671D03*
%TO.P,R503,2*%
%TO.N,Net-(Q504-B)*%
X109639211Y-43428671D03*
%TD*%
D11*
%TO.P,Q503,1,E*%
%TO.N,GND*%
X111046753Y-47514217D03*
D12*
%TO.P,Q503,2,B*%
%TO.N,Net-(Q503-B)*%
X109776753Y-47514217D03*
%TO.P,Q503,3,C*%
%TO.N,Net-(Q502-E)*%
X108506753Y-47514217D03*
%TD*%
D10*
%TO.P,R105,1*%
%TO.N,Net-(Q101-C)*%
X70369678Y-90860409D03*
%TO.P,R105,2*%
%TO.N,Net-(Q103-B)*%
X72194678Y-90860409D03*
%TD*%
D11*
%TO.P,Q803,1,E*%
%TO.N,GND*%
X89162421Y-77668454D03*
D12*
%TO.P,Q803,2,B*%
%TO.N,Net-(Q803-B)*%
X87892421Y-77668454D03*
%TO.P,Q803,3,C*%
%TO.N,Net-(Q802-E)*%
X86622421Y-77668454D03*
%TD*%
D10*
%TO.P,R304,1*%
%TO.N,/DFlipFlop1/D*%
X49069294Y-50300610D03*
%TO.P,R304,2*%
%TO.N,Net-(Q302-B)*%
X50894294Y-50300610D03*
%TD*%
D11*
%TO.P,Q312,1,E*%
%TO.N,GND*%
X55751392Y-27472136D03*
D12*
%TO.P,Q312,2,B*%
%TO.N,Net-(Q312-B)*%
X54481392Y-27472136D03*
%TO.P,Q312,3,C*%
%TO.N,Net-(Q312-C)*%
X53211392Y-27472136D03*
%TD*%
D11*
%TO.P,Q709,1,E*%
%TO.N,/DFlipFlop5/Q*%
X55698610Y-67567889D03*
D12*
%TO.P,Q709,2,B*%
%TO.N,Net-(Q709-B)*%
X54428610Y-67567889D03*
%TO.P,Q709,3,C*%
%TO.N,Net-(Q709-C)*%
X53158610Y-67567889D03*
%TD*%
D10*
%TO.P,R601,1*%
%TO.N,+5V*%
X26298892Y-72584376D03*
%TO.P,R601,2*%
%TO.N,Net-(Q601-C)*%
X28123892Y-72584376D03*
%TD*%
D11*
%TO.P,Q603,1,E*%
%TO.N,GND*%
X44010873Y-77901887D03*
D12*
%TO.P,Q603,2,B*%
%TO.N,Net-(Q603-B)*%
X42740873Y-77901887D03*
%TO.P,Q603,3,C*%
%TO.N,Net-(Q602-E)*%
X41470873Y-77901887D03*
%TD*%
D10*
%TO.P,R517,1*%
%TO.N,Net-(Q505-C)*%
X107834772Y-37387930D03*
%TO.P,R517,2*%
%TO.N,Net-(Q511-C)*%
X109659772Y-37387930D03*
%TD*%
%TO.P,R801,1*%
%TO.N,+5V*%
X71450440Y-72350943D03*
%TO.P,R801,2*%
%TO.N,Net-(Q801-C)*%
X73275440Y-72350943D03*
%TD*%
D11*
%TO.P,Q207,1,E*%
%TO.N,Net-(Q207-E)*%
X32880375Y-42473136D03*
D12*
%TO.P,Q207,2,B*%
%TO.N,Net-(Q207-B)*%
X31610375Y-42473136D03*
%TO.P,Q207,3,C*%
%TO.N,Net-(Q207-C)*%
X30340375Y-42473136D03*
%TD*%
D10*
%TO.P,R217,1*%
%TO.N,Net-(Q205-C)*%
X40697875Y-37480247D03*
%TO.P,R217,2*%
%TO.N,Net-(Q211-C)*%
X42522875Y-37480247D03*
%TD*%
%TO.P,R606,1*%
%TO.N,+5V*%
X26298892Y-70584376D03*
%TO.P,R606,2*%
%TO.N,Net-(Q602-C)*%
X28123892Y-70584376D03*
%TD*%
D11*
%TO.P,Q402,1,E*%
%TO.N,Net-(Q402-E)*%
X78219551Y-47613136D03*
D12*
%TO.P,Q402,2,B*%
%TO.N,Net-(Q402-B)*%
X76949551Y-47613136D03*
%TO.P,Q402,3,C*%
%TO.N,Net-(Q402-C)*%
X75679551Y-47613136D03*
%TD*%
D10*
%TO.P,R311,1*%
%TO.N,Net-(Q304-C)*%
X49079608Y-46284975D03*
%TO.P,R311,2*%
%TO.N,Net-(Q307-B)*%
X50904608Y-46284975D03*
%TD*%
%TO.P,R516,1*%
%TO.N,Net-(Q512-C)*%
X107834772Y-35387930D03*
%TO.P,R516,2*%
%TO.N,Net-(Q510-B)*%
X109659772Y-35387930D03*
%TD*%
D11*
%TO.P,Q305,1,E*%
%TO.N,Net-(Q305-E)*%
X55751392Y-32472136D03*
D12*
%TO.P,Q305,2,B*%
%TO.N,Net-(Q305-B)*%
X54481392Y-32472136D03*
%TO.P,Q305,3,C*%
%TO.N,Net-(Q305-C)*%
X53211392Y-32472136D03*
%TD*%
D10*
%TO.P,R419,1*%
%TO.N,NREAD_EN*%
X71568892Y-26269489D03*
%TO.P,R419,2*%
%TO.N,Net-(Q412-B)*%
X73393892Y-26269489D03*
%TD*%
D11*
%TO.P,Q501,1,E*%
%TO.N,GND*%
X111017272Y-27380819D03*
D12*
%TO.P,Q501,2,B*%
%TO.N,Net-(Q501-B)*%
X109747272Y-27380819D03*
%TO.P,Q501,3,C*%
%TO.N,Net-(Q501-C)*%
X108477272Y-27380819D03*
%TD*%
D11*
%TO.P,Q909,1,E*%
%TO.N,/DFlipFlop7/Q*%
X99941579Y-67551948D03*
D12*
%TO.P,Q909,2,B*%
%TO.N,Net-(Q909-B)*%
X98671579Y-67551948D03*
%TO.P,Q909,3,C*%
%TO.N,Net-(Q909-C)*%
X97401579Y-67551948D03*
%TD*%
D10*
%TO.P,R418,1*%
%TO.N,Net-(Q407-C)*%
X86037051Y-33480247D03*
%TO.P,R418,2*%
%TO.N,Net-(Q412-C)*%
X87862051Y-33480247D03*
%TD*%
D13*
%TO.P,CLK,1,Pin_1*%
%TO.N,Net-(J101-Pin_1)*%
X36500000Y-94500000D03*
%TD*%
D11*
%TO.P,Q902,1,E*%
%TO.N,Net-(Q902-E)*%
X99941579Y-77691948D03*
D12*
%TO.P,Q902,2,B*%
%TO.N,Net-(Q902-B)*%
X98671579Y-77691948D03*
%TO.P,Q902,3,C*%
%TO.N,Net-(Q902-C)*%
X97401579Y-77691948D03*
%TD*%
D10*
%TO.P,R302,1*%
%TO.N,/DFlipFlop1/D*%
X49069294Y-48300610D03*
%TO.P,R302,2*%
%TO.N,Net-(Q301-B)*%
X50894294Y-48300610D03*
%TD*%
%TO.P,R211,1*%
%TO.N,Net-(Q204-C)*%
X26208591Y-46285975D03*
%TO.P,R211,2*%
%TO.N,Net-(Q207-B)*%
X28033591Y-46285975D03*
%TD*%
D11*
%TO.P,Q805,1,E*%
%TO.N,Net-(Q805-E)*%
X78132940Y-62535056D03*
D12*
%TO.P,Q805,2,B*%
%TO.N,Net-(Q805-B)*%
X76862940Y-62535056D03*
%TO.P,Q805,3,C*%
%TO.N,Net-(Q805-C)*%
X75592940Y-62535056D03*
%TD*%
D10*
%TO.P,R207,1*%
%TO.N,+5V*%
X26197875Y-44289023D03*
%TO.P,R207,2*%
%TO.N,Net-(Q204-C)*%
X28022875Y-44289023D03*
%TD*%
D11*
%TO.P,Q308,1,E*%
%TO.N,GND*%
X61251392Y-42472136D03*
D12*
%TO.P,Q308,2,B*%
%TO.N,Net-(Q308-B)*%
X59981392Y-42472136D03*
%TO.P,Q308,3,C*%
%TO.N,Net-(Q307-E)*%
X58711392Y-42472136D03*
%TD*%
D10*
%TO.P,R214,1*%
%TO.N,+5V*%
X26197875Y-36289023D03*
%TO.P,R214,2*%
%TO.N,Net-(Q209-C)*%
X28022875Y-36289023D03*
%TD*%
%TO.P,R308,1*%
%TO.N,Net-(Q302-C)*%
X49068892Y-32288023D03*
%TO.P,R308,2*%
%TO.N,Net-(Q305-B)*%
X50893892Y-32288023D03*
%TD*%
%TO.P,R314,1*%
%TO.N,+5V*%
X49068892Y-36288023D03*
%TO.P,R314,2*%
%TO.N,Net-(Q309-C)*%
X50893892Y-36288023D03*
%TD*%
%TO.P,R307,1*%
%TO.N,+5V*%
X49068892Y-44288023D03*
%TO.P,R307,2*%
%TO.N,Net-(Q304-C)*%
X50893892Y-44288023D03*
%TD*%
%TO.P,R216,1*%
%TO.N,Net-(Q212-C)*%
X40697875Y-35480247D03*
%TO.P,R216,2*%
%TO.N,Net-(Q210-B)*%
X42522875Y-35480247D03*
%TD*%
%TO.P,R219,1*%
%TO.N,NREAD_EN*%
X26229716Y-26269489D03*
%TO.P,R219,2*%
%TO.N,Net-(Q212-B)*%
X28054716Y-26269489D03*
%TD*%
D11*
%TO.P,Q611,1,E*%
%TO.N,GND*%
X38481392Y-57768489D03*
D12*
%TO.P,Q611,2,B*%
%TO.N,Net-(Q611-B)*%
X37211392Y-57768489D03*
%TO.P,Q611,3,C*%
%TO.N,Net-(Q611-C)*%
X35941392Y-57768489D03*
%TD*%
D11*
%TO.P,Q604,1,E*%
%TO.N,Net-(Q602-E)*%
X38495238Y-77901887D03*
D12*
%TO.P,Q604,2,B*%
%TO.N,Net-(Q604-B)*%
X37225238Y-77901887D03*
%TO.P,Q604,3,C*%
%TO.N,Net-(Q604-C)*%
X35955238Y-77901887D03*
%TD*%
D11*
%TO.P,Q103,1,E*%
%TO.N,GND*%
X89230000Y-93360000D03*
D12*
%TO.P,Q103,2,B*%
%TO.N,Net-(Q103-B)*%
X90500000Y-93360000D03*
%TO.P,Q103,3,C*%
%TO.N,WRITE_EN*%
X91770000Y-93360000D03*
%TD*%
D10*
%TO.P,R403,1*%
%TO.N,Net-(Q401-C)*%
X86016490Y-43520988D03*
%TO.P,R403,2*%
%TO.N,Net-(Q404-B)*%
X87841490Y-43520988D03*
%TD*%
%TO.P,R215,1*%
%TO.N,Net-(Q211-C)*%
X40697875Y-39480247D03*
%TO.P,R215,2*%
%TO.N,Net-(Q209-B)*%
X42522875Y-39480247D03*
%TD*%
%TO.P,R816,1*%
%TO.N,Net-(Q812-C)*%
X85950440Y-65542167D03*
%TO.P,R816,2*%
%TO.N,Net-(Q810-B)*%
X87775440Y-65542167D03*
%TD*%
D11*
%TO.P,Q409,1,E*%
%TO.N,/DFlipFlop2/Q*%
X78219551Y-37473136D03*
D12*
%TO.P,Q409,2,B*%
%TO.N,Net-(Q409-B)*%
X76949551Y-37473136D03*
%TO.P,Q409,3,C*%
%TO.N,Net-(Q409-C)*%
X75679551Y-37473136D03*
%TD*%
D10*
%TO.P,R404,1*%
%TO.N,/DFlipFlop2/D*%
X71537453Y-50301610D03*
%TO.P,R404,2*%
%TO.N,Net-(Q402-B)*%
X73362453Y-50301610D03*
%TD*%
D11*
%TO.P,Q811,1,E*%
%TO.N,GND*%
X83632940Y-57535056D03*
D12*
%TO.P,Q811,2,B*%
%TO.N,Net-(Q811-B)*%
X82362940Y-57535056D03*
%TO.P,Q811,3,C*%
%TO.N,Net-(Q811-C)*%
X81092940Y-57535056D03*
%TD*%
D13*
%TO.P,DATA_IN,1,Pin_1*%
%TO.N,/DFlipFlop/D*%
X18000000Y-67500000D03*
D14*
%TO.P,DATA_IN,2,Pin_2*%
%TO.N,/DFlipFlop1/D*%
X18000000Y-70040000D03*
%TO.P,DATA_IN,3,Pin_3*%
%TO.N,/DFlipFlop2/D*%
X18000000Y-72580000D03*
%TO.P,DATA_IN,4,Pin_4*%
%TO.N,/DFlipFlop3/D*%
X18000000Y-75120000D03*
%TO.P,DATA_IN,5,Pin_5*%
%TO.N,/DFlipFlop4/D*%
X18000000Y-77660000D03*
%TO.P,DATA_IN,6,Pin_6*%
%TO.N,/DFlipFlop5/D*%
X18000000Y-80200000D03*
%TO.P,DATA_IN,7,Pin_7*%
%TO.N,/DFlipFlop6/D*%
X18000000Y-82740000D03*
%TO.P,DATA_IN,8,Pin_8*%
%TO.N,/DFlipFlop7/D*%
X18000000Y-85280000D03*
%TD*%
D11*
%TO.P,Q504,1,E*%
%TO.N,Net-(Q502-E)*%
X105531118Y-47514217D03*
D12*
%TO.P,Q504,2,B*%
%TO.N,Net-(Q504-B)*%
X104261118Y-47514217D03*
%TO.P,Q504,3,C*%
%TO.N,Net-(Q504-C)*%
X102991118Y-47514217D03*
%TD*%
D13*
%TO.P,WR_EN,1,Pin_1*%
%TO.N,Net-(J102-Pin_1)*%
X42500000Y-94500000D03*
%TD*%
D10*
%TO.P,R904,1*%
%TO.N,/DFlipFlop7/D*%
X93259481Y-80380422D03*
%TO.P,R904,2*%
%TO.N,Net-(Q902-B)*%
X95084481Y-80380422D03*
%TD*%
D11*
%TO.P,Q304,1,E*%
%TO.N,Net-(Q302-E)*%
X61265238Y-47605534D03*
D12*
%TO.P,Q304,2,B*%
%TO.N,Net-(Q304-B)*%
X59995238Y-47605534D03*
%TO.P,Q304,3,C*%
%TO.N,Net-(Q304-C)*%
X58725238Y-47605534D03*
%TD*%
D10*
%TO.P,R409,1*%
%TO.N,Net-(Q407-C)*%
X86037051Y-31473136D03*
%TO.P,R409,2*%
%TO.N,Net-(Q406-B)*%
X87862051Y-31473136D03*
%TD*%
%TO.P,R514,1*%
%TO.N,+5V*%
X93334772Y-36196706D03*
%TO.P,R514,2*%
%TO.N,Net-(Q509-C)*%
X95159772Y-36196706D03*
%TD*%
D11*
%TO.P,Q904,1,E*%
%TO.N,Net-(Q902-E)*%
X105455425Y-77685346D03*
D12*
%TO.P,Q904,2,B*%
%TO.N,Net-(Q904-B)*%
X104185425Y-77685346D03*
%TO.P,Q904,3,C*%
%TO.N,Net-(Q904-C)*%
X102915425Y-77685346D03*
%TD*%
D10*
%TO.P,R413,1*%
%TO.N,+5V*%
X71537051Y-38289023D03*
%TO.P,R413,2*%
%TO.N,Net-(Q407-C)*%
X73362051Y-38289023D03*
%TD*%
%TO.P,R504,1*%
%TO.N,/DFlipFlop3/D*%
X93335174Y-50209293D03*
%TO.P,R504,2*%
%TO.N,Net-(Q502-B)*%
X95160174Y-50209293D03*
%TD*%
D11*
%TO.P,Q104,1,E*%
%TO.N,GND*%
X83230000Y-93360000D03*
D12*
%TO.P,Q104,2,B*%
%TO.N,Net-(Q104-B)*%
X84500000Y-93360000D03*
%TO.P,Q104,3,C*%
%TO.N,NREAD_EN*%
X85770000Y-93360000D03*
%TD*%
D10*
%TO.P,R512,1*%
%TO.N,Net-(Q505-C)*%
X107834772Y-41380819D03*
%TO.P,R512,2*%
%TO.N,Net-(Q508-B)*%
X109659772Y-41380819D03*
%TD*%
%TO.P,R814,1*%
%TO.N,+5V*%
X71450440Y-66350943D03*
%TO.P,R814,2*%
%TO.N,Net-(Q809-C)*%
X73275440Y-66350943D03*
%TD*%
%TO.P,R704,1*%
%TO.N,/DFlipFlop5/D*%
X49016512Y-80396363D03*
%TO.P,R704,2*%
%TO.N,Net-(Q702-B)*%
X50841512Y-80396363D03*
%TD*%
D11*
%TO.P,Q508,1,E*%
%TO.N,GND*%
X105517272Y-42380819D03*
D12*
%TO.P,Q508,2,B*%
%TO.N,Net-(Q508-B)*%
X104247272Y-42380819D03*
%TO.P,Q508,3,C*%
%TO.N,Net-(Q507-E)*%
X102977272Y-42380819D03*
%TD*%
D10*
%TO.P,R508,1*%
%TO.N,Net-(Q502-C)*%
X93334772Y-32196706D03*
%TO.P,R508,2*%
%TO.N,Net-(Q505-B)*%
X95159772Y-32196706D03*
%TD*%
%TO.P,R501,1*%
%TO.N,+5V*%
X93334772Y-42196706D03*
%TO.P,R501,2*%
%TO.N,Net-(Q501-C)*%
X95159772Y-42196706D03*
%TD*%
D11*
%TO.P,Q201,1,E*%
%TO.N,GND*%
X43880375Y-27473136D03*
D12*
%TO.P,Q201,2,B*%
%TO.N,Net-(Q201-B)*%
X42610375Y-27473136D03*
%TO.P,Q201,3,C*%
%TO.N,Net-(Q201-C)*%
X41340375Y-27473136D03*
%TD*%
D10*
%TO.P,R218,1*%
%TO.N,Net-(Q207-C)*%
X40697875Y-33480247D03*
%TO.P,R218,2*%
%TO.N,Net-(Q212-C)*%
X42522875Y-33480247D03*
%TD*%
%TO.P,R912,1*%
%TO.N,Net-(Q905-C)*%
X107759079Y-71551948D03*
%TO.P,R912,2*%
%TO.N,Net-(Q908-B)*%
X109584079Y-71551948D03*
%TD*%
%TO.P,R320,1*%
%TO.N,NREAD_EN*%
X49096738Y-28281294D03*
%TO.P,R320,2*%
%TO.N,Net-(Q311-B)*%
X50921738Y-28281294D03*
%TD*%
D11*
%TO.P,Q406,1,E*%
%TO.N,GND*%
X83719551Y-32473136D03*
D12*
%TO.P,Q406,2,B*%
%TO.N,Net-(Q406-B)*%
X82449551Y-32473136D03*
%TO.P,Q406,3,C*%
%TO.N,Net-(Q405-E)*%
X81179551Y-32473136D03*
%TD*%
D11*
%TO.P,Q204,1,E*%
%TO.N,Net-(Q202-E)*%
X38394221Y-47606534D03*
D12*
%TO.P,Q204,2,B*%
%TO.N,Net-(Q204-B)*%
X37124221Y-47606534D03*
%TO.P,Q204,3,C*%
%TO.N,Net-(Q204-C)*%
X35854221Y-47606534D03*
%TD*%
D11*
%TO.P,Q211,1,E*%
%TO.N,GND*%
X38380375Y-27473136D03*
D12*
%TO.P,Q211,2,B*%
%TO.N,Net-(Q211-B)*%
X37110375Y-27473136D03*
%TO.P,Q211,3,C*%
%TO.N,Net-(Q211-C)*%
X35840375Y-27473136D03*
%TD*%
D10*
%TO.P,R708,1*%
%TO.N,Net-(Q702-C)*%
X49016110Y-62383776D03*
%TO.P,R708,2*%
%TO.N,Net-(Q705-B)*%
X50841110Y-62383776D03*
%TD*%
%TO.P,R520,1*%
%TO.N,NREAD_EN*%
X93362618Y-28189977D03*
%TO.P,R520,2*%
%TO.N,Net-(Q511-B)*%
X95187618Y-28189977D03*
%TD*%
%TO.P,R914,1*%
%TO.N,+5V*%
X93259079Y-66367835D03*
%TO.P,R914,2*%
%TO.N,Net-(Q909-C)*%
X95084079Y-66367835D03*
%TD*%
%TO.P,R104,1*%
%TO.N,+5V*%
X78457178Y-94360409D03*
%TO.P,R104,2*%
%TO.N,Net-(Q101-C)*%
X80282178Y-94360409D03*
%TD*%
%TO.P,R815,1*%
%TO.N,Net-(Q811-C)*%
X85950440Y-69542167D03*
%TO.P,R815,2*%
%TO.N,Net-(Q809-B)*%
X87775440Y-69542167D03*
%TD*%
%TO.P,R707,1*%
%TO.N,+5V*%
X49016110Y-74383776D03*
%TO.P,R707,2*%
%TO.N,Net-(Q704-C)*%
X50841110Y-74383776D03*
%TD*%
D11*
%TO.P,Q502,1,E*%
%TO.N,Net-(Q502-E)*%
X100017272Y-47520819D03*
D12*
%TO.P,Q502,2,B*%
%TO.N,Net-(Q502-B)*%
X98747272Y-47520819D03*
%TO.P,Q502,3,C*%
%TO.N,Net-(Q502-C)*%
X97477272Y-47520819D03*
%TD*%
D10*
%TO.P,R420,1*%
%TO.N,NREAD_EN*%
X71564897Y-28282294D03*
%TO.P,R420,2*%
%TO.N,Net-(Q411-B)*%
X73389897Y-28282294D03*
%TD*%
D11*
%TO.P,Q412,1,E*%
%TO.N,GND*%
X78219551Y-27473136D03*
D12*
%TO.P,Q412,2,B*%
%TO.N,Net-(Q412-B)*%
X76949551Y-27473136D03*
%TO.P,Q412,3,C*%
%TO.N,Net-(Q412-C)*%
X75679551Y-27473136D03*
%TD*%
D10*
%TO.P,R917,1*%
%TO.N,Net-(Q905-C)*%
X107759079Y-67559059D03*
%TO.P,R917,2*%
%TO.N,Net-(Q911-C)*%
X109584079Y-67559059D03*
%TD*%
D11*
%TO.P,Q612,1,E*%
%TO.N,GND*%
X32981392Y-57768489D03*
D12*
%TO.P,Q612,2,B*%
%TO.N,Net-(Q612-B)*%
X31711392Y-57768489D03*
%TO.P,Q612,3,C*%
%TO.N,Net-(Q612-C)*%
X30441392Y-57768489D03*
%TD*%
D10*
%TO.P,R405,1*%
%TO.N,WRITE_EN*%
X71564897Y-30282294D03*
%TO.P,R405,2*%
%TO.N,Net-(Q403-B)*%
X73389897Y-30282294D03*
%TD*%
D11*
%TO.P,Q807,1,E*%
%TO.N,Net-(Q807-E)*%
X78132940Y-72535056D03*
D12*
%TO.P,Q807,2,B*%
%TO.N,Net-(Q807-B)*%
X76862940Y-72535056D03*
%TO.P,Q807,3,C*%
%TO.N,Net-(Q807-C)*%
X75592940Y-72535056D03*
%TD*%
D11*
%TO.P,Q607,1,E*%
%TO.N,Net-(Q607-E)*%
X32981392Y-72768489D03*
D12*
%TO.P,Q607,2,B*%
%TO.N,Net-(Q607-B)*%
X31711392Y-72768489D03*
%TO.P,Q607,3,C*%
%TO.N,Net-(Q607-C)*%
X30441392Y-72768489D03*
%TD*%
D10*
%TO.P,R916,1*%
%TO.N,Net-(Q912-C)*%
X107759079Y-65559059D03*
%TO.P,R916,2*%
%TO.N,Net-(Q910-B)*%
X109584079Y-65559059D03*
%TD*%
%TO.P,R502,1*%
%TO.N,/DFlipFlop3/D*%
X93335174Y-48209293D03*
%TO.P,R502,2*%
%TO.N,Net-(Q501-B)*%
X95160174Y-48209293D03*
%TD*%
%TO.P,R101,1*%
%TO.N,Net-(C101-Pad2)*%
X70544678Y-94360409D03*
%TO.P,R101,2*%
%TO.N,GND*%
X72369678Y-94360409D03*
%TD*%
%TO.P,R401,1*%
%TO.N,+5V*%
X71537051Y-42289023D03*
%TO.P,R401,2*%
%TO.N,Net-(Q401-C)*%
X73362051Y-42289023D03*
%TD*%
%TO.P,R108,1*%
%TO.N,Net-(J103-Pin_1)*%
X62584774Y-94389804D03*
%TO.P,R108,2*%
%TO.N,Net-(Q104-B)*%
X64409774Y-94389804D03*
%TD*%
D11*
%TO.P,Q309,1,E*%
%TO.N,/DFlipFlop1/Q*%
X55751392Y-37472136D03*
D12*
%TO.P,Q309,2,B*%
%TO.N,Net-(Q309-B)*%
X54481392Y-37472136D03*
%TO.P,Q309,3,C*%
%TO.N,Net-(Q309-C)*%
X53211392Y-37472136D03*
%TD*%
D10*
%TO.P,R519,1*%
%TO.N,NREAD_EN*%
X93366613Y-26177172D03*
%TO.P,R519,2*%
%TO.N,Net-(Q512-B)*%
X95191613Y-26177172D03*
%TD*%
D11*
%TO.P,Q911,1,E*%
%TO.N,GND*%
X105441579Y-57551948D03*
D12*
%TO.P,Q911,2,B*%
%TO.N,Net-(Q911-B)*%
X104171579Y-57551948D03*
%TO.P,Q911,3,C*%
%TO.N,Net-(Q911-C)*%
X102901579Y-57551948D03*
%TD*%
D11*
%TO.P,Q808,1,E*%
%TO.N,GND*%
X83632940Y-72535056D03*
D12*
%TO.P,Q808,2,B*%
%TO.N,Net-(Q808-B)*%
X82362940Y-72535056D03*
%TO.P,Q808,3,C*%
%TO.N,Net-(Q807-E)*%
X81092940Y-72535056D03*
%TD*%
D11*
%TO.P,Q405,1,E*%
%TO.N,Net-(Q405-E)*%
X78219551Y-32473136D03*
D12*
%TO.P,Q405,2,B*%
%TO.N,Net-(Q405-B)*%
X76949551Y-32473136D03*
%TO.P,Q405,3,C*%
%TO.N,Net-(Q405-C)*%
X75679551Y-32473136D03*
%TD*%
D11*
%TO.P,Q704,1,E*%
%TO.N,Net-(Q702-E)*%
X61212456Y-77701287D03*
D12*
%TO.P,Q704,2,B*%
%TO.N,Net-(Q704-B)*%
X59942456Y-77701287D03*
%TO.P,Q704,3,C*%
%TO.N,Net-(Q704-C)*%
X58672456Y-77701287D03*
%TD*%
D10*
%TO.P,R301,1*%
%TO.N,+5V*%
X49068892Y-42288023D03*
%TO.P,R301,2*%
%TO.N,Net-(Q301-C)*%
X50893892Y-42288023D03*
%TD*%
%TO.P,R709,1*%
%TO.N,Net-(Q707-C)*%
X63516110Y-61567889D03*
%TO.P,R709,2*%
%TO.N,Net-(Q706-B)*%
X65341110Y-61567889D03*
%TD*%
D11*
%TO.P,Q311,1,E*%
%TO.N,GND*%
X61251392Y-27472136D03*
D12*
%TO.P,Q311,2,B*%
%TO.N,Net-(Q311-B)*%
X59981392Y-27472136D03*
%TO.P,Q311,3,C*%
%TO.N,Net-(Q311-C)*%
X58711392Y-27472136D03*
%TD*%
D10*
%TO.P,R812,1*%
%TO.N,Net-(Q805-C)*%
X85950440Y-71535056D03*
%TO.P,R812,2*%
%TO.N,Net-(Q808-B)*%
X87775440Y-71535056D03*
%TD*%
%TO.P,R919,1*%
%TO.N,NREAD_EN*%
X93290920Y-56348301D03*
%TO.P,R919,2*%
%TO.N,Net-(Q912-B)*%
X95115920Y-56348301D03*
%TD*%
D11*
%TO.P,Q708,1,E*%
%TO.N,GND*%
X61198610Y-72567889D03*
D12*
%TO.P,Q708,2,B*%
%TO.N,Net-(Q708-B)*%
X59928610Y-72567889D03*
%TO.P,Q708,3,C*%
%TO.N,Net-(Q707-E)*%
X58658610Y-72567889D03*
%TD*%
D11*
%TO.P,Q907,1,E*%
%TO.N,Net-(Q907-E)*%
X99941579Y-72551948D03*
D12*
%TO.P,Q907,2,B*%
%TO.N,Net-(Q907-B)*%
X98671579Y-72551948D03*
%TO.P,Q907,3,C*%
%TO.N,Net-(Q907-C)*%
X97401579Y-72551948D03*
%TD*%
D10*
%TO.P,R604,1*%
%TO.N,/DFlipFlop4/D*%
X26299294Y-80596963D03*
%TO.P,R604,2*%
%TO.N,Net-(Q602-B)*%
X28124294Y-80596963D03*
%TD*%
%TO.P,R905,1*%
%TO.N,WRITE_EN*%
X93286925Y-60361106D03*
%TO.P,R905,2*%
%TO.N,Net-(Q903-B)*%
X95111925Y-60361106D03*
%TD*%
%TO.P,R315,1*%
%TO.N,Net-(Q311-C)*%
X63568892Y-39479247D03*
%TO.P,R315,2*%
%TO.N,Net-(Q309-B)*%
X65393892Y-39479247D03*
%TD*%
D11*
%TO.P,Q303,1,E*%
%TO.N,GND*%
X66780873Y-47605534D03*
D12*
%TO.P,Q303,2,B*%
%TO.N,Net-(Q303-B)*%
X65510873Y-47605534D03*
%TO.P,Q303,3,C*%
%TO.N,Net-(Q302-E)*%
X64240873Y-47605534D03*
%TD*%
D10*
%TO.P,R717,1*%
%TO.N,Net-(Q705-C)*%
X63516110Y-67575000D03*
%TO.P,R717,2*%
%TO.N,Net-(Q711-C)*%
X65341110Y-67575000D03*
%TD*%
%TO.P,R907,1*%
%TO.N,+5V*%
X93259079Y-74367835D03*
%TO.P,R907,2*%
%TO.N,Net-(Q904-C)*%
X95084079Y-74367835D03*
%TD*%
%TO.P,R612,1*%
%TO.N,Net-(Q605-C)*%
X40798892Y-71768489D03*
%TO.P,R612,2*%
%TO.N,Net-(Q608-B)*%
X42623892Y-71768489D03*
%TD*%
%TO.P,R417,1*%
%TO.N,Net-(Q405-C)*%
X86037051Y-37480247D03*
%TO.P,R417,2*%
%TO.N,Net-(Q411-C)*%
X87862051Y-37480247D03*
%TD*%
D16*
%TO.N,Net-(C101-Pad2)*%
X69535816Y-94035816D03*
%TO.N,/DFlipFlop3/D*%
X91650000Y-49750000D03*
X92250000Y-51250000D03*
X91499000Y-31205068D03*
X91650000Y-45000000D03*
%TO.N,/DFlipFlop2/D*%
X70750000Y-24000000D03*
X74500000Y-47500000D03*
%TO.N,/DFlipFlop1/D*%
X47500000Y-22050000D03*
X47575735Y-24174265D03*
X47750000Y-44250000D03*
%TO.N,/DFlipFlop/D*%
X22250000Y-50250000D03*
%TO.N,/DFlipFlop3/Q*%
X92250000Y-40000000D03*
X97280798Y-39469202D03*
X100136897Y-36157683D03*
X102886897Y-35729819D03*
%TO.N,/DFlipFlop2/Q*%
X81089176Y-35822136D03*
X78339176Y-36250000D03*
X70524551Y-40264621D03*
X75585779Y-39664221D03*
%TO.N,/DFlipFlop/Q*%
X33000000Y-36250000D03*
X35750000Y-35822136D03*
X28802182Y-37289024D03*
X25000000Y-35500000D03*
%TO.N,/DFlipFlop1/Q*%
X58621017Y-35821136D03*
X55871017Y-36249000D03*
X24918299Y-36430231D03*
X52748793Y-39251207D03*
%TO.N,Net-(J102-Pin_1)*%
X61000000Y-93789804D03*
%TO.N,Net-(Q101-B)*%
X81609265Y-90890735D03*
%TO.N,Net-(Q101-C)*%
X70500000Y-91709000D03*
X81500000Y-94500000D03*
%TO.N,GND*%
X32000000Y-43669489D03*
X37595676Y-28600970D03*
X81752565Y-68731409D03*
X36500000Y-38669489D03*
X101692259Y-48077172D03*
X82934852Y-28600970D03*
X77339176Y-43669489D03*
X81839176Y-38669489D03*
X79807927Y-78231409D03*
X99136897Y-43577172D03*
X57426379Y-48168489D03*
X104656880Y-58679782D03*
X103621847Y-41343741D03*
X77252565Y-73731409D03*
X59303185Y-71530811D03*
X81824126Y-41436058D03*
X101616566Y-78248301D03*
X59371017Y-38668489D03*
X54818235Y-73764242D03*
X34555362Y-48169489D03*
X36601017Y-68964842D03*
X82848241Y-58662890D03*
X54871017Y-43668489D03*
X34656379Y-78464842D03*
X81737515Y-71497978D03*
X36484950Y-41436058D03*
X24750000Y-51000000D03*
X23500000Y-51000000D03*
X99061204Y-73748301D03*
X59318235Y-68764242D03*
X103546154Y-71514870D03*
X103561204Y-68748301D03*
X32101017Y-73964842D03*
X36585967Y-71731411D03*
X104732573Y-28508653D03*
X73444678Y-94010172D03*
X60413911Y-58695723D03*
X103636897Y-38577172D03*
X59355967Y-41435058D03*
X57373597Y-78264242D03*
X37696693Y-58896323D03*
X87500000Y-94500000D03*
X60466693Y-28599970D03*
X79894538Y-48169489D03*
%TO.N,Net-(Q102-B)*%
X83138030Y-91570970D03*
X96500000Y-91709000D03*
%TO.N,Net-(Q103-B)*%
X72500000Y-89259409D03*
X73444678Y-90708000D03*
%TO.N,Net-(Q201-C)*%
X28573020Y-43141075D03*
X39500000Y-44269489D03*
%TO.N,Net-(Q202-E)*%
X39283008Y-47637952D03*
%TO.N,Net-(Q203-B)*%
X34500000Y-35269489D03*
X39500000Y-45269489D03*
X34500000Y-40769489D03*
%TO.N,Net-(Q204-C)*%
X28914375Y-44811642D03*
%TO.N,Net-(Q205-B)*%
X28056591Y-33089023D03*
X28914375Y-35269489D03*
%TO.N,Net-(Q205-E)*%
X29250000Y-31100000D03*
%TO.N,Net-(Q206-B)*%
X39500000Y-29669489D03*
%TO.N,Net-(Q207-B)*%
X30500000Y-45411642D03*
X28914375Y-45769489D03*
%TO.N,Net-(Q207-E)*%
X34795061Y-43669489D03*
%TO.N,Net-(Q301-C)*%
X62371017Y-44268489D03*
X51444037Y-43140075D03*
%TO.N,Net-(Q302-E)*%
X62154025Y-47636952D03*
%TO.N,Net-(Q303-B)*%
X57371017Y-40768489D03*
X62371017Y-45268489D03*
X57371017Y-35268489D03*
%TO.N,Net-(Q304-C)*%
X51785392Y-44810642D03*
%TO.N,Net-(Q305-B)*%
X50927608Y-33088023D03*
X51785392Y-35268489D03*
%TO.N,Net-(Q306-B)*%
X62371017Y-29668489D03*
%TO.N,Net-(Q307-B)*%
X51785392Y-45768489D03*
X53371017Y-45410642D03*
%TO.N,Net-(Q307-E)*%
X57498793Y-43501207D03*
%TO.N,Net-(Q401-C)*%
X84839176Y-44269489D03*
X73912196Y-43141075D03*
%TO.N,Net-(Q402-E)*%
X84622184Y-47637952D03*
%TO.N,Net-(Q403-B)*%
X79839176Y-35269489D03*
X79839176Y-40769489D03*
X84839176Y-45269489D03*
%TO.N,Net-(Q404-C)*%
X74253551Y-44811642D03*
%TO.N,Net-(Q405-B)*%
X73395767Y-33089023D03*
X74253551Y-35269489D03*
%TO.N,Net-(Q406-B)*%
X84839176Y-29669489D03*
%TO.N,Net-(Q407-E)*%
X80000000Y-43669489D03*
%TO.N,Net-(Q407-B)*%
X74253551Y-45769489D03*
X75839176Y-45411642D03*
%TO.N,Net-(Q501-C)*%
X106636897Y-44177172D03*
X95709917Y-43048758D03*
%TO.N,Net-(Q502-E)*%
X106419905Y-47545635D03*
%TO.N,Net-(Q503-B)*%
X101636897Y-35177172D03*
X106636897Y-45177172D03*
X101636897Y-40677172D03*
%TO.N,Net-(Q504-C)*%
X96051272Y-44719325D03*
%TO.N,Net-(Q505-B)*%
X96051272Y-35177172D03*
X95193488Y-32996706D03*
%TO.N,Net-(Q506-B)*%
X106636897Y-29577172D03*
%TO.N,Net-(Q507-B)*%
X97636897Y-45319325D03*
X96051272Y-45677172D03*
%TO.N,Net-(Q507-E)*%
X101750000Y-43500000D03*
%TO.N,WRITE_EN*%
X77444678Y-94484529D03*
X70000000Y-60500000D03*
X92000000Y-60750000D03*
X93500000Y-93000000D03*
X92204770Y-78150000D03*
X47500000Y-60500000D03*
X91049265Y-48549265D03*
X25324308Y-60635779D03*
%TO.N,+5V*%
X24000000Y-45750000D03*
X47000000Y-46000000D03*
X91100000Y-47250000D03*
X24120735Y-61129265D03*
X69600000Y-46250000D03*
%TO.N,/DFlipFlop4/D*%
X25100000Y-78250000D03*
%TO.N,/DFlipFlop7/D*%
X90650000Y-81000000D03*
X92250000Y-80750000D03*
X29887038Y-84165428D03*
%TO.N,/DFlipFlop5/D*%
X47750000Y-80500000D03*
X30500000Y-82750000D03*
X46750000Y-82750000D03*
%TO.N,/DFlipFlop6/D*%
X71250000Y-81400000D03*
X29998395Y-83373214D03*
X70750000Y-82600000D03*
%TO.N,/DFlipFlop7/Q*%
X92000000Y-70000000D03*
X21500000Y-54750000D03*
X97157387Y-69592613D03*
X100061204Y-66328812D03*
X102811204Y-65900948D03*
%TO.N,/DFlipFlop6/Q*%
X21500000Y-55750000D03*
X81002565Y-65884056D03*
X75636513Y-69863486D03*
X78252565Y-66311920D03*
X70250000Y-70500000D03*
%TO.N,/DFlipFlop4/Q*%
X25000000Y-70000000D03*
X35851017Y-66117489D03*
X33101017Y-66545353D03*
X30319023Y-69930977D03*
%TO.N,/DFlipFlop5/Q*%
X47750000Y-69750000D03*
X21500000Y-56750000D03*
X58568235Y-65916889D03*
X53174526Y-69825474D03*
X55818235Y-66344753D03*
%TO.N,Net-(Q601-C)*%
X28674037Y-73436428D03*
X39601017Y-74564842D03*
%TO.N,Net-(Q602-E)*%
X39384025Y-77933305D03*
%TO.N,Net-(Q603-B)*%
X39601017Y-75564842D03*
X34601017Y-65564842D03*
X34601017Y-71064842D03*
%TO.N,Net-(Q604-C)*%
X29015392Y-75106995D03*
%TO.N,Net-(Q605-B)*%
X28157608Y-63384376D03*
X29015392Y-65564842D03*
%TO.N,Net-(Q606-B)*%
X39601017Y-59964842D03*
%TO.N,Net-(Q607-B)*%
X30601017Y-75706995D03*
X29015392Y-76064842D03*
%TO.N,Net-(Q607-E)*%
X34500000Y-73964842D03*
%TO.N,Net-(Q701-C)*%
X51391255Y-73235828D03*
X62318235Y-74364242D03*
%TO.N,Net-(Q702-E)*%
X62101243Y-77732705D03*
%TO.N,Net-(Q703-B)*%
X57318235Y-65364242D03*
X62318235Y-75364242D03*
X57318235Y-70864242D03*
%TO.N,Net-(Q704-C)*%
X51732610Y-74906395D03*
%TO.N,Net-(Q705-B)*%
X51732610Y-65364242D03*
X50874826Y-63183776D03*
%TO.N,Net-(Q706-B)*%
X62318235Y-59764242D03*
%TO.N,Net-(Q707-B)*%
X53318235Y-75506395D03*
X51732610Y-75864242D03*
%TO.N,Net-(Q707-E)*%
X57250000Y-73750000D03*
%TO.N,Net-(Q801-C)*%
X73825585Y-73202995D03*
X84752565Y-74331409D03*
%TO.N,Net-(Q802-E)*%
X84535573Y-77699872D03*
%TO.N,Net-(Q803-B)*%
X79752565Y-65331409D03*
X84752565Y-75331409D03*
X79752565Y-70831409D03*
%TO.N,Net-(Q804-C)*%
X74166940Y-74873562D03*
%TO.N,Net-(Q805-B)*%
X74166940Y-65331409D03*
X73309156Y-63150943D03*
%TO.N,Net-(Q806-B)*%
X84752565Y-59731409D03*
%TO.N,Net-(Q807-E)*%
X79750000Y-73731409D03*
%TO.N,Net-(Q807-B)*%
X75752565Y-75473562D03*
X74166940Y-75831409D03*
%TO.N,Net-(Q901-C)*%
X95634224Y-73219887D03*
X106561204Y-74348301D03*
%TO.N,Net-(Q902-E)*%
X106344212Y-77716764D03*
%TO.N,Net-(Q903-B)*%
X106561204Y-75348301D03*
X101561204Y-70848301D03*
X101561204Y-65348301D03*
%TO.N,Net-(Q904-C)*%
X95975579Y-74890454D03*
%TO.N,Net-(Q905-B)*%
X95117795Y-63167835D03*
X95975579Y-65348301D03*
%TO.N,Net-(Q906-B)*%
X106561204Y-59748301D03*
%TO.N,Net-(Q907-B)*%
X97561204Y-75490454D03*
X95975579Y-75848301D03*
%TO.N,Net-(Q907-E)*%
X101500000Y-73748301D03*
%TO.N,NREAD_EN*%
X49500000Y-55350000D03*
X23799000Y-35750000D03*
X90200735Y-55049265D03*
X70250000Y-26000000D03*
X22900000Y-53500000D03*
X89575735Y-90058409D03*
X25000000Y-56500000D03*
X87500000Y-92909000D03*
X92000000Y-26250000D03*
X71750000Y-55000000D03*
X45250000Y-22650000D03*
X88750000Y-79500000D03*
X25000000Y-53749000D03*
X90250000Y-53749000D03*
X46750000Y-24267489D03*
X47750000Y-26250000D03*
%TO.N,Net-(Q205-C)*%
X34500000Y-39269489D03*
%TO.N,Net-(Q209-B)*%
X43500000Y-39269489D03*
%TO.N,Net-(Q211-C)*%
X43500000Y-37769489D03*
X39500000Y-39269489D03*
%TO.N,Net-(Q305-C)*%
X57371017Y-39268489D03*
%TO.N,Net-(Q309-B)*%
X66371017Y-39268489D03*
%TO.N,Net-(Q311-C)*%
X66371017Y-37768489D03*
X62371017Y-39268489D03*
%TO.N,Net-(Q405-C)*%
X79839176Y-39269489D03*
%TO.N,Net-(Q409-B)*%
X88839176Y-39269489D03*
%TO.N,Net-(Q411-C)*%
X88839176Y-37769489D03*
X84839176Y-39269489D03*
%TO.N,Net-(Q505-C)*%
X101636897Y-39177172D03*
%TO.N,Net-(Q509-B)*%
X110636897Y-39177172D03*
%TO.N,Net-(Q511-C)*%
X106636897Y-39177172D03*
X110636897Y-37677172D03*
%TO.N,Net-(Q605-C)*%
X34601017Y-69564842D03*
%TO.N,Net-(Q609-B)*%
X43601017Y-69564842D03*
%TO.N,Net-(Q611-C)*%
X36250000Y-61250000D03*
X39250000Y-64250000D03*
X39601017Y-69564842D03*
X43601017Y-68064842D03*
%TO.N,Net-(Q705-C)*%
X57318235Y-69364242D03*
%TO.N,Net-(Q709-B)*%
X66318235Y-69364242D03*
%TO.N,Net-(Q711-C)*%
X66318235Y-67864242D03*
X62000000Y-64000000D03*
X62318235Y-69364242D03*
X58500000Y-61250000D03*
%TO.N,Net-(Q805-C)*%
X79752565Y-69331409D03*
%TO.N,Net-(Q809-B)*%
X88752565Y-69331409D03*
%TO.N,Net-(Q811-C)*%
X80750000Y-61250000D03*
X88752565Y-67831409D03*
X84500000Y-64000000D03*
X84752565Y-69331409D03*
%TO.N,Net-(Q905-C)*%
X101561204Y-69348301D03*
%TO.N,Net-(Q909-B)*%
X110561204Y-69348301D03*
%TO.N,Net-(Q911-C)*%
X106250000Y-64000000D03*
X102750000Y-61250000D03*
X106561204Y-69348301D03*
X110561204Y-67848301D03*
%TD*%
D17*
%TO.N,Net-(C101-Pad2)*%
X70544678Y-94360409D02*
X69860409Y-94360409D01*
X78369678Y-90860409D02*
X78254634Y-90745366D01*
X69860409Y-94360409D02*
X69535816Y-94035816D01*
X67886223Y-90287423D02*
X68314237Y-89859409D01*
X77368678Y-89859409D02*
X78254634Y-90745366D01*
X68314237Y-89859409D02*
X77368678Y-89859409D01*
%TO.N,/DFlipFlop3/D*%
X91701000Y-45051000D02*
X91701000Y-49699000D01*
X18000000Y-75120000D02*
X16349000Y-73469000D01*
X28818345Y-21048000D02*
X85238515Y-21048000D01*
X16349000Y-73469000D02*
X16349000Y-33517345D01*
X93335174Y-48209293D02*
X93335174Y-50209293D01*
X91499000Y-27308485D02*
X91499000Y-31205068D01*
X16349000Y-33517345D02*
X28818345Y-21048000D01*
X91701000Y-49699000D02*
X91650000Y-49750000D01*
X91650000Y-45000000D02*
X91701000Y-45051000D01*
X92250000Y-51250000D02*
X92294467Y-51250000D01*
X85238515Y-21048000D02*
X91499000Y-27308485D01*
X92294467Y-51250000D02*
X93335174Y-50209293D01*
%TO.N,/DFlipFlop2/D*%
X16750000Y-33683445D02*
X28984445Y-21449000D01*
X74500000Y-47500000D02*
X74300610Y-47300610D01*
X28984445Y-21449000D02*
X68199000Y-21449000D01*
X18000000Y-72580000D02*
X16750000Y-71330000D01*
X72538453Y-47300610D02*
X71537453Y-48301610D01*
X68199000Y-21449000D02*
X70750000Y-24000000D01*
X16750000Y-71330000D02*
X16750000Y-33683445D01*
X71537453Y-48301610D02*
X71537453Y-50301610D01*
X74300610Y-47300610D02*
X72538453Y-47300610D01*
%TO.N,/DFlipFlop1/D*%
X46399000Y-45601000D02*
X46399000Y-46248943D01*
X48450667Y-48300610D02*
X49069294Y-48300610D01*
X47500000Y-24098530D02*
X47575735Y-24174265D01*
X46399000Y-46248943D02*
X48450667Y-48300610D01*
X49069294Y-48300610D02*
X49069294Y-50300610D01*
X47750000Y-44250000D02*
X46399000Y-45601000D01*
X47500000Y-22050000D02*
X47500000Y-24098530D01*
%TO.N,/DFlipFlop/D*%
X22301610Y-50301610D02*
X26198277Y-50301610D01*
X26198277Y-48301610D02*
X26198277Y-50301610D01*
X22250000Y-50250000D02*
X22301610Y-50301610D01*
%TO.N,/DFlipFlop3/Q*%
X100386897Y-35907683D02*
X102709033Y-35907683D01*
X90099000Y-52151000D02*
X92250000Y-50000000D01*
X92250000Y-50000000D02*
X92250000Y-40000000D01*
X100017272Y-37605819D02*
X100017272Y-37380819D01*
X18531000Y-52151000D02*
X90099000Y-52151000D01*
X100136897Y-36157683D02*
X100386897Y-35907683D01*
X97280798Y-39469202D02*
X98153889Y-39469202D01*
X98153889Y-39469202D02*
X100017272Y-37605819D01*
X18000000Y-51620000D02*
X18531000Y-52151000D01*
X102709033Y-35907683D02*
X102886897Y-35729819D01*
%TO.N,/DFlipFlop2/Q*%
X69000000Y-51000000D02*
X69000000Y-41789172D01*
X78219551Y-37698136D02*
X78219551Y-37473136D01*
X80911312Y-36000000D02*
X81089176Y-35822136D01*
X20670000Y-51750000D02*
X68250000Y-51750000D01*
X78589176Y-36000000D02*
X80911312Y-36000000D01*
X75585779Y-39664221D02*
X76253466Y-39664221D01*
X76253466Y-39664221D02*
X78219551Y-37698136D01*
X18000000Y-49080000D02*
X20670000Y-51750000D01*
X69000000Y-41789172D02*
X70524551Y-40264621D01*
X68250000Y-51750000D02*
X69000000Y-51000000D01*
X78339176Y-36250000D02*
X78589176Y-36000000D01*
%TO.N,/DFlipFlop/Q*%
X33250000Y-36000000D02*
X35572136Y-36000000D01*
X28802182Y-37328083D02*
X29998235Y-38524136D01*
X33000000Y-36250000D02*
X33250000Y-36000000D01*
X28802182Y-37289024D02*
X28802182Y-37328083D01*
X32225864Y-38524136D02*
X32880375Y-37869625D01*
X18000000Y-44000000D02*
X18000000Y-42500000D01*
X29998235Y-38524136D02*
X32225864Y-38524136D01*
X18000000Y-42500000D02*
X25000000Y-35500000D01*
X32880375Y-37869625D02*
X32880375Y-37473136D01*
X35572136Y-36000000D02*
X35750000Y-35822136D01*
%TO.N,/DFlipFlop1/Q*%
X58443153Y-35999000D02*
X58621017Y-35821136D01*
X56121017Y-35999000D02*
X58443153Y-35999000D01*
X54095461Y-39251207D02*
X55751392Y-37595276D01*
X55871017Y-36249000D02*
X56121017Y-35999000D01*
X24819769Y-36430231D02*
X24918299Y-36430231D01*
X19500000Y-41750000D02*
X24819769Y-36430231D01*
X18000000Y-46540000D02*
X19500000Y-45040000D01*
X52748793Y-39251207D02*
X54095461Y-39251207D01*
X19500000Y-45040000D02*
X19500000Y-41750000D01*
X55751392Y-37595276D02*
X55751392Y-37472136D01*
%TO.N,Net-(J102-Pin_1)*%
X74457178Y-90860409D02*
X72760178Y-92557409D01*
X62232395Y-92557409D02*
X61000000Y-93789804D01*
X72760178Y-92557409D02*
X62232395Y-92557409D01*
%TO.N,Net-(Q101-B)*%
X80194678Y-90860409D02*
X81578939Y-90860409D01*
X81578939Y-90860409D02*
X81609265Y-90890735D01*
%TO.N,Net-(Q101-C)*%
X70500000Y-91709000D02*
X70500000Y-90990731D01*
X81360409Y-94360409D02*
X81500000Y-94500000D01*
X80282178Y-94360409D02*
X81360409Y-94360409D01*
X70500000Y-90990731D02*
X70369678Y-90860409D01*
%TO.N,GND*%
X77339176Y-43669489D02*
X79894538Y-46224851D01*
X100017272Y-27380819D02*
X101068272Y-28431819D01*
X38481392Y-57993489D02*
X38481392Y-57768489D01*
X62249610Y-56516889D02*
X65872610Y-56516889D01*
X38380375Y-27473136D02*
X39431375Y-26422136D01*
X66751392Y-27247136D02*
X66751392Y-27472136D01*
X36500000Y-38669489D02*
X34250057Y-38669489D01*
X83719551Y-27473136D02*
X84770551Y-26422136D01*
X80556557Y-40168489D02*
X81824126Y-41436058D01*
X56770017Y-39019546D02*
X56770017Y-39815432D01*
X99136897Y-43577172D02*
X101692259Y-46132534D01*
X57373597Y-76319604D02*
X57373597Y-78264242D01*
X89132940Y-57310056D02*
X89132940Y-57535056D01*
X110191272Y-26329819D02*
X111017272Y-27155819D01*
X59318235Y-68764242D02*
X57068292Y-68764242D01*
X82806940Y-58586056D02*
X83632940Y-57760056D01*
X104615579Y-58602948D02*
X104615579Y-58638481D01*
X32000000Y-43669489D02*
X34555362Y-46224851D01*
X32981392Y-57768489D02*
X34032392Y-58819489D01*
X88306940Y-56484056D02*
X89132940Y-57310056D01*
X105517272Y-27605819D02*
X105517272Y-27380819D01*
X105441579Y-57551948D02*
X106492579Y-56500948D01*
X101692259Y-46132534D02*
X101692259Y-48077172D01*
X101035897Y-39724115D02*
X101387954Y-40076172D01*
X101387954Y-40076172D02*
X102354278Y-40076172D01*
X83632940Y-57535056D02*
X84683940Y-56484056D01*
X56770017Y-39815432D02*
X57122074Y-40167489D01*
X39431375Y-26422136D02*
X43054375Y-26422136D01*
X60372610Y-58618889D02*
X61198610Y-57792889D01*
X72369678Y-94360409D02*
X73094441Y-94360409D01*
X82806940Y-58621589D02*
X82848241Y-58662890D01*
X79807927Y-76286771D02*
X79807927Y-78231409D01*
X59371017Y-38668489D02*
X57121074Y-38668489D01*
X89219551Y-27248136D02*
X89219551Y-27473136D01*
X105517272Y-27380819D02*
X106568272Y-26329819D01*
X37554375Y-28559669D02*
X37595676Y-28600970D01*
X79238176Y-39020546D02*
X79238176Y-39816432D01*
X79270551Y-28524136D02*
X82893551Y-28524136D01*
X79589233Y-38669489D02*
X79238176Y-39020546D01*
X61251392Y-27472136D02*
X62302392Y-26421136D01*
X99941579Y-57551948D02*
X100992579Y-58602948D01*
X73094441Y-94360409D02*
X73444678Y-94010172D01*
X101386954Y-38577172D02*
X101035897Y-38928229D01*
X106492579Y-56500948D02*
X110115579Y-56500948D01*
X54871017Y-43668489D02*
X57426379Y-46223851D01*
X60425392Y-28523136D02*
X61251392Y-27697136D01*
X101616566Y-76303663D02*
X101616566Y-78248301D01*
X60425392Y-28523136D02*
X60425392Y-28558669D01*
X66698610Y-57342889D02*
X66698610Y-57567889D01*
X79503622Y-70230409D02*
X80469946Y-70230409D01*
X79151565Y-69082466D02*
X79151565Y-69878352D01*
X34000017Y-69315899D02*
X34000017Y-70111785D01*
X35318398Y-70463842D02*
X36585967Y-71731411D01*
X104691272Y-28467352D02*
X104732573Y-28508653D01*
X43054375Y-26422136D02*
X43880375Y-27248136D01*
X79502622Y-68731409D02*
X79151565Y-69082466D01*
X61198610Y-57567889D02*
X62249610Y-56516889D01*
X65872610Y-56516889D02*
X66698610Y-57342889D01*
X56717235Y-69911185D02*
X57069292Y-70263242D01*
X33899000Y-39816432D02*
X34251057Y-40168489D01*
X37655392Y-58819489D02*
X38481392Y-57993489D01*
X34352074Y-70463842D02*
X35318398Y-70463842D01*
X99061204Y-73748301D02*
X101616566Y-76303663D01*
X61198610Y-57792889D02*
X61198610Y-57567889D01*
X79183940Y-58586056D02*
X82806940Y-58586056D01*
X35217381Y-40168489D02*
X36484950Y-41436058D01*
X80469946Y-70230409D02*
X81737515Y-71497978D01*
X34351074Y-68964842D02*
X34000017Y-69315899D01*
X58088398Y-40167489D02*
X59355967Y-41435058D01*
X37554375Y-28524136D02*
X37554375Y-28559669D01*
X79894538Y-46224851D02*
X79894538Y-48169489D01*
X104691272Y-28431819D02*
X105517272Y-27605819D01*
X62302392Y-26421136D02*
X65925392Y-26421136D01*
X104691272Y-28431819D02*
X104691272Y-28467352D01*
X34555362Y-46224851D02*
X34555362Y-48169489D01*
X56802392Y-28523136D02*
X60425392Y-28523136D01*
X60372610Y-58618889D02*
X60372610Y-58654422D01*
X101312261Y-70247301D02*
X102278585Y-70247301D01*
X110115579Y-56500948D02*
X110941579Y-57326948D01*
X104615579Y-58638481D02*
X104656880Y-58679782D01*
X84770551Y-26422136D02*
X88393551Y-26422136D01*
X34250057Y-38669489D02*
X33899000Y-39020546D01*
X56749610Y-58618889D02*
X60372610Y-58618889D01*
X43880375Y-27248136D02*
X43880375Y-27473136D01*
X37554375Y-28524136D02*
X38380375Y-27698136D01*
X82893551Y-28559669D02*
X82934852Y-28600970D01*
X77252565Y-73731409D02*
X79807927Y-76286771D01*
X110941579Y-57326948D02*
X110941579Y-57551948D01*
X55698610Y-57567889D02*
X56749610Y-58618889D01*
X34032392Y-58819489D02*
X37655392Y-58819489D01*
X83632940Y-57760056D02*
X83632940Y-57535056D01*
X57426379Y-46223851D02*
X57426379Y-48168489D01*
X106568272Y-26329819D02*
X110191272Y-26329819D01*
X89230000Y-93360000D02*
X88640000Y-93360000D01*
X58035616Y-70263242D02*
X59303185Y-71530811D01*
X61251392Y-27697136D02*
X61251392Y-27472136D01*
X81839176Y-38669489D02*
X79589233Y-38669489D01*
X105441579Y-57776948D02*
X105441579Y-57551948D01*
X55751392Y-27472136D02*
X56802392Y-28523136D01*
X88393551Y-26422136D02*
X89219551Y-27248136D01*
X43981392Y-57543489D02*
X43981392Y-57768489D01*
X101311261Y-68748301D02*
X100960204Y-69099358D01*
X36601017Y-68964842D02*
X34351074Y-68964842D01*
X100960204Y-69895244D02*
X101312261Y-70247301D01*
X104615579Y-58602948D02*
X105441579Y-57776948D01*
X56717235Y-69115299D02*
X56717235Y-69911185D01*
X54818235Y-73764242D02*
X57373597Y-76319604D01*
X103561204Y-68748301D02*
X101311261Y-68748301D01*
X60425392Y-28558669D02*
X60466693Y-28599970D01*
X38380375Y-27698136D02*
X38380375Y-27473136D01*
X32101017Y-73964842D02*
X34656379Y-76520204D01*
X79590233Y-40168489D02*
X80556557Y-40168489D01*
X81752565Y-68731409D02*
X79502622Y-68731409D01*
X102278585Y-70247301D02*
X103546154Y-71514870D01*
X82893551Y-28524136D02*
X82893551Y-28559669D01*
X103636897Y-38577172D02*
X101386954Y-38577172D01*
X33931375Y-28524136D02*
X37554375Y-28524136D01*
X94090000Y-94500000D02*
X95230000Y-93360000D01*
X57121074Y-38668489D02*
X56770017Y-39019546D01*
X43155392Y-56717489D02*
X43981392Y-57543489D01*
X32880375Y-27473136D02*
X33931375Y-28524136D01*
X34000017Y-70111785D02*
X34352074Y-70463842D01*
X111017272Y-27155819D02*
X111017272Y-27380819D01*
X65925392Y-26421136D02*
X66751392Y-27247136D01*
X82806940Y-58586056D02*
X82806940Y-58621589D01*
X57069292Y-70263242D02*
X58035616Y-70263242D01*
X79238176Y-39816432D02*
X79590233Y-40168489D01*
X60372610Y-58654422D02*
X60413911Y-58695723D01*
X101035897Y-38928229D02*
X101035897Y-39724115D01*
X57068292Y-68764242D02*
X56717235Y-69115299D01*
X38481392Y-57768489D02*
X39532392Y-56717489D01*
X37655392Y-58819489D02*
X37655392Y-58855022D01*
X88640000Y-93360000D02*
X87500000Y-94500000D01*
X87500000Y-94500000D02*
X94090000Y-94500000D01*
X24750000Y-51000000D02*
X23500000Y-51000000D01*
X102354278Y-40076172D02*
X103621847Y-41343741D01*
X78132940Y-57535056D02*
X79183940Y-58586056D01*
X82893551Y-28524136D02*
X83719551Y-27698136D01*
X84683940Y-56484056D02*
X88306940Y-56484056D01*
X39532392Y-56717489D02*
X43155392Y-56717489D01*
X37655392Y-58855022D02*
X37696693Y-58896323D01*
X34656379Y-76520204D02*
X34656379Y-78464842D01*
X79151565Y-69878352D02*
X79503622Y-70230409D01*
X100960204Y-69099358D02*
X100960204Y-69895244D01*
X100992579Y-58602948D02*
X104615579Y-58602948D01*
X83719551Y-27698136D02*
X83719551Y-27473136D01*
X78219551Y-27473136D02*
X79270551Y-28524136D01*
X101068272Y-28431819D02*
X104691272Y-28431819D01*
X34251057Y-40168489D02*
X35217381Y-40168489D01*
X33899000Y-39020546D02*
X33899000Y-39816432D01*
X57122074Y-40167489D02*
X58088398Y-40167489D01*
%TO.N,Net-(Q102-B)*%
X83138030Y-91570970D02*
X82847591Y-91861409D01*
X82847591Y-91861409D02*
X77283178Y-91861409D01*
X76282178Y-90860409D02*
X77283178Y-91861409D01*
X96500000Y-91709000D02*
X96500000Y-93360000D01*
%TO.N,Net-(Q103-B)*%
X72347087Y-90708000D02*
X72194678Y-90860409D01*
X91739591Y-91997269D02*
X91739591Y-91239591D01*
X72699000Y-89458409D02*
X89958409Y-89458409D01*
X90500000Y-93360000D02*
X90500000Y-93236860D01*
X90500000Y-93236860D02*
X91739591Y-91997269D01*
X91739591Y-91239591D02*
X89958409Y-89458409D01*
X73444678Y-90708000D02*
X72347087Y-90708000D01*
X72699000Y-89458409D02*
X72500000Y-89259409D01*
%TO.N,Net-(Q201-B)*%
X40000000Y-47583250D02*
X44706375Y-42876875D01*
X36575145Y-51302610D02*
X27525617Y-51302610D01*
X44706375Y-30176136D02*
X42610375Y-28080136D01*
X27209777Y-49115110D02*
X27209777Y-50986770D01*
X36575145Y-51302610D02*
X36575145Y-51194344D01*
X44706375Y-42876875D02*
X44706375Y-30176136D01*
X28023277Y-48301610D02*
X27209777Y-49115110D01*
X27209777Y-50986770D02*
X27525617Y-51302610D01*
X40000000Y-47769489D02*
X40000000Y-47583250D01*
X42610375Y-28080136D02*
X42610375Y-27473136D01*
X36575145Y-51194344D02*
X40000000Y-47769489D01*
%TO.N,Net-(Q201-C)*%
X39500000Y-44269489D02*
X39928813Y-44269489D01*
X28022875Y-42590930D02*
X28573020Y-43141075D01*
X28022875Y-42289023D02*
X28022875Y-42590930D01*
X39928813Y-44269489D02*
X40677314Y-43520988D01*
%TO.N,Net-(Q202-E)*%
X38394221Y-47606534D02*
X38394221Y-47831534D01*
X37456266Y-48769489D02*
X34036728Y-48769489D01*
X38394221Y-47831534D02*
X37456266Y-48769489D01*
X34036728Y-48769489D02*
X32880375Y-47613136D01*
X39251590Y-47606534D02*
X39283008Y-47637952D01*
X38394221Y-47606534D02*
X39251590Y-47606534D01*
%TO.N,Net-(Q202-C)*%
X27011375Y-39277523D02*
X28022875Y-40289023D01*
X26197875Y-32289023D02*
X27011375Y-33102523D01*
X29514375Y-41780523D02*
X29514375Y-46787136D01*
X27011375Y-33102523D02*
X27011375Y-39277523D01*
X28022875Y-40289023D02*
X29514375Y-41780523D01*
X29514375Y-46787136D02*
X30340375Y-47613136D01*
%TO.N,Net-(Q202-B)*%
X28023277Y-50301610D02*
X29421901Y-50301610D01*
X29421901Y-50301610D02*
X31610375Y-48113136D01*
X31610375Y-48113136D02*
X31610375Y-47613136D01*
%TO.N,Net-(Q203-B)*%
X37769489Y-45269489D02*
X39500000Y-45269489D01*
X28050721Y-30282294D02*
X28268427Y-30500000D01*
X36500000Y-44000000D02*
X37769489Y-45269489D01*
X31333900Y-30670489D02*
X33420489Y-30670489D01*
X34500000Y-42000000D02*
X35014375Y-42514375D01*
X35014375Y-42514375D02*
X35014375Y-43040276D01*
X28268427Y-30500000D02*
X31163411Y-30500000D01*
X36000000Y-44000000D02*
X36500000Y-44000000D01*
X35498235Y-43524136D02*
X35524136Y-43524136D01*
X34500000Y-40769489D02*
X34500000Y-42000000D01*
X35524136Y-43524136D02*
X36000000Y-44000000D01*
X31163411Y-30500000D02*
X31333900Y-30670489D01*
X35014375Y-43040276D02*
X35498235Y-43524136D01*
X34500000Y-31750000D02*
X34500000Y-35269489D01*
X33420489Y-30670489D02*
X34500000Y-31750000D01*
%TO.N,Net-(Q204-B)*%
X42502314Y-43520988D02*
X39467768Y-46555534D01*
X37568221Y-46555534D02*
X37124221Y-46999534D01*
X37124221Y-46999534D02*
X37124221Y-47606534D01*
X39467768Y-46555534D02*
X37568221Y-46555534D01*
%TO.N,Net-(Q204-C)*%
X28022875Y-44471691D02*
X26208591Y-46285975D01*
X28391756Y-44289023D02*
X28914375Y-44811642D01*
X28022875Y-44289023D02*
X28391756Y-44289023D01*
X28022875Y-44289023D02*
X28022875Y-44471691D01*
%TO.N,Net-(Q205-B)*%
X29314022Y-35269489D02*
X28914375Y-35269489D01*
X31610375Y-32473136D02*
X31610375Y-32973136D01*
X31610375Y-32973136D02*
X29314022Y-35269489D01*
%TO.N,Net-(Q205-E)*%
X32880375Y-32065908D02*
X31914467Y-31100000D01*
X32880375Y-32473136D02*
X32880375Y-32065908D01*
X31914467Y-31100000D02*
X29250000Y-31100000D01*
%TO.N,Net-(Q206-B)*%
X42522875Y-31473136D02*
X42522875Y-30773136D01*
X41419228Y-29669489D02*
X39500000Y-29669489D01*
X42522875Y-30773136D02*
X41419228Y-29669489D01*
%TO.N,Net-(Q207-B)*%
X28397889Y-46285975D02*
X28914375Y-45769489D01*
X30500000Y-43769489D02*
X31610375Y-42659114D01*
X28033591Y-46285975D02*
X28397889Y-46285975D01*
X31610375Y-42659114D02*
X31610375Y-42473136D01*
X30500000Y-45411642D02*
X30500000Y-43769489D01*
%TO.N,Net-(Q207-C)*%
X33706375Y-38524136D02*
X31623988Y-40606523D01*
X40697875Y-31473136D02*
X40697875Y-33480247D01*
X33706375Y-37769489D02*
X33706375Y-38524136D01*
X30340375Y-40606523D02*
X30340375Y-42473136D01*
X40697875Y-33480247D02*
X37755986Y-36422136D01*
X35053728Y-36422136D02*
X33706375Y-37769489D01*
X28022875Y-38289023D02*
X30340375Y-40606523D01*
X31623988Y-40606523D02*
X30340375Y-40606523D01*
X37755986Y-36422136D02*
X35053728Y-36422136D01*
%TO.N,Net-(Q207-E)*%
X34795061Y-43669489D02*
X34000000Y-43669489D01*
X32880375Y-42549864D02*
X32880375Y-42473136D01*
X34000000Y-43669489D02*
X32880375Y-42549864D01*
%TO.N,Net-(Q208-B)*%
X42522875Y-41473136D02*
X41522875Y-42473136D01*
X37707022Y-41269489D02*
X37110375Y-41866136D01*
X41522875Y-42473136D02*
X40199215Y-42473136D01*
X37110375Y-41866136D02*
X37110375Y-42473136D01*
X38995568Y-41269489D02*
X37707022Y-41269489D01*
X40199215Y-42473136D02*
X38995568Y-41269489D01*
%TO.N,Net-(Q301-C)*%
X50893892Y-42589930D02*
X51444037Y-43140075D01*
X50893892Y-42288023D02*
X50893892Y-42589930D01*
X62371017Y-44268489D02*
X62799830Y-44268489D01*
X62799830Y-44268489D02*
X63548331Y-43519988D01*
%TO.N,Net-(Q301-B)*%
X67577392Y-42875875D02*
X67577392Y-30175136D01*
X59446162Y-51301610D02*
X59446162Y-51193344D01*
X67577392Y-30175136D02*
X65481392Y-28079136D01*
X65481392Y-28079136D02*
X65481392Y-27472136D01*
X62871017Y-47768489D02*
X62871017Y-47582250D01*
X50894294Y-48300610D02*
X50080794Y-49114110D01*
X59446162Y-51301610D02*
X50396634Y-51301610D01*
X59446162Y-51193344D02*
X62871017Y-47768489D01*
X62871017Y-47582250D02*
X67577392Y-42875875D01*
X50080794Y-49114110D02*
X50080794Y-50985770D01*
X50080794Y-50985770D02*
X50396634Y-51301610D01*
%TO.N,Net-(Q302-E)*%
X62122607Y-47605534D02*
X62154025Y-47636952D01*
X61265238Y-47605534D02*
X62122607Y-47605534D01*
X60327283Y-48768489D02*
X56907745Y-48768489D01*
X61265238Y-47605534D02*
X61265238Y-47830534D01*
X61265238Y-47830534D02*
X60327283Y-48768489D01*
X56907745Y-48768489D02*
X55751392Y-47612136D01*
%TO.N,Net-(Q302-C)*%
X49882392Y-33101523D02*
X49882392Y-39276523D01*
X49068892Y-32288023D02*
X49882392Y-33101523D01*
X50893892Y-40288023D02*
X52385392Y-41779523D01*
X52385392Y-41779523D02*
X52385392Y-46786136D01*
X52385392Y-46786136D02*
X53211392Y-47612136D01*
X49882392Y-39276523D02*
X50893892Y-40288023D01*
%TO.N,Net-(Q302-B)*%
X50894294Y-50300610D02*
X52292918Y-50300610D01*
X52292918Y-50300610D02*
X54481392Y-48112136D01*
X54481392Y-48112136D02*
X54481392Y-47612136D01*
%TO.N,Net-(Q303-B)*%
X59371017Y-43999000D02*
X60640506Y-45268489D01*
X58845116Y-43999000D02*
X59371017Y-43999000D01*
X54204917Y-30669489D02*
X54034428Y-30499000D01*
X57371017Y-42524901D02*
X58845116Y-43999000D01*
X54034428Y-30499000D02*
X51139444Y-30499000D01*
X57371017Y-31749000D02*
X56291506Y-30669489D01*
X57371017Y-40768489D02*
X57371017Y-42524901D01*
X57371017Y-35268489D02*
X57371017Y-31749000D01*
X56291506Y-30669489D02*
X54204917Y-30669489D01*
X60640506Y-45268489D02*
X62371017Y-45268489D01*
X51139444Y-30499000D02*
X50921738Y-30281294D01*
%TO.N,Net-(Q304-C)*%
X51262773Y-44288023D02*
X51785392Y-44810642D01*
X50893892Y-44470691D02*
X49079608Y-46284975D01*
X50893892Y-44288023D02*
X50893892Y-44470691D01*
X50893892Y-44288023D02*
X51262773Y-44288023D01*
%TO.N,Net-(Q304-B)*%
X59995238Y-46998534D02*
X59995238Y-47605534D01*
X60439238Y-46554534D02*
X59995238Y-46998534D01*
X65373331Y-43519988D02*
X62338785Y-46554534D01*
X62338785Y-46554534D02*
X60439238Y-46554534D01*
%TO.N,Net-(Q305-B)*%
X54481392Y-32472136D02*
X54481392Y-32972136D01*
X54481392Y-32972136D02*
X52185039Y-35268489D01*
X52185039Y-35268489D02*
X51785392Y-35268489D01*
%TO.N,Net-(Q306-B)*%
X64290245Y-29668489D02*
X62371017Y-29668489D01*
X65393892Y-31472136D02*
X65393892Y-30772136D01*
X65393892Y-30772136D02*
X64290245Y-29668489D01*
%TO.N,Net-(Q307-B)*%
X51268906Y-46284975D02*
X51785392Y-45768489D01*
X50904608Y-46284975D02*
X51268906Y-46284975D01*
X54481392Y-42658114D02*
X54481392Y-42472136D01*
X53371017Y-45410642D02*
X53371017Y-43768489D01*
X53371017Y-43768489D02*
X54481392Y-42658114D01*
%TO.N,Net-(Q307-C)*%
X54495005Y-40605523D02*
X53211392Y-40605523D01*
X56577392Y-37768489D02*
X56577392Y-38523136D01*
X56577392Y-38523136D02*
X54495005Y-40605523D01*
X63568892Y-33479247D02*
X60627003Y-36421136D01*
X60627003Y-36421136D02*
X57924745Y-36421136D01*
X63568892Y-31472136D02*
X63568892Y-33479247D01*
X50893892Y-38288023D02*
X53211392Y-40605523D01*
X53211392Y-40605523D02*
X53211392Y-42472136D01*
X57924745Y-36421136D02*
X56577392Y-37768489D01*
%TO.N,Net-(Q307-E)*%
X55751392Y-42472136D02*
X56780463Y-43501207D01*
X56780463Y-43501207D02*
X57498793Y-43501207D01*
%TO.N,Net-(Q308-B)*%
X61866585Y-41268489D02*
X60578039Y-41268489D01*
X60578039Y-41268489D02*
X59981392Y-41865136D01*
X64393892Y-42472136D02*
X63070232Y-42472136D01*
X63070232Y-42472136D02*
X61866585Y-41268489D01*
X59981392Y-41865136D02*
X59981392Y-42472136D01*
X65393892Y-41472136D02*
X64393892Y-42472136D01*
%TO.N,Net-(Q401-B)*%
X87949551Y-28080136D02*
X87949551Y-27473136D01*
X72548953Y-49115110D02*
X72548953Y-50986770D01*
X72548953Y-50986770D02*
X72864793Y-51302610D01*
X90045551Y-30176136D02*
X87949551Y-28080136D01*
X81914321Y-51194344D02*
X85339176Y-47769489D01*
X85339176Y-47583250D02*
X90045551Y-42876875D01*
X90045551Y-42876875D02*
X90045551Y-30176136D01*
X73362453Y-48301610D02*
X72548953Y-49115110D01*
X81914321Y-51302610D02*
X81914321Y-51194344D01*
X85339176Y-47769489D02*
X85339176Y-47583250D01*
X81914321Y-51302610D02*
X72864793Y-51302610D01*
%TO.N,Net-(Q401-C)*%
X85267989Y-44269489D02*
X86016490Y-43520988D01*
X73362051Y-42590930D02*
X73912196Y-43141075D01*
X73362051Y-42289023D02*
X73362051Y-42590930D01*
X84839176Y-44269489D02*
X85267989Y-44269489D01*
%TO.N,Net-(Q402-E)*%
X83733397Y-47606534D02*
X83733397Y-47831534D01*
X84590766Y-47606534D02*
X84622184Y-47637952D01*
X83733397Y-47831534D02*
X82795442Y-48769489D01*
X83733397Y-47606534D02*
X84590766Y-47606534D01*
X82795442Y-48769489D02*
X79375904Y-48769489D01*
X79375904Y-48769489D02*
X78219551Y-47613136D01*
%TO.N,Net-(Q402-B)*%
X73362453Y-50301610D02*
X74761077Y-50301610D01*
X76949551Y-48113136D02*
X76949551Y-47613136D01*
X74761077Y-50301610D02*
X76949551Y-48113136D01*
%TO.N,Net-(Q402-C)*%
X74853551Y-41780523D02*
X74853551Y-46787136D01*
X74853551Y-46787136D02*
X75679551Y-47613136D01*
X73362051Y-40289023D02*
X74853551Y-41780523D01*
X72350551Y-39277523D02*
X73362051Y-40289023D01*
X72350551Y-33102523D02*
X72350551Y-39277523D01*
X71537051Y-32289023D02*
X72350551Y-33102523D01*
%TO.N,Net-(Q403-B)*%
X80381764Y-43068489D02*
X80735237Y-43421962D01*
X80735237Y-43421962D02*
X80735237Y-43735237D01*
X79839176Y-35269489D02*
X79839176Y-31750000D01*
X73607603Y-30500000D02*
X73389897Y-30282294D01*
X82269489Y-45269489D02*
X84839176Y-45269489D01*
X76502587Y-30500000D02*
X73607603Y-30500000D01*
X78759665Y-30670489D02*
X76673076Y-30670489D01*
X79839176Y-40769489D02*
X79839176Y-42839176D01*
X80735237Y-43735237D02*
X82269489Y-45269489D01*
X76673076Y-30670489D02*
X76502587Y-30500000D01*
X79839176Y-31750000D02*
X78759665Y-30670489D01*
X79839176Y-42839176D02*
X80068489Y-43068489D01*
X80068489Y-43068489D02*
X80381764Y-43068489D01*
%TO.N,Net-(Q404-B)*%
X82907397Y-46555534D02*
X82463397Y-46999534D01*
X84806944Y-46555534D02*
X82907397Y-46555534D01*
X87841490Y-43520988D02*
X84806944Y-46555534D01*
X82463397Y-46999534D02*
X82463397Y-47606534D01*
%TO.N,Net-(Q404-C)*%
X73362051Y-44471691D02*
X71547767Y-46285975D01*
X73362051Y-44289023D02*
X73730932Y-44289023D01*
X73730932Y-44289023D02*
X74253551Y-44811642D01*
X73362051Y-44289023D02*
X73362051Y-44471691D01*
%TO.N,Net-(Q405-B)*%
X76949551Y-32973136D02*
X74653198Y-35269489D01*
X76949551Y-32473136D02*
X76949551Y-32973136D01*
X74653198Y-35269489D02*
X74253551Y-35269489D01*
%TO.N,Net-(Q406-B)*%
X86758404Y-29669489D02*
X84839176Y-29669489D01*
X87862051Y-31473136D02*
X87862051Y-30773136D01*
X87862051Y-30773136D02*
X86758404Y-29669489D01*
%TO.N,Net-(Q407-C)*%
X79045551Y-38524136D02*
X76963164Y-40606523D01*
X73362051Y-38289023D02*
X75679551Y-40606523D01*
X83095162Y-36422136D02*
X80392904Y-36422136D01*
X79045551Y-37769489D02*
X79045551Y-38524136D01*
X86037051Y-31473136D02*
X86037051Y-33480247D01*
X75679551Y-40606523D02*
X75679551Y-42473136D01*
X80392904Y-36422136D02*
X79045551Y-37769489D01*
X86037051Y-33480247D02*
X83095162Y-36422136D01*
X76963164Y-40606523D02*
X75679551Y-40606523D01*
%TO.N,Net-(Q407-E)*%
X79415904Y-43669489D02*
X80000000Y-43669489D01*
X78219551Y-42473136D02*
X79415904Y-43669489D01*
%TO.N,Net-(Q407-B)*%
X73372767Y-46285975D02*
X73737065Y-46285975D01*
X76949551Y-42659114D02*
X76949551Y-42473136D01*
X75839176Y-45411642D02*
X75839176Y-43769489D01*
X75839176Y-43769489D02*
X76949551Y-42659114D01*
X73737065Y-46285975D02*
X74253551Y-45769489D01*
%TO.N,Net-(Q408-B)*%
X86862051Y-42473136D02*
X85538391Y-42473136D01*
X83046198Y-41269489D02*
X82449551Y-41866136D01*
X85538391Y-42473136D02*
X84334744Y-41269489D01*
X87862051Y-41473136D02*
X86862051Y-42473136D01*
X84334744Y-41269489D02*
X83046198Y-41269489D01*
X82449551Y-41866136D02*
X82449551Y-42473136D01*
%TO.N,Net-(Q501-B)*%
X111843272Y-42784558D02*
X111843272Y-30083819D01*
X94346674Y-49022793D02*
X94346674Y-50894453D01*
X107136897Y-47677172D02*
X107136897Y-47490933D01*
X107136897Y-47490933D02*
X111843272Y-42784558D01*
X103712042Y-51210293D02*
X94662514Y-51210293D01*
X94346674Y-50894453D02*
X94662514Y-51210293D01*
X111843272Y-30083819D02*
X109747272Y-27987819D01*
X103712042Y-51210293D02*
X103712042Y-51102027D01*
X103712042Y-51102027D02*
X107136897Y-47677172D01*
X95160174Y-48209293D02*
X94346674Y-49022793D01*
X109747272Y-27987819D02*
X109747272Y-27380819D01*
%TO.N,Net-(Q501-C)*%
X95159772Y-42196706D02*
X95159772Y-42498613D01*
X106636897Y-44177172D02*
X107065710Y-44177172D01*
X107065710Y-44177172D02*
X107814211Y-43428671D01*
X95159772Y-42498613D02*
X95709917Y-43048758D01*
%TO.N,Net-(Q502-C)*%
X93334772Y-32196706D02*
X94148272Y-33010206D01*
X94148272Y-33010206D02*
X94148272Y-39185206D01*
X96651272Y-46694819D02*
X97477272Y-47520819D01*
X96651272Y-41688206D02*
X96651272Y-46694819D01*
X94148272Y-39185206D02*
X95159772Y-40196706D01*
X95159772Y-40196706D02*
X96651272Y-41688206D01*
%TO.N,Net-(Q502-B)*%
X95160174Y-50209293D02*
X96558798Y-50209293D01*
X96558798Y-50209293D02*
X98747272Y-48020819D01*
X98747272Y-48020819D02*
X98747272Y-47520819D01*
%TO.N,Net-(Q502-E)*%
X105531118Y-47739217D02*
X104593163Y-48677172D01*
X101173625Y-48677172D02*
X100017272Y-47520819D01*
X105531118Y-47514217D02*
X106388487Y-47514217D01*
X105531118Y-47514217D02*
X105531118Y-47739217D01*
X104593163Y-48677172D02*
X101173625Y-48677172D01*
X106388487Y-47514217D02*
X106419905Y-47545635D01*
%TO.N,Net-(Q503-B)*%
X104906386Y-45177172D02*
X106636897Y-45177172D01*
X103636897Y-43907683D02*
X104906386Y-45177172D01*
X95187618Y-30189977D02*
X95405324Y-30407683D01*
X101636897Y-40677172D02*
X101636897Y-42433584D01*
X98300308Y-30407683D02*
X98470797Y-30578172D01*
X95405324Y-30407683D02*
X98300308Y-30407683D01*
X103110996Y-43907683D02*
X103636897Y-43907683D01*
X100557386Y-30578172D02*
X101636897Y-31657683D01*
X101636897Y-31657683D02*
X101636897Y-35177172D01*
X101636897Y-42433584D02*
X103110996Y-43907683D01*
X98470797Y-30578172D02*
X100557386Y-30578172D01*
%TO.N,Net-(Q504-C)*%
X95159772Y-44196706D02*
X95159772Y-44379374D01*
X95528653Y-44196706D02*
X96051272Y-44719325D01*
X95159772Y-44196706D02*
X95528653Y-44196706D01*
X95159772Y-44379374D02*
X93345488Y-46193658D01*
%TO.N,Net-(Q504-B)*%
X106604665Y-46463217D02*
X104705118Y-46463217D01*
X109639211Y-43428671D02*
X106604665Y-46463217D01*
X104705118Y-46463217D02*
X104261118Y-46907217D01*
X104261118Y-46907217D02*
X104261118Y-47514217D01*
%TO.N,Net-(Q505-B)*%
X96450919Y-35177172D02*
X96051272Y-35177172D01*
X98747272Y-32380819D02*
X98747272Y-32880819D01*
X98747272Y-32880819D02*
X96450919Y-35177172D01*
%TO.N,Net-(Q506-B)*%
X108556125Y-29577172D02*
X106636897Y-29577172D01*
X109659772Y-31380819D02*
X109659772Y-30680819D01*
X109659772Y-30680819D02*
X108556125Y-29577172D01*
%TO.N,Net-(Q507-B)*%
X98747272Y-42566797D02*
X98747272Y-42380819D01*
X95534786Y-46193658D02*
X96051272Y-45677172D01*
X97636897Y-45319325D02*
X97636897Y-43677172D01*
X95170488Y-46193658D02*
X95534786Y-46193658D01*
X97636897Y-43677172D02*
X98747272Y-42566797D01*
%TO.N,Net-(Q507-E)*%
X100017272Y-42380819D02*
X100630819Y-42380819D01*
X100630819Y-42380819D02*
X101750000Y-43500000D01*
%TO.N,Net-(Q507-C)*%
X107834772Y-33387930D02*
X104892883Y-36329819D01*
X98760885Y-40514206D02*
X97477272Y-40514206D01*
X107834772Y-31380819D02*
X107834772Y-33387930D01*
X95159772Y-38196706D02*
X97477272Y-40514206D01*
X104892883Y-36329819D02*
X102190625Y-36329819D01*
X102190625Y-36329819D02*
X100843272Y-37677172D01*
X100843272Y-37677172D02*
X100843272Y-38431819D01*
X100843272Y-38431819D02*
X98760885Y-40514206D01*
X97477272Y-40514206D02*
X97477272Y-42380819D01*
%TO.N,Net-(Q508-B)*%
X108659772Y-42380819D02*
X107336112Y-42380819D01*
X109659772Y-41380819D02*
X108659772Y-42380819D01*
X104247272Y-41773819D02*
X104247272Y-42380819D01*
X104843919Y-41177172D02*
X104247272Y-41773819D01*
X107336112Y-42380819D02*
X106132465Y-41177172D01*
X106132465Y-41177172D02*
X104843919Y-41177172D01*
%TO.N,WRITE_EN*%
X91049265Y-48549265D02*
X90500000Y-48000000D01*
X70000000Y-60500000D02*
X71322500Y-60500000D01*
X25324308Y-60635779D02*
X26268606Y-60635779D01*
X26133056Y-24867489D02*
X25412221Y-25588324D01*
X92898031Y-60750000D02*
X93286925Y-60361106D01*
X77320558Y-94360409D02*
X77444678Y-94484529D01*
X76282178Y-94360409D02*
X77320558Y-94360409D01*
X47500000Y-60500000D02*
X48921003Y-60500000D01*
X71322500Y-60500000D02*
X71478286Y-60344214D01*
X49096738Y-30281294D02*
X45750000Y-26934556D01*
X45750000Y-24867489D02*
X68750000Y-24867489D01*
X26268606Y-60635779D02*
X26326738Y-60577647D01*
X93500000Y-93000000D02*
X93500000Y-90500000D01*
X48921003Y-60500000D02*
X49043956Y-60377047D01*
X91250000Y-88250000D02*
X91250000Y-79104770D01*
X71564897Y-30282294D02*
X68750000Y-27467397D01*
X68750000Y-27467397D02*
X68750000Y-24867489D01*
X92000000Y-60750000D02*
X92898031Y-60750000D01*
X91250000Y-79104770D02*
X92204770Y-78150000D01*
X68750000Y-24867489D02*
X88490904Y-24867489D01*
X45750000Y-24867489D02*
X26133056Y-24867489D01*
X45750000Y-26934556D02*
X45750000Y-24867489D01*
X25412221Y-25588324D02*
X25412221Y-29468794D01*
X90899000Y-32653595D02*
X93362618Y-30189977D01*
X90899000Y-32653595D02*
X90899000Y-27275585D01*
X90899000Y-27275585D02*
X88490904Y-24867489D01*
X25412221Y-29468794D02*
X26225721Y-30282294D01*
X90500000Y-33052595D02*
X90899000Y-32653595D01*
X90500000Y-48000000D02*
X90500000Y-33052595D01*
X93500000Y-90500000D02*
X91250000Y-88250000D01*
%TO.N,+5V*%
X93334772Y-34196706D02*
X93334772Y-44196706D01*
X26197875Y-34289023D02*
X26197875Y-44289023D01*
X74457178Y-94360409D02*
X75596769Y-95500000D01*
X26000000Y-94500000D02*
X27151000Y-95651000D01*
X64306378Y-82000000D02*
X71450440Y-74855938D01*
X93259079Y-64367835D02*
X93259079Y-74367835D01*
X24120735Y-75120735D02*
X24120735Y-61129265D01*
X24500000Y-81014206D02*
X24500000Y-75397474D01*
X24397474Y-75397474D02*
X24120735Y-75120735D01*
X92456295Y-77049947D02*
X92456295Y-75170619D01*
X25485794Y-82000000D02*
X24500000Y-81014206D01*
X92456295Y-75170619D02*
X93259079Y-74367835D01*
X71450440Y-74855938D02*
X71450440Y-74350943D01*
X25485794Y-93985794D02*
X25485794Y-82000000D01*
X41789760Y-82000000D02*
X64306378Y-82000000D01*
X26000000Y-94500000D02*
X25485794Y-93985794D01*
X75596769Y-95500000D02*
X77317587Y-95500000D01*
X25485794Y-82000000D02*
X41789760Y-82000000D01*
X49016110Y-64383776D02*
X49016110Y-74383776D01*
X71537051Y-34289023D02*
X71537051Y-44289023D01*
X93053294Y-38196706D02*
X93334772Y-38196706D01*
X91100000Y-47250000D02*
X91100000Y-45850000D01*
X41789760Y-82000000D02*
X49016110Y-74773650D01*
X26298892Y-64584376D02*
X26298892Y-74584376D01*
X27151000Y-95651000D02*
X65247102Y-95651000D01*
X87506242Y-82000000D02*
X92456295Y-77049947D01*
X73449986Y-95367601D02*
X74457178Y-94360409D01*
X91100000Y-45850000D02*
X90901000Y-45651000D01*
X67532501Y-95367601D02*
X73449986Y-95367601D01*
X25485794Y-75397474D02*
X24397474Y-75397474D01*
X69600000Y-46226074D02*
X71537051Y-44289023D01*
X25460977Y-44289023D02*
X26197875Y-44289023D01*
X77317587Y-95500000D02*
X78457178Y-94360409D01*
X71450440Y-64350943D02*
X71450440Y-74350943D01*
X66531501Y-94366601D02*
X67532501Y-95367601D01*
X24000000Y-45750000D02*
X25460977Y-44289023D01*
X69600000Y-46250000D02*
X69600000Y-46226074D01*
X49016110Y-74773650D02*
X49016110Y-74383776D01*
X49068892Y-34288023D02*
X49068892Y-44288023D01*
X25485794Y-75397474D02*
X26298892Y-74584376D01*
X48711977Y-44288023D02*
X49068892Y-44288023D01*
X64306378Y-82000000D02*
X87506242Y-82000000D01*
X90901000Y-40349000D02*
X93053294Y-38196706D01*
X90901000Y-45651000D02*
X90901000Y-40349000D01*
X65247102Y-95651000D02*
X66531501Y-94366601D01*
X47000000Y-46000000D02*
X48711977Y-44288023D01*
%TO.N,/DFlipFlop4/D*%
X26299294Y-78596963D02*
X26299294Y-80596963D01*
X25100000Y-78250000D02*
X25952331Y-78250000D01*
X25952331Y-78250000D02*
X26299294Y-78596963D01*
%TO.N,/DFlipFlop7/D*%
X93259481Y-78380422D02*
X93259481Y-80380422D01*
X92889903Y-80750000D02*
X93259481Y-80380422D01*
X92250000Y-80750000D02*
X92889903Y-80750000D01*
X87484572Y-84165428D02*
X90650000Y-81000000D01*
X29887038Y-84165428D02*
X87484572Y-84165428D01*
%TO.N,/DFlipFlop5/D*%
X47750000Y-80500000D02*
X48912875Y-80500000D01*
X49016512Y-78396363D02*
X49016512Y-80396363D01*
X30500000Y-82750000D02*
X46750000Y-82750000D01*
X48912875Y-80500000D02*
X49016512Y-80396363D01*
%TO.N,/DFlipFlop6/D*%
X71250000Y-81400000D02*
X71250000Y-80564372D01*
X29998395Y-83373214D02*
X69976786Y-83373214D01*
X71450842Y-78363530D02*
X71450842Y-80363530D01*
X69976786Y-83373214D02*
X70750000Y-82600000D01*
X71250000Y-80564372D02*
X71450842Y-80363530D01*
%TO.N,/DFlipFlop7/Q*%
X98125914Y-69592613D02*
X99941579Y-67776948D01*
X21901000Y-54349000D02*
X90349000Y-54349000D01*
X97157387Y-69592613D02*
X98125914Y-69592613D01*
X100311204Y-66078812D02*
X102633340Y-66078812D01*
X91250000Y-69250000D02*
X92000000Y-70000000D01*
X21500000Y-54750000D02*
X21901000Y-54349000D01*
X102633340Y-66078812D02*
X102811204Y-65900948D01*
X90349000Y-54349000D02*
X91250000Y-55250000D01*
X91250000Y-55250000D02*
X91250000Y-69250000D01*
X100061204Y-66328812D02*
X100311204Y-66078812D01*
X99941579Y-67776948D02*
X99941579Y-67551948D01*
%TO.N,/DFlipFlop6/Q*%
X75636513Y-69863486D02*
X76029510Y-69863486D01*
X78502565Y-66061920D02*
X80824701Y-66061920D01*
X80824701Y-66061920D02*
X81002565Y-65884056D01*
X78252565Y-66311920D02*
X78502565Y-66061920D01*
X22500000Y-54750000D02*
X68250000Y-54750000D01*
X68750000Y-55250000D02*
X68750000Y-69000000D01*
X21500000Y-55750000D02*
X22500000Y-54750000D01*
X68250000Y-54750000D02*
X68750000Y-55250000D01*
X78132940Y-67760056D02*
X78132940Y-67535056D01*
X76029510Y-69863486D02*
X78132940Y-67760056D01*
X68750000Y-69000000D02*
X70250000Y-70500000D01*
%TO.N,/DFlipFlop4/Q*%
X33351017Y-66295353D02*
X35673153Y-66295353D01*
X18000000Y-54160000D02*
X25000000Y-61160000D01*
X31043904Y-69930977D02*
X32981392Y-67993489D01*
X32981392Y-67993489D02*
X32981392Y-67768489D01*
X30319023Y-69930977D02*
X31043904Y-69930977D01*
X25000000Y-61160000D02*
X25000000Y-70000000D01*
X35673153Y-66295353D02*
X35851017Y-66117489D01*
X33101017Y-66545353D02*
X33351017Y-66295353D01*
%TO.N,/DFlipFlop5/Q*%
X56068235Y-66094753D02*
X58390371Y-66094753D01*
X46250000Y-68250000D02*
X47750000Y-69750000D01*
X55818235Y-66344753D02*
X56068235Y-66094753D01*
X23087158Y-55162842D02*
X45662842Y-55162842D01*
X53174526Y-69825474D02*
X53674526Y-69825474D01*
X53674526Y-69825474D02*
X55698610Y-67801390D01*
X21500000Y-56750000D02*
X23087158Y-55162842D01*
X58390371Y-66094753D02*
X58568235Y-65916889D01*
X46250000Y-55750000D02*
X46250000Y-68250000D01*
X55698610Y-67801390D02*
X55698610Y-67567889D01*
X45662842Y-55162842D02*
X46250000Y-55750000D01*
%TO.N,Net-(Q601-C)*%
X28123892Y-72886283D02*
X28674037Y-73436428D01*
X28123892Y-72584376D02*
X28123892Y-72886283D01*
X39601017Y-74564842D02*
X40029830Y-74564842D01*
X40029830Y-74564842D02*
X40778331Y-73816341D01*
%TO.N,Net-(Q601-B)*%
X40101017Y-77878603D02*
X44807392Y-73172228D01*
X28124294Y-78596963D02*
X27310794Y-79410463D01*
X36676162Y-81597963D02*
X36676162Y-81489697D01*
X42711392Y-58375489D02*
X42711392Y-57768489D01*
X27310794Y-79410463D02*
X27310794Y-81282123D01*
X36676162Y-81597963D02*
X27626634Y-81597963D01*
X36676162Y-81489697D02*
X40101017Y-78064842D01*
X44807392Y-73172228D02*
X44807392Y-60471489D01*
X40101017Y-78064842D02*
X40101017Y-77878603D01*
X27310794Y-81282123D02*
X27626634Y-81597963D01*
X44807392Y-60471489D02*
X42711392Y-58375489D01*
%TO.N,Net-(Q602-C)*%
X27112392Y-63397876D02*
X27112392Y-69572876D01*
X26298892Y-62584376D02*
X27112392Y-63397876D01*
X27112392Y-69572876D02*
X28123892Y-70584376D01*
X29615392Y-77082489D02*
X30441392Y-77908489D01*
X28123892Y-70584376D02*
X29615392Y-72075876D01*
X29615392Y-72075876D02*
X29615392Y-77082489D01*
%TO.N,Net-(Q602-B)*%
X29522918Y-80596963D02*
X31711392Y-78408489D01*
X28124294Y-80596963D02*
X29522918Y-80596963D01*
X31711392Y-78408489D02*
X31711392Y-77908489D01*
%TO.N,Net-(Q602-E)*%
X34137745Y-79064842D02*
X32981392Y-77908489D01*
X37557283Y-79064842D02*
X34137745Y-79064842D01*
X39352607Y-77901887D02*
X39384025Y-77933305D01*
X38495238Y-77901887D02*
X39352607Y-77901887D01*
X38495238Y-77901887D02*
X38495238Y-78126887D01*
X38495238Y-78126887D02*
X37557283Y-79064842D01*
%TO.N,Net-(Q603-B)*%
X35115392Y-72809728D02*
X35115392Y-73335629D01*
X34601017Y-71064842D02*
X34601017Y-72295353D01*
X34601017Y-72295353D02*
X35115392Y-72809728D01*
X31434917Y-60965842D02*
X33521506Y-60965842D01*
X28151738Y-60577647D02*
X28369444Y-60795353D01*
X28369444Y-60795353D02*
X31264428Y-60795353D01*
X35599252Y-73819489D02*
X35625153Y-73819489D01*
X35625153Y-73819489D02*
X36101017Y-74295353D01*
X36601017Y-74295353D02*
X37870506Y-75564842D01*
X35115392Y-73335629D02*
X35599252Y-73819489D01*
X33521506Y-60965842D02*
X34601017Y-62045353D01*
X37870506Y-75564842D02*
X39601017Y-75564842D01*
X31264428Y-60795353D02*
X31434917Y-60965842D01*
X34601017Y-62045353D02*
X34601017Y-65564842D01*
X36101017Y-74295353D02*
X36601017Y-74295353D01*
%TO.N,Net-(Q604-C)*%
X28123892Y-74584376D02*
X28492773Y-74584376D01*
X28123892Y-74584376D02*
X28123892Y-74767044D01*
X28123892Y-74767044D02*
X26309608Y-76581328D01*
X28492773Y-74584376D02*
X29015392Y-75106995D01*
%TO.N,Net-(Q604-B)*%
X37669238Y-76850887D02*
X37225238Y-77294887D01*
X37225238Y-77294887D02*
X37225238Y-77901887D01*
X42603331Y-73816341D02*
X39568785Y-76850887D01*
X39568785Y-76850887D02*
X37669238Y-76850887D01*
%TO.N,Net-(Q605-B)*%
X31711392Y-62768489D02*
X31711392Y-63268489D01*
X29415039Y-65564842D02*
X29015392Y-65564842D01*
X31711392Y-63268489D02*
X29415039Y-65564842D01*
%TO.N,Net-(Q606-B)*%
X41520245Y-59964842D02*
X39601017Y-59964842D01*
X42623892Y-61068489D02*
X41520245Y-59964842D01*
X42623892Y-61768489D02*
X42623892Y-61068489D01*
%TO.N,Net-(Q607-C)*%
X33807392Y-68064842D02*
X33807392Y-68819489D01*
X40798892Y-63775600D02*
X37857003Y-66717489D01*
X40798892Y-61768489D02*
X40798892Y-63775600D01*
X30441392Y-70901876D02*
X30441392Y-72768489D01*
X28123892Y-68584376D02*
X30441392Y-70901876D01*
X33807392Y-68819489D02*
X31725005Y-70901876D01*
X31725005Y-70901876D02*
X30441392Y-70901876D01*
X37857003Y-66717489D02*
X35154745Y-66717489D01*
X35154745Y-66717489D02*
X33807392Y-68064842D01*
%TO.N,Net-(Q607-B)*%
X30601017Y-75706995D02*
X30601017Y-74064842D01*
X28134608Y-76581328D02*
X28498906Y-76581328D01*
X30601017Y-74064842D02*
X31711392Y-72954467D01*
X31711392Y-72954467D02*
X31711392Y-72768489D01*
X28498906Y-76581328D02*
X29015392Y-76064842D01*
%TO.N,Net-(Q607-E)*%
X32981392Y-72768489D02*
X33303647Y-72768489D01*
X33303647Y-72768489D02*
X34500000Y-73964842D01*
%TO.N,Net-(Q608-B)*%
X37211392Y-72161489D02*
X37211392Y-72768489D01*
X40300232Y-72768489D02*
X39096585Y-71564842D01*
X39096585Y-71564842D02*
X37808039Y-71564842D01*
X41623892Y-72768489D02*
X40300232Y-72768489D01*
X37808039Y-71564842D02*
X37211392Y-72161489D01*
X42623892Y-71768489D02*
X41623892Y-72768489D01*
%TO.N,Net-(Q701-C)*%
X50841110Y-72383776D02*
X50841110Y-72685683D01*
X62318235Y-74364242D02*
X62747048Y-74364242D01*
X62747048Y-74364242D02*
X63495549Y-73615741D01*
X50841110Y-72685683D02*
X51391255Y-73235828D01*
%TO.N,Net-(Q701-B)*%
X62818235Y-77864242D02*
X62818235Y-77678003D01*
X65428610Y-58174889D02*
X65428610Y-57567889D01*
X59393380Y-81289097D02*
X62818235Y-77864242D01*
X50028012Y-79209863D02*
X50028012Y-81081523D01*
X59393380Y-81397363D02*
X50343852Y-81397363D01*
X67524610Y-60270889D02*
X65428610Y-58174889D01*
X62818235Y-77678003D02*
X67524610Y-72971628D01*
X59393380Y-81397363D02*
X59393380Y-81289097D01*
X50028012Y-81081523D02*
X50343852Y-81397363D01*
X67524610Y-72971628D02*
X67524610Y-60270889D01*
X50841512Y-78396363D02*
X50028012Y-79209863D01*
%TO.N,Net-(Q702-B)*%
X54428610Y-78207889D02*
X54428610Y-77707889D01*
X52240136Y-80396363D02*
X54428610Y-78207889D01*
X50841512Y-80396363D02*
X52240136Y-80396363D01*
%TO.N,Net-(Q702-E)*%
X61212456Y-77926287D02*
X60274501Y-78864242D01*
X61212456Y-77701287D02*
X61212456Y-77926287D01*
X62069825Y-77701287D02*
X62101243Y-77732705D01*
X56854963Y-78864242D02*
X55698610Y-77707889D01*
X61212456Y-77701287D02*
X62069825Y-77701287D01*
X60274501Y-78864242D02*
X56854963Y-78864242D01*
%TO.N,Net-(Q702-C)*%
X49829610Y-69372276D02*
X50841110Y-70383776D01*
X52332610Y-76881889D02*
X53158610Y-77707889D01*
X52332610Y-71875276D02*
X52332610Y-76881889D01*
X50841110Y-70383776D02*
X52332610Y-71875276D01*
X49016110Y-62383776D02*
X49829610Y-63197276D01*
X49829610Y-63197276D02*
X49829610Y-69372276D01*
%TO.N,Net-(Q703-B)*%
X57318235Y-70864242D02*
X57318235Y-72000000D01*
X57318235Y-70864242D02*
X57318235Y-72094753D01*
X59318235Y-74094753D02*
X60587724Y-75364242D01*
X57318235Y-65364242D02*
X57318235Y-61844753D01*
X60587724Y-75364242D02*
X62318235Y-75364242D01*
X58792334Y-74094753D02*
X59318235Y-74094753D01*
X57318235Y-72620654D02*
X58792334Y-74094753D01*
X57318235Y-72000000D02*
X57318235Y-72620654D01*
X51086662Y-60594753D02*
X50868956Y-60377047D01*
X54152135Y-60765242D02*
X53981646Y-60594753D01*
X56238724Y-60765242D02*
X54152135Y-60765242D01*
X53981646Y-60594753D02*
X51086662Y-60594753D01*
X57318235Y-72000000D02*
X57318235Y-72094753D01*
X57318235Y-61844753D02*
X56238724Y-60765242D01*
%TO.N,Net-(Q704-C)*%
X50841110Y-74383776D02*
X50841110Y-74566444D01*
X51209991Y-74383776D02*
X51732610Y-74906395D01*
X50841110Y-74383776D02*
X51209991Y-74383776D01*
X50841110Y-74566444D02*
X49026826Y-76380728D01*
%TO.N,Net-(Q704-B)*%
X59942456Y-77094287D02*
X59942456Y-77701287D01*
X65320549Y-73615741D02*
X62286003Y-76650287D01*
X60386456Y-76650287D02*
X59942456Y-77094287D01*
X62286003Y-76650287D02*
X60386456Y-76650287D01*
%TO.N,Net-(Q705-B)*%
X54428610Y-63067889D02*
X52132257Y-65364242D01*
X52132257Y-65364242D02*
X51732610Y-65364242D01*
X54428610Y-62567889D02*
X54428610Y-63067889D01*
%TO.N,Net-(Q706-B)*%
X65341110Y-61567889D02*
X65341110Y-60867889D01*
X65341110Y-60867889D02*
X64237463Y-59764242D01*
X64237463Y-59764242D02*
X62318235Y-59764242D01*
%TO.N,Net-(Q707-B)*%
X53318235Y-75506395D02*
X53318235Y-73864242D01*
X53318235Y-73864242D02*
X54428610Y-72753867D01*
X54428610Y-72753867D02*
X54428610Y-72567889D01*
X51216124Y-76380728D02*
X51732610Y-75864242D01*
X50851826Y-76380728D02*
X51216124Y-76380728D01*
%TO.N,Net-(Q707-E)*%
X55698610Y-72567889D02*
X56067889Y-72567889D01*
X56067889Y-72567889D02*
X57250000Y-73750000D01*
%TO.N,Net-(Q707-C)*%
X54442223Y-70701276D02*
X53158610Y-70701276D01*
X56524610Y-68618889D02*
X54442223Y-70701276D01*
X63516110Y-61567889D02*
X63516110Y-63575000D01*
X56524610Y-67864242D02*
X56524610Y-68618889D01*
X60574221Y-66516889D02*
X57871963Y-66516889D01*
X63516110Y-63575000D02*
X60574221Y-66516889D01*
X53158610Y-70701276D02*
X53158610Y-72567889D01*
X50841110Y-68383776D02*
X53158610Y-70701276D01*
X57871963Y-66516889D02*
X56524610Y-67864242D01*
%TO.N,Net-(Q708-B)*%
X65341110Y-71567889D02*
X64341110Y-72567889D01*
X60525257Y-71364242D02*
X59928610Y-71960889D01*
X64341110Y-72567889D02*
X63017450Y-72567889D01*
X59928610Y-71960889D02*
X59928610Y-72567889D01*
X63017450Y-72567889D02*
X61813803Y-71364242D01*
X61813803Y-71364242D02*
X60525257Y-71364242D01*
%TO.N,Net-(Q801-B)*%
X73275842Y-78363530D02*
X72462342Y-79177030D01*
X72462342Y-79177030D02*
X72462342Y-81048690D01*
X87862940Y-58142056D02*
X87862940Y-57535056D01*
X89958940Y-60238056D02*
X87862940Y-58142056D01*
X81827710Y-81364530D02*
X72778182Y-81364530D01*
X81827710Y-81364530D02*
X81827710Y-81256264D01*
X72462342Y-81048690D02*
X72778182Y-81364530D01*
X85252565Y-77831409D02*
X85252565Y-77645170D01*
X81827710Y-81256264D02*
X85252565Y-77831409D01*
X85252565Y-77645170D02*
X89958940Y-72938795D01*
X89958940Y-72938795D02*
X89958940Y-60238056D01*
%TO.N,Net-(Q801-C)*%
X73275440Y-72652850D02*
X73825585Y-73202995D01*
X84752565Y-74331409D02*
X85181378Y-74331409D01*
X85181378Y-74331409D02*
X85929879Y-73582908D01*
X73275440Y-72350943D02*
X73275440Y-72652850D01*
%TO.N,Net-(Q802-C)*%
X72263940Y-69339443D02*
X73275440Y-70350943D01*
X72263940Y-63164443D02*
X72263940Y-69339443D01*
X71450440Y-62350943D02*
X72263940Y-63164443D01*
X74766940Y-76849056D02*
X75592940Y-77675056D01*
X74766940Y-71842443D02*
X74766940Y-76849056D01*
X73275440Y-70350943D02*
X74766940Y-71842443D01*
%TO.N,Net-(Q802-B)*%
X74674466Y-80363530D02*
X76862940Y-78175056D01*
X76862940Y-78175056D02*
X76862940Y-77675056D01*
X73275842Y-80363530D02*
X74674466Y-80363530D01*
%TO.N,Net-(Q802-E)*%
X83646786Y-77893454D02*
X82708831Y-78831409D01*
X84504155Y-77668454D02*
X84535573Y-77699872D01*
X83646786Y-77668454D02*
X84504155Y-77668454D01*
X82708831Y-78831409D02*
X79289293Y-78831409D01*
X83646786Y-77668454D02*
X83646786Y-77893454D01*
X79289293Y-78831409D02*
X78132940Y-77675056D01*
%TO.N,Net-(Q803-B)*%
X79752565Y-72587821D02*
X81226664Y-74061920D01*
X81752565Y-74061920D02*
X83022054Y-75331409D01*
X78673054Y-60732409D02*
X76586465Y-60732409D01*
X81226664Y-74061920D02*
X81752565Y-74061920D01*
X79752565Y-70831409D02*
X79752565Y-72587821D01*
X83022054Y-75331409D02*
X84752565Y-75331409D01*
X76586465Y-60732409D02*
X76415976Y-60561920D01*
X79752565Y-61811920D02*
X78673054Y-60732409D01*
X76415976Y-60561920D02*
X73520992Y-60561920D01*
X73520992Y-60561920D02*
X73303286Y-60344214D01*
X79752565Y-65331409D02*
X79752565Y-61811920D01*
%TO.N,Net-(Q804-C)*%
X73275440Y-74350943D02*
X73644321Y-74350943D01*
X73644321Y-74350943D02*
X74166940Y-74873562D01*
X73275440Y-74533611D02*
X71461156Y-76347895D01*
X73275440Y-74350943D02*
X73275440Y-74533611D01*
%TO.N,Net-(Q804-B)*%
X82820786Y-76617454D02*
X82376786Y-77061454D01*
X82376786Y-77061454D02*
X82376786Y-77668454D01*
X87754879Y-73582908D02*
X84720333Y-76617454D01*
X84720333Y-76617454D02*
X82820786Y-76617454D01*
%TO.N,Net-(Q805-B)*%
X76862940Y-63035056D02*
X74566587Y-65331409D01*
X74566587Y-65331409D02*
X74166940Y-65331409D01*
X76862940Y-62535056D02*
X76862940Y-63035056D01*
%TO.N,Net-(Q806-B)*%
X87775440Y-61535056D02*
X87775440Y-60835056D01*
X86671793Y-59731409D02*
X84752565Y-59731409D01*
X87775440Y-60835056D02*
X86671793Y-59731409D01*
%TO.N,Net-(Q807-E)*%
X78132940Y-72535056D02*
X78553647Y-72535056D01*
X78553647Y-72535056D02*
X79750000Y-73731409D01*
%TO.N,Net-(Q807-C)*%
X73275440Y-68350943D02*
X75592940Y-70668443D01*
X76876553Y-70668443D02*
X75592940Y-70668443D01*
X85950440Y-63542167D02*
X83008551Y-66484056D01*
X75592940Y-70668443D02*
X75592940Y-72535056D01*
X78958940Y-68586056D02*
X76876553Y-70668443D01*
X80306293Y-66484056D02*
X78958940Y-67831409D01*
X85950440Y-61535056D02*
X85950440Y-63542167D01*
X83008551Y-66484056D02*
X80306293Y-66484056D01*
X78958940Y-67831409D02*
X78958940Y-68586056D01*
%TO.N,Net-(Q807-B)*%
X73650454Y-76347895D02*
X74166940Y-75831409D01*
X73286156Y-76347895D02*
X73650454Y-76347895D01*
X75752565Y-75473562D02*
X75752565Y-73831409D01*
X75752565Y-73831409D02*
X76862940Y-72721034D01*
X76862940Y-72721034D02*
X76862940Y-72535056D01*
%TO.N,Net-(Q808-B)*%
X82362940Y-71928056D02*
X82362940Y-72535056D01*
X87775440Y-71535056D02*
X86775440Y-72535056D01*
X82959587Y-71331409D02*
X82362940Y-71928056D01*
X85451780Y-72535056D02*
X84248133Y-71331409D01*
X84248133Y-71331409D02*
X82959587Y-71331409D01*
X86775440Y-72535056D02*
X85451780Y-72535056D01*
%TO.N,Net-(Q901-B)*%
X94270981Y-79193922D02*
X94270981Y-81065582D01*
X103636349Y-81381422D02*
X103636349Y-81273156D01*
X95084481Y-78380422D02*
X94270981Y-79193922D01*
X111767579Y-60254948D02*
X109671579Y-58158948D01*
X103636349Y-81273156D02*
X107061204Y-77848301D01*
X107061204Y-77848301D02*
X107061204Y-77662062D01*
X94270981Y-81065582D02*
X94586821Y-81381422D01*
X109671579Y-58158948D02*
X109671579Y-57551948D01*
X103636349Y-81381422D02*
X94586821Y-81381422D01*
X111767579Y-72955687D02*
X111767579Y-60254948D01*
X107061204Y-77662062D02*
X111767579Y-72955687D01*
%TO.N,Net-(Q901-C)*%
X106990017Y-74348301D02*
X107738518Y-73599800D01*
X95084079Y-72367835D02*
X95084079Y-72669742D01*
X95084079Y-72669742D02*
X95634224Y-73219887D01*
X106561204Y-74348301D02*
X106990017Y-74348301D01*
%TO.N,Net-(Q902-E)*%
X105455425Y-77685346D02*
X105455425Y-77910346D01*
X104517470Y-78848301D02*
X101097932Y-78848301D01*
X105455425Y-77910346D02*
X104517470Y-78848301D01*
X101097932Y-78848301D02*
X99941579Y-77691948D01*
X105455425Y-77685346D02*
X106312794Y-77685346D01*
X106312794Y-77685346D02*
X106344212Y-77716764D01*
%TO.N,Net-(Q902-B)*%
X95084481Y-80380422D02*
X96483105Y-80380422D01*
X96483105Y-80380422D02*
X98671579Y-78191948D01*
X98671579Y-78191948D02*
X98671579Y-77691948D01*
%TO.N,Net-(Q902-C)*%
X94072579Y-63181335D02*
X94072579Y-69356335D01*
X95084079Y-70367835D02*
X96575579Y-71859335D01*
X96575579Y-76865948D02*
X97401579Y-77691948D01*
X96575579Y-71859335D02*
X96575579Y-76865948D01*
X93259079Y-62367835D02*
X94072579Y-63181335D01*
X94072579Y-69356335D02*
X95084079Y-70367835D01*
%TO.N,Net-(Q903-B)*%
X102075579Y-72825579D02*
X102075579Y-73119088D01*
X102075579Y-73119088D02*
X102559439Y-73602948D01*
X100481693Y-60749301D02*
X98395104Y-60749301D01*
X101561204Y-72311204D02*
X102075579Y-72825579D01*
X104598301Y-75348301D02*
X106561204Y-75348301D01*
X95329631Y-60578812D02*
X95111925Y-60361106D01*
X101561204Y-61828812D02*
X100481693Y-60749301D01*
X102559439Y-73602948D02*
X102852948Y-73602948D01*
X98224615Y-60578812D02*
X95329631Y-60578812D01*
X101561204Y-65348301D02*
X101561204Y-61828812D01*
X98395104Y-60749301D02*
X98224615Y-60578812D01*
X101561204Y-70848301D02*
X101561204Y-72311204D01*
X102852948Y-73602948D02*
X104598301Y-75348301D01*
%TO.N,Net-(Q904-B)*%
X104629425Y-76634346D02*
X104185425Y-77078346D01*
X109563518Y-73599800D02*
X106528972Y-76634346D01*
X106528972Y-76634346D02*
X104629425Y-76634346D01*
X104185425Y-77078346D02*
X104185425Y-77685346D01*
%TO.N,Net-(Q904-C)*%
X95084079Y-74367835D02*
X95452960Y-74367835D01*
X95452960Y-74367835D02*
X95975579Y-74890454D01*
X95084079Y-74367835D02*
X95084079Y-74550503D01*
X95084079Y-74550503D02*
X93269795Y-76364787D01*
%TO.N,Net-(Q905-B)*%
X96375226Y-65348301D02*
X95975579Y-65348301D01*
X98671579Y-63051948D02*
X96375226Y-65348301D01*
X98671579Y-62551948D02*
X98671579Y-63051948D01*
%TO.N,Net-(Q906-B)*%
X108480432Y-59748301D02*
X106561204Y-59748301D01*
X109584079Y-60851948D02*
X108480432Y-59748301D01*
X109584079Y-61551948D02*
X109584079Y-60851948D01*
%TO.N,Net-(Q907-B)*%
X95459093Y-76364787D02*
X95975579Y-75848301D01*
X95094795Y-76364787D02*
X95459093Y-76364787D01*
X98671579Y-72737926D02*
X98671579Y-72551948D01*
X97561204Y-73848301D02*
X98671579Y-72737926D01*
X97561204Y-75490454D02*
X97561204Y-73848301D01*
%TO.N,Net-(Q907-C)*%
X104817190Y-66500948D02*
X102114932Y-66500948D01*
X97401579Y-70685335D02*
X97401579Y-72551948D01*
X95084079Y-68367835D02*
X97401579Y-70685335D01*
X100767579Y-68602948D02*
X98685192Y-70685335D01*
X100767579Y-67848301D02*
X100767579Y-68602948D01*
X102114932Y-66500948D02*
X100767579Y-67848301D01*
X98685192Y-70685335D02*
X97401579Y-70685335D01*
X107759079Y-61551948D02*
X107759079Y-63559059D01*
X107759079Y-63559059D02*
X104817190Y-66500948D01*
%TO.N,Net-(Q907-E)*%
X99941579Y-72551948D02*
X101137932Y-73748301D01*
X101137932Y-73748301D02*
X101500000Y-73748301D01*
%TO.N,Net-(Q908-B)*%
X109584079Y-71551948D02*
X108584079Y-72551948D01*
X107260419Y-72551948D02*
X106056772Y-71348301D01*
X104768226Y-71348301D02*
X104171579Y-71944948D01*
X108584079Y-72551948D02*
X107260419Y-72551948D01*
X104171579Y-71944948D02*
X104171579Y-72551948D01*
X106056772Y-71348301D02*
X104768226Y-71348301D01*
%TO.N,Net-(J103-Pin_1)*%
X62584774Y-94389804D02*
X48610196Y-94389804D01*
X48610196Y-94389804D02*
X48500000Y-94500000D01*
%TO.N,Net-(Q104-B)*%
X64409774Y-94389804D02*
X65799578Y-93000000D01*
X84500000Y-92410000D02*
X84399000Y-92309000D01*
X65799578Y-93000000D02*
X69156002Y-93000000D01*
X69197593Y-92958409D02*
X81500000Y-92958409D01*
X84399000Y-92309000D02*
X82149409Y-92309000D01*
X82149409Y-92309000D02*
X81500000Y-92958409D01*
X84500000Y-93360000D02*
X84500000Y-92410000D01*
%TO.N,NREAD_EN*%
X71564897Y-28282294D02*
X71564897Y-26273484D01*
X27039221Y-30967454D02*
X26718652Y-31288023D01*
X93286925Y-56352296D02*
X93290920Y-56348301D01*
X84855000Y-94500000D02*
X85770000Y-93585000D01*
X90359940Y-55208470D02*
X90200735Y-55049265D01*
X69363693Y-93359409D02*
X81359409Y-93359409D01*
X49500000Y-55912193D02*
X49047951Y-56364242D01*
X23149000Y-53749000D02*
X25000000Y-53749000D01*
X89575735Y-90833265D02*
X89575735Y-90058409D01*
X92000000Y-26250000D02*
X93293785Y-26250000D01*
X71299403Y-26000000D02*
X71568892Y-26269489D01*
X49043956Y-58377047D02*
X49043956Y-56368237D01*
X26225721Y-28282294D02*
X27039221Y-29095794D01*
X93293785Y-26250000D02*
X93366613Y-26177172D01*
X26326738Y-56568837D02*
X26330733Y-56564842D01*
X93362618Y-26181167D02*
X93366613Y-26177172D01*
X90691619Y-53749000D02*
X93290920Y-56348301D01*
X71750000Y-55000000D02*
X71750000Y-56063690D01*
X49043956Y-56368237D02*
X49047951Y-56364242D01*
X26718652Y-31288023D02*
X25700215Y-31288023D01*
X68356501Y-94366601D02*
X69363693Y-93359409D01*
X26326738Y-58577647D02*
X26326738Y-56568837D01*
X49082244Y-26250000D02*
X49100733Y-26268489D01*
X70250000Y-26000000D02*
X71299403Y-26000000D01*
X71750000Y-56063690D02*
X71482281Y-56331409D01*
X27039221Y-29095794D02*
X27039221Y-30967454D01*
X47750000Y-26250000D02*
X49082244Y-26250000D01*
X26225721Y-28282294D02*
X26225721Y-26273484D01*
X93362618Y-28189977D02*
X93362618Y-26181167D01*
X23799000Y-33189238D02*
X23799000Y-35750000D01*
X71478286Y-58344214D02*
X71478286Y-56335404D01*
X71478286Y-56335404D02*
X71482281Y-56331409D01*
X22900000Y-53500000D02*
X23149000Y-53749000D01*
X45250000Y-22650000D02*
X45250000Y-22767489D01*
X89207875Y-79500000D02*
X90359940Y-78347935D01*
X90359940Y-78347935D02*
X90359940Y-55208470D01*
X93286925Y-58361106D02*
X93286925Y-56352296D01*
X49096738Y-26272484D02*
X49100733Y-26268489D01*
X49500000Y-55350000D02*
X49500000Y-55912193D01*
X26225721Y-26273484D02*
X26229716Y-26269489D01*
X87500000Y-92909000D02*
X89575735Y-90833265D01*
X71564897Y-26273484D02*
X71568892Y-26269489D01*
X88750000Y-79500000D02*
X89207875Y-79500000D01*
X25000000Y-56500000D02*
X26265891Y-56500000D01*
X90250000Y-53749000D02*
X90691619Y-53749000D01*
X25700215Y-31288023D02*
X23799000Y-33189238D01*
X85770000Y-93585000D02*
X85770000Y-93360000D01*
X26265891Y-56500000D02*
X26330733Y-56564842D01*
X49096738Y-28281294D02*
X49096738Y-26272484D01*
X81359409Y-93359409D02*
X82500000Y-94500000D01*
X45250000Y-22767489D02*
X46750000Y-24267489D01*
X82500000Y-94500000D02*
X84855000Y-94500000D01*
%TO.N,Net-(Q205-C)*%
X38494228Y-39269489D02*
X34500000Y-39269489D01*
X28524488Y-34289023D02*
X30340375Y-32473136D01*
X41511375Y-40659636D02*
X40697875Y-41473136D01*
X41511375Y-38293747D02*
X41511375Y-40659636D01*
X40697875Y-37480247D02*
X41511375Y-38293747D01*
X40697875Y-41473136D02*
X38494228Y-39269489D01*
X28022875Y-34289023D02*
X28524488Y-34289023D01*
%TO.N,Net-(Q209-B)*%
X42522875Y-39480247D02*
X43289242Y-39480247D01*
X43289242Y-39480247D02*
X43500000Y-39269489D01*
%TO.N,Net-(Q209-C)*%
X29156262Y-36289023D02*
X30340375Y-37473136D01*
X28022875Y-36289023D02*
X29156262Y-36289023D01*
%TO.N,Net-(Q210-B)*%
X39789242Y-36480247D02*
X39500000Y-36769489D01*
X39500000Y-38230511D02*
X39206375Y-38524136D01*
X39206375Y-38524136D02*
X37554375Y-38524136D01*
X39500000Y-36769489D02*
X39500000Y-38230511D01*
X42522875Y-35480247D02*
X41522875Y-36480247D01*
X41522875Y-36480247D02*
X39789242Y-36480247D01*
X37110375Y-38080136D02*
X37110375Y-37473136D01*
X37554375Y-38524136D02*
X37110375Y-38080136D01*
%TO.N,Net-(Q211-B)*%
X37110375Y-26973136D02*
X37110375Y-27473136D01*
X27241216Y-25584329D02*
X27557056Y-25268489D01*
X28050721Y-28282294D02*
X27241216Y-27472789D01*
X27241216Y-27472789D02*
X27241216Y-25584329D01*
X35405728Y-25268489D02*
X37110375Y-26973136D01*
X27557056Y-25268489D02*
X35405728Y-25268489D01*
%TO.N,Net-(Q211-C)*%
X42812117Y-37769489D02*
X42522875Y-37480247D01*
X39710758Y-39480247D02*
X39500000Y-39269489D01*
X43500000Y-37769489D02*
X42812117Y-37769489D01*
X40697875Y-39480247D02*
X39710758Y-39480247D01*
%TO.N,Net-(Q212-C)*%
X42522875Y-33480247D02*
X41709375Y-32666747D01*
X42522875Y-33480247D02*
X42522875Y-33655247D01*
X31500000Y-30269489D02*
X30340375Y-29109864D01*
X41709375Y-32666747D02*
X41709375Y-30985976D01*
X41709375Y-30985976D02*
X40992888Y-30269489D01*
X42522875Y-33655247D02*
X40697875Y-35480247D01*
X40992888Y-30269489D02*
X31500000Y-30269489D01*
X30340375Y-29109864D02*
X30340375Y-27473136D01*
%TO.N,Net-(Q212-B)*%
X28054716Y-26269489D02*
X30906728Y-26269489D01*
X31610375Y-26973136D02*
X31610375Y-27473136D01*
X30906728Y-26269489D02*
X31610375Y-26973136D01*
%TO.N,Net-(Q305-C)*%
X61365245Y-39268489D02*
X57371017Y-39268489D01*
X64382392Y-38292747D02*
X64382392Y-40658636D01*
X63568892Y-41472136D02*
X61365245Y-39268489D01*
X50893892Y-34288023D02*
X51395505Y-34288023D01*
X63568892Y-37479247D02*
X64382392Y-38292747D01*
X64382392Y-40658636D02*
X63568892Y-41472136D01*
X51395505Y-34288023D02*
X53211392Y-32472136D01*
%TO.N,Net-(Q309-B)*%
X66160259Y-39479247D02*
X66371017Y-39268489D01*
X65393892Y-39479247D02*
X66160259Y-39479247D01*
%TO.N,Net-(Q309-C)*%
X52027279Y-36288023D02*
X53211392Y-37472136D01*
X50893892Y-36288023D02*
X52027279Y-36288023D01*
%TO.N,Net-(Q310-B)*%
X60425392Y-38523136D02*
X59981392Y-38079136D01*
X62660259Y-36479247D02*
X62371017Y-36768489D01*
X65393892Y-35479247D02*
X64393892Y-36479247D01*
X62371017Y-38229511D02*
X62077392Y-38523136D01*
X62077392Y-38523136D02*
X60425392Y-38523136D01*
X59981392Y-38079136D02*
X59981392Y-37472136D01*
X64393892Y-36479247D02*
X62660259Y-36479247D01*
X62371017Y-36768489D02*
X62371017Y-38229511D01*
%TO.N,Net-(Q311-B)*%
X50428073Y-25267489D02*
X58276745Y-25267489D01*
X50112233Y-27471789D02*
X50112233Y-25583329D01*
X50921738Y-28281294D02*
X50112233Y-27471789D01*
X58276745Y-25267489D02*
X59981392Y-26972136D01*
X59981392Y-26972136D02*
X59981392Y-27472136D01*
X50112233Y-25583329D02*
X50428073Y-25267489D01*
%TO.N,Net-(Q311-C)*%
X62581775Y-39479247D02*
X62371017Y-39268489D01*
X65683134Y-37768489D02*
X65393892Y-37479247D01*
X66371017Y-37768489D02*
X65683134Y-37768489D01*
X63568892Y-39479247D02*
X62581775Y-39479247D01*
%TO.N,Net-(Q312-B)*%
X50925733Y-26268489D02*
X53777745Y-26268489D01*
X54481392Y-26972136D02*
X54481392Y-27472136D01*
X53777745Y-26268489D02*
X54481392Y-26972136D01*
%TO.N,Net-(Q312-C)*%
X63863905Y-30268489D02*
X54371017Y-30268489D01*
X64580392Y-30984976D02*
X63863905Y-30268489D01*
X65393892Y-33479247D02*
X64580392Y-32665747D01*
X64580392Y-32665747D02*
X64580392Y-30984976D01*
X65393892Y-33654247D02*
X63568892Y-35479247D01*
X65393892Y-33479247D02*
X65393892Y-33654247D01*
X54371017Y-30268489D02*
X53211392Y-29108864D01*
X53211392Y-29108864D02*
X53211392Y-27472136D01*
%TO.N,Net-(Q405-C)*%
X83833404Y-39269489D02*
X79839176Y-39269489D01*
X86037051Y-37480247D02*
X86850551Y-38293747D01*
X86850551Y-40659636D02*
X86037051Y-41473136D01*
X86037051Y-41473136D02*
X83833404Y-39269489D01*
X73362051Y-34289023D02*
X73863664Y-34289023D01*
X73863664Y-34289023D02*
X75679551Y-32473136D01*
X86850551Y-38293747D02*
X86850551Y-40659636D01*
%TO.N,Net-(Q409-C)*%
X73362051Y-36289023D02*
X74495438Y-36289023D01*
X74495438Y-36289023D02*
X75679551Y-37473136D01*
%TO.N,Net-(Q409-B)*%
X87862051Y-39480247D02*
X88628418Y-39480247D01*
X88628418Y-39480247D02*
X88839176Y-39269489D01*
%TO.N,Net-(Q410-B)*%
X85128418Y-36480247D02*
X84839176Y-36769489D01*
X84545551Y-38524136D02*
X82893551Y-38524136D01*
X84839176Y-36769489D02*
X84839176Y-38230511D01*
X84839176Y-38230511D02*
X84545551Y-38524136D01*
X87862051Y-35480247D02*
X86862051Y-36480247D01*
X82893551Y-38524136D02*
X82449551Y-38080136D01*
X86862051Y-36480247D02*
X85128418Y-36480247D01*
X82449551Y-38080136D02*
X82449551Y-37473136D01*
%TO.N,Net-(Q411-C)*%
X88151293Y-37769489D02*
X87862051Y-37480247D01*
X88839176Y-37769489D02*
X88151293Y-37769489D01*
X86037051Y-39480247D02*
X85049934Y-39480247D01*
X85049934Y-39480247D02*
X84839176Y-39269489D01*
%TO.N,Net-(Q411-B)*%
X82449551Y-26973136D02*
X82449551Y-27473136D01*
X72580392Y-27472789D02*
X72580392Y-25584329D01*
X72580392Y-25584329D02*
X72896232Y-25268489D01*
X80744904Y-25268489D02*
X82449551Y-26973136D01*
X73389897Y-28282294D02*
X72580392Y-27472789D01*
X72896232Y-25268489D02*
X80744904Y-25268489D01*
%TO.N,Net-(Q412-B)*%
X76245904Y-26269489D02*
X76949551Y-26973136D01*
X73393892Y-26269489D02*
X76245904Y-26269489D01*
X76949551Y-26973136D02*
X76949551Y-27473136D01*
%TO.N,Net-(Q412-C)*%
X87862051Y-33655247D02*
X86037051Y-35480247D01*
X75679551Y-29109864D02*
X75679551Y-27473136D01*
X76839176Y-30269489D02*
X75679551Y-29109864D01*
X87048551Y-30985976D02*
X86332064Y-30269489D01*
X87862051Y-33480247D02*
X87862051Y-33655247D01*
X87048551Y-32666747D02*
X87048551Y-30985976D01*
X87862051Y-33480247D02*
X87048551Y-32666747D01*
X86332064Y-30269489D02*
X76839176Y-30269489D01*
%TO.N,Net-(Q505-C)*%
X105631125Y-39177172D02*
X101636897Y-39177172D01*
X107834772Y-37387930D02*
X108648272Y-38201430D01*
X108648272Y-38201430D02*
X108648272Y-40567319D01*
X95661385Y-34196706D02*
X97477272Y-32380819D01*
X107834772Y-41380819D02*
X105631125Y-39177172D01*
X108648272Y-40567319D02*
X107834772Y-41380819D01*
X95159772Y-34196706D02*
X95661385Y-34196706D01*
%TO.N,Net-(Q509-B)*%
X110426139Y-39387930D02*
X110636897Y-39177172D01*
X109659772Y-39387930D02*
X110426139Y-39387930D01*
%TO.N,Net-(Q509-C)*%
X95159772Y-36196706D02*
X96293159Y-36196706D01*
X96293159Y-36196706D02*
X97477272Y-37380819D01*
%TO.N,Net-(Q510-B)*%
X104691272Y-38431819D02*
X104247272Y-37987819D01*
X106636897Y-38138194D02*
X106343272Y-38431819D01*
X106343272Y-38431819D02*
X104691272Y-38431819D01*
X109659772Y-35387930D02*
X108659772Y-36387930D01*
X104247272Y-37987819D02*
X104247272Y-37380819D01*
X106926139Y-36387930D02*
X106636897Y-36677172D01*
X108659772Y-36387930D02*
X106926139Y-36387930D01*
X106636897Y-36677172D02*
X106636897Y-38138194D01*
%TO.N,Net-(Q511-C)*%
X107834772Y-39387930D02*
X106847655Y-39387930D01*
X106847655Y-39387930D02*
X106636897Y-39177172D01*
X109949014Y-37677172D02*
X109659772Y-37387930D01*
X110636897Y-37677172D02*
X109949014Y-37677172D01*
%TO.N,Net-(Q511-B)*%
X94378113Y-27380472D02*
X94378113Y-25492012D01*
X102542625Y-25176172D02*
X104247272Y-26880819D01*
X94693953Y-25176172D02*
X102542625Y-25176172D01*
X94378113Y-25492012D02*
X94693953Y-25176172D01*
X104247272Y-26880819D02*
X104247272Y-27380819D01*
X95187618Y-28189977D02*
X94378113Y-27380472D01*
%TO.N,Net-(Q512-B)*%
X98043625Y-26177172D02*
X98747272Y-26880819D01*
X95191613Y-26177172D02*
X98043625Y-26177172D01*
X98747272Y-26880819D02*
X98747272Y-27380819D01*
%TO.N,Net-(Q512-C)*%
X109659772Y-33387930D02*
X109659772Y-33562930D01*
X109659772Y-33387930D02*
X108846272Y-32574430D01*
X108846272Y-32574430D02*
X108846272Y-30893659D01*
X98636897Y-30177172D02*
X97477272Y-29017547D01*
X108846272Y-30893659D02*
X108129785Y-30177172D01*
X97477272Y-29017547D02*
X97477272Y-27380819D01*
X108129785Y-30177172D02*
X98636897Y-30177172D01*
X109659772Y-33562930D02*
X107834772Y-35387930D01*
%TO.N,Net-(Q605-C)*%
X41612392Y-68589100D02*
X41612392Y-70954989D01*
X28625505Y-64584376D02*
X30441392Y-62768489D01*
X40798892Y-67775600D02*
X41612392Y-68589100D01*
X40798892Y-71768489D02*
X38595245Y-69564842D01*
X28123892Y-64584376D02*
X28625505Y-64584376D01*
X41612392Y-70954989D02*
X40798892Y-71768489D01*
X38595245Y-69564842D02*
X34601017Y-69564842D01*
%TO.N,Net-(Q609-B)*%
X43390259Y-69775600D02*
X43601017Y-69564842D01*
X42623892Y-69775600D02*
X43390259Y-69775600D01*
%TO.N,Net-(Q609-C)*%
X28123892Y-66584376D02*
X29257279Y-66584376D01*
X29257279Y-66584376D02*
X30441392Y-67768489D01*
%TO.N,Net-(Q610-B)*%
X39307392Y-68819489D02*
X37655392Y-68819489D01*
X37211392Y-68375489D02*
X37211392Y-67768489D01*
X37655392Y-68819489D02*
X37211392Y-68375489D01*
X39601017Y-67064842D02*
X39601017Y-68525864D01*
X39890259Y-66775600D02*
X39601017Y-67064842D01*
X41623892Y-66775600D02*
X39890259Y-66775600D01*
X42623892Y-65775600D02*
X41623892Y-66775600D01*
X39601017Y-68525864D02*
X39307392Y-68819489D01*
%TO.N,Net-(Q611-C)*%
X43601017Y-68064842D02*
X42913134Y-68064842D01*
X38839903Y-61250000D02*
X39307392Y-61717489D01*
X40798892Y-69775600D02*
X39811775Y-69775600D01*
X39811775Y-69775600D02*
X39601017Y-69564842D01*
X36250000Y-61250000D02*
X38839903Y-61250000D01*
X39307392Y-61717489D02*
X39307392Y-64192608D01*
X39307392Y-64192608D02*
X39250000Y-64250000D01*
X42913134Y-68064842D02*
X42623892Y-67775600D01*
%TO.N,Net-(Q611-B)*%
X37211392Y-57268489D02*
X37211392Y-57768489D01*
X27658073Y-55563842D02*
X35506745Y-55563842D01*
X35506745Y-55563842D02*
X37211392Y-57268489D01*
X27342233Y-57768142D02*
X27342233Y-55879682D01*
X27342233Y-55879682D02*
X27658073Y-55563842D01*
X28151738Y-58577647D02*
X27342233Y-57768142D01*
%TO.N,Net-(Q612-B)*%
X31007745Y-56564842D02*
X31711392Y-57268489D01*
X31711392Y-57268489D02*
X31711392Y-57768489D01*
X28155733Y-56564842D02*
X31007745Y-56564842D01*
%TO.N,Net-(Q612-C)*%
X42623892Y-63775600D02*
X42623892Y-63950600D01*
X41810392Y-61281329D02*
X41093905Y-60564842D01*
X42623892Y-63950600D02*
X40798892Y-65775600D01*
X41810392Y-62962100D02*
X41810392Y-61281329D01*
X31601017Y-60564842D02*
X30441392Y-59405217D01*
X41093905Y-60564842D02*
X31601017Y-60564842D01*
X30441392Y-59405217D02*
X30441392Y-57768489D01*
X42623892Y-63775600D02*
X41810392Y-62962100D01*
%TO.N,Net-(Q705-C)*%
X50841110Y-64383776D02*
X51342723Y-64383776D01*
X61312463Y-69364242D02*
X57318235Y-69364242D01*
X51342723Y-64383776D02*
X53158610Y-62567889D01*
X64329610Y-68388500D02*
X64329610Y-70754389D01*
X63516110Y-67575000D02*
X64329610Y-68388500D01*
X64329610Y-70754389D02*
X63516110Y-71567889D01*
X63516110Y-71567889D02*
X61312463Y-69364242D01*
%TO.N,Net-(Q709-C)*%
X51974497Y-66383776D02*
X53158610Y-67567889D01*
X50841110Y-66383776D02*
X51974497Y-66383776D01*
%TO.N,Net-(Q709-B)*%
X65341110Y-69575000D02*
X66107477Y-69575000D01*
X66107477Y-69575000D02*
X66318235Y-69364242D01*
%TO.N,Net-(Q710-B)*%
X65341110Y-65575000D02*
X64341110Y-66575000D01*
X60372610Y-68618889D02*
X59928610Y-68174889D01*
X59928610Y-68174889D02*
X59928610Y-67567889D01*
X62318235Y-68325264D02*
X62024610Y-68618889D01*
X62607477Y-66575000D02*
X62318235Y-66864242D01*
X62024610Y-68618889D02*
X60372610Y-68618889D01*
X64341110Y-66575000D02*
X62607477Y-66575000D01*
X62318235Y-66864242D02*
X62318235Y-68325264D01*
%TO.N,Net-(Q711-B)*%
X50375291Y-55363242D02*
X58223963Y-55363242D01*
X50868956Y-58377047D02*
X50059451Y-57567542D01*
X50059451Y-55679082D02*
X50375291Y-55363242D01*
X58223963Y-55363242D02*
X59928610Y-57067889D01*
X50059451Y-57567542D02*
X50059451Y-55679082D01*
X59928610Y-57067889D02*
X59928610Y-57567889D01*
%TO.N,Net-(Q711-C)*%
X63516110Y-69575000D02*
X62528993Y-69575000D01*
X58500000Y-61250000D02*
X61757721Y-61250000D01*
X62528993Y-69575000D02*
X62318235Y-69364242D01*
X61757721Y-61250000D02*
X62024610Y-61516889D01*
X62024610Y-63975390D02*
X62000000Y-64000000D01*
X66318235Y-67864242D02*
X65630352Y-67864242D01*
X65630352Y-67864242D02*
X65341110Y-67575000D01*
X62024610Y-61516889D02*
X62024610Y-63975390D01*
%TO.N,Net-(Q712-B)*%
X50872951Y-56364242D02*
X53724963Y-56364242D01*
X53724963Y-56364242D02*
X54428610Y-57067889D01*
X54428610Y-57067889D02*
X54428610Y-57567889D01*
%TO.N,Net-(Q712-C)*%
X54318235Y-60364242D02*
X53158610Y-59204617D01*
X64527610Y-61080729D02*
X63811123Y-60364242D01*
X64527610Y-62761500D02*
X64527610Y-61080729D01*
X65341110Y-63575000D02*
X64527610Y-62761500D01*
X63811123Y-60364242D02*
X54318235Y-60364242D01*
X65341110Y-63750000D02*
X63516110Y-65575000D01*
X53158610Y-59204617D02*
X53158610Y-57567889D01*
X65341110Y-63575000D02*
X65341110Y-63750000D01*
%TO.N,Net-(Q805-C)*%
X86763940Y-70721556D02*
X85950440Y-71535056D01*
X86763940Y-68355667D02*
X86763940Y-70721556D01*
X85950440Y-67542167D02*
X86763940Y-68355667D01*
X83746793Y-69331409D02*
X79752565Y-69331409D01*
X85950440Y-71535056D02*
X83746793Y-69331409D01*
X73777053Y-64350943D02*
X75592940Y-62535056D01*
X73275440Y-64350943D02*
X73777053Y-64350943D01*
%TO.N,Net-(Q809-B)*%
X87775440Y-69542167D02*
X88541807Y-69542167D01*
X88541807Y-69542167D02*
X88752565Y-69331409D01*
%TO.N,Net-(Q809-C)*%
X74408827Y-66350943D02*
X75592940Y-67535056D01*
X73275440Y-66350943D02*
X74408827Y-66350943D01*
%TO.N,Net-(Q810-B)*%
X84458940Y-68586056D02*
X82806940Y-68586056D01*
X84752565Y-66831409D02*
X84752565Y-68292431D01*
X84752565Y-68292431D02*
X84458940Y-68586056D01*
X85041807Y-66542167D02*
X84752565Y-66831409D01*
X87775440Y-65542167D02*
X86775440Y-66542167D01*
X86775440Y-66542167D02*
X85041807Y-66542167D01*
X82806940Y-68586056D02*
X82362940Y-68142056D01*
X82362940Y-68142056D02*
X82362940Y-67535056D01*
%TO.N,Net-(Q811-B)*%
X80658293Y-55330409D02*
X82362940Y-57035056D01*
X73303286Y-58344214D02*
X72493781Y-57534709D01*
X72493781Y-57534709D02*
X72493781Y-55646249D01*
X82362940Y-57035056D02*
X82362940Y-57535056D01*
X72493781Y-55646249D02*
X72809621Y-55330409D01*
X72809621Y-55330409D02*
X80658293Y-55330409D01*
%TO.N,Net-(Q811-C)*%
X84963323Y-69542167D02*
X84752565Y-69331409D01*
X85950440Y-69542167D02*
X84963323Y-69542167D01*
X88064682Y-67831409D02*
X87775440Y-67542167D01*
X81164744Y-64000000D02*
X84500000Y-64000000D01*
X80266940Y-61733060D02*
X80266940Y-63102196D01*
X80750000Y-61250000D02*
X80266940Y-61733060D01*
X80266940Y-63102196D02*
X81164744Y-64000000D01*
X88752565Y-67831409D02*
X88064682Y-67831409D01*
%TO.N,Net-(Q812-B)*%
X73307281Y-56331409D02*
X76159293Y-56331409D01*
X76159293Y-56331409D02*
X76862940Y-57035056D01*
X76862940Y-57035056D02*
X76862940Y-57535056D01*
%TO.N,Net-(Q812-C)*%
X76752565Y-60331409D02*
X75592940Y-59171784D01*
X86961940Y-62728667D02*
X86961940Y-61047896D01*
X87775440Y-63542167D02*
X86961940Y-62728667D01*
X87775440Y-63717167D02*
X85950440Y-65542167D01*
X87775440Y-63542167D02*
X87775440Y-63717167D01*
X75592940Y-59171784D02*
X75592940Y-57535056D01*
X86961940Y-61047896D02*
X86245453Y-60331409D01*
X86245453Y-60331409D02*
X76752565Y-60331409D01*
%TO.N,Net-(Q905-C)*%
X108572579Y-70738448D02*
X107759079Y-71551948D01*
X95585692Y-64367835D02*
X97401579Y-62551948D01*
X95084079Y-64367835D02*
X95585692Y-64367835D01*
X107759079Y-67559059D02*
X108572579Y-68372559D01*
X108572579Y-68372559D02*
X108572579Y-70738448D01*
X105555432Y-69348301D02*
X101561204Y-69348301D01*
X107759079Y-71551948D02*
X105555432Y-69348301D01*
%TO.N,Net-(Q909-B)*%
X109584079Y-69559059D02*
X110350446Y-69559059D01*
X110350446Y-69559059D02*
X110561204Y-69348301D01*
%TO.N,Net-(Q909-C)*%
X96217466Y-66367835D02*
X97401579Y-67551948D01*
X95084079Y-66367835D02*
X96217466Y-66367835D01*
%TO.N,Net-(Q910-B)*%
X108584079Y-66559059D02*
X106850446Y-66559059D01*
X104171579Y-68158948D02*
X104171579Y-67551948D01*
X106850446Y-66559059D02*
X106561204Y-66848301D01*
X109584079Y-65559059D02*
X108584079Y-66559059D01*
X104615579Y-68602948D02*
X104171579Y-68158948D01*
X106561204Y-68309323D02*
X106267579Y-68602948D01*
X106267579Y-68602948D02*
X104615579Y-68602948D01*
X106561204Y-66848301D02*
X106561204Y-68309323D01*
%TO.N,Net-(Q911-C)*%
X102075579Y-63119088D02*
X102956491Y-64000000D01*
X106771962Y-69559059D02*
X106561204Y-69348301D01*
X102956491Y-64000000D02*
X106250000Y-64000000D01*
X109873321Y-67848301D02*
X109584079Y-67559059D01*
X110561204Y-67848301D02*
X109873321Y-67848301D01*
X102075579Y-61924421D02*
X102075579Y-63119088D01*
X102750000Y-61250000D02*
X102075579Y-61924421D01*
X107759079Y-69559059D02*
X106771962Y-69559059D01*
%TO.N,Net-(Q911-B)*%
X95111925Y-58361106D02*
X94302420Y-57551601D01*
X102466932Y-55347301D02*
X104171579Y-57051948D01*
X94302420Y-55663141D02*
X94618260Y-55347301D01*
X94618260Y-55347301D02*
X102466932Y-55347301D01*
X104171579Y-57051948D02*
X104171579Y-57551948D01*
X94302420Y-57551601D02*
X94302420Y-55663141D01*
%TO.N,Net-(Q912-B)*%
X98671579Y-57051948D02*
X98671579Y-57551948D01*
X97967932Y-56348301D02*
X98671579Y-57051948D01*
X95115920Y-56348301D02*
X97967932Y-56348301D01*
%TO.N,Net-(Q912-C)*%
X109584079Y-63559059D02*
X108770579Y-62745559D01*
X97401579Y-59188676D02*
X97401579Y-57551948D01*
X108054092Y-60348301D02*
X98561204Y-60348301D01*
X108770579Y-62745559D02*
X108770579Y-61064788D01*
X109584079Y-63559059D02*
X109584079Y-63734059D01*
X109584079Y-63734059D02*
X107759079Y-65559059D01*
X108770579Y-61064788D02*
X108054092Y-60348301D01*
X98561204Y-60348301D02*
X97401579Y-59188676D01*
%TD*%
M02*
